<?xml version="1.0" encoding="UTF-8" standalone="no"?>
<!-- Creator: CorelDRAW -->

<svg
   xmlns:dc="http://purl.org/dc/elements/1.1/"
   xmlns:cc="http://creativecommons.org/ns#"
   xmlns:rdf="http://www.w3.org/1999/02/22-rdf-syntax-ns#"
   xmlns:svg="http://www.w3.org/2000/svg"
   xmlns="http://www.w3.org/2000/svg"
   xmlns:sodipodi="http://sodipodi.sourceforge.net/DTD/sodipodi-0.dtd"
   xmlns:inkscape="http://www.inkscape.org/namespaces/inkscape"
   xml:space="preserve"
   width="2414px"
   height="2414px"
   shape-rendering="geometricPrecision"
   text-rendering="geometricPrecision"
   image-rendering="optimizeQuality"
   fill-rule="evenodd"
   clip-rule="evenodd"
   viewBox="0 0 2177.77 2177.77"
   id="svg3547"
   version="1.1"
   inkscape:version="0.91 r13725"
   sodipodi:docname="BBFC_15.svg"><metadata
     id="metadata3861"><rdf:RDF><cc:Work
         rdf:about=""><dc:format>image/svg+xml</dc:format><dc:type
           rdf:resource="http://purl.org/dc/dcmitype/StillImage" /></cc:Work></rdf:RDF></metadata><defs
     id="defs3859" /><sodipodi:namedview
     pagecolor="#ffffff"
     bordercolor="#666666"
     borderopacity="1"
     objecttolerance="10"
     gridtolerance="10"
     guidetolerance="10"
     inkscape:pageopacity="0"
     inkscape:pageshadow="2"
     inkscape:window-width="1600"
     inkscape:window-height="837"
     id="namedview3857"
     showgrid="false"
     inkscape:zoom="4.68"
     inkscape:cx="1207"
     inkscape:cy="-23.02651"
     inkscape:window-x="-8"
     inkscape:window-y="-8"
     inkscape:window-maximized="1"
     inkscape:current-layer="svg3547" /><g
     id="Ebene_x0020_1"><metadata
       id="CorelCorpID_0Corel-Layer" /><path
       fill="white"
       stroke="#1F1A17"
       stroke-width="6.39043"
       d="M2161.69 1088.88c0,592.488 -480.312,1072.81 -1072.8,1072.81 -592.483,0 -1072.81,-480.317 -1072.81,-1072.8 0,-592.488 480.317,-1072.81 1072.81,-1072.81 592.488,0 1072.8,480.317 1072.8,1072.8z"
       id="path3551" /><path
       d="m 190.441,1088.91 c 0,-495.443 403.032,-898.487 898.449,-898.487 495.395,0 898.466,403.044 898.466,898.487 0,495.395 -403.07,898.433 -898.466,898.433 -495.411,0 -898.449,-403.037 -898.449,-898.433 z m 898.449,965.493 c 532.374,0 965.509,-433.141 965.509,-965.493 0,-532.422 -433.141,-965.536 -965.509,-965.536 -532.39,-0.005 -965.515,433.119 -965.515,965.536 0.005,532.353 433.119,965.493 965.515,965.493 z"
       id="path3553"
       style="fill:#ec192d"
       inkscape:connector-curvature="0" /><path
       d="m 994.499,2117.75 c -10.4813,-0.9601 -17.1541,-8.9479 -16.081,-20.7377 1.07306,-11.8271 9.05444,-18.4787 19.5517,-17.5185 10.476,0.9228 17.1488,8.9095 16.0757,20.7367 -1.0667,11.7909 -9.0544,18.4414 -19.5464,17.5196 z m 7.9068,-14.6009 c -0.552,3.0679 -3.10518,4.2486 -6.21142,3.9534 -4.02799,-0.3325 -6.31904,-4.2859 -5.87894,-9.1674 0.46674,-5.2087 3.05189,-8.1636 7.28448,-7.7938 2.77268,0.2578 5.24598,1.625 5.54648,4.8431 l 6.2647,0.5531 c -0.4987,-7.097 -5.0478,-11.1622 -11.25922,-11.7206 -8.75927,-0.7726 -14.7448,4.9945 -15.5173,13.5662 -0.74059,8.3138 4.35513,15.3032 12.9855,16.0757 6.00792,0.52 11.69932,-2.7312 13.32432,-9.7194 l -6.5386,-0.5903 z m -32.04381,-6.8763 c -1.27127,14.2301 9.27396,26.9108 23.5424,28.2034 14.23011,1.2925 26.90551,-9.2793 28.17671,-23.5424 1.2979,-14.2312 -9.2527,-26.9055 -23.52111,-28.1661 -14.2258,-1.2926 -26.9055,9.2419 -28.198,23.5051 z"
       id="path3555"
       style="fill:#ec192d"
       inkscape:connector-curvature="0" /><path
       d="m 1023.73,2126.02 40.7615,1.6996 0.4987,-11.9017 -22.6313,-0.9611 0,-0.1439 14.0436,-8.7657 c 5.2833,-3.2128 9.3816,-7.5359 9.6437,-13.8166 0.2579,-6.0238 -3.7328,-15.154 -19.1436,-15.7816 -11.5863,-0.4827 -18.8708,5.5039 -21.7351,11.9348 l 10.1115,5.7287 c 1.6464,-4.3231 5.262,-8.3884 10.2128,-8.2009 3.7712,0.1822 6.2487,2.6608 6.0985,6.5013 -0.1439,3.4376 -4.4894,7.4283 -6.7421,9.129 l -20.7313,15.4481 -0.3868,9.1301 z"
       id="path3557"
       style="fill:#ec192d"
       inkscape:connector-curvature="0" /><path
       d="m 1100.72,2102.92 c 0.076,13.4586 -2.7727,16.2697 -7.0586,16.2697 -4.3231,0.032 -7.1715,-2.7418 -7.2471,-16.1887 -0.053,-13.4586 2.7737,-16.226 7.0969,-16.2633 4.2858,0 7.1502,2.7727 7.2088,16.1823 z m -28.9972,0.1503 c 0.059,16.3709 9.4455,25.7258 21.9706,25.6512 12.5145,-0.038 21.8097,-9.4999 21.7351,-25.8336 -0.037,-10.4269 -5.4719,-25.7631 -21.976,-25.6875 -16.4785,0.075 -21.7831,15.4854 -21.7298,25.8698 z"
       id="path3559"
       style="fill:#ec192d"
       inkscape:connector-curvature="0" /><path
       d="m 1147.16,2101.37 c 0.666,13.4149 -2.0534,16.3379 -6.3446,16.5584 -4.2859,0.1875 -7.2792,-2.4413 -7.9441,-15.8562 -0.6607,-13.4533 2.0321,-16.3709 6.3393,-16.5531 4.3082,-0.2248 7.2791,2.3976 7.9494,15.8509 z m -28.9599,1.4045 c 0.7939,16.3336 10.5889,25.2804 23.0981,24.6538 12.4921,-0.5904 21.359,-10.46 20.5491,-26.7936 -0.5147,-10.3896 -6.6355,-25.468 -23.097,-24.6528 -16.4838,0.8098 -21.0702,16.4082 -20.5502,26.7925 z"
       id="path3561"
       style="fill:#ec192d"
       inkscape:connector-curvature="0" /><path
       d="m 1168.02,2125.06 40.6209,-3.8404 -1.1477,-11.9081 -22.545,2.145 0,-0.1129 12.6754,-10.6038 c 4.8432,-3.9161 8.2979,-8.7593 7.6862,-15.0037 -0.5519,-6.0292 -5.7659,-14.488 -21.1234,-13.0505 -11.548,1.1103 -17.9428,8.025 -19.8842,14.8204 l 10.7978,4.2912 c 1.0304,-4.5108 4.061,-9.0534 8.9958,-9.4988 3.7701,-0.3709 6.5599,1.7753 6.9296,5.5837 0.3165,3.4323 -3.4376,7.9814 -5.4548,9.9773 l -18.4254,18.1078 0.8749,9.0928 z"
       id="path3563"
       style="fill:#ec192d"
       inkscape:connector-curvature="0" /><path
       fill="#E77666"
       d="M909.637 1850.33l48.7909 0 0 71.9955 0.58928 0c6.95201,-7.24185 19.5837,-12.3749 29.529,-12.3749 33.3961,-0.00532802 51.4346,33.0423 51.8054,76.0661 -16.9985,-0.912158 -33.8521,-2.33367 -50.5875,-4.17824 0,-29.481 -0.166234,-44.8002 -15.0783,-44.8002 -5.98657,0 -10.5346,3.65822 -13.5279,6.06116l-2.73008 2.69811 0 32.0289c-16.4146,-2.38163 -32.6778,-5.19269 -48.7909,-8.46517l0 -119.031z"
       id="path3565" /><path
       fill="#EB8E82"
       d="M1012.39 1850.33l48.7855 0 0 71.9955 0.58928 0c6.90938,-7.24185 19.5848,-12.3749 29.529,-12.3749 33.2671,-0.00532802 51.2961,32.8483 51.7628,75.7016 -16.747,1.00273 -33.6007,1.56644 -50.5768,1.64103l0 -4.46275c0,-30.1236 -0.00532802,-45.7922 -15.0463,-45.7922 -6.02386,0 -10.5346,3.65822 -13.5652,6.06116l-2.69278 2.69811 0 41.0727c-16.3709,-0.521081 -32.6352,-1.45988 -48.7855,-2.82705l0 -133.713z"
       id="path3567" /><path
       fill="#EFA59B"
       d="M1116.46 1947.86l-19.8458 0 0 -34.2976 19.8458 0 0 -16.8472c0,-37.033 18.3668,-50.6365 50.5992,-50.6365 9.64372,0 16.8856,0.928142 24.722,1.85096l0 37.3217c-2.73541,-0.627641 -6.35633,-1.21159 -9.05444,-1.21159 -12.3418,-0.00532802 -17.4812,3.91503 -17.4812,12.9695l0 16.5531 26.5357 0 0 34.2976 -26.5357 0 0 36.1911c-16.145,1.36184 -32.4146,2.30597 -48.7855,2.82172l0 -39.0129z"
       id="path3569" /><path
       d="M1242.08 1969.89c0,-6.02386 -0.337797,-13.2657 -2.40294,-18.956 -2.43491,-6.06755 -6.31797,-10.2405 -14.1555,-10.2405 -14.1821,0 -17.3736,15.0197 -17.964,38.7763 -17.2767,2.28998 -34.7046,4.09832 -52.2658,5.40155 2.63844,-38.5674 25.4573,-74.9237 68.7123,-74.9237 47.9586,-0.00532802 58.1991,38.4055 59.4597,56.0913 -6.03452,1.34053 -12.0904,2.63844 -18.1686,3.85642l-23.2153 -0.00532802z"
       id="path3571"
       fill="#F3B9B1" /><path
       fill="#F7D2CD"
       d="M1262.85 1970c0.535999,0 1.05708,0.0170497 1.58242,0.0596739 -3.43871,0.68625 -6.89766,1.3352 -10.3524,1.98416 2.63418,-1.31389 5.62639,-2.04383 8.76993,-2.04383z"
       id="path3573" /><path
       fill="#E77666"
       d="M909.637 1603.22l48.7909 0 0 71.9955 0.58928 0c6.95201,-7.24718 19.5837,-12.3429 29.529,-12.3429 33.7445,-0.00532802 51.8161,33.7019 51.8161,77.3917 0.00532802,34.6236 -14.4507,79.1606 -55.437,79.1606 -18.956,0 -31.3043,-9.01608 -40.9533,-23.4668l-9.01715 21.6595 -25.3177 0 0 -214.398zm48.7909 165.945c-0.890846,12.6381 6.64511,19.5517 15.9628,19.5517 13.5598,0 15.3735,-13.5279 15.3735,-41.5437l0.00532802 -11.4574c0,-30.1183 -0.00532802,-45.7549 -15.0836,-45.7549 -5.98657,0 -10.5346,3.62093 -13.5279,6.02386l-2.73008 2.69811 0 70.4823z"
       id="path3575" /><path
       fill="#EB8E82"
       d="M1012.39 1603.22l48.7855 0 0 71.9955 0.58928 0c6.90938,-7.24718 19.5848,-12.3429 29.529,-12.3429 33.7072,-0.00532802 51.7788,33.7019 51.7788,77.3917 0,34.6236 -14.456,79.1606 -55.4051,79.1606 -18.9933,0 -31.3416,-9.01608 -40.9853,-23.4668l-9.01715 21.6595 -25.2751 0 0 -214.398zm48.7855 165.945c-0.928142,12.6381 6.61314,19.5517 15.9628,19.5517 13.5279,0 15.3362,-13.5279 15.3362,-41.5437l0.00532802 -11.4574c0,-30.1183 -0.00532802,-45.7549 -15.0463,-45.7549 -6.02386,0 -10.5346,3.62093 -13.5652,6.02386l-2.69278 2.69811 0 70.4823z"
       id="path3577" /><path
       fill="#EFA59B"
       d="M1116.46 1700.79l-19.8458 0 0 -34.3349 19.8458 0 0 -16.8536c0,-37.0319 18.3668,-50.5981 50.5992,-50.5981 9.64372,0 16.8856,0.928142 24.722,1.81366l0 37.3271c-2.73541,-0.594608 -6.35633,-1.17962 -9.05444,-1.17962 -12.3418,-0.00532802 -17.4812,3.87774 -17.4812,12.9322l0 16.5584 26.5357 0 0 34.3349 -26.5357 0 0 116.828 -48.7855 0 0 -116.828z"
       id="path3579" /><path
       fill="#F3B9B1"
       d="M1242.08 1722.78c0,-6.01854 -0.337797,-13.2284 -2.40294,-18.9571 -2.43491,-6.06116 -6.31797,-10.2394 -14.1555,-10.2394 -16.2952,0 -18.0759,19.8522 -18.0759,49.9705 0,34.0344 5.39622,45.1646 18.0759,45.1646 17.1541,0 18.6619,-17.4429 18.6619,-28.9003l37.9227 5.43352c-3.58256,36.7325 -24.6901,56.0263 -60.2099,56.0263 -43.9743,0 -66.8571,-38.5451 -66.8571,-75.9105 0,-41.2496 22.8775,-82.4927 68.9649,-82.4927 51.8214,-0.00532802 59.6153,44.8268 59.6153,59.9104l-41.5394 -0.00532802z"
       id="path3581" /><path
       fill="#F7D2CD"
       d="M1262.85 1722.89c10.7924,0 19.6274,8.83493 19.6274,19.6647 0,10.7924 -8.83493,19.6593 -19.6274,19.6593 -10.867,0 -19.6647,-8.8669 -19.6647,-19.6593 0.00532802,-10.8297 8.79763,-19.6647 19.6647,-19.6647z"
       id="path3583" /><path
       fill="#E77666"
       d="M909.637 1356.12l48.7909 0 0 71.9571 0.58928 0c6.95201,-7.24079 19.5837,-12.3418 29.529,-12.3418 33.7445,0 51.8161,33.7445 51.8161,77.3906 0.00532802,34.63 -14.4507,79.2043 -55.437,79.2043 -18.956,-0.00532802 -31.3043,-9.01608 -40.9533,-23.504l-9.01715 21.7287 -25.3177 0 0 -214.435zm48.7909 165.907c-0.890846,12.6754 6.64511,19.6263 15.9628,19.6263 13.5598,-0.00532802 15.3735,-13.6024 15.3735,-41.581l0.00532802 -11.4574c0,-30.081 -0.00532802,-45.7549 -15.0836,-45.7549 -5.98657,0 -10.5346,3.58896 -13.5279,6.02386l-2.73008 2.69811 0 70.445z"
       id="path3585" /><path
       fill="#EB8E82"
       d="M1012.39 1356.12l48.7855 0 0 71.9571 0.58928 0c6.90938,-7.24079 19.5848,-12.3418 29.529,-12.3418 33.7072,0 51.7788,33.7445 51.7788,77.3906 0,34.63 -14.456,79.2043 -55.4051,79.2043 -18.9933,-0.00532802 -31.3416,-9.01608 -40.9853,-23.504l-9.01715 21.7287 -25.2751 0 0 -214.435zm48.7855 165.907c-0.928142,12.6754 6.61314,19.6263 15.9628,19.6263 13.5279,-0.00532802 15.3362,-13.6024 15.3362,-41.581l0.00532802 -11.4574c0,-30.081 -0.00532802,-45.7549 -15.0463,-45.7549 -6.02386,0 -10.5346,3.58896 -13.5652,6.02386l-2.69278 2.69811 0 70.445z"
       id="path3587" /><path
       fill="#EFA59B"
       d="M1116.46 1453.69l-19.8458 0 0 -34.3349 19.8458 0 0 -16.8536c0,-37.033 18.3668,-50.5928 50.5992,-50.5928 9.64372,-0.00532802 16.8856,0.885518 24.722,1.7753l0 37.3601c-2.73541,-0.627641 -6.35633,-1.21692 -9.05444,-1.21692 -12.3418,0 -17.4812,3.95233 -17.4812,12.9748l0 16.5531 26.5357 0 0 34.3349 -26.5357 0 0 116.865 -48.7855 0 0 -116.865z"
       id="path3589" /><path
       fill="#F3B9B1"
       d="M1242.08 1475.64c0,-5.99083 -0.337797,-13.2327 -2.40294,-18.9614 -2.43491,-5.98657 -6.31797,-10.2341 -14.1555,-10.2341 -16.2952,0 -18.0759,19.8842 -18.0759,50.0024 0,34.0024 5.39622,45.2019 18.0759,45.2019 17.1541,-0.00532802 18.6619,-17.4802 18.6619,-28.9759l37.9227 5.43352c-3.58256,36.7708 -24.6901,56.0274 -60.2099,56.0274 -43.9743,0 -66.8571,-38.5461 -66.8571,-75.8732 0,-41.2869 22.8775,-82.53 68.9649,-82.53 51.8214,0 59.6153,44.8694 59.6153,59.9094l-41.5394 0z"
       id="path3591" /><path
       fill="#F7D2CD"
       d="M1262.85 1475.76c10.7924,0 19.6274,8.8296 19.6274,19.6966 0,10.7924 -8.83493,19.6647 -19.6274,19.6647 -10.867,0 -19.6647,-8.87223 -19.6647,-19.6647 0.00532802,-10.867 8.79763,-19.6966 19.6647,-19.6966z"
       id="path3593" /><path
       fill="#E77666"
       d="M909.637 1109.05l48.7909 0 0 71.9571 0.58928 0c6.95201,-7.20349 19.5837,-12.3418 29.529,-12.3418 33.7445,0 51.8161,33.7072 51.8161,77.3906 0.00532802,34.5927 -14.4507,79.167 -55.437,79.167 -18.956,-0.00532802 -31.3043,-9.01608 -40.9533,-23.4668l-9.01715 21.6542 -25.3177 0 0 -214.36zm48.7909 165.907c-0.890846,12.6434 6.64511,19.5517 15.9628,19.5517 13.5598,0 15.3735,-13.5652 15.3735,-41.5383l0.00532802 -11.4627c0,-30.1193 -0.00532802,-45.7549 -15.0836,-45.7549 -5.98657,0 -10.5346,3.62625 -13.5279,6.02919l-2.73008 2.69278 0 70.4823z"
       id="path3595" /><path
       fill="#EB8E82"
       d="M1012.39 1109.05l48.7855 0 0 71.9571 0.58928 0c6.90938,-7.20349 19.5848,-12.3418 29.529,-12.3418 33.7072,0 51.7788,33.7072 51.7788,77.3906 0,34.5927 -14.456,79.167 -55.4051,79.167 -18.9933,-0.00532802 -31.3416,-9.01608 -40.9853,-23.4668l-9.01715 21.6542 -25.2751 0 0 -214.36zm48.7855 165.907c-0.928142,12.6434 6.61314,19.5517 15.9628,19.5517 13.5279,0 15.3362,-13.5652 15.3362,-41.5383l0.00532802 -11.4627c0,-30.1193 -0.00532802,-45.7549 -15.0463,-45.7549 -6.02386,0 -10.5346,3.62625 -13.5652,6.02919l-2.69278 2.69278 0 70.4823z"
       id="path3597" /><path
       fill="#EFA59B"
       d="M1116.46 1206.58l-19.8458 0 0 -34.2976 19.8458 0 0 -16.8536c0,-37.0319 18.3668,-50.5928 50.5992,-50.5928 9.64372,0 16.8856,0.885518 24.722,1.76997l0 37.3654c-2.73541,-0.627641 -6.35633,-1.21692 -9.05444,-1.21692 -12.3418,0 -17.4812,3.91503 -17.4812,12.9695l0 16.5584 26.5357 0 0 34.2976 -26.5357 0 0 116.828 -48.7855 0 0 -116.828z"
       id="path3599" /><path
       fill="#F3B9B1"
       d="M1242.08 1228.57c0,-6.0228 -0.337797,-13.2646 -2.40294,-18.956 -2.43491,-6.02919 -6.31797,-10.2394 -14.1555,-10.2394 -16.2952,0 -18.0759,19.8469 -18.0759,49.9651 0,34.0397 5.39622,45.1646 18.0759,45.1646 17.1541,0 18.6619,-17.444 18.6619,-28.9013l37.9227 5.39622c-3.58256,36.7762 -24.6901,56.0274 -60.2099,56.0274 -43.9743,0 -66.8571,-38.5461 -66.8571,-75.8732 0,-41.2496 22.8775,-82.4927 68.9649,-82.4927 51.8214,0 59.6153,44.8321 59.6153,59.9094l-41.5394 0z"
       id="path3601" /><path
       fill="#F7D2CD"
       d="M1262.85 1228.69c10.7924,0 19.6274,8.83493 19.6274,19.6593 0,10.7924 -8.83493,19.6647 -19.6274,19.6647 -10.867,-0.00639363 -19.6647,-8.87223 -19.6647,-19.6647 0.00532802,-10.8297 8.79763,-19.6593 19.6647,-19.6593z"
       id="path3603" /><path
       fill="#EB8E82"
       d="M612.542 1850.33l14.9547 0 0 9.21002c-5.02539,-3.0146 -9.99857,-6.09952 -14.9547,-9.21002z"
       id="path3605" /><path
       fill="#EFA59B"
       d="M682.976 1890.28c2.06514,-32.1887 20.1208,-44.1992 50.4052,-44.1992 9.61282,0 16.8536,0.928142 24.6901,1.85096l0 37.3217c-2.69811,-0.627641 -6.3233,-1.21159 -9.02141,-1.21159 -12.3802,-0.00532802 -17.4812,3.91503 -17.4812,12.9695l0.00532802 16.1407c-16.4519,-7.16086 -32.6725,-14.7725 -48.598,-22.8721zm49.5421 23.2845l25.5532 0 0 10.6529c-8.58771,-3.411 -17.0944,-6.98291 -25.5532,-10.6529z"
       id="path3607" /><path
       fill="#F3B9B1"
       d="M752.353 1921.88c10.1541,-7.47202 22.8189,-11.9294 37.9824,-11.9294 39.0661,-0.00532802 53.1087,25.5212 57.6524,44.5423 -32.6608,-9.10772 -64.5714,-20.0185 -95.6348,-32.6128z"
       id="path3609" /><path
       fill="#E77666"
       d="M475.964 1603.22l48.7855 0 0 71.9955 0.595673 0c6.94028,-7.24718 19.5837,-12.3429 29.5226,-12.3429 33.7125,-0.00532802 51.7788,33.7019 51.7788,77.3917 0.00532802,30.6873 -11.3551,69.1471 -42.4452,77.5036 -30.9494,-22.3404 -60.4145,-46.6074 -88.2374,-72.6071l0 -141.941zm48.7855 165.945c-0.922814,12.6381 6.61421,19.5517 15.9628,19.5517 13.5289,0 15.3415,-13.5279 15.3415,-41.5437l0 -11.4574c0,-30.1183 0,-45.7549 -15.041,-45.7549 -6.02919,0 -10.5346,3.62093 -13.5652,6.02386l-2.69811 2.69811 0 70.4823z"
       id="path3611" /><path
       fill="#EB8E82"
       d="M578.674 1603.22l48.8228 0 0 71.9955 0.590345 0c6.91364,-7.24718 19.5464,-12.3429 29.4906,-12.3429 33.7456,-0.00532802 51.7788,33.7019 51.7788,77.3917 0,34.6236 -14.4507,79.1606 -55.3987,79.1606 -18.9571,0 -31.3043,-9.01608 -40.9491,-23.4668l-9.05444 21.6595 -25.2804 0 0 -214.398zm48.8228 165.945c-0.922814,12.6381 6.61421,19.5517 15.9255,19.5517 13.5662,0 15.3788,-13.5279 15.3788,-41.5437l0 -11.4574c0,-30.1183 0,-45.7549 -15.0836,-45.7549 -6.01854,0 -10.5292,3.62093 -13.5225,6.02386l-2.69811 2.69811 0 70.4823z"
       id="path3613" /><path
       fill="#EFA59B"
       d="M682.783 1700.79l-19.8789 0 0 -34.3349 19.8789 0 0 -16.8536c0,-37.0319 18.371,-50.5981 50.5981,-50.5981 9.61282,0 16.8536,0.928142 24.6901,1.81366l0 37.3271c-2.69811,-0.594608 -6.3233,-1.17962 -9.02141,-1.17962 -12.3802,-0.00532802 -17.4812,3.87774 -17.4812,12.9322l0.00532802 16.5584 26.4973 0 0 34.3349 -26.4973 0 0 116.828 -48.7909 0 0 -116.828z"
       id="path3615" /><path
       fill="#F3B9B1"
       d="M808.407 1722.78c0,-6.01854 -0.332469,-13.2284 -2.44024,-18.9571 -2.39761,-6.06116 -6.31904,-10.2394 -14.1555,-10.2394 -16.259,0 -18.0716,19.8522 -18.0716,49.9705 0.00532802,34.0344 5.43352,45.1646 18.0716,45.1646 17.1914,0 18.6662,-17.4429 18.6662,-28.9003l37.9558 5.43352c-3.6156,36.7325 -24.6911,56.0263 -60.2429,56.0263 -43.9413,0 -66.8188,-38.5451 -66.8188,-75.9105 0,-41.2496 22.8775,-82.4927 68.9638,-82.4927 51.7841,-0.00532802 59.6153,44.8268 59.6153,59.9104l-41.5437 -0.00532802z"
       id="path3617" /><path
       fill="#F7D2CD"
       d="M829.144 1722.89c10.8308,0 19.6593,8.83493 19.6593,19.6647 0.00532802,10.7924 -8.83386,19.6593 -19.6647,19.6593 -10.8244,0 -19.621,-8.8669 -19.621,-19.6593 0,-10.8297 8.79657,-19.6647 19.6263,-19.6647z"
       id="path3619" /><path
       fill="#E77666"
       d="M475.964 1356.12l48.7855 0 0 71.9571 0.595673 0c6.94028,-7.24079 19.5837,-12.3418 29.5226,-12.3418 33.7125,0 51.7788,33.7445 51.7788,77.3906 0.00532802,34.63 -14.4453,79.2043 -55.3987,79.2043 -18.9624,-0.00532802 -31.3416,-9.01608 -40.9491,-23.504l-9.05444 21.7287 -25.2804 0 0 -214.435zm48.7855 165.907c-0.922814,12.6754 6.61421,19.6263 15.9628,19.6263 13.5289,-0.00532802 15.3415,-13.6024 15.3415,-41.581l0 -11.4574c0,-30.081 0,-45.7549 -15.041,-45.7549 -6.02919,0 -10.5346,3.58896 -13.5652,6.02386l-2.69811 2.69811 0 70.445z"
       id="path3621" /><path
       fill="#EB8E82"
       d="M578.674 1356.12l48.8228 0 0 71.9571 0.590345 0c6.91364,-7.24079 19.5464,-12.3418 29.4906,-12.3418 33.7456,0 51.7788,33.7445 51.7788,77.3906 0,34.63 -14.4507,79.2043 -55.3987,79.2043 -18.9571,-0.00532802 -31.3043,-9.01608 -40.9491,-23.504l-9.05444 21.7287 -25.2804 0 0 -214.435zm48.8228 165.907c-0.922814,12.6754 6.61421,19.6263 15.9255,19.6263 13.5662,-0.00532802 15.3788,-13.6024 15.3788,-41.581l0 -11.4574c0,-30.081 0,-45.7549 -15.0836,-45.7549 -6.01854,0 -10.5292,3.58896 -13.5225,6.02386l-2.69811 2.69811 0 70.445z"
       id="path3623" /><path
       fill="#EFA59B"
       d="M682.783 1453.69l-19.8789 0 0 -34.3349 19.8789 0 0 -16.8536c0,-37.033 18.371,-50.5928 50.5981,-50.5928 9.61282,-0.00532802 16.8536,0.885518 24.6901,1.7753l0 37.3601c-2.69811,-0.627641 -6.3233,-1.21692 -9.02141,-1.21692 -12.3802,0 -17.4812,3.95233 -17.4812,12.9748l0.00532802 16.5531 26.4973 0 0 34.3349 -26.4973 0 0 116.865 -48.7909 0 0 -116.865z"
       id="path3625" /><path
       fill="#F3B9B1"
       d="M808.407 1475.64c0,-5.99083 -0.332469,-13.2327 -2.44024,-18.9614 -2.39761,-5.98657 -6.31904,-10.2341 -14.1555,-10.2341 -16.259,0 -18.0716,19.8842 -18.0716,50.0024 0.00532802,34.0024 5.43352,45.2019 18.0716,45.2019 17.1914,-0.00532802 18.6662,-17.4802 18.6662,-28.9759l37.9558 5.43352c-3.6156,36.7708 -24.6911,56.0274 -60.2429,56.0274 -43.9413,0 -66.8188,-38.5461 -66.8188,-75.8732 0,-41.2869 22.8775,-82.53 68.9638,-82.53 51.7841,0 59.6153,44.8694 59.6153,59.9094l-41.5437 0z"
       id="path3627" /><path
       fill="#F7D2CD"
       d="M829.144 1475.76c10.8308,0 19.6593,8.8296 19.6593,19.6966 0.00532802,10.7924 -8.83386,19.6647 -19.6647,19.6647 -10.8244,0 -19.621,-8.87223 -19.621,-19.6647 0,-10.867 8.79657,-19.6966 19.6263,-19.6966z"
       id="path3629" /><path
       fill="#E77666"
       d="M475.964 1109.05l48.7855 0 0 71.9571 0.595673 0c6.94028,-7.20349 19.5837,-12.3418 29.5226,-12.3418 33.7125,0 51.7788,33.7072 51.7788,77.3906 0.00532802,34.5927 -14.4453,79.167 -55.3987,79.167 -18.9624,-0.00532802 -31.3416,-9.01608 -40.9491,-23.4668l-9.05444 21.6542 -25.2804 0 0 -214.36zm48.7855 165.907c-0.922814,12.6434 6.61421,19.5517 15.9628,19.5517 13.5289,0 15.3415,-13.5652 15.3415,-41.5383l0 -11.4627c0,-30.1193 0,-45.7549 -15.041,-45.7549 -6.02919,0 -10.5346,3.62625 -13.5652,6.02919l-2.69811 2.69278 0 70.4823z"
       id="path3631" /><path
       fill="#EB8E82"
       d="M578.674 1109.05l48.8228 0 0 71.9571 0.590345 0c6.91364,-7.20349 19.5464,-12.3418 29.4906,-12.3418 33.7456,0 51.7788,33.7072 51.7788,77.3906 0,34.5927 -14.4507,79.167 -55.3987,79.167 -18.9571,-0.00532802 -31.3043,-9.01608 -40.9491,-23.4668l-9.05444 21.6542 -25.2804 0 0 -214.36zm48.8228 165.907c-0.922814,12.6434 6.61421,19.5517 15.9255,19.5517 13.5662,0 15.3788,-13.5652 15.3788,-41.5383l0 -11.4627c0,-30.1193 0,-45.7549 -15.0836,-45.7549 -6.01854,0 -10.5292,3.62625 -13.5225,6.02919l-2.69811 2.69278 0 70.4823z"
       id="path3633" /><path
       fill="#EFA59B"
       d="M682.783 1206.58l-19.8789 0 0 -34.2976 19.8789 0 0 -16.8536c0,-37.0319 18.371,-50.5928 50.5981,-50.5928 9.61282,0 16.8536,0.885518 24.6901,1.76997l0 37.3654c-2.69811,-0.627641 -6.3233,-1.21692 -9.02141,-1.21692 -12.3802,0 -17.4812,3.91503 -17.4812,12.9695l0.00532802 16.5584 26.4973 0 0 34.2976 -26.4973 0 0 116.828 -48.7909 0 0 -116.828z"
       id="path3635" /><path
       fill="#F3B9B1"
       d="M808.407 1228.57c0,-6.0228 -0.332469,-13.2646 -2.44024,-18.956 -2.39761,-6.02919 -6.31904,-10.2394 -14.1555,-10.2394 -16.259,0 -18.0716,19.8469 -18.0716,49.9651 0.00532802,34.0397 5.43352,45.1646 18.0716,45.1646 17.1914,0 18.6662,-17.444 18.6662,-28.9013l37.9558 5.39622c-3.6156,36.7762 -24.6911,56.0274 -60.2429,56.0274 -43.9413,0 -66.8188,-38.5461 -66.8188,-75.8732 0,-41.2496 22.8775,-82.4927 68.9638,-82.4927 51.7841,0 59.6153,44.8321 59.6153,59.9094l-41.5437 0z"
       id="path3637" /><path
       fill="#F7D2CD"
       d="M829.144 1228.69c10.8308,0 19.6593,8.83493 19.6593,19.6593 0.00532802,10.7924 -8.83386,19.6647 -19.6647,19.6647 -10.8244,-0.00639363 -19.621,-8.87223 -19.621,-19.6647 0,-10.8297 8.79657,-19.6593 19.6263,-19.6593z"
       id="path3639" /><path
       fill="#EB8E82"
       d="M259.072 1433.26c6.35101,8.15827 10.9267,18.7845 13.6461,31.0677 -4.73661,-10.2554 -9.28462,-20.6077 -13.6461,-31.0677z"
       id="path3641" /><path
       fill="#EFA59B"
       d="M249.073 1408.16l0 -5.65943c0,-37.033 18.3721,-50.5928 50.5992,-50.5928 9.64905,-0.00532802 16.8909,0.885518 24.6847,1.7753l0.00532802 37.3601c-2.69811,-0.627641 -6.32437,-1.21692 -9.02248,-1.21692 -12.3429,0 -17.4812,3.95233 -17.4812,12.9748l0 16.5531 26.5037 0 0 34.3349 -26.5037 0 0 60.9462c-18.4946,-34.2176 -34.7856,-69.7801 -48.7855,-106.475z"
       id="path3643" /><path
       fill="#F3B9B1"
       d="M374.698 1475.64c0,-5.99083 -0.332469,-13.2327 -2.40294,-18.9614 -2.43491,-5.98657 -6.35633,-10.2341 -14.1555,-10.2341 -16.2952,0 -18.0759,19.8842 -18.0759,50.0024 0.00532802,34.0024 5.39516,45.2019 18.0759,45.2019 17.1541,-0.00532802 18.6619,-17.4802 18.6619,-28.9759l37.9227 5.43352c-3.58256,36.7708 -24.6901,56.0274 -60.2056,56.0274 -9.00543,0 -17.1424,-1.63038 -24.3629,-4.52776 -15.2818,-24.0358 -29.464,-48.8335 -42.4558,-74.3334 1.07839,-40.2671 23.9452,-79.5421 68.9223,-79.5421 51.8214,0 59.6153,44.8694 59.6153,59.9094l-41.5394 0z"
       id="path3645" /><path
       fill="#F7D2CD"
       d="M395.467 1475.76c10.7924,0 19.6263,8.8296 19.6263,19.6966 0,10.7924 -8.83386,19.6647 -19.6263,19.6647 -10.8617,0 -19.6647,-8.87223 -19.6647,-19.6647 0.00532802,-10.867 8.79763,-19.6966 19.6647,-19.6966z"
       id="path3647" /><path
       fill="#EB8E82"
       d="M190.655 1109.05l3.12755 0 0 57.4212c-1.63677,-18.9827 -2.69811,-38.122 -3.12755,-57.4212zm4.36578 71.2922c7.03832,-6.85504 19.2459,-11.6769 28.8854,-11.6769 33.7072,0 51.7788,33.7072 51.7788,77.3906 0,34.0994 -14.0543,77.8957 -53.6884,79.135 -2.82172,-10.347 -5.50385,-20.7686 -7.9654,-31.2553 9.63307,-2.81639 11.0546,-16.2697 11.0546,-40.965l0 -11.4627c0,-30.1193 0,-45.7549 -15.0399,-45.7549 -5.47188,0 -9.69274,2.94533 -12.6594,5.2886 -0.86314,-6.87635 -1.66234,-13.7687 -2.36564,-20.6994z"
       id="path3649" /><path
       fill="#EFA59B"
       d="M249.073 1206.58l-19.8469 0 0 -34.2976 19.8469 0 0 -16.8536c0,-37.0319 18.3721,-50.5928 50.5992,-50.5928 9.64905,0 16.8909,0.885518 24.6847,1.76997l0.00532802 37.3654c-2.69811,-0.627641 -6.32437,-1.21692 -9.02248,-1.21692 -12.3429,0 -17.4812,3.91503 -17.4812,12.9695l0 16.5584 26.5037 0 0 34.2976 -26.5037 0 0 116.828 -48.7855 0 0 -116.828z"
       id="path3651" /><path
       fill="#F3B9B1"
       d="M374.698 1228.57c0,-6.0228 -0.332469,-13.2646 -2.40294,-18.956 -2.43491,-6.02919 -6.35633,-10.2394 -14.1555,-10.2394 -16.2952,0 -18.0759,19.8469 -18.0759,49.9651 0.00532802,34.0397 5.39516,45.1646 18.0759,45.1646 17.1541,0 18.6619,-17.444 18.6619,-28.9013l37.9227 5.39622c-3.58256,36.7762 -24.6901,56.0274 -60.2056,56.0274 -43.9786,0 -66.8614,-38.5461 -66.8614,-75.8732 0,-41.2496 22.8775,-82.4927 68.9649,-82.4927 51.8214,0 59.6153,44.8321 59.6153,59.9094l-41.5394 0z"
       id="path3653" /><path
       fill="#F7D2CD"
       d="M395.467 1228.69c10.7924,0 19.6263,8.83493 19.6263,19.6593 0,10.7924 -8.83386,19.6647 -19.6263,19.6647 -10.8617,-0.00639363 -19.6647,-8.87223 -19.6647,-19.6647 0.00532802,-10.8297 8.79763,-19.6593 19.6647,-19.6593z"
       id="path3655" /><path
       d="M1343.35 1850.33l48.7855 0 0 71.9955 0.590345 0c6.95201,-7.24185 19.589,-12.3749 29.529,-12.3749 7.55194,0 14.3111,1.67833 20.2699,4.79522 -32.1354,13.8124 -65.247,25.7738 -99.1748,35.815l0 -100.231z"
       id="path3657"
       fill="#E77666" /><path
       fill="#EB8E82"
       d="M1446.1 1850.33l48.7845 0 0 39.876c-15.9894,8.13163 -32.2644,15.7859 -48.7845,22.9734l0 -62.8494z"
       id="path3659" /><path
       fill="#E77666"
       d="M1343.35 1603.22l48.7855 0 0 71.9955 0.590345 0c6.95201,-7.24718 19.589,-12.3429 29.529,-12.3429 33.7445,-0.00532802 51.815,33.7019 51.815,77.3917 0.00639363,34.6236 -14.4826,79.1606 -55.436,79.1606 -18.956,0 -31.3043,-9.01608 -40.9544,-23.4668l-9.01075 21.6595 -25.3188 0 0 -214.398zm48.7855 165.945c-0.88978,12.6381 6.61421,19.5517 15.9638,19.5517 13.5332,0 15.3724,-13.5279 15.3724,-41.5437l0.00532802 -11.4574c0,-30.1183 -0.00532802,-45.7549 -15.0783,-45.7549 -6.0228,0 -10.5346,3.62093 -13.5652,6.02386l-2.69811 2.69811 0 70.4823z"
       id="path3661" /><path
       fill="#EB8E82"
       d="M1446.1 1603.22l48.7845 0 0 71.9955 0.590345 0c6.90938,-7.24718 19.5517,-12.3429 29.529,-12.3429 33.7072,-0.00532802 51.7777,33.7019 51.7777,77.3917 0,34.6236 -14.4496,79.1606 -55.3987,79.1606 -18.9987,0 -31.3416,-9.01608 -40.9864,-23.4668l-9.01608 21.6595 -25.2804 0 0 -214.398zm48.7845 165.945c-0.921748,12.6381 6.61421,19.5517 15.9265,19.5517 13.5652,0 15.3724,-13.5279 15.3724,-41.5437l0.00532802 -11.4574c0,-30.1183 -0.00532802,-45.7549 -15.0453,-45.7549 -6.06223,0 -10.5676,3.62093 -13.5662,6.02386l-2.69278 2.69811 0 70.4823z"
       id="path3663" /><path
       d="M1550.17 1700.79l-19.8522 0 0 -34.3349 19.8522 0 0 -16.8536c0,-37.0319 18.3668,-50.5981 50.5928,-50.5981 9.65012,0 16.8536,0.928142 24.6911,1.81366l0 37.3271c-2.69811,-0.594608 -6.32437,-1.17962 -9.02248,-1.17962 -12.3429,-0.00532802 -17.4812,3.87774 -17.4812,12.9322l0.00532802 16.5584 26.4984 0 0 34.3349 -26.4984 0 0 116.828 -48.7855 0 0 -116.828z"
       id="path3665"
       fill="#EFA59B" /><path
       fill="#F3B9B1"
       d="M1675.79 1722.78c0,-6.01854 -0.332469,-13.2284 -2.40294,-18.9571 -2.43491,-6.06116 -6.35633,-10.2394 -14.1928,-10.2394 -16.2579,0 -18.0343,19.8522 -18.0343,49.9705 0.00532802,27.8933 3.6156,40.3907 11.8762,43.9956 -10.2831,8.31918 -20.742,16.4242 -31.3895,24.2937 -21.7298,-13.7101 -32.8974,-40.3694 -32.8974,-66.4756 0.00532802,-41.2496 22.8828,-82.4927 68.9691,-82.4927 51.7788,-0.00532802 59.6099,44.8268 59.6099,59.9104l-41.5383 -0.00532802zm1.78595 44.2471c0.22058,-2.52122 0.284517,-4.97211 0.284517,-7.20882l6.74848 0.965438c-2.34433,2.08113 -4.66735,4.18889 -7.03299,6.24338z"
       id="path3667" /><path
       fill="#F7D2CD"
       d="M1696.56 1722.89c7.5626,0 14.1502,4.32422 17.4216,10.6475 -9.05444,8.78165 -18.2911,17.3694 -27.7047,25.7631 -5.63705,-3.46428 -9.38159,-9.68741 -9.38159,-16.746 0.00532802,-10.8297 8.8019,-19.6647 19.6647,-19.6647z"
       id="path3669" /><path
       fill="#E77666"
       d="M1343.35 1356.12l48.7855 0 0 71.9571 0.590345 0c6.95201,-7.24079 19.589,-12.3418 29.529,-12.3418 33.7445,0 51.815,33.7445 51.815,77.3906 0.00639363,34.63 -14.4826,79.2043 -55.436,79.2043 -18.956,-0.00532802 -31.3043,-9.01608 -40.9544,-23.504l-9.01075 21.7287 -25.3188 0 0 -214.435zm48.7855 165.907c-0.88978,12.6754 6.61421,19.6263 15.9638,19.6263 13.5332,-0.00532802 15.3724,-13.6024 15.3724,-41.581l0.00532802 -11.4574c0,-30.081 -0.00532802,-45.7549 -15.0783,-45.7549 -6.0228,0 -10.5346,3.58896 -13.5652,6.02386l-2.69811 2.69811 0 70.445z"
       id="path3671" /><path
       fill="#EB8E82"
       d="M1446.1 1356.12l48.7845 0 0 71.9571 0.590345 0c6.90938,-7.24079 19.5517,-12.3418 29.529,-12.3418 33.7072,0 51.7777,33.7445 51.7777,77.3906 0,34.63 -14.4496,79.2043 -55.3987,79.2043 -18.9987,-0.00532802 -31.3416,-9.01608 -40.9864,-23.504l-9.01608 21.7287 -25.2804 0 0 -214.435zm48.7845 165.907c-0.921748,12.6754 6.61421,19.6263 15.9265,19.6263 13.5652,-0.00532802 15.3724,-13.6024 15.3724,-41.581l0.00532802 -11.4574c0,-30.081 -0.00532802,-45.7549 -15.0453,-45.7549 -6.06223,0 -10.5676,3.58896 -13.5662,6.02386l-2.69278 2.69811 0 70.445z"
       id="path3673" /><path
       fill="#EFA59B"
       d="M1550.17 1453.69l-19.8522 0 0 -34.3349 19.8522 0 0 -16.8536c0,-37.033 18.3668,-50.5928 50.5928,-50.5928 9.65012,-0.00532802 16.8536,0.885518 24.6911,1.7753l0 37.3601c-2.69811,-0.627641 -6.32437,-1.21692 -9.02248,-1.21692 -12.3429,0 -17.4812,3.95233 -17.4812,12.9748l0.00532802 16.5531 26.4984 0 0 34.3349 -26.4984 0 0 116.865 -48.7855 0 0 -116.865z"
       id="path3675" /><path
       fill="#F3B9B1"
       d="M1675.79 1475.64c0,-5.99083 -0.332469,-13.2327 -2.40294,-18.9614 -2.43491,-5.98657 -6.35633,-10.2341 -14.1928,-10.2341 -16.2579,0 -18.0343,19.8842 -18.0343,50.0024 0.00532802,34.0024 5.39622,45.2019 18.0343,45.2019 17.1914,-0.00532802 18.6662,-17.4802 18.6662,-28.9759l37.9611 5.43352c-3.58896,36.7708 -24.6954,56.0274 -60.2109,56.0274 -43.9786,0 -66.8614,-38.5461 -66.8614,-75.8732 0.00532802,-41.2869 22.8828,-82.53 68.9691,-82.53 51.7788,0 59.6099,44.8694 59.6099,59.9094l-41.5383 0z"
       id="path3677" /><path
       fill="#F7D2CD"
       d="M1696.56 1475.76c10.7924,0 19.6263,8.8296 19.6263,19.6966 0,10.7924 -8.83386,19.6647 -19.6263,19.6647 -10.8628,0 -19.6647,-8.87223 -19.6647,-19.6647 0.00532802,-10.867 8.8019,-19.6966 19.6647,-19.6966z"
       id="path3679" /><path
       fill="#E77666"
       d="M1343.35 1109.05l48.7855 0 0 71.9571 0.590345 0c6.95201,-7.20349 19.589,-12.3418 29.529,-12.3418 33.7445,0 51.815,33.7072 51.815,77.3906 0.00639363,34.5927 -14.4826,79.167 -55.436,79.167 -18.956,-0.00532802 -31.3043,-9.01608 -40.9544,-23.4668l-9.01075 21.6542 -25.3188 0 0 -214.36zm48.7855 165.907c-0.88978,12.6434 6.61421,19.5517 15.9638,19.5517 13.5332,0 15.3724,-13.5652 15.3724,-41.5383l0.00532802 -11.4627c0,-30.1193 -0.00532802,-45.7549 -15.0783,-45.7549 -6.0228,0 -10.5346,3.62625 -13.5652,6.02919l-2.69811 2.69278 0 70.4823z"
       id="path3681" /><path
       fill="#EB8E82"
       d="M1446.1 1109.05l48.7845 0 0 71.9571 0.590345 0c6.90938,-7.20349 19.5517,-12.3418 29.529,-12.3418 33.7072,0 51.7777,33.7072 51.7777,77.3906 0,34.5927 -14.4496,79.167 -55.3987,79.167 -18.9987,-0.00532802 -31.3416,-9.01608 -40.9864,-23.4668l-9.01608 21.6542 -25.2804 0 0 -214.36zm48.7845 165.907c-0.921748,12.6434 6.61421,19.5517 15.9265,19.5517 13.5652,0 15.3724,-13.5652 15.3724,-41.5383l0.00532802 -11.4627c0,-30.1193 -0.00532802,-45.7549 -15.0453,-45.7549 -6.06223,0 -10.5676,3.62625 -13.5662,6.02919l-2.69278 2.69278 0 70.4823z"
       id="path3683" /><path
       fill="#EFA59B"
       d="M1550.17 1206.58l-19.8522 0 0 -34.2976 19.8522 0 0 -16.8536c0,-37.0319 18.3668,-50.5928 50.5928,-50.5928 9.65012,0 16.8536,0.885518 24.6911,1.76997l0 37.3654c-2.69811,-0.627641 -6.32437,-1.21692 -9.02248,-1.21692 -12.3429,0 -17.4812,3.91503 -17.4812,12.9695l0.00532802 16.5584 26.4984 0 0 34.2976 -26.4984 0 0 116.828 -48.7855 0 0 -116.828z"
       id="path3685" /><path
       fill="#F3B9B1"
       d="M1675.79 1228.57c0,-6.0228 -0.332469,-13.2646 -2.40294,-18.956 -2.43491,-6.02919 -6.35633,-10.2394 -14.1928,-10.2394 -16.2579,0 -18.0343,19.8469 -18.0343,49.9651 0.00532802,34.0397 5.39622,45.1646 18.0343,45.1646 17.1914,0 18.6662,-17.444 18.6662,-28.9013l37.9611 5.39622c-3.58896,36.7762 -24.6954,56.0274 -60.2109,56.0274 -43.9786,0 -66.8614,-38.5461 -66.8614,-75.8732 0.00532802,-41.2496 22.8828,-82.4927 68.9691,-82.4927 51.7788,0 59.6099,44.8321 59.6099,59.9094l-41.5383 0z"
       id="path3687" /><path
       fill="#F7D2CD"
       d="M1696.56 1228.69c10.7924,0 19.6263,8.83493 19.6263,19.6593 0,10.7924 -8.83386,19.6647 -19.6263,19.6647 -10.8628,-0.00639363 -19.6647,-8.87223 -19.6647,-19.6647 0.00532802,-10.8297 8.8019,-19.6593 19.6647,-19.6593z"
       id="path3689" /><path
       fill="#E77666"
       d="M1779.72 1603.22l45.3788 0c-14.3217,20.4362 -29.4533,40.2617 -45.3788,59.4053l0 -59.4053z"
       id="path3691" /><path
       fill="#E77666"
       d="M1779.72 1356.12l48.8281 0 0 71.9571 0.590345 0c6.94561,-7.24079 19.5453,-12.3418 29.4906,-12.3418 24.7657,0 41.0823,18.1675 48.013,45.0996 -17.5558,38.4492 -37.7352,75.4555 -60.3282,110.782 -14.1779,-2.3763 -24.1754,-10.6529 -32.2218,-22.7912l-9.05444 21.7287 -25.3177 0 0 -214.435zm48.8281 165.907c-0.928142,12.6754 6.60782,19.6263 15.9255,19.6263 13.5652,-0.00532802 15.3735,-13.6024 15.3735,-41.581l0.00532802 -11.4574c0,-30.081 -0.00532802,-45.7549 -15.0836,-45.7549 -5.98657,0 -10.5346,3.58896 -13.5279,6.02386l-2.69278 2.69811 0 70.445z"
       id="path3693" /><path
       fill="#EB8E82"
       d="M1882.47 1356.12l48.7855 0 0 45.2072c-13.904,37.3601 -30.2365,73.5395 -48.7855,108.379l0 -153.587z"
       id="path3695" /><path
       fill="#E77666"
       d="M1779.72 1109.05l48.8281 0 0 71.9571 0.590345 0c6.94561,-7.20349 19.5453,-12.3418 29.4906,-12.3418 33.7445,0 51.8161,33.7072 51.8161,77.3906 0,34.5927 -14.4507,79.167 -55.4051,79.167 -18.956,-0.00532802 -31.3416,-9.01608 -40.948,-23.4668l-9.05444 21.6542 -25.3177 0 0 -214.36zm48.8281 165.907c-0.928142,12.6434 6.60782,19.5517 15.9255,19.5517 13.5652,0 15.3735,-13.5652 15.3735,-41.5383l0.00532802 -11.4627c0,-30.1193 -0.00532802,-45.7549 -15.0836,-45.7549 -5.98657,0 -10.5346,3.62625 -13.5279,6.02919l-2.69278 2.69278 0 70.4823z"
       id="path3697" /><path
       fill="#EB8E82"
       d="M1882.47 1109.05l48.7855 0 0 71.9571 0.594608 0c6.94668,-7.20349 19.5848,-12.3418 29.5236,-12.3418 8.24459,0 15.5344,2.00547 21.8694,5.67967 -4.89752,51.6659 -14.2098,102.066 -27.5118,150.83 -17.8244,-0.622313 -29.6313,-9.48921 -38.9265,-23.4188l-9.05444 21.6542 -25.2804 0 0 -214.36zm48.7855 165.907c-0.885518,12.6434 6.65151,19.5517 15.9681,19.5517 13.5225,0 15.3735,-13.5652 15.3735,-41.5383l0.00532802 -11.4627c0,-30.1193 -0.00532802,-45.7549 -15.0836,-45.7549 -6.02386,0 -10.5346,3.62625 -13.5279,6.02919l-2.73541 2.69278 0 70.4823z"
       id="path3699" /><path
       fill="#EFA59B"
       d="M1979.61 1206.58l-12.9109 0 0 -34.2976 16.7247 0c-1.06774,11.4957 -2.32302,22.9318 -3.8138,34.2976z"
       id="path3701" /><path
       fill="#E77666"
       d="M909.637 861.94l48.7909 0 0 71.9944 0.58928 0c6.95201,-7.24079 19.5837,-12.3791 29.529,-12.3791 33.7445,0 51.8161,33.7445 51.8161,77.429 0.00532802,34.629 -14.4507,79.1659 -55.437,79.1659 -18.956,0 -31.3043,-9.01608 -40.9533,-23.4668l-9.01715 21.6542 -25.3177 0 0 -214.398zm48.7909 165.945c-0.890846,12.6381 6.64511,19.5517 15.9628,19.5517 13.5598,0 15.3735,-13.5279 15.3735,-41.5437l0.00532802 -11.4521c0,-30.0863 -0.00532802,-45.7549 -15.0836,-45.7549 -5.98657,-0.00532802 -10.5346,3.62093 -13.5279,6.02386l-2.73008 2.69278 0 70.4823z"
       id="path3703" /><path
       fill="#EB8E82"
       d="M1012.39 861.94l48.7855 0 0 71.9944 0.58928 0c6.90938,-7.24079 19.5848,-12.3791 29.529,-12.3791 33.7072,0 51.7788,33.7445 51.7788,77.429 0,34.629 -14.456,79.1659 -55.4051,79.1659 -18.9933,0 -31.3416,-9.01608 -40.9853,-23.4668l-9.01715 21.6542 -25.2751 0 0 -214.398zm48.7855 165.945c-0.928142,12.6381 6.61314,19.5517 15.9628,19.5517 13.5279,0 15.3362,-13.5279 15.3362,-41.5437l0.00532802 -11.4521c0,-30.0863 -0.00532802,-45.7549 -15.0463,-45.7549 -6.02386,-0.00532802 -10.5346,3.62093 -13.5652,6.02386l-2.69278 2.69278 0 70.4823z"
       id="path3705" /><path
       fill="#EFA59B"
       d="M1116.46 959.51l-19.8458 0 0 -34.3349 19.8458 0 0 -16.8536c0,-37.033 18.3668,-50.5928 50.5992,-50.5928 9.64372,-0.00532802 16.8856,0.922814 24.722,1.81366l0 37.3217c-2.73541,-0.58928 -6.35633,-1.17962 -9.05444,-1.17962 -12.3418,0 -17.4812,3.92143 -17.4812,12.9375l0 16.5531 26.5357 0 0 34.3349 -26.5357 0 0 116.828 -48.7855 0 0 -116.828z"
       id="path3707" /><path
       fill="#F3B9B1"
       d="M1242.08 981.503c0,-6.02386 -0.337797,-13.2657 -2.40294,-18.9624 -2.43491,-6.02386 -6.31797,-10.2341 -14.1555,-10.2341 -16.2952,-0.00532802 -18.0759,19.8469 -18.0759,49.9651 0,34.0397 5.39622,45.1646 18.0759,45.1646 17.1541,0 18.6619,-17.4429 18.6619,-28.9003l37.9227 5.39516c-3.58256,36.7708 -24.6901,56.07 -60.2099,56.07 -43.9743,-0.00532802 -66.8571,-38.5887 -66.8571,-75.9158 0,-41.2496 22.8775,-82.53 68.9649,-82.53 51.8214,0 59.6153,44.8694 59.6153,59.9477l-41.5394 0z"
       id="path3709" /><path
       fill="#F7D2CD"
       d="M1262.85 981.61c10.7924,0 19.6274,8.83493 19.6274,19.6647 0,10.7924 -8.83493,19.6647 -19.6274,19.6647 -10.867,0 -19.6647,-8.87223 -19.6647,-19.6647 0.00532802,-10.8297 8.79763,-19.6593 19.6647,-19.6647z"
       id="path3711" /><path
       fill="#E77666"
       d="M475.964 861.94l48.7855 0 0 71.9944 0.595673 0c6.94028,-7.24079 19.5837,-12.3791 29.5226,-12.3791 33.7125,0 51.7788,33.7445 51.7788,77.429 0.00532802,34.629 -14.4453,79.1659 -55.3987,79.1659 -18.9624,0 -31.3416,-9.01608 -40.9491,-23.4668l-9.05444 21.6542 -25.2804 0 0 -214.398zm48.7855 165.945c-0.922814,12.6381 6.61421,19.5517 15.9628,19.5517 13.5289,0 15.3415,-13.5279 15.3415,-41.5437l0 -11.4521c0,-30.0863 0,-45.7549 -15.041,-45.7549 -6.02919,-0.00532802 -10.5346,3.62093 -13.5652,6.02386l-2.69811 2.69278 0 70.4823z"
       id="path3713" /><path
       fill="#EB8E82"
       d="M578.674 861.94l48.8228 0 0 71.9944 0.590345 0c6.91364,-7.24079 19.5464,-12.3791 29.4906,-12.3791 33.7456,0 51.7788,33.7445 51.7788,77.429 0,34.629 -14.4507,79.1659 -55.3987,79.1659 -18.9571,0 -31.3043,-9.01608 -40.9491,-23.4668l-9.05444 21.6542 -25.2804 0 0 -214.398zm48.8228 165.945c-0.922814,12.6381 6.61421,19.5517 15.9255,19.5517 13.5662,0 15.3788,-13.5279 15.3788,-41.5437l0 -11.4521c0,-30.0863 0,-45.7549 -15.0836,-45.7549 -6.01854,-0.00532802 -10.5292,3.62093 -13.5225,6.02386l-2.69811 2.69278 0 70.4823z"
       id="path3715" /><path
       fill="#EFA59B"
       d="M682.783 959.51l-19.8789 0 0 -34.3349 19.8789 0 0 -16.8536c0,-37.033 18.371,-50.5928 50.5981,-50.5928 9.61282,-0.00532802 16.8536,0.922814 24.6901,1.81366l0 37.3217c-2.69811,-0.58928 -6.3233,-1.17962 -9.02141,-1.17962 -12.3802,0 -17.4812,3.92143 -17.4812,12.9375l0.00532802 16.5531 26.4973 0 0 34.3349 -26.4973 0 0 116.828 -48.7909 0 0 -116.828z"
       id="path3717" /><path
       fill="#F3B9B1"
       d="M808.407 981.503c0,-6.02386 -0.332469,-13.2657 -2.44024,-18.9624 -2.39761,-6.02386 -6.31904,-10.2341 -14.1555,-10.2341 -16.259,-0.00532802 -18.0716,19.8469 -18.0716,49.9651 0.00532802,34.0397 5.43352,45.1646 18.0716,45.1646 17.1914,0 18.6662,-17.4429 18.6662,-28.9003l37.9558 5.39516c-3.6156,36.7708 -24.6911,56.07 -60.2429,56.07 -43.9413,-0.00532802 -66.8188,-38.5887 -66.8188,-75.9158 0,-41.2496 22.8775,-82.53 68.9638,-82.53 51.7841,0 59.6153,44.8694 59.6153,59.9477l-41.5437 0z"
       id="path3719" /><path
       fill="#F7D2CD"
       d="M829.144 981.61c10.8308,0 19.6593,8.83493 19.6593,19.6647 0.00532802,10.7924 -8.83386,19.6647 -19.6647,19.6647 -10.8244,0 -19.621,-8.87223 -19.621,-19.6647 0,-10.8297 8.79657,-19.6593 19.6263,-19.6647z"
       id="path3721" /><path
       fill="#EB8E82"
       d="M205.169 926.291c6.02386,-2.95492 12.8629,-4.73555 18.7365,-4.73555 33.7072,0 51.7788,33.7445 51.7788,77.429 0,34.629 -14.4507,79.1659 -55.4051,79.1659 -12.2939,0 -21.8204,-3.79675 -29.6142,-10.3843 0.440095,-18.9827 1.51742,-37.8109 3.11689,-56.4877l0 16.6064c-0.917486,12.6381 6.61847,19.5517 15.9681,19.5517 13.5279,0 15.3351,-13.5279 15.3351,-41.5437l0 -11.4521c0,-30.0863 0,-45.7549 -15.0399,-45.7549 -3.58363,-0.00532802 -6.65151,1.25528 -9.15674,2.78975 1.30323,-8.43213 2.74713,-16.827 4.28053,-25.1845z"
       id="path3723" /><path
       fill="#EFA59B"
       d="M249.073 959.51l-19.8469 0 0 -34.3349 19.8469 0 0 -16.8536c0,-37.033 18.3721,-50.5928 50.5992,-50.5928 9.64905,-0.00532802 16.8909,0.922814 24.6847,1.81366l0.00532802 37.3217c-2.69811,-0.58928 -6.32437,-1.17962 -9.02248,-1.17962 -12.3429,0 -17.4812,3.92143 -17.4812,12.9375l0 16.5531 26.5037 0 0 34.3349 -26.5037 0 0 116.828 -48.7855 0 0 -116.828z"
       id="path3725" /><path
       fill="#F3B9B1"
       d="M374.698 981.503c0,-6.02386 -0.332469,-13.2657 -2.40294,-18.9624 -2.43491,-6.02386 -6.35633,-10.2341 -14.1555,-10.2341 -16.2952,-0.00532802 -18.0759,19.8469 -18.0759,49.9651 0.00532802,34.0397 5.39516,45.1646 18.0759,45.1646 17.1541,0 18.6619,-17.4429 18.6619,-28.9003l37.9227 5.39516c-3.58256,36.7708 -24.6901,56.07 -60.2056,56.07 -43.9786,-0.00532802 -66.8614,-38.5887 -66.8614,-75.9158 0,-41.2496 22.8775,-82.53 68.9649,-82.53 51.8214,0 59.6153,44.8694 59.6153,59.9477l-41.5394 0z"
       id="path3727" /><path
       fill="#F7D2CD"
       d="M395.467 981.61c10.7924,0 19.6263,8.83493 19.6263,19.6647 0,10.7924 -8.83386,19.6647 -19.6263,19.6647 -10.8617,0 -19.6647,-8.87223 -19.6647,-19.6647 0.00532802,-10.8297 8.79763,-19.6593 19.6647,-19.6647z"
       id="path3729" /><path
       fill="#E77666"
       d="M1343.35 861.94l48.7855 0 0 71.9944 0.590345 0c6.95201,-7.24079 19.589,-12.3791 29.529,-12.3791 33.7445,0 51.815,33.7445 51.815,77.429 0.00639363,34.629 -14.4826,79.1659 -55.436,79.1659 -18.956,0 -31.3043,-9.01608 -40.9544,-23.4668l-9.01075 21.6542 -25.3188 0 0 -214.398zm48.7855 165.945c-0.88978,12.6381 6.61421,19.5517 15.9638,19.5517 13.5332,0 15.3724,-13.5279 15.3724,-41.5437l0.00532802 -11.4521c0,-30.0863 -0.00532802,-45.7549 -15.0783,-45.7549 -6.0228,-0.00532802 -10.5346,3.62093 -13.5652,6.02386l-2.69811 2.69278 0 70.4823z"
       id="path3731" /><path
       fill="#EB8E82"
       d="M1446.1 861.94l48.7845 0 0 71.9944 0.590345 0c6.90938,-7.24079 19.5517,-12.3791 29.529,-12.3791 33.7072,0 51.7777,33.7445 51.7777,77.429 0,34.629 -14.4496,79.1659 -55.3987,79.1659 -18.9987,0 -31.3416,-9.01608 -40.9864,-23.4668l-9.01608 21.6542 -25.2804 0 0 -214.398zm48.7845 165.945c-0.921748,12.6381 6.61421,19.5517 15.9265,19.5517 13.5652,0 15.3724,-13.5279 15.3724,-41.5437l0.00532802 -11.4521c0,-30.0863 -0.00532802,-45.7549 -15.0453,-45.7549 -6.06223,-0.00532802 -10.5676,3.62093 -13.5662,6.02386l-2.69278 2.69278 0 70.4823z"
       id="path3733" /><path
       fill="#EFA59B"
       d="M1550.17 959.51l-19.8522 0 0 -34.3349 19.8522 0 0 -16.8536c0,-37.033 18.3668,-50.5928 50.5928,-50.5928 9.65012,-0.00532802 16.8536,0.922814 24.6911,1.81366l0 37.3217c-2.69811,-0.58928 -6.32437,-1.17962 -9.02248,-1.17962 -12.3429,0 -17.4812,3.92143 -17.4812,12.9375l0.00532802 16.5531 26.4984 0 0 34.3349 -26.4984 0 0 116.828 -48.7855 0 0 -116.828z"
       id="path3735" /><path
       fill="#F3B9B1"
       d="M1675.79 981.503c0,-6.02386 -0.332469,-13.2657 -2.40294,-18.9624 -2.43491,-6.02386 -6.35633,-10.2341 -14.1928,-10.2341 -16.2579,-0.00532802 -18.0343,19.8469 -18.0343,49.9651 0.00532802,34.0397 5.39622,45.1646 18.0343,45.1646 17.1914,0 18.6662,-17.4429 18.6662,-28.9003l37.9611 5.39516c-3.58896,36.7708 -24.6954,56.07 -60.2109,56.07 -43.9786,-0.00532802 -66.8614,-38.5887 -66.8614,-75.9158 0.00532802,-41.2496 22.8828,-82.53 68.9691,-82.53 51.7788,0 59.6099,44.8694 59.6099,59.9477l-41.5383 0z"
       id="path3737" /><path
       fill="#F7D2CD"
       d="M1696.56 981.61c10.7924,0 19.6263,8.83493 19.6263,19.6647 0,10.7924 -8.83386,19.6647 -19.6263,19.6647 -10.8628,0 -19.6647,-8.87223 -19.6647,-19.6647 0.00532802,-10.8297 8.8019,-19.6593 19.6647,-19.6647z"
       id="path3739" /><path
       fill="#E77666"
       d="M1779.72 861.94l48.8281 0 0 71.9944 0.590345 0c6.94561,-7.24079 19.5453,-12.3791 29.4906,-12.3791 33.7445,0 51.8161,33.7445 51.8161,77.429 0,34.629 -14.4507,79.1659 -55.4051,79.1659 -18.956,0 -31.3416,-9.01608 -40.948,-23.4668l-9.05444 21.6542 -25.3177 0 0 -214.398zm48.8281 165.945c-0.928142,12.6381 6.60782,19.5517 15.9255,19.5517 13.5652,0 15.3735,-13.5279 15.3735,-41.5437l0.00532802 -11.4521c0,-30.0863 -0.00532802,-45.7549 -15.0836,-45.7549 -5.98657,-0.00532802 -10.5346,3.62093 -13.5279,6.02386l-2.69278 2.69278 0 70.4823z"
       id="path3741" /><path
       fill="#EB8E82"
       d="M1882.47 861.94l48.7855 0 0 71.9944 0.594608 0c6.94668,-7.24079 19.5848,-12.3791 29.5236,-12.3791 3.69019,0 7.17685,0.391077 10.4919,1.16897 8.88288,47.2883 14.0702,95.8597 15.2072,145.418 -7.7299,6.21141 -17.3907,10.0082 -29.3201,10.0082 -18.956,0 -31.3032,-9.01608 -40.948,-23.4668l-9.05444 21.6542 -25.2804 0 0 -214.398zm48.7855 165.945c-0.885518,12.6381 6.65151,19.5517 15.9681,19.5517 13.5225,0 15.3735,-13.5279 15.3735,-41.5437l0.00532802 -11.4521c0,-30.0863 -0.00532802,-45.7549 -15.0836,-45.7549 -6.02386,-0.00532802 -10.5346,3.62093 -13.5279,6.02386l-2.73541 2.69278 0 70.4823z"
       id="path3743" /><path
       d="M1977.97 959.51l-11.2752 0 0 -34.3349 5.63705 0c2.10244,11.3721 3.96938,22.8189 5.63812,34.3349zm9.20363 116.828l-0.58928 0 0 -22.4693c0.284517,7.46669 0.482719,14.96 0.58928,22.4693z"
       id="path3745"
       fill="#EFA59B" /><path
       fill="#E77666"
       d="M909.637 614.833l48.7909 0 0 71.9944 0.58928 0c6.95201,-7.24079 19.5837,-12.3418 29.529,-12.3418 33.7445,0 51.8161,33.7072 51.8161,77.3906 0.00532802,34.63 -14.4507,79.167 -55.437,79.167 -18.956,-0.00532802 -31.3043,-9.01608 -40.9533,-23.4668l-9.01715 21.6915 -25.3177 0 0 -214.435zm48.7909 165.945c-0.890846,12.6434 6.64511,19.589 15.9628,19.589 13.5598,-0.00532802 15.3735,-13.5652 15.3735,-41.5756l0.00532802 -11.4627c0,-30.0863 -0.00532802,-45.7496 -15.0836,-45.7496 -5.98657,-0.00532802 -10.5346,3.62093 -13.5279,6.02386l-2.73008 2.69811 0 70.477z"
       id="path3747" /><path
       fill="#EB8E82"
       d="M1012.39 614.833l48.7855 0 0 71.9944 0.58928 0c6.90938,-7.24079 19.5848,-12.3418 29.529,-12.3418 33.7072,0 51.7788,33.7072 51.7788,77.3906 0,34.63 -14.456,79.167 -55.4051,79.167 -18.9933,-0.00532802 -31.3416,-9.01608 -40.9853,-23.4668l-9.01715 21.6915 -25.2751 0 0 -214.435zm48.7855 165.945c-0.928142,12.6434 6.61314,19.589 15.9628,19.589 13.5279,-0.00532802 15.3362,-13.5652 15.3362,-41.5756l0.00532802 -11.4627c0,-30.0863 -0.00532802,-45.7496 -15.0463,-45.7496 -6.02386,-0.00532802 -10.5346,3.62093 -13.5652,6.02386l-2.69278 2.69811 0 70.477z"
       id="path3749" /><path
       fill="#EFA59B"
       d="M1116.46 712.408l-19.8458 0 0 -34.3402 19.8458 0 0 -16.8483c0,-37.0383 18.3668,-50.5981 50.5992,-50.5981 9.64372,0 16.8856,0.922814 24.722,1.81366l0 37.3271c-2.73541,-0.594608 -6.35633,-1.18495 -9.05444,-1.18495 -12.3418,-0.00532802 -17.4812,3.92036 -17.4812,12.9375l0 16.5531 26.5357 0 0 34.3402 -26.5357 0 0 116.86 -48.7855 0 0 -116.86z"
       id="path3751" /><path
       fill="#F3B9B1"
       d="M1242.08 734.396c0,-6.02386 -0.337797,-13.2284 -2.40294,-18.9624 -2.43491,-6.02386 -6.31797,-10.2341 -14.1555,-10.2341 -16.2952,-0.00532802 -18.0759,19.8469 -18.0759,49.9651 0,34.0397 5.39622,45.2019 18.0759,45.2019 17.1541,-0.00532802 18.6619,-17.4802 18.6619,-28.9386l37.9227 5.43458c-3.58256,36.7325 -24.6901,56.0316 -60.2099,56.0316 -43.9743,0 -66.8571,-38.5887 -66.8571,-75.9158 0,-41.2442 22.8775,-82.4927 68.9649,-82.4927 51.8214,0 59.6153,44.8321 59.6153,59.9104l-41.5394 0z"
       id="path3753" /><path
       fill="#F7D2CD"
       d="M1262.85 734.502c10.7924,0 19.6274,8.84026 19.6274,19.67 0,10.7871 -8.83493,19.6593 -19.6274,19.6593 -10.867,-0.00532802 -19.6647,-8.87223 -19.6647,-19.6593 0.00532802,-10.8351 8.79763,-19.6647 19.6647,-19.67z"
       id="path3755" /><path
       fill="#E77666"
       d="M475.964 614.833l48.7855 0 0 71.9944 0.595673 0c6.94028,-7.24079 19.5837,-12.3418 29.5226,-12.3418 33.7125,0 51.7788,33.7072 51.7788,77.3906 0.00532802,34.63 -14.4453,79.167 -55.3987,79.167 -18.9624,-0.00532802 -31.3416,-9.01608 -40.9491,-23.4668l-9.05444 21.6915 -25.2804 0 0 -214.435zm48.7855 165.945c-0.922814,12.6434 6.61421,19.589 15.9628,19.589 13.5289,-0.00532802 15.3415,-13.5652 15.3415,-41.5756l0 -11.4627c0,-30.0863 0,-45.7496 -15.041,-45.7496 -6.02919,-0.00532802 -10.5346,3.62093 -13.5652,6.02386l-2.69811 2.69811 0 70.477z"
       id="path3757" /><path
       fill="#EB8E82"
       d="M578.674 614.833l48.8228 0 0 71.9944 0.590345 0c6.91364,-7.24079 19.5464,-12.3418 29.4906,-12.3418 33.7456,0 51.7788,33.7072 51.7788,77.3906 0,34.63 -14.4507,79.167 -55.3987,79.167 -18.9571,-0.00532802 -31.3043,-9.01608 -40.9491,-23.4668l-9.05444 21.6915 -25.2804 0 0 -214.435zm48.8228 165.945c-0.922814,12.6434 6.61421,19.589 15.9255,19.589 13.5662,-0.00532802 15.3788,-13.5652 15.3788,-41.5756l0 -11.4627c0,-30.0863 0,-45.7496 -15.0836,-45.7496 -6.01854,-0.00532802 -10.5292,3.62093 -13.5225,6.02386l-2.69811 2.69811 0 70.477z"
       id="path3759" /><path
       fill="#EFA59B"
       d="M682.783 712.408l-19.8789 0 0 -34.3402 19.8789 0 0 -16.8483c0,-37.0383 18.371,-50.5981 50.5981,-50.5981 9.61282,0 16.8536,0.922814 24.6901,1.81366l0 37.3271c-2.69811,-0.594608 -6.3233,-1.18495 -9.02141,-1.18495 -12.3802,-0.00532802 -17.4812,3.92036 -17.4812,12.9375l0.00532802 16.5531 26.4973 0 0 34.3402 -26.4973 0 0 116.86 -48.7909 0 0 -116.86z"
       id="path3761" /><path
       fill="#F3B9B1"
       d="M808.407 734.396c0,-6.02386 -0.332469,-13.2284 -2.44024,-18.9624 -2.39761,-6.02386 -6.31904,-10.2341 -14.1555,-10.2341 -16.259,-0.00532802 -18.0716,19.8469 -18.0716,49.9651 0.00532802,34.0397 5.43352,45.2019 18.0716,45.2019 17.1914,-0.00532802 18.6662,-17.4802 18.6662,-28.9386l37.9558 5.43458c-3.6156,36.7325 -24.6911,56.0316 -60.2429,56.0316 -43.9413,0 -66.8188,-38.5887 -66.8188,-75.9158 0,-41.2442 22.8775,-82.4927 68.9638,-82.4927 51.7841,0 59.6153,44.8321 59.6153,59.9104l-41.5437 0z"
       id="path3763" /><path
       fill="#F7D2CD"
       d="M829.144 734.502c10.8308,0 19.6593,8.84026 19.6593,19.67 0.00532802,10.7871 -8.83386,19.6593 -19.6647,19.6593 -10.8244,-0.00532802 -19.621,-8.87223 -19.621,-19.6593 0,-10.8351 8.79657,-19.6647 19.6263,-19.67z"
       id="path3765" /><path
       fill="#EB8E82"
       d="M271.125 716.812c3.00927,10.444 4.55972,22.3351 4.55972,35.0637 0,32.2484 -12.5464,73.0739 -47.3374,78.5393 11.7472,-39.0384 26.053,-76.9889 42.7776,-113.603z"
       id="path3767" /><path
       fill="#EFA59B"
       d="M324.357 617.397l0.00532802 32.3656c-2.69811,-0.594608 -6.32437,-1.18495 -9.02248,-1.18495 -4.19955,0 -7.5903,0.440095 -10.2021,1.39488 6.1901,-11.0024 12.5891,-21.8641 19.2192,-32.5755zm-26.4984 45.7059l0 14.9654 26.5037 0 0 34.3402 -26.5037 0 0 116.86 -48.7855 0 0 -59.6792c13.9999,-36.6952 30.2909,-72.2693 48.7855,-106.486z"
       id="path3769" /><path
       fill="#F3B9B1"
       d="M374.698 734.396c0,-6.02386 -0.332469,-13.2284 -2.40294,-18.9624 -2.43491,-6.02386 -6.35633,-10.2341 -14.1555,-10.2341 -16.2952,-0.00532802 -18.0759,19.8469 -18.0759,49.9651 0.00532802,34.0397 5.39516,45.2019 18.0759,45.2019 17.1541,-0.00532802 18.6619,-17.4802 18.6619,-28.9386l37.9227 5.43458c-3.58256,36.7325 -24.6901,56.0316 -60.2056,56.0316 -43.9786,0 -66.8614,-38.5887 -66.8614,-75.9158 0,-41.2442 22.8775,-82.4927 68.9649,-82.4927 51.8214,0 59.6153,44.8321 59.6153,59.9104l-41.5394 0z"
       id="path3771" /><path
       fill="#F7D2CD"
       d="M395.467 734.502c10.7924,0 19.6263,8.84026 19.6263,19.67 0,10.7871 -8.83386,19.6593 -19.6263,19.6593 -10.8617,-0.00532802 -19.6647,-8.87223 -19.6647,-19.6593 0.00532802,-10.8351 8.79763,-19.6647 19.6647,-19.67z"
       id="path3773" /><path
       fill="#E77666"
       d="M1343.35 614.833l48.7855 0 0 71.9944 0.590345 0c6.95201,-7.24079 19.589,-12.3418 29.529,-12.3418 33.7445,0 51.815,33.7072 51.815,77.3906 0.00639363,34.63 -14.4826,79.167 -55.436,79.167 -18.956,-0.00532802 -31.3043,-9.01608 -40.9544,-23.4668l-9.01075 21.6915 -25.3188 0 0 -214.435zm48.7855 165.945c-0.88978,12.6434 6.61421,19.589 15.9638,19.589 13.5332,-0.00532802 15.3724,-13.5652 15.3724,-41.5756l0.00532802 -11.4627c0,-30.0863 -0.00532802,-45.7496 -15.0783,-45.7496 -6.0228,-0.00532802 -10.5346,3.62093 -13.5652,6.02386l-2.69811 2.69811 0 70.477z"
       id="path3775" /><path
       fill="#EB8E82"
       d="M1446.1 614.833l48.7845 0 0 71.9944 0.590345 0c6.90938,-7.24079 19.5517,-12.3418 29.529,-12.3418 33.7072,0 51.7777,33.7072 51.7777,77.3906 0,34.63 -14.4496,79.167 -55.3987,79.167 -18.9987,-0.00532802 -31.3416,-9.01608 -40.9864,-23.4668l-9.01608 21.6915 -25.2804 0 0 -214.435zm48.7845 165.945c-0.921748,12.6434 6.61421,19.589 15.9265,19.589 13.5652,-0.00532802 15.3724,-13.5652 15.3724,-41.5756l0.00532802 -11.4627c0,-30.0863 -0.00532802,-45.7496 -15.0453,-45.7496 -6.06223,-0.00532802 -10.5676,3.62093 -13.5662,6.02386l-2.69278 2.69811 0 70.477z"
       id="path3777" /><path
       fill="#EFA59B"
       d="M1550.17 712.408l-19.8522 0 0 -34.3402 19.8522 0 0 -16.8483c0,-37.0383 18.3668,-50.5981 50.5928,-50.5981 9.65012,0 16.8536,0.922814 24.6911,1.81366l0 37.3271c-2.69811,-0.594608 -6.32437,-1.18495 -9.02248,-1.18495 -12.3429,-0.00532802 -17.4812,3.92036 -17.4812,12.9375l0.00532802 16.5531 26.4984 0 0 34.3402 -26.4984 0 0 116.86 -48.7855 0 0 -116.86z"
       id="path3779" /><path
       fill="#F3B9B1"
       d="M1675.79 734.396c0,-6.02386 -0.332469,-13.2284 -2.40294,-18.9624 -2.43491,-6.02386 -6.35633,-10.2341 -14.1928,-10.2341 -16.2579,-0.00532802 -18.0343,19.8469 -18.0343,49.9651 0.00532802,34.0397 5.39622,45.2019 18.0343,45.2019 17.1914,-0.00532802 18.6662,-17.4802 18.6662,-28.9386l37.9611 5.43458c-3.58896,36.7325 -24.6954,56.0316 -60.2109,56.0316 -43.9786,0 -66.8614,-38.5887 -66.8614,-75.9158 0.00532802,-41.2442 22.8828,-82.4927 68.9691,-82.4927 51.7788,0 59.6099,44.8321 59.6099,59.9104l-41.5383 0z"
       id="path3781" /><path
       fill="#F7D2CD"
       d="M1696.56 734.502c10.7924,0 19.6263,8.84026 19.6263,19.67 0,10.7871 -8.83386,19.6593 -19.6263,19.6593 -10.8628,-0.00532802 -19.6647,-8.87223 -19.6647,-19.6593 0.00532802,-10.8351 8.8019,-19.6647 19.6647,-19.67z"
       id="path3783" /><path
       fill="#E77666"
       d="M1779.72 614.833l48.8281 0 0 71.9944 0.590345 0c6.94561,-7.24079 19.5453,-12.3418 29.4906,-12.3418 16.7843,0 29.6739,8.34049 38.4119,22.0943 2.50417,5.14367 4.94547,10.3257 7.35374,15.5227 3.99602,11.5277 6.0505,25.0929 6.0505,39.7737 0,34.63 -14.4507,79.167 -55.4051,79.167 -18.956,-0.00532802 -31.3416,-9.01608 -40.948,-23.4668l-9.05444 21.6915 -25.3177 0 0 -214.435zm48.8281 165.945c-0.928142,12.6434 6.60782,19.589 15.9255,19.589 13.5652,-0.00532802 15.3735,-13.5652 15.3735,-41.5756l0.00532802 -11.4627c0,-30.0863 -0.00532802,-45.7496 -15.0836,-45.7496 -5.98657,-0.00532802 -10.5346,3.62093 -13.5279,6.02386l-2.69278 2.69811 0 70.477z"
       id="path3785" /><path
       fill="#EB8E82"
       d="M1949.37 830.389c-14.3548,-2.29531 -24.4173,-10.6092 -32.5649,-22.8125l-9.05444 21.6915 -25.2804 0 0 -161.23c18.5437,34.8336 34.8762,71.03 48.7855,108.39l0 4.3498c-0.606329,8.62501 2.70344,14.5903 7.8258,17.5132 3.63158,10.6102 7.04258,21.3164 10.2884,32.0982z"
       id="path3787" /><path
       fill="#E77666"
       d="M909.637 367.731l48.7909 0 0 71.9891 0.58928 0c6.95201,-7.24611 19.5837,-12.3365 29.529,-12.3365 33.7445,-0.00532802 51.8161,33.7019 51.8161,77.3853 0.00532802,34.6354 -14.4507,79.2053 -55.437,79.2053 -18.956,0 -31.3043,-9.01715 -40.9533,-23.5051l-9.01715 21.6968 -25.3177 0 0 -214.435zm48.7909 165.939c-0.890846,12.6381 6.64511,19.589 15.9628,19.589 13.5598,0 15.3735,-13.5598 15.3735,-41.5756l0.00532802 -11.4574c0,-30.0863 -0.00532802,-45.7549 -15.0836,-45.7549 -5.98657,-0.00532802 -10.5346,3.62093 -13.5279,6.02386l-2.73008 2.69278 0 70.4823z"
       id="path3789" /><path
       fill="#EB8E82"
       d="M1012.39 367.731l48.7855 0 0 71.9891 0.58928 0c6.90938,-7.24611 19.5848,-12.3365 29.529,-12.3365 33.7072,-0.00532802 51.7788,33.7019 51.7788,77.3853 0,34.6354 -14.456,79.2053 -55.4051,79.2053 -18.9933,0 -31.3416,-9.01715 -40.9853,-23.5051l-9.01715 21.6968 -25.2751 0 0 -214.435zm48.7855 165.939c-0.928142,12.6381 6.61314,19.589 15.9628,19.589 13.5279,0 15.3362,-13.5598 15.3362,-41.5756l0.00532802 -11.4574c0,-30.0863 -0.00532802,-45.7549 -15.0463,-45.7549 -6.02386,-0.00532802 -10.5346,3.62093 -13.5652,6.02386l-2.69278 2.69278 0 70.4823z"
       id="path3791" /><path
       fill="#EFA59B"
       d="M1116.46 465.295l-19.8458 0 0 -34.3295 19.8458 0 0 -16.8589c0,-37.0276 18.3668,-50.5928 50.5992,-50.5928 9.64372,0 16.8856,0.922814 24.722,1.81259l0 37.3228c-2.73541,-0.590345 -6.35633,-1.17962 -9.05444,-1.17962 -12.3418,0 -17.4812,3.92036 -17.4812,12.9375l0 16.5584 26.5357 0 0 34.3295 -26.5357 0 0 116.87 -48.7855 0 0 -116.87z"
       id="path3793" /><path
       fill="#F3B9B1"
       d="M1242.08 487.287c0,-6.0228 -0.337797,-13.2274 -2.40294,-18.956 -2.43491,-6.02386 -6.31797,-10.2394 -14.1555,-10.2394 -16.2952,0 -18.0759,19.8469 -18.0759,49.9705 0,34.0397 5.39622,45.1966 18.0759,45.1966 17.1541,0 18.6619,-17.4812 18.6619,-28.9386l37.9227 5.43458c-3.58256,36.7378 -24.6901,56.0316 -60.2099,56.0316 -43.9743,-0.00532802 -66.8571,-38.5887 -66.8571,-75.9169 0,-41.2485 22.8775,-82.4863 68.9649,-82.4863 51.8214,-0.00532802 59.6153,44.8268 59.6153,59.9094l-41.5394 -0.00532802z"
       id="path3795" /><path
       fill="#F7D2CD"
       d="M1262.85 487.4c10.7924,0 19.6274,8.83493 19.6274,19.6647 0,10.7871 -8.83493,19.6583 -19.6274,19.6583 -10.867,0 -19.6647,-8.86583 -19.6647,-19.6583 0.00532802,-10.8297 8.79763,-19.6647 19.6647,-19.6647z"
       id="path3797" /><path
       fill="#E77666"
       d="M524.75 390.13l0 49.5901 0.595673 0c6.94028,-7.24611 19.5837,-12.3365 29.5226,-12.3365 33.7125,-0.00532802 51.7788,33.7019 51.7788,77.3853 0.00532802,34.6354 -14.4453,79.2053 -55.3987,79.2053 -18.9624,0 -31.3416,-9.01715 -40.9491,-23.5051l-9.05444 21.6968 -25.2804 0 0 -149.601c15.7432,-14.7128 32.0182,-28.8683 48.7855,-42.4345zm0 143.54c-0.922814,12.6381 6.61421,19.589 15.9628,19.589 13.5289,0 15.3415,-13.5598 15.3415,-41.5756l0 -11.4574c0,-30.0863 0,-45.7549 -15.041,-45.7549 -6.02919,-0.00532802 -10.5346,3.62093 -13.5652,6.02386l-2.69811 2.69278 0 70.4823z"
       id="path3799" /><path
       fill="#EB8E82"
       d="M578.674 367.731l48.8228 0 0 71.9891 0.590345 0c6.91364,-7.24611 19.5464,-12.3365 29.4906,-12.3365 33.7456,-0.00532802 51.7788,33.7019 51.7788,77.3853 0,34.6354 -14.4507,79.2053 -55.3987,79.2053 -18.9571,0 -31.3043,-9.01715 -40.9491,-23.5051l-9.05444 21.6968 -25.2804 0 0 -214.435zm48.8228 165.939c-0.922814,12.6381 6.61421,19.589 15.9255,19.589 13.5662,0 15.3788,-13.5598 15.3788,-41.5756l0 -11.4574c0,-30.0863 0,-45.7549 -15.0836,-45.7549 -6.01854,-0.00532802 -10.5292,3.62093 -13.5225,6.02386l-2.69811 2.69278 0 70.4823z"
       id="path3801" /><path
       fill="#EFA59B"
       d="M682.783 465.295l-19.8789 0 0 -34.3295 19.8789 0 0 -16.8589c0,-37.0276 18.371,-50.5928 50.5981,-50.5928 9.61282,0 16.8536,0.922814 24.6901,1.81259l0 37.3228c-2.69811,-0.590345 -6.3233,-1.17962 -9.02141,-1.17962 -12.3802,0 -17.4812,3.92036 -17.4812,12.9375l0.00532802 16.5584 26.4973 0 0 34.3295 -26.4973 0 0 116.87 -48.7909 0 0 -116.87z"
       id="path3803" /><path
       fill="#F3B9B1"
       d="M808.407 487.287c0,-6.0228 -0.332469,-13.2274 -2.44024,-18.956 -2.39761,-6.02386 -6.31904,-10.2394 -14.1555,-10.2394 -16.259,0 -18.0716,19.8469 -18.0716,49.9705 0.00532802,34.0397 5.43352,45.1966 18.0716,45.1966 17.1914,0 18.6662,-17.4812 18.6662,-28.9386l37.9558 5.43458c-3.6156,36.7378 -24.6911,56.0316 -60.2429,56.0316 -43.9413,-0.00532802 -66.8188,-38.5887 -66.8188,-75.9169 0,-41.2485 22.8775,-82.4863 68.9638,-82.4863 51.7841,-0.00532802 59.6153,44.8268 59.6153,59.9094l-41.5437 -0.00532802z"
       id="path3805" /><path
       fill="#F7D2CD"
       d="M829.144 487.4c10.8308,0 19.6593,8.83493 19.6593,19.6647 0.00532802,10.7871 -8.83386,19.6583 -19.6647,19.6583 -10.8244,0 -19.621,-8.86583 -19.621,-19.6583 0,-10.8297 8.79657,-19.6647 19.6263,-19.6647z"
       id="path3807" /><path
       fill="#F3B9B1"
       d="M389.063 526.08l25.6608 3.67527c-3.58256,36.7378 -24.6901,56.0316 -60.2056,56.0316 -3.20214,0 -6.30199,-0.219515 -9.27929,-0.616985 13.807,-20.3136 28.4453,-40.0049 43.8241,-59.0899z"
       id="path3809" /><path
       fill="#F7D2CD"
       d="M412.772 497.818c1.4748,2.75672 2.32195,5.91091 2.32195,9.24732 0,10.7871 -8.83386,19.6583 -19.6263,19.6583 -2.13441,0 -4.21127,-0.364437 -6.13149,-0.992078 7.63293,-9.46151 15.4385,-18.7738 23.4358,-27.9135z"
       id="path3811" /><path
       fill="#E77666"
       d="M1343.35 367.731l48.7855 0 0 71.9891 0.590345 0c6.95201,-7.24611 19.589,-12.3365 29.529,-12.3365 33.7445,-0.00532802 51.815,33.7019 51.815,77.3853 0.00639363,34.6354 -14.4826,79.2053 -55.436,79.2053 -18.956,0 -31.3043,-9.01715 -40.9544,-23.5051l-9.01075 21.6968 -25.3188 0 0 -214.435zm48.7855 165.939c-0.88978,12.6381 6.61421,19.589 15.9638,19.589 13.5332,0 15.3724,-13.5598 15.3724,-41.5756l0.00532802 -11.4574c0,-30.0863 -0.00532802,-45.7549 -15.0783,-45.7549 -6.0228,-0.00532802 -10.5346,3.62093 -13.5652,6.02386l-2.69811 2.69278 0 70.4823z"
       id="path3813" /><path
       fill="#EB8E82"
       d="M1446.1 367.731l48.7845 0 0 71.9891 0.590345 0c6.90938,-7.24611 19.5517,-12.3365 29.529,-12.3365 33.7072,-0.00532802 51.7777,33.7019 51.7777,77.3853 0,34.6354 -14.4496,79.2053 -55.3987,79.2053 -18.9987,0 -31.3416,-9.01715 -40.9864,-23.5051l-9.01608 21.6968 -25.2804 0 0 -214.435zm48.7845 165.939c-0.921748,12.6381 6.61421,19.589 15.9265,19.589 13.5652,0 15.3724,-13.5598 15.3724,-41.5756l0.00532802 -11.4574c0,-30.0863 -0.00532802,-45.7549 -15.0453,-45.7549 -6.06223,-0.00532802 -10.5676,3.62093 -13.5662,6.02386l-2.69278 2.69278 0 70.4823z"
       id="path3815" /><path
       fill="#EFA59B"
       d="M1550.17 465.295l-19.8522 0 0 -34.3295 19.8522 0 0 -16.8589c0,-37.0276 18.3668,-50.5928 50.5928,-50.5928 7.40276,0 13.3456,0.530671 19.2565,1.18495 1.80833,1.33094 3.63691,2.62352 5.43458,3.96405l0 33.9864c-2.69811,-0.590345 -6.32437,-1.17962 -9.02248,-1.17962 -12.3429,0 -17.4812,3.92036 -17.4812,12.9375l0.00532802 16.5584 26.4984 0 0 34.3295 -26.4984 0 0 116.87 -48.7855 0 0 -116.87z"
       id="path3817" /><path
       fill="#F3B9B1"
       d="M1675.79 487.287c0,-6.0228 -0.332469,-13.2274 -2.40294,-18.956 -2.43491,-6.02386 -6.35633,-10.2394 -14.1928,-10.2394 -16.2579,0 -18.0343,19.8469 -18.0343,49.9705 0.00532802,34.0397 5.39622,45.1966 18.0343,45.1966 17.1914,0 18.6662,-17.4812 18.6662,-28.9386l37.9611 5.43458c-3.58896,36.7378 -24.6954,56.0316 -60.2109,56.0316 -43.9786,-0.00532802 -66.8614,-38.5887 -66.8614,-75.9169 0.00532802,-41.2485 22.8828,-82.4863 68.9691,-82.4863 51.7788,-0.00532802 59.6099,44.8268 59.6099,59.9094l-41.5383 -0.00532802z"
       id="path3819" /><path
       fill="#F7D2CD"
       d="M1696.56 487.4c10.7924,0 19.6263,8.83493 19.6263,19.6647 0,10.7871 -8.83386,19.6583 -19.6263,19.6583 -10.8628,0 -19.6647,-8.86583 -19.6647,-19.6583 0.00532802,-10.8297 8.8019,-19.6647 19.6647,-19.6647z"
       id="path3821" /><path
       fill="#E77666"
       d="M1822.74 571.122c-3.15419,-3.09025 -6.00149,-6.65683 -8.65165,-10.6529l-9.05444 21.6968 -25.3177 0 0 -67.0606c15.0506,18.0929 29.4054,36.7708 43.0238,56.0167z"
       id="path3823" /><path
       fill="#E77666"
       d="M1019.57 193.042c13.6621,13.6834 20.7963,37.1885 20.7963,64.6247 0.00532802,34.6247 -14.4507,79.199 -55.437,79.199 -18.956,0 -31.3043,-9.01608 -40.9533,-23.504l-9.01715 21.6915 -25.3177 0 0 -126.676c35.9173,-7.30046 72.6061,-12.4761 109.929,-15.3351zm-61.138 93.526c-0.890846,12.6381 6.64511,19.589 15.9628,19.589 13.5598,-0.00532802 15.3735,-13.5652 15.3735,-41.581l0.00532802 -11.4574c0,-30.0863 -0.00532802,-45.7549 -15.0836,-45.7549 -5.98657,0 -10.5346,3.62093 -13.5279,6.02386l-2.73008 2.73541 0 70.445z"
       id="path3825" /><path
       fill="#EB8E82"
       d="M1061.17 190.869l0 1.74866 0.58928 0c0.601001,-0.627641 1.22331,-1.24995 1.90424,-1.84456 8.3682,-0.236564 16.779,-0.365502 25.2005,-0.365502 10.4706,0 20.8763,0.241892 31.2606,0.595673 15.0517,13.3137 22.9425,37.8162 22.9425,66.6632 0,34.6247 -14.456,79.199 -55.4051,79.199 -18.9933,0 -31.3416,-9.01608 -40.9853,-23.504l-9.01715 21.6915 -25.2751 0 0 -141.367c16.145,-1.36824 32.4093,-2.31769 48.7855,-2.81639zm0 95.6988c-0.928142,12.6381 6.61314,19.589 15.9628,19.589 13.5279,-0.00532802 15.3362,-13.5652 15.3362,-41.581l0.00532802 -11.4574c0,-30.0863 -0.00532802,-45.7549 -15.0463,-45.7549 -6.02386,0 -10.5346,3.62093 -13.5652,6.02386l-2.69278 2.73541 0 70.445z"
       id="path3827" /><path
       fill="#EFA59B"
       d="M1116.46 218.193l-19.8458 0 0 -27.6887c32.1514,0.27386 63.8894,2.24736 95.167,5.83099l0 21.8577 -26.5357 0 0 116.86 -48.7855 0 0 -116.86z"
       id="path3829" /><path
       fill="#F3B9B1"
       d="M1242.08 240.18c0,-6.02386 -0.337797,-13.2274 -2.40294,-18.956 -2.43491,-6.02919 -6.31797,-10.2394 -14.1555,-10.2394 -16.2952,0 -18.0759,19.8842 -18.0759,49.9705 0,34.0344 5.39622,45.2019 18.0759,45.2019 17.1541,-0.00532802 18.6619,-17.4812 18.6619,-28.9386l37.9227 5.42819c-3.58256,36.7378 -24.6901,56.0327 -60.2099,56.0327 -43.9743,0 -66.8571,-38.5461 -66.8571,-75.8785 0,-25.9464 9.03313,-51.8758 27.1846,-67.5593 31.9159,3.30977 63.3268,8.32983 94.175,14.9057 5.76173,11.5597 7.22054,23.5541 7.22054,30.0383l-41.5394 -0.00532802z"
       id="path3831" /><path
       fill="#F7D2CD"
       d="M1262.85 240.293c10.7924,0 19.6274,8.83493 19.6274,19.6647 0,10.7871 -8.83493,19.6583 -19.6274,19.6583 -10.867,0 -19.6647,-8.86583 -19.6647,-19.6583 0.00532802,-10.8297 8.79763,-19.6647 19.6647,-19.6647z"
       id="path3833" /><path
       fill="#EB8E82"
       d="M708.133 275.18c-4.21553,30.4731 -19.9162,61.6857 -54.1754,61.6857 -14.521,0 -25.1738,-5.30991 -33.6966,-14.3004 28.295,-17.363 57.63,-33.1755 87.8719,-47.3853zm-102.881 56.7669l-1.29791 3.10624 -3.42699 0c1.58242,-1.02937 3.13714,-2.08645 4.72489,-3.10624z"
       id="path3835" /><path
       fill="#EFA59B"
       d="M731.574 264.581l0 70.4716 -48.7909 0 0 -47.5143c15.9905,-8.13696 32.2697,-15.7699 48.7909,-22.9574z"
       id="path3837" /><path
       fill="#F3B9B1"
       d="M808.407 240.18c0,-1.55472 -0.0319681,-3.20214 -0.102298,-4.86981 12.9812,-4.28053 26.0903,-8.28188 39.324,-11.9785 1.76464,6.77512 2.32195,12.8629 2.32195,16.8536l-41.5437 -0.00532802zm-34.4904 7.24185c-0.139594,4.22619 -0.17689,8.75394 -0.17689,13.5332 0.00532802,34.0344 5.43352,45.2019 18.0716,45.2019 17.1914,-0.00532802 18.6662,-17.4812 18.6662,-28.9386l37.9558 5.42819c-3.6156,36.7378 -24.6911,56.0327 -60.2429,56.0327 -41.5224,0 -64.2443,-34.4318 -66.6152,-69.7215 17.1648,-7.71818 34.63,-14.8844 52.3414,-21.5359z"
       id="path3839" /><path
       fill="#F7D2CD"
       d="M829.144 240.293c10.8308,0 19.6593,8.83493 19.6593,19.6647 0.00532802,10.7871 -8.83386,19.6583 -19.6647,19.6583 -10.8244,0 -19.621,-8.86583 -19.621,-19.6583 0,-10.8297 8.79657,-19.6647 19.6263,-19.6647z"
       id="path3841" /><path
       fill="#E77666"
       d="M1472.64 276.607c-4.51603,30.0064 -20.2753,60.2589 -54.0038,60.2589 -18.956,0 -31.3043,-9.01608 -40.9544,-23.504l-9.01075 21.6915 -25.3188 0 0 -107.891c16.4625,4.87621 32.7311,10.1978 48.7855,15.9638l0 43.4426c-0.88978,12.6381 6.61421,19.589 15.9638,19.589 13.5332,-0.00532802 15.3724,-13.5652 15.3724,-41.581l0.00532802 -9.51052c16.6394,6.69946 33.0316,13.887 49.1606,21.5412z"
       id="path3843" /><path
       fill="#EB8E82"
       d="M1556.14 321.739c-8.47049,9.19404 -19.8469,15.1263 -34.759,15.1263 -18.9987,0 -31.3416,-9.01608 -40.9864,-23.504l-9.01608 21.6915 -25.2804 0 0 -70.4983c16.4988,7.17685 32.7524,14.8151 48.7258,22.9254 -0.498703,12.0531 6.90299,18.6769 15.9851,18.6769 4.63964,0 7.87908,-1.60374 10.1691,-4.81121 11.8868,6.54388 23.6127,13.335 35.1618,20.3935z"
       id="path3845" /><path
       fill="#EFA59B"
       d="M1577.2 335.053l-27.0291 0 0 -16.9016c9.11305,5.47614 18.1249,11.1143 27.0291,16.9016z"
       id="path3847" /><polygon
       fill="#1F1A17"
       points="815.043,1453.04 815.043,932.143 706.234,1026.24 706.234,858.668 815.043,764.589 972.083,764.589 972.083,1453.04"
       id="polygon3849" /><path
       fill="#1F1A17"
       d="M1429.56 1399.82c-29.9691,29.9744 -82.1976,58.9557 -159.552,58.9557 -77.332,-0.00532802 -133.423,-29.9414 -163.398,-59.9158 -49.2949,-49.3375 -56.0636,-105.401 -59.9424,-155.668l158.56 0c4.83252,45.4225 24.202,72.5155 64.7803,72.5155 19.3535,-0.00532802 31.9319,-4.84317 44.4837,-17.4109 14.5093,-14.488 20.303,-39.6181 20.303,-80.272 0.00532802,-76.3559 -26.1073,-97.6456 -64.7866,-97.6456 -46.3773,0 -58.0062,30.9345 -64.7856,49.3428l-145.987 -0.00532802 0 -405.125 414.92 0 0 143.089 -270.859 0 0 106.368c13.5279,-10.6475 50.2816,-27.0877 92.844,-27.0877 59.9264,0 105.365,20.3083 133.419,48.3401 56.0689,56.0807 63.8095,117.97 63.8095,182.724 0.00532802,83.195 -12.5837,130.538 -63.8095,181.795z"
       id="path3851" /><polygon
       points="761.397,878.499 652.595,972.599 652.595,805.044 761.397,710.944 918.454,710.944 918.454,1399.42 761.397,1399.42 "
       id="polygon3853"
       style="fill:#ec192d" /><path
       d="m 1375.91,1346.19 c -29.9733,29.9371 -82.1976,58.9503 -159.535,58.9503 -77.3491,0 -133.434,-29.9744 -163.408,-59.9477 -49.3055,-49.3055 -56.07,-105.37 -59.9318,-155.636 l 158.553,0 c 4.8229,45.4225 24.186,72.5155 64.7866,72.5155 19.3365,0 31.9159,-4.8805 44.4613,-17.4056 14.5103,-14.5263 20.3136,-39.6565 20.3136,-80.2773 0,-76.3943 -26.1116,-97.6456 -64.7749,-97.6456 -46.3986,0 -58.0222,30.9334 -64.7866,49.3055 l -146.002,0 0,-405.109 414.92,0 0,143.089 -270.838,0 0,106.368 c 13.5279,-10.6315 50.2603,-27.0717 92.8184,-27.0717 59.9318,-0.005 105.376,20.2912 133.423,48.3401 56.07,56.0636 63.8095,117.954 63.8095,182.724 0,83.1577 -12.5837,130.543 -63.8095,181.801 z"
       id="path3855"
       style="fill:#ec192d"
       inkscape:connector-curvature="0" /></g></svg>