<?xml version="1.0" encoding="UTF-8" standalone="no"?>
<!-- Created with Inkscape (http://www.inkscape.org/) -->
<svg
   xmlns:dc="http://purl.org/dc/elements/1.1/"
   xmlns:cc="http://creativecommons.org/ns#"
   xmlns:rdf="http://www.w3.org/1999/02/22-rdf-syntax-ns#"
   xmlns:svg="http://www.w3.org/2000/svg"
   xmlns="http://www.w3.org/2000/svg"
   xmlns:sodipodi="http://sodipodi.sourceforge.net/DTD/sodipodi-0.dtd"
   xmlns:inkscape="http://www.inkscape.org/namespaces/inkscape"
   width="490"
   height="490"
   id="svg8969"
   sodipodi:version="0.32"
   inkscape:version="0.46"
   version="1.0"
   sodipodi:docname="BBFC_12A.svg"
   inkscape:output_extension="org.inkscape.output.svg.inkscape">
  <defs
     id="defs8971">
    <clipPath
       id="clp6"
       clip-rule="nonzero">
<path
   d="M 4.1026,2.5825 C 4.1026,2.3376 3.9041,2.1391 3.6593,2.1391 C 3.4144,2.1391 3.2159,2.3376 3.2159,2.5825 C 3.2159,2.8273 3.4144,3.0258 3.6593,3.0258 C 3.9041,3.0258 4.1026,2.8273 4.1026,2.5825"
   id="path658" />

</clipPath>
    <clipPath
       id="clp5"
       clip-rule="nonzero">
<path
   d="M 122.66,284.06 L 166.72,284.06 L 166.72,338.97 L 122.66,338.97 L 122.66,284.06 z"
   id="path634" />

</clipPath>
    <inkscape:perspective
       sodipodi:type="inkscape:persp3d"
       inkscape:vp_x="0 : 526.18109 : 1"
       inkscape:vp_y="0 : 1000 : 0"
       inkscape:vp_z="744.09448 : 526.18109 : 1"
       inkscape:persp3d-origin="372.04724 : 350.78739 : 1"
       id="perspective8977" />
  </defs>
  <sodipodi:namedview
     id="base"
     pagecolor="#ffffff"
     bordercolor="#666666"
     borderopacity="1.0"
     gridtolerance="10000"
     guidetolerance="10"
     objecttolerance="10"
     inkscape:pageopacity="0.0"
     inkscape:pageshadow="2"
     inkscape:zoom="1"
     inkscape:cx="375"
     inkscape:cy="280"
     inkscape:document-units="px"
     inkscape:current-layer="layer1"
     showgrid="false"
     inkscape:window-width="1680"
     inkscape:window-height="1000"
     inkscape:window-x="-8"
     inkscape:window-y="-8" />
  <metadata
     id="metadata8974">
    <rdf:RDF>
      <cc:Work
         rdf:about="">
        <dc:format>image/svg+xml</dc:format>
        <dc:type
           rdf:resource="http://purl.org/dc/dcmitype/StillImage" />
      </cc:Work>
    </rdf:RDF>
  </metadata>
  <g
     inkscape:label="Layer 1"
     inkscape:groupmode="layer"
     id="layer1"
     transform="translate(61.577748,-282.51124)">
    <g
       id="q10"
       class="ps02 ps20"
       style="font-size:9.5px;letter-spacing:0;word-spacing:0;fill:#231f20;stroke:none;font-family:fnt0"
       transform="matrix(13.902647,0,0,-13.902647,-1804.2994,4891.3568)">
<clipPath
   id="clipPath8984"
   clip-rule="nonzero">
<path
   d="M 122.66,284.06 L 166.72,284.06 L 166.72,338.97 L 122.66,338.97 L 122.66,284.06 z"
   id="path8986" />

</clipPath>

<g
   clip-path="url(#clp5)"
   id="g636">
<g
   id="q11"
   class="ps00"
   style="fill:none;stroke:none">
<g
   id="xfrm12"
   transform="matrix(34.5258,0,0,34.5258,16.706,224.795)">
<path
   d="M 4.1519,2.5825 C 4.1519,2.3104 3.9313,2.0899 3.6593,2.0899 C 3.3872,2.0899 3.1667,2.3104 3.1667,2.5825 C 3.1667,2.8545 3.3872,3.0751 3.6593,3.0751 C 3.9313,3.0751 4.1519,2.8545 4.1519,2.5825"
   class="ps01"
   id="path640"
   style="fill:#ffffff;fill-rule:nonzero;stroke:none" />

<path
   d="M 4.1519,2.5825 C 4.1519,2.3104 3.9313,2.0899 3.6593,2.0899 C 3.3872,2.0899 3.1667,2.3104 3.1667,2.5825 C 3.1667,2.8545 3.3872,3.0751 3.6593,3.0751 C 3.9313,3.0751 4.1519,2.8545 4.1519,2.5825 z"
   class="ps03 ps10"
   id="path642"
   style="fill:none;stroke:#231f20;stroke-width:0.0148;stroke-linecap:butt;stroke-linejoin:miter;stroke-miterlimit:10;stroke-dasharray:none" />

<path
   d="M 4.1026,2.5825 C 4.1026,2.3376 3.9041,2.1391 3.6593,2.1391 C 3.4144,2.1391 3.2159,2.3376 3.2159,2.5825 C 3.2159,2.8273 3.4144,3.0258 3.6593,3.0258 C 3.9041,3.0258 4.1026,2.8273 4.1026,2.5825"
   class="ps011 ps10"
   id="path644"
   style="fill:#f4782a;fill-rule:nonzero;stroke:none;stroke-width:0.0148;stroke-linecap:butt;stroke-linejoin:miter;stroke-miterlimit:10;stroke-dasharray:none" />

<path
   d="M 3.6159,2.11 C 3.6111,2.1105 3.6081,2.1141 3.6085,2.1196 C 3.609,2.125 3.6127,2.128 3.6175,2.1276 C 3.6223,2.1272 3.6254,2.1235 3.6249,2.1181 C 3.6244,2.1127 3.6207,2.1096 3.6159,2.11 z M 3.6196,2.1167 C 3.6193,2.1153 3.6181,2.1148 3.6167,2.1149 C 3.6149,2.1151 3.6138,2.1169 3.614,2.1191 C 3.6142,2.1215 3.6154,2.1229 3.6174,2.1227 C 3.6186,2.1226 3.6198,2.122 3.6199,2.1205 L 3.6228,2.1202 C 3.6225,2.1235 3.6205,2.1254 3.6176,2.1256 C 3.6136,2.126 3.6108,2.1233 3.6105,2.1194 C 3.6101,2.1156 3.6125,2.1124 3.6165,2.112 C 3.6192,2.1118 3.6218,2.1133 3.6226,2.1165 L 3.6196,2.1167 z M 3.6048,2.1199 C 3.6043,2.1134 3.6091,2.1075 3.6157,2.107 C 3.6222,2.1064 3.628,2.1112 3.6286,2.1178 C 3.6292,2.1243 3.6243,2.1301 3.6178,2.1307 C 3.6113,2.1313 3.6054,2.1264 3.6048,2.1199"
   class="ps011 ps10"
   id="path646"
   style="fill:#f4782a;fill-rule:nonzero;stroke:none;stroke-width:0.0148;stroke-linecap:butt;stroke-linejoin:miter;stroke-miterlimit:10;stroke-dasharray:none" />

<path
   d="M 3.6294,2.1062 L 3.6481,2.1055 L 3.6483,2.1109 L 3.6379,2.1114 L 3.6379,2.1114 L 3.6444,2.1155 C 3.6468,2.1169 3.6487,2.1189 3.6488,2.1218 C 3.6489,2.1246 3.6471,2.1288 3.64,2.129 C 3.6347,2.1293 3.6313,2.1265 3.63,2.1236 L 3.6347,2.1209 C 3.6354,2.1229 3.6371,2.1248 3.6393,2.1247 C 3.6411,2.1246 3.6422,2.1235 3.6421,2.1217 C 3.6421,2.1201 3.6401,2.1183 3.6391,2.1175 L 3.6295,2.1104"
   class="ps011 ps10"
   id="path648"
   style="fill:#f4782a;fill-rule:nonzero;stroke:none;stroke-width:0.0148;stroke-linecap:butt;stroke-linejoin:miter;stroke-miterlimit:10;stroke-dasharray:none" />

<path
   d="M 3.6647,2.1168 C 3.6647,2.1107 3.6634,2.1094 3.6615,2.1094 C 3.6595,2.1094 3.6582,2.1106 3.6581,2.1168 C 3.6581,2.123 3.6594,2.1243 3.6614,2.1243 C 3.6634,2.1243 3.6647,2.123 3.6647,2.1168 z M 3.6514,2.1168 C 3.6514,2.1093 3.6557,2.105 3.6615,2.105 C 3.6672,2.105 3.6715,2.1094 3.6715,2.1169 C 3.6714,2.1216 3.6689,2.1287 3.6614,2.1287 C 3.6538,2.1286 3.6514,2.1215 3.6514,2.1168"
   class="ps011 ps10"
   id="path650"
   style="fill:#f4782a;fill-rule:nonzero;stroke:none;stroke-width:0.0148;stroke-linecap:butt;stroke-linejoin:miter;stroke-miterlimit:10;stroke-dasharray:none" />

<path
   d="M 3.686,2.1176 C 3.6863,2.1114 3.6851,2.1101 3.6831,2.11 C 3.6811,2.1099 3.6798,2.1111 3.6795,2.1172 C 3.6792,2.1234 3.6804,2.1248 3.6824,2.1248 C 3.6844,2.1249 3.6857,2.1237 3.686,2.1176 z M 3.6727,2.1169 C 3.6731,2.1094 3.6776,2.1053 3.6833,2.1056 C 3.6891,2.1059 3.6931,2.1104 3.6928,2.1179 C 3.6925,2.1227 3.6897,2.1296 3.6822,2.1292 C 3.6746,2.1288 3.6725,2.1217 3.6727,2.1169"
   class="ps011 ps10"
   id="path652"
   style="fill:#f4782a;fill-rule:nonzero;stroke:none;stroke-width:0.0148;stroke-linecap:butt;stroke-linejoin:miter;stroke-miterlimit:10;stroke-dasharray:none" />

<path
   d="M 3.6956,2.1067 L 3.7143,2.1084 L 3.7137,2.1139 L 3.7034,2.1129 L 3.7034,2.113 L 3.7092,2.1178 C 3.7114,2.1196 3.713,2.1219 3.7127,2.1247 C 3.7125,2.1275 3.7101,2.1314 3.703,2.1307 C 3.6977,2.1302 3.6948,2.127 3.6939,2.1239 L 3.6989,2.122 C 3.6993,2.124 3.7007,2.1261 3.703,2.1263 C 3.7047,2.1265 3.706,2.1255 3.7062,2.1238 C 3.7063,2.1222 3.7046,2.1201 3.7037,2.1192 L 3.6952,2.1109"
   class="ps011 ps10"
   id="path654"
   style="fill:#f4782a;fill-rule:nonzero;stroke:none;stroke-width:0.0148;stroke-linecap:butt;stroke-linejoin:miter;stroke-miterlimit:10;stroke-dasharray:none" />

<g
   id="q13"
   class="ps011 ps10"
   style="fill:#f4782a;fill-rule:nonzero;stroke:none;stroke-width:0.0148;stroke-linecap:butt;stroke-linejoin:miter;stroke-miterlimit:10;stroke-dasharray:none">
<clipPath
   id="clipPath9000"
   clip-rule="nonzero">
<path
   d="M 4.1026,2.5825 C 4.1026,2.3376 3.9041,2.1391 3.6593,2.1391 C 3.4144,2.1391 3.2159,2.3376 3.2159,2.5825 C 3.2159,2.8273 3.4144,3.0258 3.6593,3.0258 C 3.9041,3.0258 4.1026,2.8273 4.1026,2.5825"
   id="path9002" />

</clipPath>

<g
   clip-path="url(#clp6)"
   id="g660">
<path
   d="M 3.577,2.2328 L 3.5994,2.2328 L 3.5994,2.1998 L 3.5997,2.1998 C 3.6028,2.2031 3.6086,2.2054 3.6132,2.2054 C 3.6287,2.2054 3.637,2.19 3.637,2.1699 C 3.637,2.154 3.6304,2.1335 3.6115,2.1335 C 3.6028,2.1335 3.5972,2.1377 3.5927,2.1443 L 3.5886,2.1344 L 3.577,2.1344 L 3.577,2.2328 z M 3.5994,2.1566 C 3.599,2.1508 3.6024,2.1476 3.6067,2.1476 C 3.6129,2.1476 3.6138,2.1539 3.6138,2.1667 L 3.6138,2.172 C 3.6138,2.1858 3.6138,2.193 3.6068,2.193 C 3.6041,2.193 3.602,2.1913 3.6006,2.1902 L 3.5994,2.189"
   class="ps012"
   id="path662"
   style="fill:#f8a96d;fill-rule:nonzero;stroke:none" />

<path
   d="M 3.6242,2.2328 L 3.6466,2.2328 L 3.6466,2.1998 L 3.6468,2.1998 C 3.65,2.2031 3.6558,2.2054 3.6604,2.2054 C 3.6759,2.2054 3.6842,2.19 3.6842,2.1699 C 3.6842,2.154 3.6775,2.1335 3.6587,2.1335 C 3.65,2.1335 3.6443,2.1377 3.6399,2.1443 L 3.6358,2.1344 L 3.6242,2.1344 L 3.6242,2.2328 z M 3.6466,2.1566 C 3.6461,2.1508 3.6496,2.1476 3.6539,2.1476 C 3.6601,2.1476 3.6609,2.1539 3.6609,2.1667 L 3.6609,2.172 C 3.6609,2.1858 3.6609,2.193 3.654,2.193 C 3.6513,2.193 3.6492,2.1913 3.6478,2.1902 L 3.6466,2.189"
   class="ps013"
   id="path664"
   style="fill:#f9b682;fill-rule:nonzero;stroke:none" />

<path
   d="M 3.6719,2.188 L 3.6628,2.188 L 3.6628,2.2038 L 3.6719,2.2038 L 3.6719,2.2115 C 3.6719,2.2285 3.6804,2.2348 3.6952,2.2348 C 3.6996,2.2348 3.7029,2.2344 3.7065,2.2339 L 3.7065,2.2168 C 3.7053,2.2171 3.7036,2.2173 3.7024,2.2173 C 3.6967,2.2173 3.6944,2.2155 3.6944,2.2114 L 3.6944,2.2038 L 3.7065,2.2038 L 3.7065,2.188 L 3.6944,2.188 L 3.6944,2.1344 L 3.6719,2.1344"
   class="ps014"
   id="path666"
   style="fill:#fac498;fill-rule:nonzero;stroke:none" />

<path
   d="M 3.7296,2.1779 C 3.7296,2.1807 3.7295,2.184 3.7285,2.1866 C 3.7274,2.1894 3.7256,2.1913 3.722,2.1913 C 3.7145,2.1913 3.7137,2.1822 3.7137,2.1684 C 3.7137,2.1528 3.7162,2.1476 3.722,2.1476 C 3.7299,2.1476 3.7306,2.1557 3.7306,2.1609 L 3.748,2.1584 C 3.7464,2.1416 3.7367,2.1327 3.7204,2.1327 C 3.7002,2.1327 3.6897,2.1504 3.6897,2.1676 C 3.6897,2.1865 3.7002,2.2054 3.7213,2.2054 C 3.7451,2.2054 3.7487,2.1848 3.7487,2.1779"
   class="ps015"
   id="path668"
   style="fill:#fbd2af;fill-rule:nonzero;stroke:none" />

<path
   d="M 3.7392,2.1779 C 3.7441,2.1779 3.7482,2.1738 3.7482,2.1688 C 3.7482,2.1639 3.7441,2.1598 3.7392,2.1598 C 3.7342,2.1598 3.7301,2.1639 3.7301,2.1688 C 3.7301,2.1738 3.7342,2.1779 3.7392,2.1779"
   class="ps016"
   id="path670"
   style="fill:#fce0c8;fill-rule:nonzero;stroke:none" />

<path
   d="M 3.577,2.3463 L 3.5994,2.3463 L 3.5994,2.3132 L 3.5997,2.3132 C 3.6028,2.3166 3.6086,2.3189 3.6132,2.3189 C 3.6287,2.3189 3.637,2.3034 3.637,2.2834 C 3.637,2.2675 3.6304,2.247 3.6115,2.247 C 3.6028,2.247 3.5972,2.2512 3.5927,2.2578 L 3.5886,2.2478 L 3.577,2.2478 L 3.577,2.3463 z M 3.5994,2.2701 C 3.599,2.2643 3.6024,2.2611 3.6067,2.2611 C 3.6129,2.2611 3.6138,2.2673 3.6138,2.2802 L 3.6138,2.2855 C 3.6138,2.2993 3.6138,2.3065 3.6068,2.3065 C 3.6041,2.3065 3.602,2.3048 3.6006,2.3037 L 3.5994,2.3025"
   class="ps012"
   id="path672"
   style="fill:#f8a96d;fill-rule:nonzero;stroke:none" />

<path
   d="M 3.6242,2.3463 L 3.6466,2.3463 L 3.6466,2.3132 L 3.6468,2.3132 C 3.65,2.3166 3.6558,2.3189 3.6604,2.3189 C 3.6759,2.3189 3.6842,2.3034 3.6842,2.2834 C 3.6842,2.2675 3.6775,2.247 3.6587,2.247 C 3.65,2.247 3.6443,2.2512 3.6399,2.2578 L 3.6358,2.2478 L 3.6242,2.2478 L 3.6242,2.3463 z M 3.6466,2.2701 C 3.6461,2.2643 3.6496,2.2611 3.6539,2.2611 C 3.6601,2.2611 3.6609,2.2673 3.6609,2.2802 L 3.6609,2.2855 C 3.6609,2.2993 3.6609,2.3065 3.654,2.3065 C 3.6513,2.3065 3.6492,2.3048 3.6478,2.3037 L 3.6466,2.3025"
   class="ps013"
   id="path674"
   style="fill:#f9b682;fill-rule:nonzero;stroke:none" />

<path
   d="M 3.6719,2.3015 L 3.6628,2.3015 L 3.6628,2.3173 L 3.6719,2.3173 L 3.6719,2.325 C 3.6719,2.342 3.6804,2.3482 3.6952,2.3482 C 3.6996,2.3482 3.7029,2.3478 3.7065,2.3474 L 3.7065,2.3303 C 3.7053,2.3305 3.7036,2.3308 3.7024,2.3308 C 3.6967,2.3308 3.6944,2.329 3.6944,2.3249 L 3.6944,2.3173 L 3.7065,2.3173 L 3.7065,2.3015 L 3.6944,2.3015 L 3.6944,2.2478 L 3.6719,2.2478"
   class="ps014"
   id="path676"
   style="fill:#fac498;fill-rule:nonzero;stroke:none" />

<path
   d="M 3.7296,2.2914 C 3.7296,2.2942 3.7295,2.2975 3.7285,2.3001 C 3.7274,2.3029 3.7256,2.3048 3.722,2.3048 C 3.7145,2.3048 3.7137,2.2957 3.7137,2.2819 C 3.7137,2.2662 3.7162,2.2611 3.722,2.2611 C 3.7299,2.2611 3.7306,2.2691 3.7306,2.2744 L 3.748,2.2719 C 3.7464,2.255 3.7367,2.2462 3.7204,2.2462 C 3.7002,2.2462 3.6897,2.2639 3.6897,2.281 C 3.6897,2.3 3.7002,2.3189 3.7213,2.3189 C 3.7451,2.3189 3.7487,2.2983 3.7487,2.2914"
   class="ps015"
   id="path678"
   style="fill:#fbd2af;fill-rule:nonzero;stroke:none" />

<path
   d="M 3.7392,2.2913 C 3.7441,2.2913 3.7482,2.2873 3.7482,2.2823 C 3.7482,2.2774 3.7441,2.2733 3.7392,2.2733 C 3.7342,2.2733 3.7301,2.2774 3.7301,2.2823 C 3.7301,2.2873 3.7342,2.2913 3.7392,2.2913"
   class="ps016"
   id="path680"
   style="fill:#fce0c8;fill-rule:nonzero;stroke:none" />

<path
   d="M 3.577,2.4598 L 3.5994,2.4598 L 3.5994,2.4267 L 3.5997,2.4267 C 3.6028,2.43 3.6086,2.4324 3.6132,2.4324 C 3.6287,2.4324 3.637,2.4169 3.637,2.3968 C 3.637,2.3809 3.6304,2.3605 3.6115,2.3605 C 3.6028,2.3605 3.5972,2.3646 3.5927,2.3713 L 3.5886,2.3613 L 3.577,2.3613 L 3.577,2.4598 z M 3.5994,2.3836 C 3.599,2.3778 3.6024,2.3746 3.6067,2.3746 C 3.6129,2.3746 3.6138,2.3808 3.6138,2.3937 L 3.6138,2.3989 C 3.6138,2.4127 3.6138,2.4199 3.6068,2.4199 C 3.6041,2.4199 3.602,2.4183 3.6006,2.4172 L 3.5994,2.4159"
   class="ps012"
   id="path682"
   style="fill:#f8a96d;fill-rule:nonzero;stroke:none" />

<path
   d="M 3.6242,2.4598 L 3.6466,2.4598 L 3.6466,2.4267 L 3.6468,2.4267 C 3.65,2.43 3.6558,2.4324 3.6604,2.4324 C 3.6759,2.4324 3.6842,2.4169 3.6842,2.3968 C 3.6842,2.3809 3.6775,2.3605 3.6587,2.3605 C 3.65,2.3605 3.6443,2.3646 3.6399,2.3713 L 3.6358,2.3613 L 3.6242,2.3613 L 3.6242,2.4598 z M 3.6466,2.3836 C 3.6461,2.3778 3.6496,2.3746 3.6539,2.3746 C 3.6601,2.3746 3.6609,2.3808 3.6609,2.3937 L 3.6609,2.3989 C 3.6609,2.4127 3.6609,2.4199 3.654,2.4199 C 3.6513,2.4199 3.6492,2.4183 3.6478,2.4172 L 3.6466,2.4159"
   class="ps013"
   id="path684"
   style="fill:#f9b682;fill-rule:nonzero;stroke:none" />

<path
   d="M 3.6719,2.415 L 3.6628,2.415 L 3.6628,2.4307 L 3.6719,2.4307 L 3.6719,2.4385 C 3.6719,2.4555 3.6804,2.4617 3.6952,2.4617 C 3.6996,2.4617 3.7029,2.4613 3.7065,2.4609 L 3.7065,2.4437 C 3.7053,2.444 3.7036,2.4443 3.7024,2.4443 C 3.6967,2.4443 3.6944,2.4425 3.6944,2.4383 L 3.6944,2.4307 L 3.7065,2.4307 L 3.7065,2.415 L 3.6944,2.415 L 3.6944,2.3613 L 3.6719,2.3613"
   class="ps014"
   id="path686"
   style="fill:#fac498;fill-rule:nonzero;stroke:none" />

<path
   d="M 3.7296,2.4049 C 3.7296,2.4076 3.7295,2.411 3.7285,2.4136 C 3.7274,2.4163 3.7256,2.4183 3.722,2.4183 C 3.7145,2.4183 3.7137,2.4092 3.7137,2.3953 C 3.7137,2.3797 3.7162,2.3746 3.722,2.3746 C 3.7299,2.3746 3.7306,2.3826 3.7306,2.3879 L 3.748,2.3854 C 3.7464,2.3685 3.7367,2.3596 3.7204,2.3596 C 3.7002,2.3596 3.6897,2.3773 3.6897,2.3945 C 3.6897,2.4134 3.7002,2.4324 3.7213,2.4324 C 3.7451,2.4324 3.7487,2.4118 3.7487,2.4049"
   class="ps015"
   id="path688"
   style="fill:#fbd2af;fill-rule:nonzero;stroke:none" />

<path
   d="M 3.7392,2.4048 C 3.7441,2.4048 3.7482,2.4008 3.7482,2.3958 C 3.7482,2.3908 3.7441,2.3868 3.7392,2.3868 C 3.7342,2.3868 3.7301,2.3908 3.7301,2.3958 C 3.7301,2.4008 3.7342,2.4048 3.7392,2.4048"
   class="ps016"
   id="path690"
   style="fill:#fce0c8;fill-rule:nonzero;stroke:none" />

<path
   d="M 3.577,2.5732 L 3.5994,2.5732 L 3.5994,2.5402 L 3.5997,2.5402 C 3.6028,2.5435 3.6086,2.5458 3.6132,2.5458 C 3.6287,2.5458 3.637,2.5304 3.637,2.5103 C 3.637,2.4944 3.6304,2.4739 3.6115,2.4739 C 3.6028,2.4739 3.5972,2.4781 3.5927,2.4847 L 3.5886,2.4748 L 3.577,2.4748 L 3.577,2.5732 z M 3.5994,2.497 C 3.599,2.4912 3.6024,2.4881 3.6067,2.4881 C 3.6129,2.4881 3.6138,2.4943 3.6138,2.5071 L 3.6138,2.5124 C 3.6138,2.5262 3.6138,2.5334 3.6068,2.5334 C 3.6041,2.5334 3.602,2.5317 3.6006,2.5306 L 3.5994,2.5294"
   class="ps012"
   id="path692"
   style="fill:#f8a96d;fill-rule:nonzero;stroke:none" />

<path
   d="M 3.6242,2.5732 L 3.6466,2.5732 L 3.6466,2.5402 L 3.6468,2.5402 C 3.65,2.5435 3.6558,2.5458 3.6604,2.5458 C 3.6759,2.5458 3.6842,2.5304 3.6842,2.5103 C 3.6842,2.4944 3.6775,2.4739 3.6587,2.4739 C 3.65,2.4739 3.6443,2.4781 3.6399,2.4847 L 3.6358,2.4748 L 3.6242,2.4748 L 3.6242,2.5732 z M 3.6466,2.497 C 3.6461,2.4912 3.6496,2.4881 3.6539,2.4881 C 3.6601,2.4881 3.6609,2.4943 3.6609,2.5071 L 3.6609,2.5124 C 3.6609,2.5262 3.6609,2.5334 3.654,2.5334 C 3.6513,2.5334 3.6492,2.5317 3.6478,2.5306 L 3.6466,2.5294"
   class="ps013"
   id="path694"
   style="fill:#f9b682;fill-rule:nonzero;stroke:none" />

<path
   d="M 3.6719,2.5284 L 3.6628,2.5284 L 3.6628,2.5442 L 3.6719,2.5442 L 3.6719,2.5519 C 3.6719,2.5689 3.6804,2.5751 3.6952,2.5751 C 3.6996,2.5751 3.7029,2.5747 3.7065,2.5743 L 3.7065,2.5572 C 3.7053,2.5575 3.7036,2.5577 3.7024,2.5577 C 3.6967,2.5577 3.6944,2.5559 3.6944,2.5518 L 3.6944,2.5442 L 3.7065,2.5442 L 3.7065,2.5284 L 3.6944,2.5284 L 3.6944,2.4748 L 3.6719,2.4748"
   class="ps014"
   id="path696"
   style="fill:#fac498;fill-rule:nonzero;stroke:none" />

<path
   d="M 3.7296,2.5183 C 3.7296,2.5211 3.7295,2.5244 3.7285,2.527 C 3.7274,2.5298 3.7256,2.5317 3.722,2.5317 C 3.7145,2.5317 3.7137,2.5226 3.7137,2.5088 C 3.7137,2.4932 3.7162,2.4881 3.722,2.4881 C 3.7299,2.4881 3.7306,2.4961 3.7306,2.5013 L 3.748,2.4988 C 3.7464,2.482 3.7367,2.4731 3.7204,2.4731 C 3.7002,2.4731 3.6897,2.4908 3.6897,2.508 C 3.6897,2.5269 3.7002,2.5458 3.7213,2.5458 C 3.7451,2.5458 3.7487,2.5253 3.7487,2.5183"
   class="ps015"
   id="path698"
   style="fill:#fbd2af;fill-rule:nonzero;stroke:none" />

<path
   d="M 3.7392,2.5183 C 3.7441,2.5183 3.7482,2.5142 3.7482,2.5092 C 3.7482,2.5043 3.7441,2.5002 3.7392,2.5002 C 3.7342,2.5002 3.7301,2.5043 3.7301,2.5092 C 3.7301,2.5142 3.7342,2.5183 3.7392,2.5183"
   class="ps016"
   id="path700"
   style="fill:#fce0c8;fill-rule:nonzero;stroke:none" />

<path
   d="M 3.3778,2.2328 L 3.4002,2.2328 L 3.4002,2.1998 L 3.4005,2.1998 C 3.4037,2.2031 3.4095,2.2054 3.4141,2.2054 C 3.4296,2.2054 3.4379,2.19 3.4379,2.1699 C 3.4379,2.154 3.4312,2.1335 3.4124,2.1335 C 3.4037,2.1335 3.398,2.1377 3.3936,2.1443 L 3.3895,2.1344 L 3.3778,2.1344 L 3.3778,2.2328 z M 3.4002,2.1566 C 3.3998,2.1508 3.4033,2.1476 3.4076,2.1476 C 3.4138,2.1476 3.4146,2.1539 3.4146,2.1667 L 3.4146,2.172 C 3.4146,2.1858 3.4146,2.193 3.4077,2.193 C 3.4049,2.193 3.4029,2.1913 3.4015,2.1902 L 3.4002,2.189"
   class="ps012"
   id="path702"
   style="fill:#f8a96d;fill-rule:nonzero;stroke:none" />

<path
   d="M 3.425,2.2328 L 3.4474,2.2328 L 3.4474,2.1998 L 3.4477,2.1998 C 3.4508,2.2031 3.4567,2.2054 3.4612,2.2054 C 3.4767,2.2054 3.485,2.19 3.485,2.1699 C 3.485,2.154 3.4784,2.1335 3.4596,2.1335 C 3.4508,2.1335 3.4452,2.1377 3.4408,2.1443 L 3.4366,2.1344 L 3.425,2.1344 L 3.425,2.2328 z M 3.4474,2.1566 C 3.447,2.1508 3.4504,2.1476 3.4547,2.1476 C 3.4609,2.1476 3.4618,2.1539 3.4618,2.1667 L 3.4618,2.172 C 3.4618,2.1858 3.4618,2.193 3.4549,2.193 C 3.4521,2.193 3.45,2.1913 3.4486,2.1902 L 3.4474,2.189"
   class="ps013"
   id="path704"
   style="fill:#f9b682;fill-rule:nonzero;stroke:none" />

<path
   d="M 3.4728,2.188 L 3.4637,2.188 L 3.4637,2.2038 L 3.4728,2.2038 L 3.4728,2.2115 C 3.4728,2.2285 3.4812,2.2348 3.496,2.2348 C 3.5005,2.2348 3.5038,2.2344 3.5074,2.2339 L 3.5074,2.2168 C 3.5061,2.2171 3.5045,2.2173 3.5032,2.2173 C 3.4976,2.2173 3.4952,2.2155 3.4952,2.2114 L 3.4952,2.2038 L 3.5074,2.2038 L 3.5074,2.188 L 3.4952,2.188 L 3.4952,2.1344 L 3.4728,2.1344"
   class="ps014"
   id="path706"
   style="fill:#fac498;fill-rule:nonzero;stroke:none" />

<path
   d="M 3.5305,2.1779 C 3.5305,2.1807 3.5303,2.184 3.5294,2.1866 C 3.5283,2.1894 3.5265,2.1913 3.5229,2.1913 C 3.5154,2.1913 3.5146,2.1822 3.5146,2.1684 C 3.5146,2.1528 3.5171,2.1476 3.5229,2.1476 C 3.5307,2.1476 3.5314,2.1557 3.5314,2.1609 L 3.5489,2.1584 C 3.5472,2.1416 3.5375,2.1327 3.5212,2.1327 C 3.501,2.1327 3.4905,2.1504 3.4905,2.1676 C 3.4905,2.1865 3.501,2.2054 3.5222,2.2054 C 3.546,2.2054 3.5496,2.1848 3.5496,2.1779"
   class="ps015"
   id="path708"
   style="fill:#fbd2af;fill-rule:nonzero;stroke:none" />

<path
   d="M 3.54,2.1779 C 3.545,2.1779 3.549,2.1738 3.549,2.1688 C 3.549,2.1639 3.545,2.1598 3.54,2.1598 C 3.535,2.1598 3.531,2.1639 3.531,2.1688 C 3.531,2.1738 3.535,2.1779 3.54,2.1779"
   class="ps016"
   id="path710"
   style="fill:#fce0c8;fill-rule:nonzero;stroke:none" />

<path
   d="M 3.3778,2.3463 L 3.4002,2.3463 L 3.4002,2.3132 L 3.4005,2.3132 C 3.4037,2.3166 3.4095,2.3189 3.4141,2.3189 C 3.4296,2.3189 3.4379,2.3034 3.4379,2.2834 C 3.4379,2.2675 3.4312,2.247 3.4124,2.247 C 3.4037,2.247 3.398,2.2512 3.3936,2.2578 L 3.3895,2.2478 L 3.3778,2.2478 L 3.3778,2.3463 z M 3.4002,2.2701 C 3.3998,2.2643 3.4033,2.2611 3.4076,2.2611 C 3.4138,2.2611 3.4146,2.2673 3.4146,2.2802 L 3.4146,2.2855 C 3.4146,2.2993 3.4146,2.3065 3.4077,2.3065 C 3.4049,2.3065 3.4029,2.3048 3.4015,2.3037 L 3.4002,2.3025"
   class="ps012"
   id="path712"
   style="fill:#f8a96d;fill-rule:nonzero;stroke:none" />

<path
   d="M 3.425,2.3463 L 3.4474,2.3463 L 3.4474,2.3132 L 3.4477,2.3132 C 3.4508,2.3166 3.4567,2.3189 3.4612,2.3189 C 3.4767,2.3189 3.485,2.3034 3.485,2.2834 C 3.485,2.2675 3.4784,2.247 3.4596,2.247 C 3.4508,2.247 3.4452,2.2512 3.4408,2.2578 L 3.4366,2.2478 L 3.425,2.2478 L 3.425,2.3463 z M 3.4474,2.2701 C 3.447,2.2643 3.4504,2.2611 3.4547,2.2611 C 3.4609,2.2611 3.4618,2.2673 3.4618,2.2802 L 3.4618,2.2855 C 3.4618,2.2993 3.4618,2.3065 3.4549,2.3065 C 3.4521,2.3065 3.45,2.3048 3.4486,2.3037 L 3.4474,2.3025"
   class="ps013"
   id="path714"
   style="fill:#f9b682;fill-rule:nonzero;stroke:none" />

<path
   d="M 3.4728,2.3015 L 3.4637,2.3015 L 3.4637,2.3173 L 3.4728,2.3173 L 3.4728,2.325 C 3.4728,2.342 3.4812,2.3482 3.496,2.3482 C 3.5005,2.3482 3.5038,2.3478 3.5074,2.3474 L 3.5074,2.3303 C 3.5061,2.3305 3.5045,2.3308 3.5032,2.3308 C 3.4976,2.3308 3.4952,2.329 3.4952,2.3249 L 3.4952,2.3173 L 3.5074,2.3173 L 3.5074,2.3015 L 3.4952,2.3015 L 3.4952,2.2478 L 3.4728,2.2478"
   class="ps014"
   id="path716"
   style="fill:#fac498;fill-rule:nonzero;stroke:none" />

<path
   d="M 3.5305,2.2914 C 3.5305,2.2942 3.5303,2.2975 3.5294,2.3001 C 3.5283,2.3029 3.5265,2.3048 3.5229,2.3048 C 3.5154,2.3048 3.5146,2.2957 3.5146,2.2819 C 3.5146,2.2662 3.5171,2.2611 3.5229,2.2611 C 3.5307,2.2611 3.5314,2.2691 3.5314,2.2744 L 3.5489,2.2719 C 3.5472,2.255 3.5375,2.2462 3.5212,2.2462 C 3.501,2.2462 3.4905,2.2639 3.4905,2.281 C 3.4905,2.3 3.501,2.3189 3.5222,2.3189 C 3.546,2.3189 3.5496,2.2983 3.5496,2.2914"
   class="ps015"
   id="path718"
   style="fill:#fbd2af;fill-rule:nonzero;stroke:none" />

<path
   d="M 3.54,2.2913 C 3.545,2.2913 3.549,2.2873 3.549,2.2823 C 3.549,2.2774 3.545,2.2733 3.54,2.2733 C 3.535,2.2733 3.531,2.2774 3.531,2.2823 C 3.531,2.2873 3.535,2.2913 3.54,2.2913"
   class="ps016"
   id="path720"
   style="fill:#fce0c8;fill-rule:nonzero;stroke:none" />

<path
   d="M 3.3778,2.4598 L 3.4002,2.4598 L 3.4002,2.4267 L 3.4005,2.4267 C 3.4037,2.43 3.4095,2.4324 3.4141,2.4324 C 3.4296,2.4324 3.4379,2.4169 3.4379,2.3968 C 3.4379,2.3809 3.4312,2.3605 3.4124,2.3605 C 3.4037,2.3605 3.398,2.3646 3.3936,2.3713 L 3.3895,2.3613 L 3.3778,2.3613 L 3.3778,2.4598 z M 3.4002,2.3836 C 3.3998,2.3778 3.4033,2.3746 3.4076,2.3746 C 3.4138,2.3746 3.4146,2.3808 3.4146,2.3937 L 3.4146,2.3989 C 3.4146,2.4127 3.4146,2.4199 3.4077,2.4199 C 3.4049,2.4199 3.4029,2.4183 3.4015,2.4172 L 3.4002,2.4159"
   class="ps012"
   id="path722"
   style="fill:#f8a96d;fill-rule:nonzero;stroke:none" />

<path
   d="M 3.425,2.4598 L 3.4474,2.4598 L 3.4474,2.4267 L 3.4477,2.4267 C 3.4508,2.43 3.4567,2.4324 3.4612,2.4324 C 3.4767,2.4324 3.485,2.4169 3.485,2.3968 C 3.485,2.3809 3.4784,2.3605 3.4596,2.3605 C 3.4508,2.3605 3.4452,2.3646 3.4408,2.3713 L 3.4366,2.3613 L 3.425,2.3613 L 3.425,2.4598 z M 3.4474,2.3836 C 3.447,2.3778 3.4504,2.3746 3.4547,2.3746 C 3.4609,2.3746 3.4618,2.3808 3.4618,2.3937 L 3.4618,2.3989 C 3.4618,2.4127 3.4618,2.4199 3.4549,2.4199 C 3.4521,2.4199 3.45,2.4183 3.4486,2.4172 L 3.4474,2.4159"
   class="ps013"
   id="path724"
   style="fill:#f9b682;fill-rule:nonzero;stroke:none" />

<path
   d="M 3.4728,2.415 L 3.4637,2.415 L 3.4637,2.4307 L 3.4728,2.4307 L 3.4728,2.4385 C 3.4728,2.4555 3.4812,2.4617 3.496,2.4617 C 3.5005,2.4617 3.5038,2.4613 3.5074,2.4609 L 3.5074,2.4437 C 3.5061,2.444 3.5045,2.4443 3.5032,2.4443 C 3.4976,2.4443 3.4952,2.4425 3.4952,2.4383 L 3.4952,2.4307 L 3.5074,2.4307 L 3.5074,2.415 L 3.4952,2.415 L 3.4952,2.3613 L 3.4728,2.3613"
   class="ps014"
   id="path726"
   style="fill:#fac498;fill-rule:nonzero;stroke:none" />

<path
   d="M 3.5305,2.4049 C 3.5305,2.4076 3.5303,2.411 3.5294,2.4136 C 3.5283,2.4163 3.5265,2.4183 3.5229,2.4183 C 3.5154,2.4183 3.5146,2.4092 3.5146,2.3953 C 3.5146,2.3797 3.5171,2.3746 3.5229,2.3746 C 3.5307,2.3746 3.5314,2.3826 3.5314,2.3879 L 3.5489,2.3854 C 3.5472,2.3685 3.5375,2.3596 3.5212,2.3596 C 3.501,2.3596 3.4905,2.3773 3.4905,2.3945 C 3.4905,2.4134 3.501,2.4324 3.5222,2.4324 C 3.546,2.4324 3.5496,2.4118 3.5496,2.4049"
   class="ps015"
   id="path728"
   style="fill:#fbd2af;fill-rule:nonzero;stroke:none" />

<path
   d="M 3.54,2.4048 C 3.545,2.4048 3.549,2.4008 3.549,2.3958 C 3.549,2.3908 3.545,2.3868 3.54,2.3868 C 3.535,2.3868 3.531,2.3908 3.531,2.3958 C 3.531,2.4008 3.535,2.4048 3.54,2.4048"
   class="ps016"
   id="path730"
   style="fill:#fce0c8;fill-rule:nonzero;stroke:none" />

<path
   d="M 3.3778,2.5732 L 3.4002,2.5732 L 3.4002,2.5402 L 3.4005,2.5402 C 3.4037,2.5435 3.4095,2.5458 3.4141,2.5458 C 3.4296,2.5458 3.4379,2.5304 3.4379,2.5103 C 3.4379,2.4944 3.4312,2.4739 3.4124,2.4739 C 3.4037,2.4739 3.398,2.4781 3.3936,2.4847 L 3.3895,2.4748 L 3.3778,2.4748 L 3.3778,2.5732 z M 3.4002,2.497 C 3.3998,2.4912 3.4033,2.4881 3.4076,2.4881 C 3.4138,2.4881 3.4146,2.4943 3.4146,2.5071 L 3.4146,2.5124 C 3.4146,2.5262 3.4146,2.5334 3.4077,2.5334 C 3.4049,2.5334 3.4029,2.5317 3.4015,2.5306 L 3.4002,2.5294"
   class="ps012"
   id="path732"
   style="fill:#f8a96d;fill-rule:nonzero;stroke:none" />

<path
   d="M 3.425,2.5732 L 3.4474,2.5732 L 3.4474,2.5402 L 3.4477,2.5402 C 3.4508,2.5435 3.4567,2.5458 3.4612,2.5458 C 3.4767,2.5458 3.485,2.5304 3.485,2.5103 C 3.485,2.4944 3.4784,2.4739 3.4596,2.4739 C 3.4508,2.4739 3.4452,2.4781 3.4408,2.4847 L 3.4366,2.4748 L 3.425,2.4748 L 3.425,2.5732 z M 3.4474,2.497 C 3.447,2.4912 3.4504,2.4881 3.4547,2.4881 C 3.4609,2.4881 3.4618,2.4943 3.4618,2.5071 L 3.4618,2.5124 C 3.4618,2.5262 3.4618,2.5334 3.4549,2.5334 C 3.4521,2.5334 3.45,2.5317 3.4486,2.5306 L 3.4474,2.5294"
   class="ps013"
   id="path734"
   style="fill:#f9b682;fill-rule:nonzero;stroke:none" />

<path
   d="M 3.4728,2.5284 L 3.4637,2.5284 L 3.4637,2.5442 L 3.4728,2.5442 L 3.4728,2.5519 C 3.4728,2.5689 3.4812,2.5751 3.496,2.5751 C 3.5005,2.5751 3.5038,2.5747 3.5074,2.5743 L 3.5074,2.5572 C 3.5061,2.5575 3.5045,2.5577 3.5032,2.5577 C 3.4976,2.5577 3.4952,2.5559 3.4952,2.5518 L 3.4952,2.5442 L 3.5074,2.5442 L 3.5074,2.5284 L 3.4952,2.5284 L 3.4952,2.4748 L 3.4728,2.4748"
   class="ps014"
   id="path736"
   style="fill:#fac498;fill-rule:nonzero;stroke:none" />

<path
   d="M 3.5305,2.5183 C 3.5305,2.5211 3.5303,2.5244 3.5294,2.527 C 3.5283,2.5298 3.5265,2.5317 3.5229,2.5317 C 3.5154,2.5317 3.5146,2.5226 3.5146,2.5088 C 3.5146,2.4932 3.5171,2.4881 3.5229,2.4881 C 3.5307,2.4881 3.5314,2.4961 3.5314,2.5013 L 3.5489,2.4988 C 3.5472,2.482 3.5375,2.4731 3.5212,2.4731 C 3.501,2.4731 3.4905,2.4908 3.4905,2.508 C 3.4905,2.5269 3.501,2.5458 3.5222,2.5458 C 3.546,2.5458 3.5496,2.5253 3.5496,2.5183"
   class="ps015"
   id="path738"
   style="fill:#fbd2af;fill-rule:nonzero;stroke:none" />

<path
   d="M 3.54,2.5183 C 3.545,2.5183 3.549,2.5142 3.549,2.5092 C 3.549,2.5043 3.545,2.5002 3.54,2.5002 C 3.535,2.5002 3.531,2.5043 3.531,2.5092 C 3.531,2.5142 3.535,2.5183 3.54,2.5183"
   class="ps016"
   id="path740"
   style="fill:#fce0c8;fill-rule:nonzero;stroke:none" />

<path
   d="M 3.1787,2.3463 L 3.2011,2.3463 L 3.2011,2.3132 L 3.2014,2.3132 C 3.2046,2.3166 3.2104,2.3189 3.2149,2.3189 C 3.2304,2.3189 3.2387,2.3034 3.2387,2.2834 C 3.2387,2.2675 3.2321,2.247 3.2133,2.247 C 3.2046,2.247 3.1989,2.2512 3.1945,2.2578 L 3.1903,2.2478 L 3.1787,2.2478 L 3.1787,2.3463 z M 3.2011,2.2701 C 3.2007,2.2643 3.2041,2.2611 3.2084,2.2611 C 3.2146,2.2611 3.2155,2.2673 3.2155,2.2802 L 3.2155,2.2855 C 3.2155,2.2993 3.2155,2.3065 3.2086,2.3065 C 3.2058,2.3065 3.2037,2.3048 3.2023,2.3037 L 3.2011,2.3025"
   class="ps012"
   id="path742"
   style="fill:#f8a96d;fill-rule:nonzero;stroke:none" />

<path
   d="M 3.2259,2.3463 L 3.2483,2.3463 L 3.2483,2.3132 L 3.2485,2.3132 C 3.2517,2.3166 3.2575,2.3189 3.2621,2.3189 C 3.2776,2.3189 3.2859,2.3034 3.2859,2.2834 C 3.2859,2.2675 3.2792,2.247 3.2604,2.247 C 3.2517,2.247 3.246,2.2512 3.2416,2.2578 L 3.2375,2.2478 L 3.2259,2.2478 L 3.2259,2.3463 z M 3.2483,2.2701 C 3.2478,2.2643 3.2513,2.2611 3.2556,2.2611 C 3.2618,2.2611 3.2626,2.2673 3.2626,2.2802 L 3.2626,2.2855 C 3.2626,2.2993 3.2626,2.3065 3.2557,2.3065 C 3.253,2.3065 3.2509,2.3048 3.2495,2.3037 L 3.2483,2.3025"
   class="ps013"
   id="path744"
   style="fill:#f9b682;fill-rule:nonzero;stroke:none" />

<path
   d="M 3.2737,2.3015 L 3.2645,2.3015 L 3.2645,2.3173 L 3.2737,2.3173 L 3.2737,2.325 C 3.2737,2.342 3.2821,2.3482 3.2969,2.3482 C 3.3013,2.3482 3.3046,2.3478 3.3082,2.3474 L 3.3082,2.3303 C 3.307,2.3305 3.3053,2.3308 3.3041,2.3308 C 3.2984,2.3308 3.2961,2.329 3.2961,2.3249 L 3.2961,2.3173 L 3.3082,2.3173 L 3.3082,2.3015 L 3.2961,2.3015 L 3.2961,2.2478 L 3.2737,2.2478"
   class="ps014"
   id="path746"
   style="fill:#fac498;fill-rule:nonzero;stroke:none" />

<path
   d="M 3.3313,2.2914 C 3.3313,2.2942 3.3312,2.2975 3.3302,2.3001 C 3.3291,2.3029 3.3273,2.3048 3.3237,2.3048 C 3.3163,2.3048 3.3154,2.2957 3.3154,2.2819 C 3.3154,2.2662 3.3179,2.2611 3.3237,2.2611 C 3.3316,2.2611 3.3323,2.2691 3.3323,2.2744 L 3.3497,2.2719 C 3.3481,2.255 3.3384,2.2462 3.3221,2.2462 C 3.3019,2.2462 3.2914,2.2639 3.2914,2.281 C 3.2914,2.3 3.3019,2.3189 3.323,2.3189 C 3.3468,2.3189 3.3504,2.2983 3.3504,2.2914"
   class="ps015"
   id="path748"
   style="fill:#fbd2af;fill-rule:nonzero;stroke:none" />

<path
   d="M 3.3409,2.2913 C 3.3458,2.2913 3.3499,2.2873 3.3499,2.2823 C 3.3499,2.2774 3.3458,2.2733 3.3409,2.2733 C 3.3359,2.2733 3.3319,2.2774 3.3319,2.2823 C 3.3319,2.2873 3.3359,2.2913 3.3409,2.2913"
   class="ps016"
   id="path750"
   style="fill:#fce0c8;fill-rule:nonzero;stroke:none" />

<path
   d="M 3.1787,2.4598 L 3.2011,2.4598 L 3.2011,2.4267 L 3.2014,2.4267 C 3.2046,2.43 3.2104,2.4324 3.2149,2.4324 C 3.2304,2.4324 3.2387,2.4169 3.2387,2.3968 C 3.2387,2.3809 3.2321,2.3605 3.2133,2.3605 C 3.2046,2.3605 3.1989,2.3646 3.1945,2.3713 L 3.1903,2.3613 L 3.1787,2.3613 L 3.1787,2.4598 z M 3.2011,2.3836 C 3.2007,2.3778 3.2041,2.3746 3.2084,2.3746 C 3.2146,2.3746 3.2155,2.3808 3.2155,2.3937 L 3.2155,2.3989 C 3.2155,2.4127 3.2155,2.4199 3.2086,2.4199 C 3.2058,2.4199 3.2037,2.4183 3.2023,2.4172 L 3.2011,2.4159"
   class="ps012"
   id="path752"
   style="fill:#f8a96d;fill-rule:nonzero;stroke:none" />

<path
   d="M 3.2259,2.4598 L 3.2483,2.4598 L 3.2483,2.4267 L 3.2485,2.4267 C 3.2517,2.43 3.2575,2.4324 3.2621,2.4324 C 3.2776,2.4324 3.2859,2.4169 3.2859,2.3968 C 3.2859,2.3809 3.2792,2.3605 3.2604,2.3605 C 3.2517,2.3605 3.246,2.3646 3.2416,2.3713 L 3.2375,2.3613 L 3.2259,2.3613 L 3.2259,2.4598 z M 3.2483,2.3836 C 3.2478,2.3778 3.2513,2.3746 3.2556,2.3746 C 3.2618,2.3746 3.2626,2.3808 3.2626,2.3937 L 3.2626,2.3989 C 3.2626,2.4127 3.2626,2.4199 3.2557,2.4199 C 3.253,2.4199 3.2509,2.4183 3.2495,2.4172 L 3.2483,2.4159"
   class="ps013"
   id="path754"
   style="fill:#f9b682;fill-rule:nonzero;stroke:none" />

<path
   d="M 3.2737,2.415 L 3.2645,2.415 L 3.2645,2.4307 L 3.2737,2.4307 L 3.2737,2.4385 C 3.2737,2.4555 3.2821,2.4617 3.2969,2.4617 C 3.3013,2.4617 3.3046,2.4613 3.3082,2.4609 L 3.3082,2.4437 C 3.307,2.444 3.3053,2.4443 3.3041,2.4443 C 3.2984,2.4443 3.2961,2.4425 3.2961,2.4383 L 3.2961,2.4307 L 3.3082,2.4307 L 3.3082,2.415 L 3.2961,2.415 L 3.2961,2.3613 L 3.2737,2.3613"
   class="ps014"
   id="path756"
   style="fill:#fac498;fill-rule:nonzero;stroke:none" />

<path
   d="M 3.3313,2.4049 C 3.3313,2.4076 3.3312,2.411 3.3302,2.4136 C 3.3291,2.4163 3.3273,2.4183 3.3237,2.4183 C 3.3163,2.4183 3.3154,2.4092 3.3154,2.3953 C 3.3154,2.3797 3.3179,2.3746 3.3237,2.3746 C 3.3316,2.3746 3.3323,2.3826 3.3323,2.3879 L 3.3497,2.3854 C 3.3481,2.3685 3.3384,2.3596 3.3221,2.3596 C 3.3019,2.3596 3.2914,2.3773 3.2914,2.3945 C 3.2914,2.4134 3.3019,2.4324 3.323,2.4324 C 3.3468,2.4324 3.3504,2.4118 3.3504,2.4049"
   class="ps015"
   id="path758"
   style="fill:#fbd2af;fill-rule:nonzero;stroke:none" />

<path
   d="M 3.3409,2.4048 C 3.3458,2.4048 3.3499,2.4008 3.3499,2.3958 C 3.3499,2.3908 3.3458,2.3868 3.3409,2.3868 C 3.3359,2.3868 3.3319,2.3908 3.3319,2.3958 C 3.3319,2.4008 3.3359,2.4048 3.3409,2.4048"
   class="ps016"
   id="path760"
   style="fill:#fce0c8;fill-rule:nonzero;stroke:none" />

<path
   d="M 3.1787,2.5732 L 3.2011,2.5732 L 3.2011,2.5402 L 3.2014,2.5402 C 3.2046,2.5435 3.2104,2.5458 3.2149,2.5458 C 3.2304,2.5458 3.2387,2.5304 3.2387,2.5103 C 3.2387,2.4944 3.2321,2.4739 3.2133,2.4739 C 3.2046,2.4739 3.1989,2.4781 3.1945,2.4847 L 3.1903,2.4748 L 3.1787,2.4748 L 3.1787,2.5732 z M 3.2011,2.497 C 3.2007,2.4912 3.2041,2.4881 3.2084,2.4881 C 3.2146,2.4881 3.2155,2.4943 3.2155,2.5071 L 3.2155,2.5124 C 3.2155,2.5262 3.2155,2.5334 3.2086,2.5334 C 3.2058,2.5334 3.2037,2.5317 3.2023,2.5306 L 3.2011,2.5294"
   class="ps012"
   id="path762"
   style="fill:#f8a96d;fill-rule:nonzero;stroke:none" />

<path
   d="M 3.2259,2.5732 L 3.2483,2.5732 L 3.2483,2.5402 L 3.2485,2.5402 C 3.2517,2.5435 3.2575,2.5458 3.2621,2.5458 C 3.2776,2.5458 3.2859,2.5304 3.2859,2.5103 C 3.2859,2.4944 3.2792,2.4739 3.2604,2.4739 C 3.2517,2.4739 3.246,2.4781 3.2416,2.4847 L 3.2375,2.4748 L 3.2259,2.4748 L 3.2259,2.5732 z M 3.2483,2.497 C 3.2478,2.4912 3.2513,2.4881 3.2556,2.4881 C 3.2618,2.4881 3.2626,2.4943 3.2626,2.5071 L 3.2626,2.5124 C 3.2626,2.5262 3.2626,2.5334 3.2557,2.5334 C 3.253,2.5334 3.2509,2.5317 3.2495,2.5306 L 3.2483,2.5294"
   class="ps013"
   id="path764"
   style="fill:#f9b682;fill-rule:nonzero;stroke:none" />

<path
   d="M 3.2737,2.5284 L 3.2645,2.5284 L 3.2645,2.5442 L 3.2737,2.5442 L 3.2737,2.5519 C 3.2737,2.5689 3.2821,2.5751 3.2969,2.5751 C 3.3013,2.5751 3.3046,2.5747 3.3082,2.5743 L 3.3082,2.5572 C 3.307,2.5575 3.3053,2.5577 3.3041,2.5577 C 3.2984,2.5577 3.2961,2.5559 3.2961,2.5518 L 3.2961,2.5442 L 3.3082,2.5442 L 3.3082,2.5284 L 3.2961,2.5284 L 3.2961,2.4748 L 3.2737,2.4748"
   class="ps014"
   id="path766"
   style="fill:#fac498;fill-rule:nonzero;stroke:none" />

<path
   d="M 3.3313,2.5183 C 3.3313,2.5211 3.3312,2.5244 3.3302,2.527 C 3.3291,2.5298 3.3273,2.5317 3.3237,2.5317 C 3.3163,2.5317 3.3154,2.5226 3.3154,2.5088 C 3.3154,2.4932 3.3179,2.4881 3.3237,2.4881 C 3.3316,2.4881 3.3323,2.4961 3.3323,2.5013 L 3.3497,2.4988 C 3.3481,2.482 3.3384,2.4731 3.3221,2.4731 C 3.3019,2.4731 3.2914,2.4908 3.2914,2.508 C 3.2914,2.5269 3.3019,2.5458 3.323,2.5458 C 3.3468,2.5458 3.3504,2.5253 3.3504,2.5183"
   class="ps015"
   id="path768"
   style="fill:#fbd2af;fill-rule:nonzero;stroke:none" />

<path
   d="M 3.3409,2.5183 C 3.3458,2.5183 3.3499,2.5142 3.3499,2.5092 C 3.3499,2.5043 3.3458,2.5002 3.3409,2.5002 C 3.3359,2.5002 3.3319,2.5043 3.3319,2.5092 C 3.3319,2.5142 3.3359,2.5183 3.3409,2.5183"
   class="ps016"
   id="path770"
   style="fill:#fce0c8;fill-rule:nonzero;stroke:none" />

<path
   d="M 3.7761,2.2328 L 3.7985,2.2328 L 3.7985,2.1998 L 3.7988,2.1998 C 3.802,2.2031 3.8078,2.2054 3.8124,2.2054 C 3.8279,2.2054 3.8362,2.19 3.8362,2.1699 C 3.8362,2.154 3.8295,2.1335 3.8107,2.1335 C 3.802,2.1335 3.7963,2.1377 3.7919,2.1443 L 3.7878,2.1344 L 3.7761,2.1344 L 3.7761,2.2328 z M 3.7985,2.1566 C 3.7981,2.1508 3.8016,2.1476 3.8059,2.1476 C 3.8121,2.1476 3.8129,2.1539 3.8129,2.1667 L 3.8129,2.172 C 3.8129,2.1858 3.8129,2.193 3.806,2.193 C 3.8032,2.193 3.8012,2.1913 3.7998,2.1902 L 3.7985,2.189"
   class="ps012"
   id="path772"
   style="fill:#f8a96d;fill-rule:nonzero;stroke:none" />

<path
   d="M 3.8233,2.2328 L 3.8457,2.2328 L 3.8457,2.1998 L 3.846,2.1998 C 3.8492,2.2031 3.855,2.2054 3.8595,2.2054 C 3.875,2.2054 3.8833,2.19 3.8833,2.1699 C 3.8833,2.154 3.8767,2.1335 3.8579,2.1335 C 3.8492,2.1335 3.8435,2.1377 3.8391,2.1443 L 3.8349,2.1344 L 3.8233,2.1344 L 3.8233,2.2328 z M 3.8457,2.1566 C 3.8453,2.1508 3.8488,2.1476 3.853,2.1476 C 3.8593,2.1476 3.8601,2.1539 3.8601,2.1667 L 3.8601,2.172 C 3.8601,2.1858 3.8601,2.193 3.8532,2.193 C 3.8504,2.193 3.8483,2.1913 3.847,2.1902 L 3.8457,2.189"
   class="ps013"
   id="path774"
   style="fill:#f9b682;fill-rule:nonzero;stroke:none" />

<path
   d="M 3.8711,2.188 L 3.862,2.188 L 3.862,2.2038 L 3.8711,2.2038 L 3.8711,2.2115 C 3.8711,2.2285 3.8795,2.2348 3.8943,2.2348 C 3.8988,2.2348 3.9021,2.2344 3.9057,2.2339 L 3.9057,2.2168 C 3.9044,2.2171 3.9028,2.2173 3.9015,2.2173 C 3.8959,2.2173 3.8935,2.2155 3.8935,2.2114 L 3.8935,2.2038 L 3.9057,2.2038 L 3.9057,2.188 L 3.8935,2.188 L 3.8935,2.1344 L 3.8711,2.1344"
   class="ps014"
   id="path776"
   style="fill:#fac498;fill-rule:nonzero;stroke:none" />

<path
   d="M 3.9288,2.1779 C 3.9288,2.1807 3.9286,2.184 3.9277,2.1866 C 3.9266,2.1894 3.9248,2.1913 3.9212,2.1913 C 3.9137,2.1913 3.9129,2.1822 3.9129,2.1684 C 3.9129,2.1528 3.9154,2.1476 3.9212,2.1476 C 3.9291,2.1476 3.9297,2.1557 3.9297,2.1609 L 3.9472,2.1584 C 3.9455,2.1416 3.9358,2.1327 3.9195,2.1327 C 3.8993,2.1327 3.8888,2.1504 3.8888,2.1676 C 3.8888,2.1865 3.8993,2.2054 3.9205,2.2054 C 3.9443,2.2054 3.9479,2.1848 3.9479,2.1779"
   class="ps015"
   id="path778"
   style="fill:#fbd2af;fill-rule:nonzero;stroke:none" />

<path
   d="M 3.9383,2.1779 C 3.9433,2.1779 3.9473,2.1738 3.9473,2.1688 C 3.9473,2.1639 3.9433,2.1598 3.9383,2.1598 C 3.9333,2.1598 3.9293,2.1639 3.9293,2.1688 C 3.9293,2.1738 3.9333,2.1779 3.9383,2.1779"
   class="ps016"
   id="path780"
   style="fill:#fce0c8;fill-rule:nonzero;stroke:none" />

<path
   d="M 3.7761,2.3463 L 3.7985,2.3463 L 3.7985,2.3132 L 3.7988,2.3132 C 3.802,2.3166 3.8078,2.3189 3.8124,2.3189 C 3.8279,2.3189 3.8362,2.3034 3.8362,2.2834 C 3.8362,2.2675 3.8295,2.247 3.8107,2.247 C 3.802,2.247 3.7963,2.2512 3.7919,2.2578 L 3.7878,2.2478 L 3.7761,2.2478 L 3.7761,2.3463 z M 3.7985,2.2701 C 3.7981,2.2643 3.8016,2.2611 3.8059,2.2611 C 3.8121,2.2611 3.8129,2.2673 3.8129,2.2802 L 3.8129,2.2855 C 3.8129,2.2993 3.8129,2.3065 3.806,2.3065 C 3.8032,2.3065 3.8012,2.3048 3.7998,2.3037 L 3.7985,2.3025"
   class="ps012"
   id="path782"
   style="fill:#f8a96d;fill-rule:nonzero;stroke:none" />

<path
   d="M 3.8233,2.3463 L 3.8457,2.3463 L 3.8457,2.3132 L 3.846,2.3132 C 3.8492,2.3166 3.855,2.3189 3.8595,2.3189 C 3.875,2.3189 3.8833,2.3034 3.8833,2.2834 C 3.8833,2.2675 3.8767,2.247 3.8579,2.247 C 3.8492,2.247 3.8435,2.2512 3.8391,2.2578 L 3.8349,2.2478 L 3.8233,2.2478 L 3.8233,2.3463 z M 3.8457,2.2701 C 3.8453,2.2643 3.8488,2.2611 3.853,2.2611 C 3.8593,2.2611 3.8601,2.2673 3.8601,2.2802 L 3.8601,2.2855 C 3.8601,2.2993 3.8601,2.3065 3.8532,2.3065 C 3.8504,2.3065 3.8483,2.3048 3.847,2.3037 L 3.8457,2.3025"
   class="ps013"
   id="path784"
   style="fill:#f9b682;fill-rule:nonzero;stroke:none" />

<path
   d="M 3.8711,2.3015 L 3.862,2.3015 L 3.862,2.3173 L 3.8711,2.3173 L 3.8711,2.325 C 3.8711,2.342 3.8795,2.3482 3.8943,2.3482 C 3.8988,2.3482 3.9021,2.3478 3.9057,2.3474 L 3.9057,2.3303 C 3.9044,2.3305 3.9028,2.3308 3.9015,2.3308 C 3.8959,2.3308 3.8935,2.329 3.8935,2.3249 L 3.8935,2.3173 L 3.9057,2.3173 L 3.9057,2.3015 L 3.8935,2.3015 L 3.8935,2.2478 L 3.8711,2.2478"
   class="ps014"
   id="path786"
   style="fill:#fac498;fill-rule:nonzero;stroke:none" />

<path
   d="M 3.9288,2.2914 C 3.9288,2.2942 3.9286,2.2975 3.9277,2.3001 C 3.9266,2.3029 3.9248,2.3048 3.9212,2.3048 C 3.9137,2.3048 3.9129,2.2957 3.9129,2.2819 C 3.9129,2.2662 3.9154,2.2611 3.9212,2.2611 C 3.9291,2.2611 3.9297,2.2691 3.9297,2.2744 L 3.9472,2.2719 C 3.9455,2.255 3.9358,2.2462 3.9195,2.2462 C 3.8993,2.2462 3.8888,2.2639 3.8888,2.281 C 3.8888,2.3 3.8993,2.3189 3.9205,2.3189 C 3.9443,2.3189 3.9479,2.2983 3.9479,2.2914"
   class="ps015"
   id="path788"
   style="fill:#fbd2af;fill-rule:nonzero;stroke:none" />

<path
   d="M 3.9383,2.2913 C 3.9433,2.2913 3.9473,2.2873 3.9473,2.2823 C 3.9473,2.2774 3.9433,2.2733 3.9383,2.2733 C 3.9333,2.2733 3.9293,2.2774 3.9293,2.2823 C 3.9293,2.2873 3.9333,2.2913 3.9383,2.2913"
   class="ps016"
   id="path790"
   style="fill:#fce0c8;fill-rule:nonzero;stroke:none" />

<path
   d="M 3.7761,2.4598 L 3.7985,2.4598 L 3.7985,2.4267 L 3.7988,2.4267 C 3.802,2.43 3.8078,2.4324 3.8124,2.4324 C 3.8279,2.4324 3.8362,2.4169 3.8362,2.3968 C 3.8362,2.3809 3.8295,2.3605 3.8107,2.3605 C 3.802,2.3605 3.7963,2.3646 3.7919,2.3713 L 3.7878,2.3613 L 3.7761,2.3613 L 3.7761,2.4598 z M 3.7985,2.3836 C 3.7981,2.3778 3.8016,2.3746 3.8059,2.3746 C 3.8121,2.3746 3.8129,2.3808 3.8129,2.3937 L 3.8129,2.3989 C 3.8129,2.4127 3.8129,2.4199 3.806,2.4199 C 3.8032,2.4199 3.8012,2.4183 3.7998,2.4172 L 3.7985,2.4159"
   class="ps012"
   id="path792"
   style="fill:#f8a96d;fill-rule:nonzero;stroke:none" />

<path
   d="M 3.8233,2.4598 L 3.8457,2.4598 L 3.8457,2.4267 L 3.846,2.4267 C 3.8492,2.43 3.855,2.4324 3.8595,2.4324 C 3.875,2.4324 3.8833,2.4169 3.8833,2.3968 C 3.8833,2.3809 3.8767,2.3605 3.8579,2.3605 C 3.8492,2.3605 3.8435,2.3646 3.8391,2.3713 L 3.8349,2.3613 L 3.8233,2.3613 L 3.8233,2.4598 z M 3.8457,2.3836 C 3.8453,2.3778 3.8488,2.3746 3.853,2.3746 C 3.8593,2.3746 3.8601,2.3808 3.8601,2.3937 L 3.8601,2.3989 C 3.8601,2.4127 3.8601,2.4199 3.8532,2.4199 C 3.8504,2.4199 3.8483,2.4183 3.847,2.4172 L 3.8457,2.4159"
   class="ps013"
   id="path794"
   style="fill:#f9b682;fill-rule:nonzero;stroke:none" />

<path
   d="M 3.8711,2.415 L 3.862,2.415 L 3.862,2.4307 L 3.8711,2.4307 L 3.8711,2.4385 C 3.8711,2.4555 3.8795,2.4617 3.8943,2.4617 C 3.8988,2.4617 3.9021,2.4613 3.9057,2.4609 L 3.9057,2.4437 C 3.9044,2.444 3.9028,2.4443 3.9015,2.4443 C 3.8959,2.4443 3.8935,2.4425 3.8935,2.4383 L 3.8935,2.4307 L 3.9057,2.4307 L 3.9057,2.415 L 3.8935,2.415 L 3.8935,2.3613 L 3.8711,2.3613"
   class="ps014"
   id="path796"
   style="fill:#fac498;fill-rule:nonzero;stroke:none" />

<path
   d="M 3.9288,2.4049 C 3.9288,2.4076 3.9286,2.411 3.9277,2.4136 C 3.9266,2.4163 3.9248,2.4183 3.9212,2.4183 C 3.9137,2.4183 3.9129,2.4092 3.9129,2.3953 C 3.9129,2.3797 3.9154,2.3746 3.9212,2.3746 C 3.9291,2.3746 3.9297,2.3826 3.9297,2.3879 L 3.9472,2.3854 C 3.9455,2.3685 3.9358,2.3596 3.9195,2.3596 C 3.8993,2.3596 3.8888,2.3773 3.8888,2.3945 C 3.8888,2.4134 3.8993,2.4324 3.9205,2.4324 C 3.9443,2.4324 3.9479,2.4118 3.9479,2.4049"
   class="ps015"
   id="path798"
   style="fill:#fbd2af;fill-rule:nonzero;stroke:none" />

<path
   d="M 3.9383,2.4048 C 3.9433,2.4048 3.9473,2.4008 3.9473,2.3958 C 3.9473,2.3908 3.9433,2.3868 3.9383,2.3868 C 3.9333,2.3868 3.9293,2.3908 3.9293,2.3958 C 3.9293,2.4008 3.9333,2.4048 3.9383,2.4048"
   class="ps016"
   id="path800"
   style="fill:#fce0c8;fill-rule:nonzero;stroke:none" />

<path
   d="M 3.7761,2.5732 L 3.7985,2.5732 L 3.7985,2.5402 L 3.7988,2.5402 C 3.802,2.5435 3.8078,2.5458 3.8124,2.5458 C 3.8279,2.5458 3.8362,2.5304 3.8362,2.5103 C 3.8362,2.4944 3.8295,2.4739 3.8107,2.4739 C 3.802,2.4739 3.7963,2.4781 3.7919,2.4847 L 3.7878,2.4748 L 3.7761,2.4748 L 3.7761,2.5732 z M 3.7985,2.497 C 3.7981,2.4912 3.8016,2.4881 3.8059,2.4881 C 3.8121,2.4881 3.8129,2.4943 3.8129,2.5071 L 3.8129,2.5124 C 3.8129,2.5262 3.8129,2.5334 3.806,2.5334 C 3.8032,2.5334 3.8012,2.5317 3.7998,2.5306 L 3.7985,2.5294"
   class="ps012"
   id="path802"
   style="fill:#f8a96d;fill-rule:nonzero;stroke:none" />

<path
   d="M 3.8233,2.5732 L 3.8457,2.5732 L 3.8457,2.5402 L 3.846,2.5402 C 3.8492,2.5435 3.855,2.5458 3.8595,2.5458 C 3.875,2.5458 3.8833,2.5304 3.8833,2.5103 C 3.8833,2.4944 3.8767,2.4739 3.8579,2.4739 C 3.8492,2.4739 3.8435,2.4781 3.8391,2.4847 L 3.8349,2.4748 L 3.8233,2.4748 L 3.8233,2.5732 z M 3.8457,2.497 C 3.8453,2.4912 3.8488,2.4881 3.853,2.4881 C 3.8593,2.4881 3.8601,2.4943 3.8601,2.5071 L 3.8601,2.5124 C 3.8601,2.5262 3.8601,2.5334 3.8532,2.5334 C 3.8504,2.5334 3.8483,2.5317 3.847,2.5306 L 3.8457,2.5294"
   class="ps013"
   id="path804"
   style="fill:#f9b682;fill-rule:nonzero;stroke:none" />

<path
   d="M 3.8711,2.5284 L 3.862,2.5284 L 3.862,2.5442 L 3.8711,2.5442 L 3.8711,2.5519 C 3.8711,2.5689 3.8795,2.5751 3.8943,2.5751 C 3.8988,2.5751 3.9021,2.5747 3.9057,2.5743 L 3.9057,2.5572 C 3.9044,2.5575 3.9028,2.5577 3.9015,2.5577 C 3.8959,2.5577 3.8935,2.5559 3.8935,2.5518 L 3.8935,2.5442 L 3.9057,2.5442 L 3.9057,2.5284 L 3.8935,2.5284 L 3.8935,2.4748 L 3.8711,2.4748"
   class="ps014"
   id="path806"
   style="fill:#fac498;fill-rule:nonzero;stroke:none" />

<path
   d="M 3.9288,2.5183 C 3.9288,2.5211 3.9286,2.5244 3.9277,2.527 C 3.9266,2.5298 3.9248,2.5317 3.9212,2.5317 C 3.9137,2.5317 3.9129,2.5226 3.9129,2.5088 C 3.9129,2.4932 3.9154,2.4881 3.9212,2.4881 C 3.9291,2.4881 3.9297,2.4961 3.9297,2.5013 L 3.9472,2.4988 C 3.9455,2.482 3.9358,2.4731 3.9195,2.4731 C 3.8993,2.4731 3.8888,2.4908 3.8888,2.508 C 3.8888,2.5269 3.8993,2.5458 3.9205,2.5458 C 3.9443,2.5458 3.9479,2.5253 3.9479,2.5183"
   class="ps015"
   id="path808"
   style="fill:#fbd2af;fill-rule:nonzero;stroke:none" />

<path
   d="M 3.9383,2.5183 C 3.9433,2.5183 3.9473,2.5142 3.9473,2.5092 C 3.9473,2.5043 3.9433,2.5002 3.9383,2.5002 C 3.9333,2.5002 3.9293,2.5043 3.9293,2.5092 C 3.9293,2.5142 3.9333,2.5183 3.9383,2.5183"
   class="ps016"
   id="path810"
   style="fill:#fce0c8;fill-rule:nonzero;stroke:none" />

<path
   d="M 3.9765,2.3463 L 3.9989,2.3463 L 3.9989,2.3132 L 3.9992,2.3132 C 4.0024,2.3166 4.0082,2.3189 4.0127,2.3189 C 4.0282,2.3189 4.0365,2.3034 4.0365,2.2834 C 4.0365,2.2675 4.0299,2.247 4.0111,2.247 C 4.0024,2.247 3.9967,2.2512 3.9923,2.2578 L 3.9881,2.2478 L 3.9765,2.2478 L 3.9765,2.3463 z M 3.9989,2.2701 C 3.9985,2.2643 4.002,2.2611 4.0062,2.2611 C 4.0125,2.2611 4.0133,2.2673 4.0133,2.2802 L 4.0133,2.2855 C 4.0133,2.2993 4.0133,2.3065 4.0064,2.3065 C 4.0036,2.3065 4.0015,2.3048 4.0002,2.3037 L 3.9989,2.3025"
   class="ps012"
   id="path812"
   style="fill:#f8a96d;fill-rule:nonzero;stroke:none" />

<path
   d="M 4.0237,2.3463 L 4.0461,2.3463 L 4.0461,2.3132 L 4.0464,2.3132 C 4.0496,2.3166 4.0554,2.3189 4.0599,2.3189 C 4.0754,2.3189 4.0837,2.3034 4.0837,2.2834 C 4.0837,2.2675 4.0771,2.247 4.0583,2.247 C 4.0496,2.247 4.0439,2.2512 4.0395,2.2578 L 4.0353,2.2478 L 4.0237,2.2478 L 4.0237,2.3463 z M 4.0461,2.2701 C 4.0457,2.2643 4.0491,2.2611 4.0534,2.2611 C 4.0596,2.2611 4.0605,2.2673 4.0605,2.2802 L 4.0605,2.2855 C 4.0605,2.2993 4.0605,2.3065 4.0536,2.3065 C 4.0508,2.3065 4.0487,2.3048 4.0473,2.3037 L 4.0461,2.3025"
   class="ps013"
   id="path814"
   style="fill:#f9b682;fill-rule:nonzero;stroke:none" />

<path
   d="M 4.0715,2.3015 L 4.0624,2.3015 L 4.0624,2.3173 L 4.0715,2.3173 L 4.0715,2.325 C 4.0715,2.342 4.0799,2.3482 4.0947,2.3482 C 4.0991,2.3482 4.1025,2.3478 4.1061,2.3474 L 4.1061,2.3303 C 4.1048,2.3305 4.1032,2.3308 4.1019,2.3308 C 4.0962,2.3308 4.0939,2.329 4.0939,2.3249 L 4.0939,2.3173 L 4.1061,2.3173 L 4.1061,2.3015 L 4.0939,2.3015 L 4.0939,2.2478 L 4.0715,2.2478"
   class="ps014"
   id="path816"
   style="fill:#fac498;fill-rule:nonzero;stroke:none" />

<path
   d="M 4.1292,2.2914 C 4.1292,2.2942 4.129,2.2975 4.1281,2.3001 C 4.127,2.3029 4.1252,2.3048 4.1216,2.3048 C 4.1141,2.3048 4.1133,2.2957 4.1133,2.2819 C 4.1133,2.2662 4.1158,2.2611 4.1216,2.2611 C 4.1294,2.2611 4.1301,2.2691 4.1301,2.2744 L 4.1476,2.2719 C 4.1459,2.255 4.1362,2.2462 4.1199,2.2462 C 4.0997,2.2462 4.0892,2.2639 4.0892,2.281 C 4.0892,2.3 4.0997,2.3189 4.1209,2.3189 C 4.1447,2.3189 4.1483,2.2983 4.1483,2.2914"
   class="ps015"
   id="path818"
   style="fill:#fbd2af;fill-rule:nonzero;stroke:none" />

<path
   d="M 3.9765,2.4598 L 3.9989,2.4598 L 3.9989,2.4267 L 3.9992,2.4267 C 4.0024,2.43 4.0082,2.4324 4.0127,2.4324 C 4.0282,2.4324 4.0365,2.4169 4.0365,2.3968 C 4.0365,2.3809 4.0299,2.3605 4.0111,2.3605 C 4.0024,2.3605 3.9967,2.3646 3.9923,2.3713 L 3.9881,2.3613 L 3.9765,2.3613 L 3.9765,2.4598 z M 3.9989,2.3836 C 3.9985,2.3778 4.002,2.3746 4.0062,2.3746 C 4.0125,2.3746 4.0133,2.3808 4.0133,2.3937 L 4.0133,2.3989 C 4.0133,2.4127 4.0133,2.4199 4.0064,2.4199 C 4.0036,2.4199 4.0015,2.4183 4.0002,2.4172 L 3.9989,2.4159"
   class="ps012"
   id="path820"
   style="fill:#f8a96d;fill-rule:nonzero;stroke:none" />

<path
   d="M 4.0237,2.4598 L 4.0461,2.4598 L 4.0461,2.4267 L 4.0464,2.4267 C 4.0496,2.43 4.0554,2.4324 4.0599,2.4324 C 4.0754,2.4324 4.0837,2.4169 4.0837,2.3968 C 4.0837,2.3809 4.0771,2.3605 4.0583,2.3605 C 4.0496,2.3605 4.0439,2.3646 4.0395,2.3713 L 4.0353,2.3613 L 4.0237,2.3613 L 4.0237,2.4598 z M 4.0461,2.3836 C 4.0457,2.3778 4.0491,2.3746 4.0534,2.3746 C 4.0596,2.3746 4.0605,2.3808 4.0605,2.3937 L 4.0605,2.3989 C 4.0605,2.4127 4.0605,2.4199 4.0536,2.4199 C 4.0508,2.4199 4.0487,2.4183 4.0473,2.4172 L 4.0461,2.4159"
   class="ps013"
   id="path822"
   style="fill:#f9b682;fill-rule:nonzero;stroke:none" />

<path
   d="M 4.0715,2.415 L 4.0624,2.415 L 4.0624,2.4307 L 4.0715,2.4307 L 4.0715,2.4385 C 4.0715,2.4555 4.0799,2.4617 4.0947,2.4617 C 4.0991,2.4617 4.1025,2.4613 4.1061,2.4609 L 4.1061,2.4437 C 4.1048,2.444 4.1032,2.4443 4.1019,2.4443 C 4.0962,2.4443 4.0939,2.4425 4.0939,2.4383 L 4.0939,2.4307 L 4.1061,2.4307 L 4.1061,2.415 L 4.0939,2.415 L 4.0939,2.3613 L 4.0715,2.3613"
   class="ps014"
   id="path824"
   style="fill:#fac498;fill-rule:nonzero;stroke:none" />

<path
   d="M 4.1292,2.4049 C 4.1292,2.4076 4.129,2.411 4.1281,2.4136 C 4.127,2.4163 4.1252,2.4183 4.1216,2.4183 C 4.1141,2.4183 4.1133,2.4092 4.1133,2.3953 C 4.1133,2.3797 4.1158,2.3746 4.1216,2.3746 C 4.1294,2.3746 4.1301,2.3826 4.1301,2.3879 L 4.1476,2.3854 C 4.1459,2.3685 4.1362,2.3596 4.1199,2.3596 C 4.0997,2.3596 4.0892,2.3773 4.0892,2.3945 C 4.0892,2.4134 4.0997,2.4324 4.1209,2.4324 C 4.1447,2.4324 4.1483,2.4118 4.1483,2.4049"
   class="ps015"
   id="path826"
   style="fill:#fbd2af;fill-rule:nonzero;stroke:none" />

<path
   d="M 3.9765,2.5732 L 3.9989,2.5732 L 3.9989,2.5402 L 3.9992,2.5402 C 4.0024,2.5435 4.0082,2.5458 4.0127,2.5458 C 4.0282,2.5458 4.0365,2.5304 4.0365,2.5103 C 4.0365,2.4944 4.0299,2.4739 4.0111,2.4739 C 4.0024,2.4739 3.9967,2.4781 3.9923,2.4847 L 3.9881,2.4748 L 3.9765,2.4748 L 3.9765,2.5732 z M 3.9989,2.497 C 3.9985,2.4912 4.002,2.4881 4.0062,2.4881 C 4.0125,2.4881 4.0133,2.4943 4.0133,2.5071 L 4.0133,2.5124 C 4.0133,2.5262 4.0133,2.5334 4.0064,2.5334 C 4.0036,2.5334 4.0015,2.5317 4.0002,2.5306 L 3.9989,2.5294"
   class="ps012"
   id="path828"
   style="fill:#f8a96d;fill-rule:nonzero;stroke:none" />

<path
   d="M 4.0237,2.5732 L 4.0461,2.5732 L 4.0461,2.5402 L 4.0464,2.5402 C 4.0496,2.5435 4.0554,2.5458 4.0599,2.5458 C 4.0754,2.5458 4.0837,2.5304 4.0837,2.5103 C 4.0837,2.4944 4.0771,2.4739 4.0583,2.4739 C 4.0496,2.4739 4.0439,2.4781 4.0395,2.4847 L 4.0353,2.4748 L 4.0237,2.4748 L 4.0237,2.5732 z M 4.0461,2.497 C 4.0457,2.4912 4.0491,2.4881 4.0534,2.4881 C 4.0596,2.4881 4.0605,2.4943 4.0605,2.5071 L 4.0605,2.5124 C 4.0605,2.5262 4.0605,2.5334 4.0536,2.5334 C 4.0508,2.5334 4.0487,2.5317 4.0473,2.5306 L 4.0461,2.5294"
   class="ps013"
   id="path830"
   style="fill:#f9b682;fill-rule:nonzero;stroke:none" />

<path
   d="M 4.0715,2.5284 L 4.0624,2.5284 L 4.0624,2.5442 L 4.0715,2.5442 L 4.0715,2.5519 C 4.0715,2.5689 4.0799,2.5751 4.0947,2.5751 C 4.0991,2.5751 4.1025,2.5747 4.1061,2.5743 L 4.1061,2.5572 C 4.1048,2.5575 4.1032,2.5577 4.1019,2.5577 C 4.0962,2.5577 4.0939,2.5559 4.0939,2.5518 L 4.0939,2.5442 L 4.1061,2.5442 L 4.1061,2.5284 L 4.0939,2.5284 L 4.0939,2.4748 L 4.0715,2.4748"
   class="ps014"
   id="path832"
   style="fill:#fac498;fill-rule:nonzero;stroke:none" />

<path
   d="M 4.1292,2.5183 C 4.1292,2.5211 4.129,2.5244 4.1281,2.527 C 4.127,2.5298 4.1252,2.5317 4.1216,2.5317 C 4.1141,2.5317 4.1133,2.5226 4.1133,2.5088 C 4.1133,2.4932 4.1158,2.4881 4.1216,2.4881 C 4.1294,2.4881 4.1301,2.4961 4.1301,2.5013 L 4.1476,2.4988 C 4.1459,2.482 4.1362,2.4731 4.1199,2.4731 C 4.0997,2.4731 4.0892,2.4908 4.0892,2.508 C 4.0892,2.5269 4.0997,2.5458 4.1209,2.5458 C 4.1447,2.5458 4.1483,2.5253 4.1483,2.5183"
   class="ps015"
   id="path834"
   style="fill:#fbd2af;fill-rule:nonzero;stroke:none" />

<path
   d="M 3.577,2.6867 L 3.5994,2.6867 L 3.5994,2.6536 L 3.5997,2.6536 C 3.6028,2.6569 3.6086,2.6593 3.6132,2.6593 C 3.6287,2.6593 3.637,2.6438 3.637,2.6238 C 3.637,2.6078 3.6304,2.5874 3.6115,2.5874 C 3.6028,2.5874 3.5972,2.5915 3.5927,2.5982 L 3.5886,2.5882 L 3.577,2.5882 L 3.577,2.6867 z M 3.5994,2.6105 C 3.599,2.6047 3.6024,2.6015 3.6067,2.6015 C 3.6129,2.6015 3.6138,2.6077 3.6138,2.6206 L 3.6138,2.6258 C 3.6138,2.6397 3.6138,2.6468 3.6068,2.6468 C 3.6041,2.6468 3.602,2.6452 3.6006,2.6441 L 3.5994,2.6428"
   class="ps012"
   id="path836"
   style="fill:#f8a96d;fill-rule:nonzero;stroke:none" />

<path
   d="M 3.6242,2.6867 L 3.6466,2.6867 L 3.6466,2.6536 L 3.6468,2.6536 C 3.65,2.6569 3.6558,2.6593 3.6604,2.6593 C 3.6759,2.6593 3.6842,2.6438 3.6842,2.6238 C 3.6842,2.6078 3.6775,2.5874 3.6587,2.5874 C 3.65,2.5874 3.6443,2.5915 3.6399,2.5982 L 3.6358,2.5882 L 3.6242,2.5882 L 3.6242,2.6867 z M 3.6466,2.6105 C 3.6461,2.6047 3.6496,2.6015 3.6539,2.6015 C 3.6601,2.6015 3.6609,2.6077 3.6609,2.6206 L 3.6609,2.6258 C 3.6609,2.6397 3.6609,2.6468 3.654,2.6468 C 3.6513,2.6468 3.6492,2.6452 3.6478,2.6441 L 3.6466,2.6428"
   class="ps013"
   id="path838"
   style="fill:#f9b682;fill-rule:nonzero;stroke:none" />

<path
   d="M 3.6719,2.6419 L 3.6628,2.6419 L 3.6628,2.6576 L 3.6719,2.6576 L 3.6719,2.6654 C 3.6719,2.6824 3.6804,2.6886 3.6952,2.6886 C 3.6996,2.6886 3.7029,2.6882 3.7065,2.6878 L 3.7065,2.6706 C 3.7053,2.6709 3.7036,2.6712 3.7024,2.6712 C 3.6967,2.6712 3.6944,2.6694 3.6944,2.6652 L 3.6944,2.6576 L 3.7065,2.6576 L 3.7065,2.6419 L 3.6944,2.6419 L 3.6944,2.5882 L 3.6719,2.5882"
   class="ps014"
   id="path840"
   style="fill:#fac498;fill-rule:nonzero;stroke:none" />

<path
   d="M 3.7296,2.6318 C 3.7296,2.6345 3.7295,2.6379 3.7285,2.6405 C 3.7274,2.6433 3.7256,2.6452 3.722,2.6452 C 3.7145,2.6452 3.7137,2.6361 3.7137,2.6222 C 3.7137,2.6066 3.7162,2.6015 3.722,2.6015 C 3.7299,2.6015 3.7306,2.6095 3.7306,2.6148 L 3.748,2.6123 C 3.7464,2.5954 3.7367,2.5866 3.7204,2.5866 C 3.7002,2.5866 3.6897,2.6043 3.6897,2.6214 C 3.6897,2.6403 3.7002,2.6593 3.7213,2.6593 C 3.7451,2.6593 3.7487,2.6387 3.7487,2.6318"
   class="ps015"
   id="path842"
   style="fill:#fbd2af;fill-rule:nonzero;stroke:none" />

<path
   d="M 3.7392,2.6317 C 3.7441,2.6317 3.7482,2.6277 3.7482,2.6227 C 3.7482,2.6177 3.7441,2.6137 3.7392,2.6137 C 3.7342,2.6137 3.7301,2.6177 3.7301,2.6227 C 3.7301,2.6277 3.7342,2.6317 3.7392,2.6317"
   class="ps016"
   id="path844"
   style="fill:#fce0c8;fill-rule:nonzero;stroke:none" />

<path
   d="M 3.3778,2.6867 L 3.4002,2.6867 L 3.4002,2.6536 L 3.4005,2.6536 C 3.4037,2.6569 3.4095,2.6593 3.4141,2.6593 C 3.4296,2.6593 3.4379,2.6438 3.4379,2.6238 C 3.4379,2.6078 3.4312,2.5874 3.4124,2.5874 C 3.4037,2.5874 3.398,2.5915 3.3936,2.5982 L 3.3895,2.5882 L 3.3778,2.5882 L 3.3778,2.6867 z M 3.4002,2.6105 C 3.3998,2.6047 3.4033,2.6015 3.4076,2.6015 C 3.4138,2.6015 3.4146,2.6077 3.4146,2.6206 L 3.4146,2.6258 C 3.4146,2.6397 3.4146,2.6468 3.4077,2.6468 C 3.4049,2.6468 3.4029,2.6452 3.4015,2.6441 L 3.4002,2.6428"
   class="ps012"
   id="path846"
   style="fill:#f8a96d;fill-rule:nonzero;stroke:none" />

<path
   d="M 3.425,2.6867 L 3.4474,2.6867 L 3.4474,2.6536 L 3.4477,2.6536 C 3.4508,2.6569 3.4567,2.6593 3.4612,2.6593 C 3.4767,2.6593 3.485,2.6438 3.485,2.6238 C 3.485,2.6078 3.4784,2.5874 3.4596,2.5874 C 3.4508,2.5874 3.4452,2.5915 3.4408,2.5982 L 3.4366,2.5882 L 3.425,2.5882 L 3.425,2.6867 z M 3.4474,2.6105 C 3.447,2.6047 3.4504,2.6015 3.4547,2.6015 C 3.4609,2.6015 3.4618,2.6077 3.4618,2.6206 L 3.4618,2.6258 C 3.4618,2.6397 3.4618,2.6468 3.4549,2.6468 C 3.4521,2.6468 3.45,2.6452 3.4486,2.6441 L 3.4474,2.6428"
   class="ps013"
   id="path848"
   style="fill:#f9b682;fill-rule:nonzero;stroke:none" />

<path
   d="M 3.4728,2.6419 L 3.4637,2.6419 L 3.4637,2.6576 L 3.4728,2.6576 L 3.4728,2.6654 C 3.4728,2.6824 3.4812,2.6886 3.496,2.6886 C 3.5005,2.6886 3.5038,2.6882 3.5074,2.6878 L 3.5074,2.6706 C 3.5061,2.6709 3.5045,2.6712 3.5032,2.6712 C 3.4976,2.6712 3.4952,2.6694 3.4952,2.6652 L 3.4952,2.6576 L 3.5074,2.6576 L 3.5074,2.6419 L 3.4952,2.6419 L 3.4952,2.5882 L 3.4728,2.5882"
   class="ps014"
   id="path850"
   style="fill:#fac498;fill-rule:nonzero;stroke:none" />

<path
   d="M 3.5305,2.6318 C 3.5305,2.6345 3.5303,2.6379 3.5294,2.6405 C 3.5283,2.6433 3.5265,2.6452 3.5229,2.6452 C 3.5154,2.6452 3.5146,2.6361 3.5146,2.6222 C 3.5146,2.6066 3.5171,2.6015 3.5229,2.6015 C 3.5307,2.6015 3.5314,2.6095 3.5314,2.6148 L 3.5489,2.6123 C 3.5472,2.5954 3.5375,2.5866 3.5212,2.5866 C 3.501,2.5866 3.4905,2.6043 3.4905,2.6214 C 3.4905,2.6403 3.501,2.6593 3.5222,2.6593 C 3.546,2.6593 3.5496,2.6387 3.5496,2.6318"
   class="ps015"
   id="path852"
   style="fill:#fbd2af;fill-rule:nonzero;stroke:none" />

<path
   d="M 3.54,2.6317 C 3.545,2.6317 3.549,2.6277 3.549,2.6227 C 3.549,2.6177 3.545,2.6137 3.54,2.6137 C 3.535,2.6137 3.531,2.6177 3.531,2.6227 C 3.531,2.6277 3.535,2.6317 3.54,2.6317"
   class="ps016"
   id="path854"
   style="fill:#fce0c8;fill-rule:nonzero;stroke:none" />

<path
   d="M 3.1787,2.6867 L 3.2011,2.6867 L 3.2011,2.6536 L 3.2014,2.6536 C 3.2046,2.6569 3.2104,2.6593 3.2149,2.6593 C 3.2304,2.6593 3.2387,2.6438 3.2387,2.6238 C 3.2387,2.6078 3.2321,2.5874 3.2133,2.5874 C 3.2046,2.5874 3.1989,2.5915 3.1945,2.5982 L 3.1903,2.5882 L 3.1787,2.5882 L 3.1787,2.6867 z M 3.2011,2.6105 C 3.2007,2.6047 3.2041,2.6015 3.2084,2.6015 C 3.2146,2.6015 3.2155,2.6077 3.2155,2.6206 L 3.2155,2.6258 C 3.2155,2.6397 3.2155,2.6468 3.2086,2.6468 C 3.2058,2.6468 3.2037,2.6452 3.2023,2.6441 L 3.2011,2.6428"
   class="ps012"
   id="path856"
   style="fill:#f8a96d;fill-rule:nonzero;stroke:none" />

<path
   d="M 3.2259,2.6867 L 3.2483,2.6867 L 3.2483,2.6536 L 3.2485,2.6536 C 3.2517,2.6569 3.2575,2.6593 3.2621,2.6593 C 3.2776,2.6593 3.2859,2.6438 3.2859,2.6238 C 3.2859,2.6078 3.2792,2.5874 3.2604,2.5874 C 3.2517,2.5874 3.246,2.5915 3.2416,2.5982 L 3.2375,2.5882 L 3.2259,2.5882 L 3.2259,2.6867 z M 3.2483,2.6105 C 3.2478,2.6047 3.2513,2.6015 3.2556,2.6015 C 3.2618,2.6015 3.2626,2.6077 3.2626,2.6206 L 3.2626,2.6258 C 3.2626,2.6397 3.2626,2.6468 3.2557,2.6468 C 3.253,2.6468 3.2509,2.6452 3.2495,2.6441 L 3.2483,2.6428"
   class="ps013"
   id="path858"
   style="fill:#f9b682;fill-rule:nonzero;stroke:none" />

<path
   d="M 3.2737,2.6419 L 3.2645,2.6419 L 3.2645,2.6576 L 3.2737,2.6576 L 3.2737,2.6654 C 3.2737,2.6824 3.2821,2.6886 3.2969,2.6886 C 3.3013,2.6886 3.3046,2.6882 3.3082,2.6878 L 3.3082,2.6706 C 3.307,2.6709 3.3053,2.6712 3.3041,2.6712 C 3.2984,2.6712 3.2961,2.6694 3.2961,2.6652 L 3.2961,2.6576 L 3.3082,2.6576 L 3.3082,2.6419 L 3.2961,2.6419 L 3.2961,2.5882 L 3.2737,2.5882"
   class="ps014"
   id="path860"
   style="fill:#fac498;fill-rule:nonzero;stroke:none" />

<path
   d="M 3.3313,2.6318 C 3.3313,2.6345 3.3312,2.6379 3.3302,2.6405 C 3.3291,2.6433 3.3273,2.6452 3.3237,2.6452 C 3.3163,2.6452 3.3154,2.6361 3.3154,2.6222 C 3.3154,2.6066 3.3179,2.6015 3.3237,2.6015 C 3.3316,2.6015 3.3323,2.6095 3.3323,2.6148 L 3.3497,2.6123 C 3.3481,2.5954 3.3384,2.5866 3.3221,2.5866 C 3.3019,2.5866 3.2914,2.6043 3.2914,2.6214 C 3.2914,2.6403 3.3019,2.6593 3.323,2.6593 C 3.3468,2.6593 3.3504,2.6387 3.3504,2.6318"
   class="ps015"
   id="path862"
   style="fill:#fbd2af;fill-rule:nonzero;stroke:none" />

<path
   d="M 3.3409,2.6317 C 3.3458,2.6317 3.3499,2.6277 3.3499,2.6227 C 3.3499,2.6177 3.3458,2.6137 3.3409,2.6137 C 3.3359,2.6137 3.3319,2.6177 3.3319,2.6227 C 3.3319,2.6277 3.3359,2.6317 3.3409,2.6317"
   class="ps016"
   id="path864"
   style="fill:#fce0c8;fill-rule:nonzero;stroke:none" />

<path
   d="M 3.7761,2.6867 L 3.7985,2.6867 L 3.7985,2.6536 L 3.7988,2.6536 C 3.802,2.6569 3.8078,2.6593 3.8124,2.6593 C 3.8279,2.6593 3.8362,2.6438 3.8362,2.6238 C 3.8362,2.6078 3.8295,2.5874 3.8107,2.5874 C 3.802,2.5874 3.7963,2.5915 3.7919,2.5982 L 3.7878,2.5882 L 3.7761,2.5882 L 3.7761,2.6867 z M 3.7985,2.6105 C 3.7981,2.6047 3.8016,2.6015 3.8059,2.6015 C 3.8121,2.6015 3.8129,2.6077 3.8129,2.6206 L 3.8129,2.6258 C 3.8129,2.6397 3.8129,2.6468 3.806,2.6468 C 3.8032,2.6468 3.8012,2.6452 3.7998,2.6441 L 3.7985,2.6428"
   class="ps012"
   id="path866"
   style="fill:#f8a96d;fill-rule:nonzero;stroke:none" />

<path
   d="M 3.8233,2.6867 L 3.8457,2.6867 L 3.8457,2.6536 L 3.846,2.6536 C 3.8492,2.6569 3.855,2.6593 3.8595,2.6593 C 3.875,2.6593 3.8833,2.6438 3.8833,2.6238 C 3.8833,2.6078 3.8767,2.5874 3.8579,2.5874 C 3.8492,2.5874 3.8435,2.5915 3.8391,2.5982 L 3.8349,2.5882 L 3.8233,2.5882 L 3.8233,2.6867 z M 3.8457,2.6105 C 3.8453,2.6047 3.8488,2.6015 3.853,2.6015 C 3.8593,2.6015 3.8601,2.6077 3.8601,2.6206 L 3.8601,2.6258 C 3.8601,2.6397 3.8601,2.6468 3.8532,2.6468 C 3.8504,2.6468 3.8483,2.6452 3.847,2.6441 L 3.8457,2.6428"
   class="ps013"
   id="path868"
   style="fill:#f9b682;fill-rule:nonzero;stroke:none" />

<path
   d="M 3.8711,2.6419 L 3.862,2.6419 L 3.862,2.6576 L 3.8711,2.6576 L 3.8711,2.6654 C 3.8711,2.6824 3.8795,2.6886 3.8943,2.6886 C 3.8988,2.6886 3.9021,2.6882 3.9057,2.6878 L 3.9057,2.6706 C 3.9044,2.6709 3.9028,2.6712 3.9015,2.6712 C 3.8959,2.6712 3.8935,2.6694 3.8935,2.6652 L 3.8935,2.6576 L 3.9057,2.6576 L 3.9057,2.6419 L 3.8935,2.6419 L 3.8935,2.5882 L 3.8711,2.5882"
   class="ps014"
   id="path870"
   style="fill:#fac498;fill-rule:nonzero;stroke:none" />

<path
   d="M 3.9288,2.6318 C 3.9288,2.6345 3.9286,2.6379 3.9277,2.6405 C 3.9266,2.6433 3.9248,2.6452 3.9212,2.6452 C 3.9137,2.6452 3.9129,2.6361 3.9129,2.6222 C 3.9129,2.6066 3.9154,2.6015 3.9212,2.6015 C 3.9291,2.6015 3.9297,2.6095 3.9297,2.6148 L 3.9472,2.6123 C 3.9455,2.5954 3.9358,2.5866 3.9195,2.5866 C 3.8993,2.5866 3.8888,2.6043 3.8888,2.6214 C 3.8888,2.6403 3.8993,2.6593 3.9205,2.6593 C 3.9443,2.6593 3.9479,2.6387 3.9479,2.6318"
   class="ps015"
   id="path872"
   style="fill:#fbd2af;fill-rule:nonzero;stroke:none" />

<path
   d="M 3.9383,2.6317 C 3.9433,2.6317 3.9473,2.6277 3.9473,2.6227 C 3.9473,2.6177 3.9433,2.6137 3.9383,2.6137 C 3.9333,2.6137 3.9293,2.6177 3.9293,2.6227 C 3.9293,2.6277 3.9333,2.6317 3.9383,2.6317"
   class="ps016"
   id="path874"
   style="fill:#fce0c8;fill-rule:nonzero;stroke:none" />

<path
   d="M 3.9765,2.6867 L 3.9989,2.6867 L 3.9989,2.6536 L 3.9992,2.6536 C 4.0024,2.6569 4.0082,2.6593 4.0127,2.6593 C 4.0282,2.6593 4.0365,2.6438 4.0365,2.6238 C 4.0365,2.6078 4.0299,2.5874 4.0111,2.5874 C 4.0024,2.5874 3.9967,2.5915 3.9923,2.5982 L 3.9881,2.5882 L 3.9765,2.5882 L 3.9765,2.6867 z M 3.9989,2.6105 C 3.9985,2.6047 4.002,2.6015 4.0062,2.6015 C 4.0125,2.6015 4.0133,2.6077 4.0133,2.6206 L 4.0133,2.6258 C 4.0133,2.6397 4.0133,2.6468 4.0064,2.6468 C 4.0036,2.6468 4.0015,2.6452 4.0002,2.6441 L 3.9989,2.6428"
   class="ps012"
   id="path876"
   style="fill:#f8a96d;fill-rule:nonzero;stroke:none" />

<path
   d="M 4.0237,2.6867 L 4.0461,2.6867 L 4.0461,2.6536 L 4.0464,2.6536 C 4.0496,2.6569 4.0554,2.6593 4.0599,2.6593 C 4.0754,2.6593 4.0837,2.6438 4.0837,2.6238 C 4.0837,2.6078 4.0771,2.5874 4.0583,2.5874 C 4.0496,2.5874 4.0439,2.5915 4.0395,2.5982 L 4.0353,2.5882 L 4.0237,2.5882 L 4.0237,2.6867 z M 4.0461,2.6105 C 4.0457,2.6047 4.0491,2.6015 4.0534,2.6015 C 4.0596,2.6015 4.0605,2.6077 4.0605,2.6206 L 4.0605,2.6258 C 4.0605,2.6397 4.0605,2.6468 4.0536,2.6468 C 4.0508,2.6468 4.0487,2.6452 4.0473,2.6441 L 4.0461,2.6428"
   class="ps013"
   id="path878"
   style="fill:#f9b682;fill-rule:nonzero;stroke:none" />

<path
   d="M 4.0715,2.6419 L 4.0624,2.6419 L 4.0624,2.6576 L 4.0715,2.6576 L 4.0715,2.6654 C 4.0715,2.6824 4.0799,2.6886 4.0947,2.6886 C 4.0991,2.6886 4.1025,2.6882 4.1061,2.6878 L 4.1061,2.6706 C 4.1048,2.6709 4.1032,2.6712 4.1019,2.6712 C 4.0962,2.6712 4.0939,2.6694 4.0939,2.6652 L 4.0939,2.6576 L 4.1061,2.6576 L 4.1061,2.6419 L 4.0939,2.6419 L 4.0939,2.5882 L 4.0715,2.5882"
   class="ps014"
   id="path880"
   style="fill:#fac498;fill-rule:nonzero;stroke:none" />

<path
   d="M 4.1292,2.6318 C 4.1292,2.6345 4.129,2.6379 4.1281,2.6405 C 4.127,2.6433 4.1252,2.6452 4.1216,2.6452 C 4.1141,2.6452 4.1133,2.6361 4.1133,2.6222 C 4.1133,2.6066 4.1158,2.6015 4.1216,2.6015 C 4.1294,2.6015 4.1301,2.6095 4.1301,2.6148 L 4.1476,2.6123 C 4.1459,2.5954 4.1362,2.5866 4.1199,2.5866 C 4.0997,2.5866 4.0892,2.6043 4.0892,2.6214 C 4.0892,2.6403 4.0997,2.6593 4.1209,2.6593 C 4.1447,2.6593 4.1483,2.6387 4.1483,2.6318"
   class="ps015"
   id="path882"
   style="fill:#fbd2af;fill-rule:nonzero;stroke:none" />

<path
   d="M 3.577,2.8002 L 3.5994,2.8002 L 3.5994,2.7671 L 3.5997,2.7671 C 3.6028,2.7704 3.6086,2.7728 3.6132,2.7728 C 3.6287,2.7728 3.637,2.7573 3.637,2.7372 C 3.637,2.7213 3.6304,2.7009 3.6115,2.7009 C 3.6028,2.7009 3.5972,2.705 3.5927,2.7116 L 3.5886,2.7017 L 3.577,2.7017 L 3.577,2.8002 z M 3.5994,2.7239 C 3.599,2.7181 3.6024,2.715 3.6067,2.715 C 3.6129,2.715 3.6138,2.7212 3.6138,2.734 L 3.6138,2.7393 C 3.6138,2.7531 3.6138,2.7603 3.6068,2.7603 C 3.6041,2.7603 3.602,2.7587 3.6006,2.7576 L 3.5994,2.7563"
   class="ps012"
   id="path884"
   style="fill:#f8a96d;fill-rule:nonzero;stroke:none" />

<path
   d="M 3.6242,2.8002 L 3.6466,2.8002 L 3.6466,2.7671 L 3.6468,2.7671 C 3.65,2.7704 3.6558,2.7728 3.6604,2.7728 C 3.6759,2.7728 3.6842,2.7573 3.6842,2.7372 C 3.6842,2.7213 3.6775,2.7009 3.6587,2.7009 C 3.65,2.7009 3.6443,2.705 3.6399,2.7116 L 3.6358,2.7017 L 3.6242,2.7017 L 3.6242,2.8002 z M 3.6466,2.7239 C 3.6461,2.7181 3.6496,2.715 3.6539,2.715 C 3.6601,2.715 3.6609,2.7212 3.6609,2.734 L 3.6609,2.7393 C 3.6609,2.7531 3.6609,2.7603 3.654,2.7603 C 3.6513,2.7603 3.6492,2.7587 3.6478,2.7576 L 3.6466,2.7563"
   class="ps013"
   id="path886"
   style="fill:#f9b682;fill-rule:nonzero;stroke:none" />

<path
   d="M 3.6719,2.7554 L 3.6628,2.7554 L 3.6628,2.7711 L 3.6719,2.7711 L 3.6719,2.7789 C 3.6719,2.7959 3.6804,2.8021 3.6952,2.8021 C 3.6996,2.8021 3.7029,2.8017 3.7065,2.8013 L 3.7065,2.7841 C 3.7053,2.7844 3.7036,2.7847 3.7024,2.7847 C 3.6967,2.7847 3.6944,2.7829 3.6944,2.7787 L 3.6944,2.7711 L 3.7065,2.7711 L 3.7065,2.7554 L 3.6944,2.7554 L 3.6944,2.7017 L 3.6719,2.7017"
   class="ps014"
   id="path888"
   style="fill:#fac498;fill-rule:nonzero;stroke:none" />

<path
   d="M 3.7296,2.7453 C 3.7296,2.748 3.7295,2.7513 3.7285,2.754 C 3.7274,2.7567 3.7256,2.7587 3.722,2.7587 C 3.7145,2.7587 3.7137,2.7495 3.7137,2.7357 C 3.7137,2.7201 3.7162,2.715 3.722,2.715 C 3.7299,2.715 3.7306,2.723 3.7306,2.7282 L 3.748,2.7257 C 3.7464,2.7089 3.7367,2.7 3.7204,2.7 C 3.7002,2.7 3.6897,2.7177 3.6897,2.7349 C 3.6897,2.7538 3.7002,2.7728 3.7213,2.7728 C 3.7451,2.7728 3.7487,2.7522 3.7487,2.7453"
   class="ps015"
   id="path890"
   style="fill:#fbd2af;fill-rule:nonzero;stroke:none" />

<path
   d="M 3.7392,2.7452 C 3.7441,2.7452 3.7482,2.7411 3.7482,2.7362 C 3.7482,2.7312 3.7441,2.7271 3.7392,2.7271 C 3.7342,2.7271 3.7301,2.7312 3.7301,2.7362 C 3.7301,2.7411 3.7342,2.7452 3.7392,2.7452"
   class="ps016"
   id="path892"
   style="fill:#fce0c8;fill-rule:nonzero;stroke:none" />

<path
   d="M 3.3778,2.8002 L 3.4002,2.8002 L 3.4002,2.7671 L 3.4005,2.7671 C 3.4037,2.7704 3.4095,2.7728 3.4141,2.7728 C 3.4296,2.7728 3.4379,2.7573 3.4379,2.7372 C 3.4379,2.7213 3.4312,2.7009 3.4124,2.7009 C 3.4037,2.7009 3.398,2.705 3.3936,2.7116 L 3.3895,2.7017 L 3.3778,2.7017 L 3.3778,2.8002 z M 3.4002,2.7239 C 3.3998,2.7181 3.4033,2.715 3.4076,2.715 C 3.4138,2.715 3.4146,2.7212 3.4146,2.734 L 3.4146,2.7393 C 3.4146,2.7531 3.4146,2.7603 3.4077,2.7603 C 3.4049,2.7603 3.4029,2.7587 3.4015,2.7576 L 3.4002,2.7563"
   class="ps012"
   id="path894"
   style="fill:#f8a96d;fill-rule:nonzero;stroke:none" />

<path
   d="M 3.425,2.8002 L 3.4474,2.8002 L 3.4474,2.7671 L 3.4477,2.7671 C 3.4508,2.7704 3.4567,2.7728 3.4612,2.7728 C 3.4767,2.7728 3.485,2.7573 3.485,2.7372 C 3.485,2.7213 3.4784,2.7009 3.4596,2.7009 C 3.4508,2.7009 3.4452,2.705 3.4408,2.7116 L 3.4366,2.7017 L 3.425,2.7017 L 3.425,2.8002 z M 3.4474,2.7239 C 3.447,2.7181 3.4504,2.715 3.4547,2.715 C 3.4609,2.715 3.4618,2.7212 3.4618,2.734 L 3.4618,2.7393 C 3.4618,2.7531 3.4618,2.7603 3.4549,2.7603 C 3.4521,2.7603 3.45,2.7587 3.4486,2.7576 L 3.4474,2.7563"
   class="ps013"
   id="path896"
   style="fill:#f9b682;fill-rule:nonzero;stroke:none" />

<path
   d="M 3.4728,2.7554 L 3.4637,2.7554 L 3.4637,2.7711 L 3.4728,2.7711 L 3.4728,2.7789 C 3.4728,2.7959 3.4812,2.8021 3.496,2.8021 C 3.5005,2.8021 3.5038,2.8017 3.5074,2.8013 L 3.5074,2.7841 C 3.5061,2.7844 3.5045,2.7847 3.5032,2.7847 C 3.4976,2.7847 3.4952,2.7829 3.4952,2.7787 L 3.4952,2.7711 L 3.5074,2.7711 L 3.5074,2.7554 L 3.4952,2.7554 L 3.4952,2.7017 L 3.4728,2.7017"
   class="ps014"
   id="path898"
   style="fill:#fac498;fill-rule:nonzero;stroke:none" />

<path
   d="M 3.5305,2.7453 C 3.5305,2.748 3.5303,2.7513 3.5294,2.754 C 3.5283,2.7567 3.5265,2.7587 3.5229,2.7587 C 3.5154,2.7587 3.5146,2.7495 3.5146,2.7357 C 3.5146,2.7201 3.5171,2.715 3.5229,2.715 C 3.5307,2.715 3.5314,2.723 3.5314,2.7282 L 3.5489,2.7257 C 3.5472,2.7089 3.5375,2.7 3.5212,2.7 C 3.501,2.7 3.4905,2.7177 3.4905,2.7349 C 3.4905,2.7538 3.501,2.7728 3.5222,2.7728 C 3.546,2.7728 3.5496,2.7522 3.5496,2.7453"
   class="ps015"
   id="path900"
   style="fill:#fbd2af;fill-rule:nonzero;stroke:none" />

<path
   d="M 3.54,2.7452 C 3.545,2.7452 3.549,2.7411 3.549,2.7362 C 3.549,2.7312 3.545,2.7271 3.54,2.7271 C 3.535,2.7271 3.531,2.7312 3.531,2.7362 C 3.531,2.7411 3.535,2.7452 3.54,2.7452"
   class="ps016"
   id="path902"
   style="fill:#fce0c8;fill-rule:nonzero;stroke:none" />

<path
   d="M 3.1787,2.8002 L 3.2011,2.8002 L 3.2011,2.7671 L 3.2014,2.7671 C 3.2046,2.7704 3.2104,2.7728 3.2149,2.7728 C 3.2304,2.7728 3.2387,2.7573 3.2387,2.7372 C 3.2387,2.7213 3.2321,2.7009 3.2133,2.7009 C 3.2046,2.7009 3.1989,2.705 3.1945,2.7116 L 3.1903,2.7017 L 3.1787,2.7017 L 3.1787,2.8002 z M 3.2011,2.7239 C 3.2007,2.7181 3.2041,2.715 3.2084,2.715 C 3.2146,2.715 3.2155,2.7212 3.2155,2.734 L 3.2155,2.7393 C 3.2155,2.7531 3.2155,2.7603 3.2086,2.7603 C 3.2058,2.7603 3.2037,2.7587 3.2023,2.7576 L 3.2011,2.7563"
   class="ps012"
   id="path904"
   style="fill:#f8a96d;fill-rule:nonzero;stroke:none" />

<path
   d="M 3.2259,2.8002 L 3.2483,2.8002 L 3.2483,2.7671 L 3.2485,2.7671 C 3.2517,2.7704 3.2575,2.7728 3.2621,2.7728 C 3.2776,2.7728 3.2859,2.7573 3.2859,2.7372 C 3.2859,2.7213 3.2792,2.7009 3.2604,2.7009 C 3.2517,2.7009 3.246,2.705 3.2416,2.7116 L 3.2375,2.7017 L 3.2259,2.7017 L 3.2259,2.8002 z M 3.2483,2.7239 C 3.2478,2.7181 3.2513,2.715 3.2556,2.715 C 3.2618,2.715 3.2626,2.7212 3.2626,2.734 L 3.2626,2.7393 C 3.2626,2.7531 3.2626,2.7603 3.2557,2.7603 C 3.253,2.7603 3.2509,2.7587 3.2495,2.7576 L 3.2483,2.7563"
   class="ps013"
   id="path906"
   style="fill:#f9b682;fill-rule:nonzero;stroke:none" />

<path
   d="M 3.2737,2.7554 L 3.2645,2.7554 L 3.2645,2.7711 L 3.2737,2.7711 L 3.2737,2.7789 C 3.2737,2.7959 3.2821,2.8021 3.2969,2.8021 C 3.3013,2.8021 3.3046,2.8017 3.3082,2.8013 L 3.3082,2.7841 C 3.307,2.7844 3.3053,2.7847 3.3041,2.7847 C 3.2984,2.7847 3.2961,2.7829 3.2961,2.7787 L 3.2961,2.7711 L 3.3082,2.7711 L 3.3082,2.7554 L 3.2961,2.7554 L 3.2961,2.7017 L 3.2737,2.7017"
   class="ps014"
   id="path908"
   style="fill:#fac498;fill-rule:nonzero;stroke:none" />

<path
   d="M 3.3313,2.7453 C 3.3313,2.748 3.3312,2.7513 3.3302,2.754 C 3.3291,2.7567 3.3273,2.7587 3.3237,2.7587 C 3.3163,2.7587 3.3154,2.7495 3.3154,2.7357 C 3.3154,2.7201 3.3179,2.715 3.3237,2.715 C 3.3316,2.715 3.3323,2.723 3.3323,2.7282 L 3.3497,2.7257 C 3.3481,2.7089 3.3384,2.7 3.3221,2.7 C 3.3019,2.7 3.2914,2.7177 3.2914,2.7349 C 3.2914,2.7538 3.3019,2.7728 3.323,2.7728 C 3.3468,2.7728 3.3504,2.7522 3.3504,2.7453"
   class="ps015"
   id="path910"
   style="fill:#fbd2af;fill-rule:nonzero;stroke:none" />

<path
   d="M 3.3409,2.7452 C 3.3458,2.7452 3.3499,2.7411 3.3499,2.7362 C 3.3499,2.7312 3.3458,2.7271 3.3409,2.7271 C 3.3359,2.7271 3.3319,2.7312 3.3319,2.7362 C 3.3319,2.7411 3.3359,2.7452 3.3409,2.7452"
   class="ps016"
   id="path912"
   style="fill:#fce0c8;fill-rule:nonzero;stroke:none" />

<path
   d="M 3.7761,2.8002 L 3.7985,2.8002 L 3.7985,2.7671 L 3.7988,2.7671 C 3.802,2.7704 3.8078,2.7728 3.8124,2.7728 C 3.8279,2.7728 3.8362,2.7573 3.8362,2.7372 C 3.8362,2.7213 3.8295,2.7009 3.8107,2.7009 C 3.802,2.7009 3.7963,2.705 3.7919,2.7116 L 3.7878,2.7017 L 3.7761,2.7017 L 3.7761,2.8002 z M 3.7985,2.7239 C 3.7981,2.7181 3.8016,2.715 3.8059,2.715 C 3.8121,2.715 3.8129,2.7212 3.8129,2.734 L 3.8129,2.7393 C 3.8129,2.7531 3.8129,2.7603 3.806,2.7603 C 3.8032,2.7603 3.8012,2.7587 3.7998,2.7576 L 3.7985,2.7563"
   class="ps012"
   id="path914"
   style="fill:#f8a96d;fill-rule:nonzero;stroke:none" />

<path
   d="M 3.8233,2.8002 L 3.8457,2.8002 L 3.8457,2.7671 L 3.846,2.7671 C 3.8492,2.7704 3.855,2.7728 3.8595,2.7728 C 3.875,2.7728 3.8833,2.7573 3.8833,2.7372 C 3.8833,2.7213 3.8767,2.7009 3.8579,2.7009 C 3.8492,2.7009 3.8435,2.705 3.8391,2.7116 L 3.8349,2.7017 L 3.8233,2.7017 L 3.8233,2.8002 z M 3.8457,2.7239 C 3.8453,2.7181 3.8488,2.715 3.853,2.715 C 3.8593,2.715 3.8601,2.7212 3.8601,2.734 L 3.8601,2.7393 C 3.8601,2.7531 3.8601,2.7603 3.8532,2.7603 C 3.8504,2.7603 3.8483,2.7587 3.847,2.7576 L 3.8457,2.7563"
   class="ps013"
   id="path916"
   style="fill:#f9b682;fill-rule:nonzero;stroke:none" />

<path
   d="M 3.8711,2.7554 L 3.862,2.7554 L 3.862,2.7711 L 3.8711,2.7711 L 3.8711,2.7789 C 3.8711,2.7959 3.8795,2.8021 3.8943,2.8021 C 3.8988,2.8021 3.9021,2.8017 3.9057,2.8013 L 3.9057,2.7841 C 3.9044,2.7844 3.9028,2.7847 3.9015,2.7847 C 3.8959,2.7847 3.8935,2.7829 3.8935,2.7787 L 3.8935,2.7711 L 3.9057,2.7711 L 3.9057,2.7554 L 3.8935,2.7554 L 3.8935,2.7017 L 3.8711,2.7017"
   class="ps014"
   id="path918"
   style="fill:#fac498;fill-rule:nonzero;stroke:none" />

<path
   d="M 3.9288,2.7453 C 3.9288,2.748 3.9286,2.7513 3.9277,2.754 C 3.9266,2.7567 3.9248,2.7587 3.9212,2.7587 C 3.9137,2.7587 3.9129,2.7495 3.9129,2.7357 C 3.9129,2.7201 3.9154,2.715 3.9212,2.715 C 3.9291,2.715 3.9297,2.723 3.9297,2.7282 L 3.9472,2.7257 C 3.9455,2.7089 3.9358,2.7 3.9195,2.7 C 3.8993,2.7 3.8888,2.7177 3.8888,2.7349 C 3.8888,2.7538 3.8993,2.7728 3.9205,2.7728 C 3.9443,2.7728 3.9479,2.7522 3.9479,2.7453"
   class="ps015"
   id="path920"
   style="fill:#fbd2af;fill-rule:nonzero;stroke:none" />

<path
   d="M 3.9383,2.7452 C 3.9433,2.7452 3.9473,2.7411 3.9473,2.7362 C 3.9473,2.7312 3.9433,2.7271 3.9383,2.7271 C 3.9333,2.7271 3.9293,2.7312 3.9293,2.7362 C 3.9293,2.7411 3.9333,2.7452 3.9383,2.7452"
   class="ps016"
   id="path922"
   style="fill:#fce0c8;fill-rule:nonzero;stroke:none" />

<path
   d="M 3.9765,2.8002 L 3.9989,2.8002 L 3.9989,2.7671 L 3.9992,2.7671 C 4.0024,2.7704 4.0082,2.7728 4.0127,2.7728 C 4.0282,2.7728 4.0365,2.7573 4.0365,2.7372 C 4.0365,2.7213 4.0299,2.7009 4.0111,2.7009 C 4.0024,2.7009 3.9967,2.705 3.9923,2.7116 L 3.9881,2.7017 L 3.9765,2.7017 L 3.9765,2.8002 z M 3.9989,2.7239 C 3.9985,2.7181 4.002,2.715 4.0062,2.715 C 4.0125,2.715 4.0133,2.7212 4.0133,2.734 L 4.0133,2.7393 C 4.0133,2.7531 4.0133,2.7603 4.0064,2.7603 C 4.0036,2.7603 4.0015,2.7587 4.0002,2.7576 L 3.9989,2.7563"
   class="ps012"
   id="path924"
   style="fill:#f8a96d;fill-rule:nonzero;stroke:none" />

<path
   d="M 4.0237,2.8002 L 4.0461,2.8002 L 4.0461,2.7671 L 4.0464,2.7671 C 4.0496,2.7704 4.0554,2.7728 4.0599,2.7728 C 4.0754,2.7728 4.0837,2.7573 4.0837,2.7372 C 4.0837,2.7213 4.0771,2.7009 4.0583,2.7009 C 4.0496,2.7009 4.0439,2.705 4.0395,2.7116 L 4.0353,2.7017 L 4.0237,2.7017 L 4.0237,2.8002 z M 4.0461,2.7239 C 4.0457,2.7181 4.0491,2.715 4.0534,2.715 C 4.0596,2.715 4.0605,2.7212 4.0605,2.734 L 4.0605,2.7393 C 4.0605,2.7531 4.0605,2.7603 4.0536,2.7603 C 4.0508,2.7603 4.0487,2.7587 4.0473,2.7576 L 4.0461,2.7563"
   class="ps013"
   id="path926"
   style="fill:#f9b682;fill-rule:nonzero;stroke:none" />

<path
   d="M 4.0715,2.7554 L 4.0624,2.7554 L 4.0624,2.7711 L 4.0715,2.7711 L 4.0715,2.7789 C 4.0715,2.7959 4.0799,2.8021 4.0947,2.8021 C 4.0991,2.8021 4.1025,2.8017 4.1061,2.8013 L 4.1061,2.7841 C 4.1048,2.7844 4.1032,2.7847 4.1019,2.7847 C 4.0962,2.7847 4.0939,2.7829 4.0939,2.7787 L 4.0939,2.7711 L 4.1061,2.7711 L 4.1061,2.7554 L 4.0939,2.7554 L 4.0939,2.7017 L 4.0715,2.7017"
   class="ps014"
   id="path928"
   style="fill:#fac498;fill-rule:nonzero;stroke:none" />

<path
   d="M 4.1292,2.7453 C 4.1292,2.748 4.129,2.7513 4.1281,2.754 C 4.127,2.7567 4.1252,2.7587 4.1216,2.7587 C 4.1141,2.7587 4.1133,2.7495 4.1133,2.7357 C 4.1133,2.7201 4.1158,2.715 4.1216,2.715 C 4.1294,2.715 4.1301,2.723 4.1301,2.7282 L 4.1476,2.7257 C 4.1459,2.7089 4.1362,2.7 4.1199,2.7 C 4.0997,2.7 4.0892,2.7177 4.0892,2.7349 C 4.0892,2.7538 4.0997,2.7728 4.1209,2.7728 C 4.1447,2.7728 4.1483,2.7522 4.1483,2.7453"
   class="ps015"
   id="path930"
   style="fill:#fbd2af;fill-rule:nonzero;stroke:none" />

<path
   d="M 3.577,2.9136 L 3.5994,2.9136 L 3.5994,2.8806 L 3.5997,2.8806 C 3.6028,2.8839 3.6086,2.8862 3.6132,2.8862 C 3.6287,2.8862 3.637,2.8708 3.637,2.8507 C 3.637,2.8348 3.6304,2.8143 3.6115,2.8143 C 3.6028,2.8143 3.5972,2.8185 3.5927,2.8251 L 3.5886,2.8152 L 3.577,2.8152 L 3.577,2.9136 z M 3.5994,2.8374 C 3.599,2.8316 3.6024,2.8284 3.6067,2.8284 C 3.6129,2.8284 3.6138,2.8347 3.6138,2.8475 L 3.6138,2.8528 C 3.6138,2.8666 3.6138,2.8738 3.6068,2.8738 C 3.6041,2.8738 3.602,2.8721 3.6006,2.871 L 3.5994,2.8698"
   class="ps012"
   id="path932"
   style="fill:#f8a96d;fill-rule:nonzero;stroke:none" />

<path
   d="M 3.6242,2.9136 L 3.6466,2.9136 L 3.6466,2.8806 L 3.6468,2.8806 C 3.65,2.8839 3.6558,2.8862 3.6604,2.8862 C 3.6759,2.8862 3.6842,2.8708 3.6842,2.8507 C 3.6842,2.8348 3.6775,2.8143 3.6587,2.8143 C 3.65,2.8143 3.6443,2.8185 3.6399,2.8251 L 3.6358,2.8152 L 3.6242,2.8152 L 3.6242,2.9136 z M 3.6466,2.8374 C 3.6461,2.8316 3.6496,2.8284 3.6539,2.8284 C 3.6601,2.8284 3.6609,2.8347 3.6609,2.8475 L 3.6609,2.8528 C 3.6609,2.8666 3.6609,2.8738 3.654,2.8738 C 3.6513,2.8738 3.6492,2.8721 3.6478,2.871 L 3.6466,2.8698"
   class="ps013"
   id="path934"
   style="fill:#f9b682;fill-rule:nonzero;stroke:none" />

<path
   d="M 3.6719,2.8688 L 3.6628,2.8688 L 3.6628,2.8846 L 3.6719,2.8846 L 3.6719,2.8923 C 3.6719,2.9093 3.6804,2.9156 3.6952,2.9156 C 3.6996,2.9156 3.7029,2.9151 3.7065,2.9147 L 3.7065,2.8976 C 3.7053,2.8979 3.7036,2.8981 3.7024,2.8981 C 3.6967,2.8981 3.6944,2.8963 3.6944,2.8922 L 3.6944,2.8846 L 3.7065,2.8846 L 3.7065,2.8688 L 3.6944,2.8688 L 3.6944,2.8152 L 3.6719,2.8152"
   class="ps014"
   id="path936"
   style="fill:#fac498;fill-rule:nonzero;stroke:none" />

<path
   d="M 3.7296,2.8587 C 3.7296,2.8615 3.7295,2.8648 3.7285,2.8674 C 3.7274,2.8702 3.7256,2.8721 3.722,2.8721 C 3.7145,2.8721 3.7137,2.863 3.7137,2.8492 C 3.7137,2.8336 3.7162,2.8284 3.722,2.8284 C 3.7299,2.8284 3.7306,2.8365 3.7306,2.8417 L 3.748,2.8392 C 3.7464,2.8224 3.7367,2.8135 3.7204,2.8135 C 3.7002,2.8135 3.6897,2.8312 3.6897,2.8483 C 3.6897,2.8673 3.7002,2.8862 3.7213,2.8862 C 3.7451,2.8862 3.7487,2.8656 3.7487,2.8587"
   class="ps015"
   id="path938"
   style="fill:#fbd2af;fill-rule:nonzero;stroke:none" />

<path
   d="M 3.7392,2.8587 C 3.7441,2.8587 3.7482,2.8546 3.7482,2.8496 C 3.7482,2.8447 3.7441,2.8406 3.7392,2.8406 C 3.7342,2.8406 3.7301,2.8447 3.7301,2.8496 C 3.7301,2.8546 3.7342,2.8587 3.7392,2.8587"
   class="ps016"
   id="path940"
   style="fill:#fce0c8;fill-rule:nonzero;stroke:none" />

<path
   d="M 3.3778,2.9136 L 3.4002,2.9136 L 3.4002,2.8806 L 3.4005,2.8806 C 3.4037,2.8839 3.4095,2.8862 3.4141,2.8862 C 3.4296,2.8862 3.4379,2.8708 3.4379,2.8507 C 3.4379,2.8348 3.4312,2.8143 3.4124,2.8143 C 3.4037,2.8143 3.398,2.8185 3.3936,2.8251 L 3.3895,2.8152 L 3.3778,2.8152 L 3.3778,2.9136 z M 3.4002,2.8374 C 3.3998,2.8316 3.4033,2.8284 3.4076,2.8284 C 3.4138,2.8284 3.4146,2.8347 3.4146,2.8475 L 3.4146,2.8528 C 3.4146,2.8666 3.4146,2.8738 3.4077,2.8738 C 3.4049,2.8738 3.4029,2.8721 3.4015,2.871 L 3.4002,2.8698"
   class="ps012"
   id="path942"
   style="fill:#f8a96d;fill-rule:nonzero;stroke:none" />

<path
   d="M 3.425,2.9136 L 3.4474,2.9136 L 3.4474,2.8806 L 3.4477,2.8806 C 3.4508,2.8839 3.4567,2.8862 3.4612,2.8862 C 3.4767,2.8862 3.485,2.8708 3.485,2.8507 C 3.485,2.8348 3.4784,2.8143 3.4596,2.8143 C 3.4508,2.8143 3.4452,2.8185 3.4408,2.8251 L 3.4366,2.8152 L 3.425,2.8152 L 3.425,2.9136 z M 3.4474,2.8374 C 3.447,2.8316 3.4504,2.8284 3.4547,2.8284 C 3.4609,2.8284 3.4618,2.8347 3.4618,2.8475 L 3.4618,2.8528 C 3.4618,2.8666 3.4618,2.8738 3.4549,2.8738 C 3.4521,2.8738 3.45,2.8721 3.4486,2.871 L 3.4474,2.8698"
   class="ps013"
   id="path944"
   style="fill:#f9b682;fill-rule:nonzero;stroke:none" />

<path
   d="M 3.4728,2.8688 L 3.4637,2.8688 L 3.4637,2.8846 L 3.4728,2.8846 L 3.4728,2.8923 C 3.4728,2.9093 3.4812,2.9156 3.496,2.9156 C 3.5005,2.9156 3.5038,2.9151 3.5074,2.9147 L 3.5074,2.8976 C 3.5061,2.8979 3.5045,2.8981 3.5032,2.8981 C 3.4976,2.8981 3.4952,2.8963 3.4952,2.8922 L 3.4952,2.8846 L 3.5074,2.8846 L 3.5074,2.8688 L 3.4952,2.8688 L 3.4952,2.8152 L 3.4728,2.8152"
   class="ps014"
   id="path946"
   style="fill:#fac498;fill-rule:nonzero;stroke:none" />

<path
   d="M 3.5305,2.8587 C 3.5305,2.8615 3.5303,2.8648 3.5294,2.8674 C 3.5283,2.8702 3.5265,2.8721 3.5229,2.8721 C 3.5154,2.8721 3.5146,2.863 3.5146,2.8492 C 3.5146,2.8336 3.5171,2.8284 3.5229,2.8284 C 3.5307,2.8284 3.5314,2.8365 3.5314,2.8417 L 3.5489,2.8392 C 3.5472,2.8224 3.5375,2.8135 3.5212,2.8135 C 3.501,2.8135 3.4905,2.8312 3.4905,2.8483 C 3.4905,2.8673 3.501,2.8862 3.5222,2.8862 C 3.546,2.8862 3.5496,2.8656 3.5496,2.8587"
   class="ps015"
   id="path948"
   style="fill:#fbd2af;fill-rule:nonzero;stroke:none" />

<path
   d="M 3.54,2.8587 C 3.545,2.8587 3.549,2.8546 3.549,2.8496 C 3.549,2.8447 3.545,2.8406 3.54,2.8406 C 3.535,2.8406 3.531,2.8447 3.531,2.8496 C 3.531,2.8546 3.535,2.8587 3.54,2.8587"
   class="ps016"
   id="path950"
   style="fill:#fce0c8;fill-rule:nonzero;stroke:none" />

<path
   d="M 3.1787,2.9136 L 3.2011,2.9136 L 3.2011,2.8806 L 3.2014,2.8806 C 3.2046,2.8839 3.2104,2.8862 3.2149,2.8862 C 3.2304,2.8862 3.2387,2.8708 3.2387,2.8507 C 3.2387,2.8348 3.2321,2.8143 3.2133,2.8143 C 3.2046,2.8143 3.1989,2.8185 3.1945,2.8251 L 3.1903,2.8152 L 3.1787,2.8152 L 3.1787,2.9136 z M 3.2011,2.8374 C 3.2007,2.8316 3.2041,2.8284 3.2084,2.8284 C 3.2146,2.8284 3.2155,2.8347 3.2155,2.8475 L 3.2155,2.8528 C 3.2155,2.8666 3.2155,2.8738 3.2086,2.8738 C 3.2058,2.8738 3.2037,2.8721 3.2023,2.871 L 3.2011,2.8698"
   class="ps012"
   id="path952"
   style="fill:#f8a96d;fill-rule:nonzero;stroke:none" />

<path
   d="M 3.2259,2.9136 L 3.2483,2.9136 L 3.2483,2.8806 L 3.2485,2.8806 C 3.2517,2.8839 3.2575,2.8862 3.2621,2.8862 C 3.2776,2.8862 3.2859,2.8708 3.2859,2.8507 C 3.2859,2.8348 3.2792,2.8143 3.2604,2.8143 C 3.2517,2.8143 3.246,2.8185 3.2416,2.8251 L 3.2375,2.8152 L 3.2259,2.8152 L 3.2259,2.9136 z M 3.2483,2.8374 C 3.2478,2.8316 3.2513,2.8284 3.2556,2.8284 C 3.2618,2.8284 3.2626,2.8347 3.2626,2.8475 L 3.2626,2.8528 C 3.2626,2.8666 3.2626,2.8738 3.2557,2.8738 C 3.253,2.8738 3.2509,2.8721 3.2495,2.871 L 3.2483,2.8698"
   class="ps013"
   id="path954"
   style="fill:#f9b682;fill-rule:nonzero;stroke:none" />

<path
   d="M 3.2737,2.8688 L 3.2645,2.8688 L 3.2645,2.8846 L 3.2737,2.8846 L 3.2737,2.8923 C 3.2737,2.9093 3.2821,2.9156 3.2969,2.9156 C 3.3013,2.9156 3.3046,2.9151 3.3082,2.9147 L 3.3082,2.8976 C 3.307,2.8979 3.3053,2.8981 3.3041,2.8981 C 3.2984,2.8981 3.2961,2.8963 3.2961,2.8922 L 3.2961,2.8846 L 3.3082,2.8846 L 3.3082,2.8688 L 3.2961,2.8688 L 3.2961,2.8152 L 3.2737,2.8152"
   class="ps014"
   id="path956"
   style="fill:#fac498;fill-rule:nonzero;stroke:none" />

<path
   d="M 3.3313,2.8587 C 3.3313,2.8615 3.3312,2.8648 3.3302,2.8674 C 3.3291,2.8702 3.3273,2.8721 3.3237,2.8721 C 3.3163,2.8721 3.3154,2.863 3.3154,2.8492 C 3.3154,2.8336 3.3179,2.8284 3.3237,2.8284 C 3.3316,2.8284 3.3323,2.8365 3.3323,2.8417 L 3.3497,2.8392 C 3.3481,2.8224 3.3384,2.8135 3.3221,2.8135 C 3.3019,2.8135 3.2914,2.8312 3.2914,2.8483 C 3.2914,2.8673 3.3019,2.8862 3.323,2.8862 C 3.3468,2.8862 3.3504,2.8656 3.3504,2.8587"
   class="ps015"
   id="path958"
   style="fill:#fbd2af;fill-rule:nonzero;stroke:none" />

<path
   d="M 3.3409,2.8587 C 3.3458,2.8587 3.3499,2.8546 3.3499,2.8496 C 3.3499,2.8447 3.3458,2.8406 3.3409,2.8406 C 3.3359,2.8406 3.3319,2.8447 3.3319,2.8496 C 3.3319,2.8546 3.3359,2.8587 3.3409,2.8587"
   class="ps016"
   id="path960"
   style="fill:#fce0c8;fill-rule:nonzero;stroke:none" />

<path
   d="M 3.7761,2.9136 L 3.7985,2.9136 L 3.7985,2.8806 L 3.7988,2.8806 C 3.802,2.8839 3.8078,2.8862 3.8124,2.8862 C 3.8279,2.8862 3.8362,2.8708 3.8362,2.8507 C 3.8362,2.8348 3.8295,2.8143 3.8107,2.8143 C 3.802,2.8143 3.7963,2.8185 3.7919,2.8251 L 3.7878,2.8152 L 3.7761,2.8152 L 3.7761,2.9136 z M 3.7985,2.8374 C 3.7981,2.8316 3.8016,2.8284 3.8059,2.8284 C 3.8121,2.8284 3.8129,2.8347 3.8129,2.8475 L 3.8129,2.8528 C 3.8129,2.8666 3.8129,2.8738 3.806,2.8738 C 3.8032,2.8738 3.8012,2.8721 3.7998,2.871 L 3.7985,2.8698"
   class="ps012"
   id="path962"
   style="fill:#f8a96d;fill-rule:nonzero;stroke:none" />

<path
   d="M 3.8233,2.9136 L 3.8457,2.9136 L 3.8457,2.8806 L 3.846,2.8806 C 3.8492,2.8839 3.855,2.8862 3.8595,2.8862 C 3.875,2.8862 3.8833,2.8708 3.8833,2.8507 C 3.8833,2.8348 3.8767,2.8143 3.8579,2.8143 C 3.8492,2.8143 3.8435,2.8185 3.8391,2.8251 L 3.8349,2.8152 L 3.8233,2.8152 L 3.8233,2.9136 z M 3.8457,2.8374 C 3.8453,2.8316 3.8488,2.8284 3.853,2.8284 C 3.8593,2.8284 3.8601,2.8347 3.8601,2.8475 L 3.8601,2.8528 C 3.8601,2.8666 3.8601,2.8738 3.8532,2.8738 C 3.8504,2.8738 3.8483,2.8721 3.847,2.871 L 3.8457,2.8698"
   class="ps013"
   id="path964"
   style="fill:#f9b682;fill-rule:nonzero;stroke:none" />

<path
   d="M 3.8711,2.8688 L 3.862,2.8688 L 3.862,2.8846 L 3.8711,2.8846 L 3.8711,2.8923 C 3.8711,2.9093 3.8795,2.9156 3.8943,2.9156 C 3.8988,2.9156 3.9021,2.9151 3.9057,2.9147 L 3.9057,2.8976 C 3.9044,2.8979 3.9028,2.8981 3.9015,2.8981 C 3.8959,2.8981 3.8935,2.8963 3.8935,2.8922 L 3.8935,2.8846 L 3.9057,2.8846 L 3.9057,2.8688 L 3.8935,2.8688 L 3.8935,2.8152 L 3.8711,2.8152"
   class="ps014"
   id="path966"
   style="fill:#fac498;fill-rule:nonzero;stroke:none" />

<path
   d="M 3.9288,2.8587 C 3.9288,2.8615 3.9286,2.8648 3.9277,2.8674 C 3.9266,2.8702 3.9248,2.8721 3.9212,2.8721 C 3.9137,2.8721 3.9129,2.863 3.9129,2.8492 C 3.9129,2.8336 3.9154,2.8284 3.9212,2.8284 C 3.9291,2.8284 3.9297,2.8365 3.9297,2.8417 L 3.9472,2.8392 C 3.9455,2.8224 3.9358,2.8135 3.9195,2.8135 C 3.8993,2.8135 3.8888,2.8312 3.8888,2.8483 C 3.8888,2.8673 3.8993,2.8862 3.9205,2.8862 C 3.9443,2.8862 3.9479,2.8656 3.9479,2.8587"
   class="ps015"
   id="path968"
   style="fill:#fbd2af;fill-rule:nonzero;stroke:none" />

<path
   d="M 3.9383,2.8587 C 3.9433,2.8587 3.9473,2.8546 3.9473,2.8496 C 3.9473,2.8447 3.9433,2.8406 3.9383,2.8406 C 3.9333,2.8406 3.9293,2.8447 3.9293,2.8496 C 3.9293,2.8546 3.9333,2.8587 3.9383,2.8587"
   class="ps016"
   id="path970"
   style="fill:#fce0c8;fill-rule:nonzero;stroke:none" />

<path
   d="M 3.9765,2.9136 L 3.9989,2.9136 L 3.9989,2.8806 L 3.9992,2.8806 C 4.0024,2.8839 4.0082,2.8862 4.0127,2.8862 C 4.0282,2.8862 4.0365,2.8708 4.0365,2.8507 C 4.0365,2.8348 4.0299,2.8143 4.0111,2.8143 C 4.0024,2.8143 3.9967,2.8185 3.9923,2.8251 L 3.9881,2.8152 L 3.9765,2.8152 L 3.9765,2.9136 z M 3.9989,2.8374 C 3.9985,2.8316 4.002,2.8284 4.0062,2.8284 C 4.0125,2.8284 4.0133,2.8347 4.0133,2.8475 L 4.0133,2.8528 C 4.0133,2.8666 4.0133,2.8738 4.0064,2.8738 C 4.0036,2.8738 4.0015,2.8721 4.0002,2.871 L 3.9989,2.8698"
   class="ps012"
   id="path972"
   style="fill:#f8a96d;fill-rule:nonzero;stroke:none" />

<path
   d="M 4.0237,2.9136 L 4.0461,2.9136 L 4.0461,2.8806 L 4.0464,2.8806 C 4.0496,2.8839 4.0554,2.8862 4.0599,2.8862 C 4.0754,2.8862 4.0837,2.8708 4.0837,2.8507 C 4.0837,2.8348 4.0771,2.8143 4.0583,2.8143 C 4.0496,2.8143 4.0439,2.8185 4.0395,2.8251 L 4.0353,2.8152 L 4.0237,2.8152 L 4.0237,2.9136 z M 4.0461,2.8374 C 4.0457,2.8316 4.0491,2.8284 4.0534,2.8284 C 4.0596,2.8284 4.0605,2.8347 4.0605,2.8475 L 4.0605,2.8528 C 4.0605,2.8666 4.0605,2.8738 4.0536,2.8738 C 4.0508,2.8738 4.0487,2.8721 4.0473,2.871 L 4.0461,2.8698"
   class="ps013"
   id="path974"
   style="fill:#f9b682;fill-rule:nonzero;stroke:none" />

<path
   d="M 4.0715,2.8688 L 4.0624,2.8688 L 4.0624,2.8846 L 4.0715,2.8846 L 4.0715,2.8923 C 4.0715,2.9093 4.0799,2.9156 4.0947,2.9156 C 4.0991,2.9156 4.1025,2.9151 4.1061,2.9147 L 4.1061,2.8976 C 4.1048,2.8979 4.1032,2.8981 4.1019,2.8981 C 4.0962,2.8981 4.0939,2.8963 4.0939,2.8922 L 4.0939,2.8846 L 4.1061,2.8846 L 4.1061,2.8688 L 4.0939,2.8688 L 4.0939,2.8152 L 4.0715,2.8152"
   class="ps014"
   id="path976"
   style="fill:#fac498;fill-rule:nonzero;stroke:none" />

<path
   d="M 4.1292,2.8587 C 4.1292,2.8615 4.129,2.8648 4.1281,2.8674 C 4.127,2.8702 4.1252,2.8721 4.1216,2.8721 C 4.1141,2.8721 4.1133,2.863 4.1133,2.8492 C 4.1133,2.8336 4.1158,2.8284 4.1216,2.8284 C 4.1294,2.8284 4.1301,2.8365 4.1301,2.8417 L 4.1476,2.8392 C 4.1459,2.8224 4.1362,2.8135 4.1199,2.8135 C 4.0997,2.8135 4.0892,2.8312 4.0892,2.8483 C 4.0892,2.8673 4.0997,2.8862 4.1209,2.8862 C 4.1447,2.8862 4.1483,2.8656 4.1483,2.8587"
   class="ps015"
   id="path978"
   style="fill:#fbd2af;fill-rule:nonzero;stroke:none" />

<path
   d="M 3.577,3.0271 L 3.5994,3.0271 L 3.5994,2.994 L 3.5997,2.994 C 3.6028,2.9974 3.6086,2.9997 3.6132,2.9997 C 3.6287,2.9997 3.637,2.9842 3.637,2.9642 C 3.637,2.9483 3.6304,2.9278 3.6115,2.9278 C 3.6028,2.9278 3.5972,2.9319 3.5927,2.9386 L 3.5886,2.9286 L 3.577,2.9286 L 3.577,3.0271 z M 3.5994,2.9509 C 3.599,2.9451 3.6024,2.9419 3.6067,2.9419 C 3.6129,2.9419 3.6138,2.9481 3.6138,2.961 L 3.6138,2.9662 C 3.6138,2.9801 3.6138,2.9873 3.6068,2.9873 C 3.6041,2.9873 3.602,2.9856 3.6006,2.9845 L 3.5994,2.9832"
   class="ps012"
   id="path980"
   style="fill:#f8a96d;fill-rule:nonzero;stroke:none" />

<path
   d="M 3.6242,3.0271 L 3.6466,3.0271 L 3.6466,2.994 L 3.6468,2.994 C 3.65,2.9974 3.6558,2.9997 3.6604,2.9997 C 3.6759,2.9997 3.6842,2.9842 3.6842,2.9642 C 3.6842,2.9483 3.6775,2.9278 3.6587,2.9278 C 3.65,2.9278 3.6443,2.9319 3.6399,2.9386 L 3.6358,2.9286 L 3.6242,2.9286 L 3.6242,3.0271 z M 3.6466,2.9509 C 3.6461,2.9451 3.6496,2.9419 3.6539,2.9419 C 3.6601,2.9419 3.6609,2.9481 3.6609,2.961 L 3.6609,2.9662 C 3.6609,2.9801 3.6609,2.9873 3.654,2.9873 C 3.6513,2.9873 3.6492,2.9856 3.6478,2.9845 L 3.6466,2.9832"
   class="ps013"
   id="path982"
   style="fill:#f9b682;fill-rule:nonzero;stroke:none" />

<path
   d="M 3.6719,2.9823 L 3.6628,2.9823 L 3.6628,2.998 L 3.6719,2.998 L 3.6719,3.0058 C 3.6719,3.0228 3.6804,3.029 3.6952,3.029 C 3.6996,3.029 3.7029,3.0286 3.7065,3.0282 L 3.7065,3.011 C 3.7053,3.0113 3.7036,3.0116 3.7024,3.0116 C 3.6967,3.0116 3.6944,3.0098 3.6944,3.0057 L 3.6944,2.998 L 3.7065,2.998 L 3.7065,2.9823 L 3.6944,2.9823 L 3.6944,2.9286 L 3.6719,2.9286"
   class="ps014"
   id="path984"
   style="fill:#fac498;fill-rule:nonzero;stroke:none" />

<path
   d="M 3.7296,2.9722 C 3.7296,2.9749 3.7295,2.9783 3.7285,2.9809 C 3.7274,2.9837 3.7256,2.9856 3.722,2.9856 C 3.7145,2.9856 3.7137,2.9765 3.7137,2.9626 C 3.7137,2.947 3.7162,2.9419 3.722,2.9419 C 3.7299,2.9419 3.7306,2.9499 3.7306,2.9552 L 3.748,2.9527 C 3.7464,2.9358 3.7367,2.927 3.7204,2.927 C 3.7002,2.927 3.6897,2.9447 3.6897,2.9618 C 3.6897,2.9808 3.7002,2.9997 3.7213,2.9997 C 3.7451,2.9997 3.7487,2.9791 3.7487,2.9722"
   class="ps015"
   id="path986"
   style="fill:#fbd2af;fill-rule:nonzero;stroke:none" />

<path
   d="M 3.7392,2.9721 C 3.7441,2.9721 3.7482,2.9681 3.7482,2.9631 C 3.7482,2.9581 3.7441,2.9541 3.7392,2.9541 C 3.7342,2.9541 3.7301,2.9581 3.7301,2.9631 C 3.7301,2.9681 3.7342,2.9721 3.7392,2.9721"
   class="ps016"
   id="path988"
   style="fill:#fce0c8;fill-rule:nonzero;stroke:none" />

<path
   d="M 3.3778,3.0271 L 3.4002,3.0271 L 3.4002,2.994 L 3.4005,2.994 C 3.4037,2.9974 3.4095,2.9997 3.4141,2.9997 C 3.4296,2.9997 3.4379,2.9842 3.4379,2.9642 C 3.4379,2.9483 3.4312,2.9278 3.4124,2.9278 C 3.4037,2.9278 3.398,2.9319 3.3936,2.9386 L 3.3895,2.9286 L 3.3778,2.9286 L 3.3778,3.0271 z M 3.4002,2.9509 C 3.3998,2.9451 3.4033,2.9419 3.4076,2.9419 C 3.4138,2.9419 3.4146,2.9481 3.4146,2.961 L 3.4146,2.9662 C 3.4146,2.9801 3.4146,2.9873 3.4077,2.9873 C 3.4049,2.9873 3.4029,2.9856 3.4015,2.9845 L 3.4002,2.9832"
   class="ps012"
   id="path990"
   style="fill:#f8a96d;fill-rule:nonzero;stroke:none" />

<path
   d="M 3.425,3.0271 L 3.4474,3.0271 L 3.4474,2.994 L 3.4477,2.994 C 3.4508,2.9974 3.4567,2.9997 3.4612,2.9997 C 3.4767,2.9997 3.485,2.9842 3.485,2.9642 C 3.485,2.9483 3.4784,2.9278 3.4596,2.9278 C 3.4508,2.9278 3.4452,2.9319 3.4408,2.9386 L 3.4366,2.9286 L 3.425,2.9286 L 3.425,3.0271 z M 3.4474,2.9509 C 3.447,2.9451 3.4504,2.9419 3.4547,2.9419 C 3.4609,2.9419 3.4618,2.9481 3.4618,2.961 L 3.4618,2.9662 C 3.4618,2.9801 3.4618,2.9873 3.4549,2.9873 C 3.4521,2.9873 3.45,2.9856 3.4486,2.9845 L 3.4474,2.9832"
   class="ps013"
   id="path992"
   style="fill:#f9b682;fill-rule:nonzero;stroke:none" />

<path
   d="M 3.4728,2.9823 L 3.4637,2.9823 L 3.4637,2.998 L 3.4728,2.998 L 3.4728,3.0058 C 3.4728,3.0228 3.4812,3.029 3.496,3.029 C 3.5005,3.029 3.5038,3.0286 3.5074,3.0282 L 3.5074,3.011 C 3.5061,3.0113 3.5045,3.0116 3.5032,3.0116 C 3.4976,3.0116 3.4952,3.0098 3.4952,3.0057 L 3.4952,2.998 L 3.5074,2.998 L 3.5074,2.9823 L 3.4952,2.9823 L 3.4952,2.9286 L 3.4728,2.9286"
   class="ps014"
   id="path994"
   style="fill:#fac498;fill-rule:nonzero;stroke:none" />

<path
   d="M 3.5305,2.9722 C 3.5305,2.9749 3.5303,2.9783 3.5294,2.9809 C 3.5283,2.9837 3.5265,2.9856 3.5229,2.9856 C 3.5154,2.9856 3.5146,2.9765 3.5146,2.9626 C 3.5146,2.947 3.5171,2.9419 3.5229,2.9419 C 3.5307,2.9419 3.5314,2.9499 3.5314,2.9552 L 3.5489,2.9527 C 3.5472,2.9358 3.5375,2.927 3.5212,2.927 C 3.501,2.927 3.4905,2.9447 3.4905,2.9618 C 3.4905,2.9808 3.501,2.9997 3.5222,2.9997 C 3.546,2.9997 3.5496,2.9791 3.5496,2.9722"
   class="ps015"
   id="path996"
   style="fill:#fbd2af;fill-rule:nonzero;stroke:none" />

<path
   d="M 3.54,2.9721 C 3.545,2.9721 3.549,2.9681 3.549,2.9631 C 3.549,2.9581 3.545,2.9541 3.54,2.9541 C 3.535,2.9541 3.531,2.9581 3.531,2.9631 C 3.531,2.9681 3.535,2.9721 3.54,2.9721"
   class="ps016"
   id="path998"
   style="fill:#fce0c8;fill-rule:nonzero;stroke:none" />

<path
   d="M 3.7761,3.0271 L 3.7985,3.0271 L 3.7985,2.994 L 3.7988,2.994 C 3.802,2.9974 3.8078,2.9997 3.8124,2.9997 C 3.8279,2.9997 3.8362,2.9842 3.8362,2.9642 C 3.8362,2.9483 3.8295,2.9278 3.8107,2.9278 C 3.802,2.9278 3.7963,2.9319 3.7919,2.9386 L 3.7878,2.9286 L 3.7761,2.9286 L 3.7761,3.0271 z M 3.7985,2.9509 C 3.7981,2.9451 3.8016,2.9419 3.8059,2.9419 C 3.8121,2.9419 3.8129,2.9481 3.8129,2.961 L 3.8129,2.9662 C 3.8129,2.9801 3.8129,2.9873 3.806,2.9873 C 3.8032,2.9873 3.8012,2.9856 3.7998,2.9845 L 3.7985,2.9832"
   class="ps012"
   id="path1000"
   style="fill:#f8a96d;fill-rule:nonzero;stroke:none" />

<path
   d="M 3.8233,3.0271 L 3.8457,3.0271 L 3.8457,2.994 L 3.846,2.994 C 3.8492,2.9974 3.855,2.9997 3.8595,2.9997 C 3.875,2.9997 3.8833,2.9842 3.8833,2.9642 C 3.8833,2.9483 3.8767,2.9278 3.8579,2.9278 C 3.8492,2.9278 3.8435,2.9319 3.8391,2.9386 L 3.8349,2.9286 L 3.8233,2.9286 L 3.8233,3.0271 z M 3.8457,2.9509 C 3.8453,2.9451 3.8488,2.9419 3.853,2.9419 C 3.8593,2.9419 3.8601,2.9481 3.8601,2.961 L 3.8601,2.9662 C 3.8601,2.9801 3.8601,2.9873 3.8532,2.9873 C 3.8504,2.9873 3.8483,2.9856 3.847,2.9845 L 3.8457,2.9832"
   class="ps013"
   id="path1002"
   style="fill:#f9b682;fill-rule:nonzero;stroke:none" />

<path
   d="M 3.8711,2.9823 L 3.862,2.9823 L 3.862,2.998 L 3.8711,2.998 L 3.8711,3.0058 C 3.8711,3.0228 3.8795,3.029 3.8943,3.029 C 3.8988,3.029 3.9021,3.0286 3.9057,3.0282 L 3.9057,3.011 C 3.9044,3.0113 3.9028,3.0116 3.9015,3.0116 C 3.8959,3.0116 3.8935,3.0098 3.8935,3.0057 L 3.8935,2.998 L 3.9057,2.998 L 3.9057,2.9823 L 3.8935,2.9823 L 3.8935,2.9286 L 3.8711,2.9286"
   class="ps014"
   id="path1004"
   style="fill:#fac498;fill-rule:nonzero;stroke:none" />

<path
   d="M 3.9288,2.9722 C 3.9288,2.9749 3.9286,2.9783 3.9277,2.9809 C 3.9266,2.9837 3.9248,2.9856 3.9212,2.9856 C 3.9137,2.9856 3.9129,2.9765 3.9129,2.9626 C 3.9129,2.947 3.9154,2.9419 3.9212,2.9419 C 3.9291,2.9419 3.9297,2.9499 3.9297,2.9552 L 3.9472,2.9527 C 3.9455,2.9358 3.9358,2.927 3.9195,2.927 C 3.8993,2.927 3.8888,2.9447 3.8888,2.9618 C 3.8888,2.9808 3.8993,2.9997 3.9205,2.9997 C 3.9443,2.9997 3.9479,2.9791 3.9479,2.9722"
   class="ps015"
   id="path1006"
   style="fill:#fbd2af;fill-rule:nonzero;stroke:none" />

<path
   d="M 3.9383,2.9721 C 3.9433,2.9721 3.9473,2.9681 3.9473,2.9631 C 3.9473,2.9581 3.9433,2.9541 3.9383,2.9541 C 3.9333,2.9541 3.9293,2.9581 3.9293,2.9631 C 3.9293,2.9681 3.9333,2.9721 3.9383,2.9721"
   class="ps016"
   id="path1008"
   style="fill:#fce0c8;fill-rule:nonzero;stroke:none" />

</g>

</g>

<g
   id="q14"
   class="ps011 ps10"
   style="fill:#f4782a;fill-rule:nonzero;stroke:none;stroke-width:0.0148;stroke-linecap:butt;stroke-linejoin:miter;stroke-miterlimit:10;stroke-dasharray:none">
<path
   d="M 3.4102,2.4153 L 3.4102,2.6545 L 3.3602,2.6113 L 3.3602,2.6882 L 3.4102,2.7314 L 3.4823,2.7314 L 3.4823,2.4153"
   class="ps010"
   id="path1011"
   style="fill:#231f20;fill-rule:nonzero;stroke:none" />

<path
   d="M 3.8654,2.7231 L 3.807,2.7231 L 3.7189,2.481 L 3.6054,2.481 L 3.6808,2.5609 C 3.7061,2.5876 3.7199,2.6053 3.7199,2.6386 C 3.7199,2.6981 3.6773,2.7341 3.6187,2.7341 C 3.5636,2.7341 3.5166,2.6999 3.5166,2.6377 L 3.5894,2.6377 C 3.5894,2.6622 3.6054,2.6684 3.6187,2.6684 C 3.6373,2.6684 3.6471,2.6564 3.6471,2.6391 C 3.6471,2.6258 3.6427,2.6178 3.6311,2.6053 L 3.5166,2.481 L 3.5166,2.4153 L 3.7741,2.4153 L 3.7893,2.4611 L 3.8839,2.4611 L 3.8982,2.4153 L 3.9773,2.4153 L 3.8654,2.7231 z M 3.8104,2.5242 L 3.8381,2.6064 L 3.864,2.5242"
   class="ps010"
   id="path1013"
   style="fill:#231f20;fill-rule:nonzero;stroke:none" />

<path
   d="M 3.3856,2.4399 L 3.3856,2.6791 L 3.3356,2.6359 L 3.3356,2.7128 L 3.3856,2.756 L 3.4577,2.756 L 3.4577,2.4399"
   class="ps01"
   id="path1015"
   style="fill:#ffffff;fill-rule:nonzero;stroke:none" />

<path
   d="M 3.8407,2.7477 L 3.7823,2.7477 L 3.6943,2.5057 L 3.5807,2.5057 L 3.6562,2.5856 C 3.6815,2.6122 3.6953,2.63 3.6953,2.6633 C 3.6953,2.7228 3.6527,2.7587 3.5941,2.7587 C 3.539,2.7587 3.4919,2.7245 3.4919,2.6624 L 3.5647,2.6624 C 3.5647,2.6868 3.5807,2.693 3.5941,2.693 C 3.6127,2.693 3.6225,2.681 3.6225,2.6637 C 3.6225,2.6504 3.618,2.6424 3.6065,2.63 L 3.4919,2.5057 L 3.4919,2.4399 L 3.7495,2.4399 L 3.7646,2.4858 L 3.8593,2.4858 L 3.8736,2.4399 L 3.9527,2.4399 L 3.8407,2.7477 z M 3.787,2.55 L 3.8149,2.6329 L 3.8411,2.55"
   class="ps01"
   id="path1017"
   style="fill:#ffffff;fill-rule:nonzero;stroke:none" />

</g>

</g>

</g>

</g>

</g>
  </g>
</svg>
