<?xml version="1.0" encoding="UTF-8" standalone="no"?>
<!-- Created with Inkscape (http://www.inkscape.org/) -->
<svg
   xmlns:dc="http://purl.org/dc/elements/1.1/"
   xmlns:cc="http://creativecommons.org/ns#"
   xmlns:rdf="http://www.w3.org/1999/02/22-rdf-syntax-ns#"
   xmlns:svg="http://www.w3.org/2000/svg"
   xmlns="http://www.w3.org/2000/svg"
   xmlns:sodipodi="http://sodipodi.sourceforge.net/DTD/sodipodi-0.dtd"
   xmlns:inkscape="http://www.inkscape.org/namespaces/inkscape"
   width="584"
   height="470.63"
   id="svg8551"
   sodipodi:version="0.32"
   inkscape:version="0.46"
   version="1.0"
   sodipodi:docname="BBFC_PG.svg"
   inkscape:output_extension="org.inkscape.output.svg.inkscape">
  <defs
     id="defs8553">
    <clipPath
       id="clp10"
       clip-rule="nonzero">
<path
   d="M 2.6352,2.2633 L 3.4718,2.2633 L 3.0535,3.0998"
   id="path1422" />

</clipPath>
    <clipPath
       id="clp9"
       clip-rule="nonzero">
<path
   d="M 118.36,342.64 L 165.26,342.64 L 165.26,380.83 L 118.36,380.83 L 118.36,342.64 z"
   id="path1408" />

</clipPath>
    <inkscape:perspective
       sodipodi:type="inkscape:persp3d"
       inkscape:vp_x="0 : 526.18109 : 1"
       inkscape:vp_y="0 : 1000 : 0"
       inkscape:vp_z="744.09448 : 526.18109 : 1"
       inkscape:persp3d-origin="372.04724 : 350.78739 : 1"
       id="perspective8559" />
  </defs>
  <sodipodi:namedview
     id="base"
     pagecolor="#ffffff"
     bordercolor="#666666"
     borderopacity="1.0"
     gridtolerance="10000"
     guidetolerance="10"
     objecttolerance="10"
     inkscape:pageopacity="0.0"
     inkscape:pageshadow="2"
     inkscape:zoom="1"
     inkscape:cx="375"
     inkscape:cy="200"
     inkscape:document-units="px"
     inkscape:current-layer="layer1"
     showgrid="false"
     inkscape:window-width="1680"
     inkscape:window-height="1000"
     inkscape:window-x="-8"
     inkscape:window-y="-8" />
  <metadata
     id="metadata8556">
    <rdf:RDF>
      <cc:Work
         rdf:about="">
        <dc:format>image/svg+xml</dc:format>
        <dc:type
           rdf:resource="http://purl.org/dc/dcmitype/StillImage" />
      </cc:Work>
    </rdf:RDF>
  </metadata>
  <g
     inkscape:label="Layer 1"
     inkscape:groupmode="layer"
     id="layer1"
     transform="translate(8.4204,-197.95649)">
    <g
       id="q20"
       class="ps02 ps20"
       style="font-size:9.5px;letter-spacing:0;word-spacing:0;fill:#231f20;stroke:none;font-family:fnt0"
       transform="matrix(14.033255,0,0,-14.033255,-1718.8899,5499.4612)">
<clipPath
   id="clipPath8172"
   clip-rule="nonzero">
<path
   d="M 118.36,342.64 L 165.26,342.64 L 165.26,380.83 L 118.36,380.83 L 118.36,342.64 z"
   id="path8174" />

</clipPath>

<g
   clip-path="url(#clp9)"
   id="g1410">
<g
   id="q21"
   class="ps00"
   style="fill:none;stroke:none">
<g
   id="xfrm22"
   transform="matrix(41.3142,0,0,33.0516,16.615,271.595)">
<path
   d="M 3.5423,2.2144 L 2.5646,2.2144 L 3.0535,3.1921"
   class="ps01"
   id="path1414"
   style="fill:#ffffff;fill-rule:nonzero;stroke:none" />

<path
   d="M 3.5423,2.2144 L 2.5646,2.2144 L 3.0535,3.1921 L 3.5423,2.2144 z"
   class="ps03 ps11"
   id="path1416"
   style="fill:none;stroke:#231f20;stroke-width:0.0138;stroke-linecap:butt;stroke-linejoin:miter;stroke-miterlimit:10;stroke-dasharray:none" />

<path
   d="M 2.6352,2.2633 L 3.4718,2.2633 L 3.0535,3.0998"
   class="ps017 ps11"
   id="path1418"
   style="fill:#fcd213;fill-rule:nonzero;stroke:none;stroke-width:0.0138;stroke-linecap:butt;stroke-linejoin:miter;stroke-miterlimit:10;stroke-dasharray:none" />

<g
   id="q23"
   class="ps017 ps11"
   style="fill:#fcd213;fill-rule:nonzero;stroke:none;stroke-width:0.0138;stroke-linecap:butt;stroke-linejoin:miter;stroke-miterlimit:10;stroke-dasharray:none">
<clipPath
   id="clipPath8183"
   clip-rule="nonzero">
<path
   d="M 2.6352,2.2633 L 3.4718,2.2633 L 3.0535,3.0998"
   id="path8185" />

</clipPath>

<g
   clip-path="url(#clp10)"
   id="g1424">
<path
   d="M 2.9764,2.3735 L 2.9951,2.3735 L 2.9951,2.339 L 2.9953,2.339 C 2.998,2.3424 3.0029,2.3449 3.0067,2.3449 C 3.0196,2.3449 3.0266,2.3287 3.0266,2.3078 C 3.0266,2.2912 3.021,2.2698 3.0053,2.2698 C 2.998,2.2698 2.9933,2.2741 2.9896,2.2811 L 2.9861,2.2707 L 2.9764,2.2707 L 2.9764,2.3735 z M 2.9951,2.2939 C 2.9948,2.2878 2.9977,2.2845 3.0012,2.2845 C 3.0064,2.2845 3.0071,2.291 3.0071,2.3045 L 3.0071,2.31 C 3.0071,2.3244 3.0071,2.3319 3.0014,2.3319 C 2.9991,2.3319 2.9973,2.3302 2.9962,2.329 L 2.9951,2.3277"
   class="ps018"
   id="path1426"
   style="fill:#fde26c;fill-rule:nonzero;stroke:none" />

<path
   d="M 3.0158,2.3735 L 3.0345,2.3735 L 3.0345,2.339 L 3.0348,2.339 C 3.0374,2.3424 3.0423,2.3449 3.0461,2.3449 C 3.059,2.3449 3.066,2.3287 3.066,2.3078 C 3.066,2.2912 3.0604,2.2698 3.0447,2.2698 C 3.0374,2.2698 3.0327,2.2741 3.029,2.2811 L 3.0255,2.2707 L 3.0158,2.2707 L 3.0158,2.3735 z M 3.0345,2.2939 C 3.0342,2.2878 3.0371,2.2845 3.0407,2.2845 C 3.0459,2.2845 3.0466,2.291 3.0466,2.3045 L 3.0466,2.31 C 3.0466,2.3244 3.0466,2.3319 3.0408,2.3319 C 3.0385,2.3319 3.0367,2.3302 3.0356,2.329 L 3.0345,2.3277"
   class="ps019"
   id="path1428"
   style="fill:#fde783;fill-rule:nonzero;stroke:none" />

<path
   d="M 3.0558,2.3267 L 3.0481,2.3267 L 3.0481,2.3432 L 3.0558,2.3432 L 3.0558,2.3513 C 3.0558,2.369 3.0628,2.3755 3.0752,2.3755 C 3.0789,2.3755 3.0817,2.3751 3.0847,2.3747 L 3.0847,2.3568 C 3.0836,2.357 3.0822,2.3573 3.0812,2.3573 C 3.0764,2.3573 3.0745,2.3555 3.0745,2.3511 L 3.0745,2.3432 L 3.0847,2.3432 L 3.0847,2.3267 L 3.0745,2.3267 L 3.0745,2.2707 L 3.0558,2.2707"
   class="ps020"
   id="path1430"
   style="fill:#fdeb9b;fill-rule:nonzero;stroke:none" />

<path
   d="M 3.104,2.3162 C 3.104,2.319 3.1038,2.3225 3.103,2.3253 C 3.1021,2.3282 3.1006,2.3302 3.0976,2.3302 C 3.0914,2.3302 3.0907,2.3206 3.0907,2.3062 C 3.0907,2.2899 3.0927,2.2845 3.0976,2.2845 C 3.1042,2.2845 3.1048,2.2929 3.1048,2.2984 L 3.1193,2.2958 C 3.1179,2.2782 3.1098,2.2689 3.0962,2.2689 C 3.0793,2.2689 3.0706,2.2874 3.0706,2.3053 C 3.0706,2.3251 3.0793,2.3449 3.097,2.3449 C 3.1169,2.3449 3.1199,2.3234 3.1199,2.3162"
   class="ps021"
   id="path1432"
   style="fill:#fef0b3;fill-rule:nonzero;stroke:none" />

<path
   d="M 3.1119,2.3161 C 3.1161,2.3161 3.1195,2.3119 3.1195,2.3067 C 3.1195,2.3015 3.1161,2.2972 3.1119,2.2972 C 3.1078,2.2972 3.1044,2.3015 3.1044,2.3067 C 3.1044,2.3119 3.1078,2.3161 3.1119,2.3161"
   class="ps022"
   id="path1434"
   style="fill:#fef5cc;fill-rule:nonzero;stroke:none" />

<path
   d="M 2.9764,2.492 L 2.9951,2.492 L 2.9951,2.4575 L 2.9953,2.4575 C 2.998,2.461 3.0029,2.4634 3.0067,2.4634 C 3.0196,2.4634 3.0266,2.4473 3.0266,2.4263 C 3.0266,2.4097 3.021,2.3883 3.0053,2.3883 C 2.998,2.3883 2.9933,2.3927 2.9896,2.3996 L 2.9861,2.3892 L 2.9764,2.3892 L 2.9764,2.492 z M 2.9951,2.4125 C 2.9948,2.4064 2.9977,2.403 3.0012,2.403 C 3.0064,2.403 3.0071,2.4096 3.0071,2.423 L 3.0071,2.4285 C 3.0071,2.4429 3.0071,2.4504 3.0014,2.4504 C 2.9991,2.4504 2.9973,2.4487 2.9962,2.4475 L 2.9951,2.4462"
   class="ps018"
   id="path1436"
   style="fill:#fde26c;fill-rule:nonzero;stroke:none" />

<path
   d="M 3.0158,2.492 L 3.0345,2.492 L 3.0345,2.4575 L 3.0348,2.4575 C 3.0374,2.461 3.0423,2.4634 3.0461,2.4634 C 3.059,2.4634 3.066,2.4473 3.066,2.4263 C 3.066,2.4097 3.0604,2.3883 3.0447,2.3883 C 3.0374,2.3883 3.0327,2.3927 3.029,2.3996 L 3.0255,2.3892 L 3.0158,2.3892 L 3.0158,2.492 z M 3.0345,2.4125 C 3.0342,2.4064 3.0371,2.403 3.0407,2.403 C 3.0459,2.403 3.0466,2.4096 3.0466,2.423 L 3.0466,2.4285 C 3.0466,2.4429 3.0466,2.4504 3.0408,2.4504 C 3.0385,2.4504 3.0367,2.4487 3.0356,2.4475 L 3.0345,2.4462"
   class="ps019"
   id="path1438"
   style="fill:#fde783;fill-rule:nonzero;stroke:none" />

<path
   d="M 3.0558,2.4452 L 3.0481,2.4452 L 3.0481,2.4617 L 3.0558,2.4617 L 3.0558,2.4698 C 3.0558,2.4876 3.0628,2.4941 3.0752,2.4941 C 3.0789,2.4941 3.0817,2.4936 3.0847,2.4932 L 3.0847,2.4753 C 3.0836,2.4756 3.0822,2.4759 3.0812,2.4759 C 3.0764,2.4759 3.0745,2.474 3.0745,2.4696 L 3.0745,2.4617 L 3.0847,2.4617 L 3.0847,2.4452 L 3.0745,2.4452 L 3.0745,2.3892 L 3.0558,2.3892"
   class="ps020"
   id="path1440"
   style="fill:#fdeb9b;fill-rule:nonzero;stroke:none" />

<path
   d="M 3.104,2.4347 C 3.104,2.4376 3.1038,2.4411 3.103,2.4438 C 3.1021,2.4467 3.1006,2.4487 3.0976,2.4487 C 3.0914,2.4487 3.0907,2.4392 3.0907,2.4247 C 3.0907,2.4084 3.0927,2.403 3.0976,2.403 C 3.1042,2.403 3.1048,2.4114 3.1048,2.4169 L 3.1193,2.4143 C 3.1179,2.3967 3.1098,2.3875 3.0962,2.3875 C 3.0793,2.3875 3.0706,2.4059 3.0706,2.4239 C 3.0706,2.4437 3.0793,2.4634 3.097,2.4634 C 3.1169,2.4634 3.1199,2.4419 3.1199,2.4347"
   class="ps021"
   id="path1442"
   style="fill:#fef0b3;fill-rule:nonzero;stroke:none" />

<path
   d="M 3.1119,2.4347 C 3.1161,2.4347 3.1195,2.4304 3.1195,2.4252 C 3.1195,2.42 3.1161,2.4158 3.1119,2.4158 C 3.1078,2.4158 3.1044,2.42 3.1044,2.4252 C 3.1044,2.4304 3.1078,2.4347 3.1119,2.4347"
   class="ps022"
   id="path1444"
   style="fill:#fef5cc;fill-rule:nonzero;stroke:none" />

<path
   d="M 2.9764,2.6105 L 2.9951,2.6105 L 2.9951,2.576 L 2.9953,2.576 C 2.998,2.5795 3.0029,2.582 3.0067,2.582 C 3.0196,2.582 3.0266,2.5658 3.0266,2.5448 C 3.0266,2.5282 3.021,2.5069 3.0053,2.5069 C 2.998,2.5069 2.9933,2.5112 2.9896,2.5181 L 2.9861,2.5077 L 2.9764,2.5077 L 2.9764,2.6105 z M 2.9951,2.531 C 2.9948,2.5249 2.9977,2.5216 3.0012,2.5216 C 3.0064,2.5216 3.0071,2.5281 3.0071,2.5415 L 3.0071,2.547 C 3.0071,2.5615 3.0071,2.569 3.0014,2.569 C 2.9991,2.569 2.9973,2.5672 2.9962,2.5661 L 2.9951,2.5648"
   class="ps018"
   id="path1446"
   style="fill:#fde26c;fill-rule:nonzero;stroke:none" />

<path
   d="M 3.0158,2.6105 L 3.0345,2.6105 L 3.0345,2.576 L 3.0348,2.576 C 3.0374,2.5795 3.0423,2.582 3.0461,2.582 C 3.059,2.582 3.066,2.5658 3.066,2.5448 C 3.066,2.5282 3.0604,2.5069 3.0447,2.5069 C 3.0374,2.5069 3.0327,2.5112 3.029,2.5181 L 3.0255,2.5077 L 3.0158,2.5077 L 3.0158,2.6105 z M 3.0345,2.531 C 3.0342,2.5249 3.0371,2.5216 3.0407,2.5216 C 3.0459,2.5216 3.0466,2.5281 3.0466,2.5415 L 3.0466,2.547 C 3.0466,2.5615 3.0466,2.569 3.0408,2.569 C 3.0385,2.569 3.0367,2.5672 3.0356,2.5661 L 3.0345,2.5648"
   class="ps019"
   id="path1448"
   style="fill:#fde783;fill-rule:nonzero;stroke:none" />

<path
   d="M 3.0558,2.5638 L 3.0481,2.5638 L 3.0481,2.5802 L 3.0558,2.5802 L 3.0558,2.5883 C 3.0558,2.6061 3.0628,2.6126 3.0752,2.6126 C 3.0789,2.6126 3.0817,2.6121 3.0847,2.6117 L 3.0847,2.5938 C 3.0836,2.5941 3.0822,2.5944 3.0812,2.5944 C 3.0764,2.5944 3.0745,2.5925 3.0745,2.5882 L 3.0745,2.5802 L 3.0847,2.5802 L 3.0847,2.5638 L 3.0745,2.5638 L 3.0745,2.5077 L 3.0558,2.5077"
   class="ps020"
   id="path1450"
   style="fill:#fdeb9b;fill-rule:nonzero;stroke:none" />

<path
   d="M 3.104,2.5532 C 3.104,2.5561 3.1038,2.5596 3.103,2.5623 C 3.1021,2.5652 3.1006,2.5672 3.0976,2.5672 C 3.0914,2.5672 3.0907,2.5577 3.0907,2.5433 C 3.0907,2.5269 3.0927,2.5216 3.0976,2.5216 C 3.1042,2.5216 3.1048,2.53 3.1048,2.5355 L 3.1193,2.5329 C 3.1179,2.5152 3.1098,2.506 3.0962,2.506 C 3.0793,2.506 3.0706,2.5245 3.0706,2.5424 C 3.0706,2.5622 3.0793,2.582 3.097,2.582 C 3.1169,2.582 3.1199,2.5604 3.1199,2.5532"
   class="ps021"
   id="path1452"
   style="fill:#fef0b3;fill-rule:nonzero;stroke:none" />

<path
   d="M 3.1119,2.5532 C 3.1161,2.5532 3.1195,2.5489 3.1195,2.5437 C 3.1195,2.5386 3.1161,2.5343 3.1119,2.5343 C 3.1078,2.5343 3.1044,2.5386 3.1044,2.5437 C 3.1044,2.5489 3.1078,2.5532 3.1119,2.5532"
   class="ps022"
   id="path1454"
   style="fill:#fef5cc;fill-rule:nonzero;stroke:none" />

<path
   d="M 2.81,2.3735 L 2.8287,2.3735 L 2.8287,2.339 L 2.8289,2.339 C 2.8316,2.3424 2.8364,2.3449 2.8403,2.3449 C 2.8532,2.3449 2.8601,2.3287 2.8601,2.3078 C 2.8601,2.2912 2.8546,2.2698 2.8389,2.2698 C 2.8316,2.2698 2.8268,2.2741 2.8232,2.2811 L 2.8197,2.2707 L 2.81,2.2707 L 2.81,2.3735 z M 2.8287,2.2939 C 2.8283,2.2878 2.8312,2.2845 2.8348,2.2845 C 2.84,2.2845 2.8407,2.291 2.8407,2.3045 L 2.8407,2.31 C 2.8407,2.3244 2.8407,2.3319 2.8349,2.3319 C 2.8326,2.3319 2.8309,2.3302 2.8297,2.329 L 2.8287,2.3277"
   class="ps018"
   id="path1456"
   style="fill:#fde26c;fill-rule:nonzero;stroke:none" />

<path
   d="M 2.8494,2.3735 L 2.8681,2.3735 L 2.8681,2.339 L 2.8684,2.339 C 2.871,2.3424 2.8759,2.3449 2.8797,2.3449 C 2.8926,2.3449 2.8995,2.3287 2.8995,2.3078 C 2.8995,2.2912 2.894,2.2698 2.8783,2.2698 C 2.871,2.2698 2.8663,2.2741 2.8626,2.2811 L 2.8591,2.2707 L 2.8494,2.2707 L 2.8494,2.3735 z M 2.8681,2.2939 C 2.8678,2.2878 2.8707,2.2845 2.8742,2.2845 C 2.8794,2.2845 2.8801,2.291 2.8801,2.3045 L 2.8801,2.31 C 2.8801,2.3244 2.8801,2.3319 2.8744,2.3319 C 2.872,2.3319 2.8703,2.3302 2.8692,2.329 L 2.8681,2.3277"
   class="ps019"
   id="path1458"
   style="fill:#fde783;fill-rule:nonzero;stroke:none" />

<path
   d="M 2.8893,2.3267 L 2.8817,2.3267 L 2.8817,2.3432 L 2.8893,2.3432 L 2.8893,2.3513 C 2.8893,2.369 2.8964,2.3755 2.9088,2.3755 C 2.9124,2.3755 2.9152,2.3751 2.9182,2.3747 L 2.9182,2.3568 C 2.9172,2.357 2.9158,2.3573 2.9148,2.3573 C 2.91,2.3573 2.9081,2.3555 2.9081,2.3511 L 2.9081,2.3432 L 2.9182,2.3432 L 2.9182,2.3267 L 2.9081,2.3267 L 2.9081,2.2707 L 2.8893,2.2707"
   class="ps020"
   id="path1460"
   style="fill:#fdeb9b;fill-rule:nonzero;stroke:none" />

<path
   d="M 2.9375,2.3162 C 2.9375,2.319 2.9374,2.3225 2.9366,2.3253 C 2.9357,2.3282 2.9342,2.3302 2.9312,2.3302 C 2.9249,2.3302 2.9242,2.3206 2.9242,2.3062 C 2.9242,2.2899 2.9263,2.2845 2.9312,2.2845 C 2.9378,2.2845 2.9383,2.2929 2.9383,2.2984 L 2.9529,2.2958 C 2.9515,2.2782 2.9434,2.2689 2.9298,2.2689 C 2.9129,2.2689 2.9041,2.2874 2.9041,2.3053 C 2.9041,2.3251 2.9129,2.3449 2.9306,2.3449 C 2.9505,2.3449 2.9535,2.3234 2.9535,2.3162"
   class="ps021"
   id="path1462"
   style="fill:#fef0b3;fill-rule:nonzero;stroke:none" />

<path
   d="M 2.9455,2.3161 C 2.9497,2.3161 2.953,2.3119 2.953,2.3067 C 2.953,2.3015 2.9497,2.2972 2.9455,2.2972 C 2.9413,2.2972 2.938,2.3015 2.938,2.3067 C 2.938,2.3119 2.9413,2.3161 2.9455,2.3161"
   class="ps022"
   id="path1464"
   style="fill:#fef5cc;fill-rule:nonzero;stroke:none" />

<path
   d="M 2.81,2.492 L 2.8287,2.492 L 2.8287,2.4575 L 2.8289,2.4575 C 2.8316,2.461 2.8364,2.4634 2.8403,2.4634 C 2.8532,2.4634 2.8601,2.4473 2.8601,2.4263 C 2.8601,2.4097 2.8546,2.3883 2.8389,2.3883 C 2.8316,2.3883 2.8268,2.3927 2.8232,2.3996 L 2.8197,2.3892 L 2.81,2.3892 L 2.81,2.492 z M 2.8287,2.4125 C 2.8283,2.4064 2.8312,2.403 2.8348,2.403 C 2.84,2.403 2.8407,2.4096 2.8407,2.423 L 2.8407,2.4285 C 2.8407,2.4429 2.8407,2.4504 2.8349,2.4504 C 2.8326,2.4504 2.8309,2.4487 2.8297,2.4475 L 2.8287,2.4462"
   class="ps018"
   id="path1466"
   style="fill:#fde26c;fill-rule:nonzero;stroke:none" />

<path
   d="M 2.8494,2.492 L 2.8681,2.492 L 2.8681,2.4575 L 2.8684,2.4575 C 2.871,2.461 2.8759,2.4634 2.8797,2.4634 C 2.8926,2.4634 2.8995,2.4473 2.8995,2.4263 C 2.8995,2.4097 2.894,2.3883 2.8783,2.3883 C 2.871,2.3883 2.8663,2.3927 2.8626,2.3996 L 2.8591,2.3892 L 2.8494,2.3892 L 2.8494,2.492 z M 2.8681,2.4125 C 2.8678,2.4064 2.8707,2.403 2.8742,2.403 C 2.8794,2.403 2.8801,2.4096 2.8801,2.423 L 2.8801,2.4285 C 2.8801,2.4429 2.8801,2.4504 2.8744,2.4504 C 2.872,2.4504 2.8703,2.4487 2.8692,2.4475 L 2.8681,2.4462"
   class="ps019"
   id="path1468"
   style="fill:#fde783;fill-rule:nonzero;stroke:none" />

<path
   d="M 2.8893,2.4452 L 2.8817,2.4452 L 2.8817,2.4617 L 2.8893,2.4617 L 2.8893,2.4698 C 2.8893,2.4876 2.8964,2.4941 2.9088,2.4941 C 2.9124,2.4941 2.9152,2.4936 2.9182,2.4932 L 2.9182,2.4753 C 2.9172,2.4756 2.9158,2.4759 2.9148,2.4759 C 2.91,2.4759 2.9081,2.474 2.9081,2.4696 L 2.9081,2.4617 L 2.9182,2.4617 L 2.9182,2.4452 L 2.9081,2.4452 L 2.9081,2.3892 L 2.8893,2.3892"
   class="ps020"
   id="path1470"
   style="fill:#fdeb9b;fill-rule:nonzero;stroke:none" />

<path
   d="M 2.9375,2.4347 C 2.9375,2.4376 2.9374,2.4411 2.9366,2.4438 C 2.9357,2.4467 2.9342,2.4487 2.9312,2.4487 C 2.9249,2.4487 2.9242,2.4392 2.9242,2.4247 C 2.9242,2.4084 2.9263,2.403 2.9312,2.403 C 2.9378,2.403 2.9383,2.4114 2.9383,2.4169 L 2.9529,2.4143 C 2.9515,2.3967 2.9434,2.3875 2.9298,2.3875 C 2.9129,2.3875 2.9041,2.4059 2.9041,2.4239 C 2.9041,2.4437 2.9129,2.4634 2.9306,2.4634 C 2.9505,2.4634 2.9535,2.4419 2.9535,2.4347"
   class="ps021"
   id="path1472"
   style="fill:#fef0b3;fill-rule:nonzero;stroke:none" />

<path
   d="M 2.9455,2.4347 C 2.9497,2.4347 2.953,2.4304 2.953,2.4252 C 2.953,2.42 2.9497,2.4158 2.9455,2.4158 C 2.9413,2.4158 2.938,2.42 2.938,2.4252 C 2.938,2.4304 2.9413,2.4347 2.9455,2.4347"
   class="ps022"
   id="path1474"
   style="fill:#fef5cc;fill-rule:nonzero;stroke:none" />

<path
   d="M 2.81,2.6105 L 2.8287,2.6105 L 2.8287,2.576 L 2.8289,2.576 C 2.8316,2.5795 2.8364,2.582 2.8403,2.582 C 2.8532,2.582 2.8601,2.5658 2.8601,2.5448 C 2.8601,2.5282 2.8546,2.5069 2.8389,2.5069 C 2.8316,2.5069 2.8268,2.5112 2.8232,2.5181 L 2.8197,2.5077 L 2.81,2.5077 L 2.81,2.6105 z M 2.8287,2.531 C 2.8283,2.5249 2.8312,2.5216 2.8348,2.5216 C 2.84,2.5216 2.8407,2.5281 2.8407,2.5415 L 2.8407,2.547 C 2.8407,2.5615 2.8407,2.569 2.8349,2.569 C 2.8326,2.569 2.8309,2.5672 2.8297,2.5661 L 2.8287,2.5648"
   class="ps018"
   id="path1476"
   style="fill:#fde26c;fill-rule:nonzero;stroke:none" />

<path
   d="M 2.8494,2.6105 L 2.8681,2.6105 L 2.8681,2.576 L 2.8684,2.576 C 2.871,2.5795 2.8759,2.582 2.8797,2.582 C 2.8926,2.582 2.8995,2.5658 2.8995,2.5448 C 2.8995,2.5282 2.894,2.5069 2.8783,2.5069 C 2.871,2.5069 2.8663,2.5112 2.8626,2.5181 L 2.8591,2.5077 L 2.8494,2.5077 L 2.8494,2.6105 z M 2.8681,2.531 C 2.8678,2.5249 2.8707,2.5216 2.8742,2.5216 C 2.8794,2.5216 2.8801,2.5281 2.8801,2.5415 L 2.8801,2.547 C 2.8801,2.5615 2.8801,2.569 2.8744,2.569 C 2.872,2.569 2.8703,2.5672 2.8692,2.5661 L 2.8681,2.5648"
   class="ps019"
   id="path1478"
   style="fill:#fde783;fill-rule:nonzero;stroke:none" />

<path
   d="M 2.8893,2.5638 L 2.8817,2.5638 L 2.8817,2.5802 L 2.8893,2.5802 L 2.8893,2.5883 C 2.8893,2.6061 2.8964,2.6126 2.9088,2.6126 C 2.9124,2.6126 2.9152,2.6121 2.9182,2.6117 L 2.9182,2.5938 C 2.9172,2.5941 2.9158,2.5944 2.9148,2.5944 C 2.91,2.5944 2.9081,2.5925 2.9081,2.5882 L 2.9081,2.5802 L 2.9182,2.5802 L 2.9182,2.5638 L 2.9081,2.5638 L 2.9081,2.5077 L 2.8893,2.5077"
   class="ps020"
   id="path1480"
   style="fill:#fdeb9b;fill-rule:nonzero;stroke:none" />

<path
   d="M 2.9375,2.5532 C 2.9375,2.5561 2.9374,2.5596 2.9366,2.5623 C 2.9357,2.5652 2.9342,2.5672 2.9312,2.5672 C 2.9249,2.5672 2.9242,2.5577 2.9242,2.5433 C 2.9242,2.5269 2.9263,2.5216 2.9312,2.5216 C 2.9378,2.5216 2.9383,2.53 2.9383,2.5355 L 2.9529,2.5329 C 2.9515,2.5152 2.9434,2.506 2.9298,2.506 C 2.9129,2.506 2.9041,2.5245 2.9041,2.5424 C 2.9041,2.5622 2.9129,2.582 2.9306,2.582 C 2.9505,2.582 2.9535,2.5604 2.9535,2.5532"
   class="ps021"
   id="path1482"
   style="fill:#fef0b3;fill-rule:nonzero;stroke:none" />

<path
   d="M 2.9455,2.5532 C 2.9497,2.5532 2.953,2.5489 2.953,2.5437 C 2.953,2.5386 2.9497,2.5343 2.9455,2.5343 C 2.9413,2.5343 2.938,2.5386 2.938,2.5437 C 2.938,2.5489 2.9413,2.5532 2.9455,2.5532"
   class="ps022"
   id="path1484"
   style="fill:#fef5cc;fill-rule:nonzero;stroke:none" />

<path
   d="M 2.6435,2.3735 L 2.6623,2.3735 L 2.6623,2.339 L 2.6625,2.339 C 2.6652,2.3424 2.67,2.3449 2.6738,2.3449 C 2.6868,2.3449 2.6937,2.3287 2.6937,2.3078 C 2.6937,2.2912 2.6882,2.2698 2.6724,2.2698 C 2.6652,2.2698 2.6604,2.2741 2.6567,2.2811 L 2.6533,2.2707 L 2.6435,2.2707 L 2.6435,2.3735 z M 2.6623,2.2939 C 2.6619,2.2878 2.6648,2.2845 2.6684,2.2845 C 2.6736,2.2845 2.6743,2.291 2.6743,2.3045 L 2.6743,2.31 C 2.6743,2.3244 2.6743,2.3319 2.6685,2.3319 C 2.6662,2.3319 2.6645,2.3302 2.6633,2.329 L 2.6623,2.3277"
   class="ps018"
   id="path1486"
   style="fill:#fde26c;fill-rule:nonzero;stroke:none" />

<path
   d="M 2.683,2.3735 L 2.7017,2.3735 L 2.7017,2.339 L 2.7019,2.339 C 2.7046,2.3424 2.7094,2.3449 2.7133,2.3449 C 2.7262,2.3449 2.7331,2.3287 2.7331,2.3078 C 2.7331,2.2912 2.7276,2.2698 2.7119,2.2698 C 2.7046,2.2698 2.6998,2.2741 2.6961,2.2811 L 2.6927,2.2707 L 2.683,2.2707 L 2.683,2.3735 z M 2.7017,2.2939 C 2.7013,2.2878 2.7042,2.2845 2.7078,2.2845 C 2.713,2.2845 2.7137,2.291 2.7137,2.3045 L 2.7137,2.31 C 2.7137,2.3244 2.7137,2.3319 2.7079,2.3319 C 2.7056,2.3319 2.7039,2.3302 2.7027,2.329 L 2.7017,2.3277"
   class="ps019"
   id="path1488"
   style="fill:#fde783;fill-rule:nonzero;stroke:none" />

<path
   d="M 2.7229,2.3267 L 2.7153,2.3267 L 2.7153,2.3432 L 2.7229,2.3432 L 2.7229,2.3513 C 2.7229,2.369 2.73,2.3755 2.7423,2.3755 C 2.746,2.3755 2.7488,2.3751 2.7518,2.3747 L 2.7518,2.3568 C 2.7508,2.357 2.7494,2.3573 2.7483,2.3573 C 2.7436,2.3573 2.7416,2.3555 2.7416,2.3511 L 2.7416,2.3432 L 2.7518,2.3432 L 2.7518,2.3267 L 2.7416,2.3267 L 2.7416,2.2707 L 2.7229,2.2707"
   class="ps020"
   id="path1490"
   style="fill:#fdeb9b;fill-rule:nonzero;stroke:none" />

<path
   d="M 2.7711,2.3162 C 2.7711,2.319 2.771,2.3225 2.7702,2.3253 C 2.7693,2.3282 2.7678,2.3302 2.7648,2.3302 C 2.7585,2.3302 2.7578,2.3206 2.7578,2.3062 C 2.7578,2.2899 2.7599,2.2845 2.7648,2.2845 C 2.7713,2.2845 2.7719,2.2929 2.7719,2.2984 L 2.7865,2.2958 C 2.7851,2.2782 2.777,2.2689 2.7634,2.2689 C 2.7465,2.2689 2.7377,2.2874 2.7377,2.3053 C 2.7377,2.3251 2.7465,2.3449 2.7642,2.3449 C 2.7841,2.3449 2.7871,2.3234 2.7871,2.3162"
   class="ps021"
   id="path1492"
   style="fill:#fef0b3;fill-rule:nonzero;stroke:none" />

<path
   d="M 2.7791,2.3161 C 2.7832,2.3161 2.7866,2.3119 2.7866,2.3067 C 2.7866,2.3015 2.7832,2.2972 2.7791,2.2972 C 2.7749,2.2972 2.7715,2.3015 2.7715,2.3067 C 2.7715,2.3119 2.7749,2.3161 2.7791,2.3161"
   class="ps022"
   id="path1494"
   style="fill:#fef5cc;fill-rule:nonzero;stroke:none" />

<path
   d="M 2.6435,2.492 L 2.6623,2.492 L 2.6623,2.4575 L 2.6625,2.4575 C 2.6652,2.461 2.67,2.4634 2.6738,2.4634 C 2.6868,2.4634 2.6937,2.4473 2.6937,2.4263 C 2.6937,2.4097 2.6882,2.3883 2.6724,2.3883 C 2.6652,2.3883 2.6604,2.3927 2.6567,2.3996 L 2.6533,2.3892 L 2.6435,2.3892 L 2.6435,2.492 z M 2.6623,2.4125 C 2.6619,2.4064 2.6648,2.403 2.6684,2.403 C 2.6736,2.403 2.6743,2.4096 2.6743,2.423 L 2.6743,2.4285 C 2.6743,2.4429 2.6743,2.4504 2.6685,2.4504 C 2.6662,2.4504 2.6645,2.4487 2.6633,2.4475 L 2.6623,2.4462"
   class="ps018"
   id="path1496"
   style="fill:#fde26c;fill-rule:nonzero;stroke:none" />

<path
   d="M 2.683,2.492 L 2.7017,2.492 L 2.7017,2.4575 L 2.7019,2.4575 C 2.7046,2.461 2.7094,2.4634 2.7133,2.4634 C 2.7262,2.4634 2.7331,2.4473 2.7331,2.4263 C 2.7331,2.4097 2.7276,2.3883 2.7119,2.3883 C 2.7046,2.3883 2.6998,2.3927 2.6961,2.3996 L 2.6927,2.3892 L 2.683,2.3892 L 2.683,2.492 z M 2.7017,2.4125 C 2.7013,2.4064 2.7042,2.403 2.7078,2.403 C 2.713,2.403 2.7137,2.4096 2.7137,2.423 L 2.7137,2.4285 C 2.7137,2.4429 2.7137,2.4504 2.7079,2.4504 C 2.7056,2.4504 2.7039,2.4487 2.7027,2.4475 L 2.7017,2.4462"
   class="ps019"
   id="path1498"
   style="fill:#fde783;fill-rule:nonzero;stroke:none" />

<path
   d="M 2.7229,2.4452 L 2.7153,2.4452 L 2.7153,2.4617 L 2.7229,2.4617 L 2.7229,2.4698 C 2.7229,2.4876 2.73,2.4941 2.7423,2.4941 C 2.746,2.4941 2.7488,2.4936 2.7518,2.4932 L 2.7518,2.4753 C 2.7508,2.4756 2.7494,2.4759 2.7483,2.4759 C 2.7436,2.4759 2.7416,2.474 2.7416,2.4696 L 2.7416,2.4617 L 2.7518,2.4617 L 2.7518,2.4452 L 2.7416,2.4452 L 2.7416,2.3892 L 2.7229,2.3892"
   class="ps020"
   id="path1500"
   style="fill:#fdeb9b;fill-rule:nonzero;stroke:none" />

<path
   d="M 2.7711,2.4347 C 2.7711,2.4376 2.771,2.4411 2.7702,2.4438 C 2.7693,2.4467 2.7678,2.4487 2.7648,2.4487 C 2.7585,2.4487 2.7578,2.4392 2.7578,2.4247 C 2.7578,2.4084 2.7599,2.403 2.7648,2.403 C 2.7713,2.403 2.7719,2.4114 2.7719,2.4169 L 2.7865,2.4143 C 2.7851,2.3967 2.777,2.3875 2.7634,2.3875 C 2.7465,2.3875 2.7377,2.4059 2.7377,2.4239 C 2.7377,2.4437 2.7465,2.4634 2.7642,2.4634 C 2.7841,2.4634 2.7871,2.4419 2.7871,2.4347"
   class="ps021"
   id="path1502"
   style="fill:#fef0b3;fill-rule:nonzero;stroke:none" />

<path
   d="M 2.7791,2.4347 C 2.7832,2.4347 2.7866,2.4304 2.7866,2.4252 C 2.7866,2.42 2.7832,2.4158 2.7791,2.4158 C 2.7749,2.4158 2.7715,2.42 2.7715,2.4252 C 2.7715,2.4304 2.7749,2.4347 2.7791,2.4347"
   class="ps022"
   id="path1504"
   style="fill:#fef5cc;fill-rule:nonzero;stroke:none" />

<path
   d="M 2.6435,2.6105 L 2.6623,2.6105 L 2.6623,2.576 L 2.6625,2.576 C 2.6652,2.5795 2.67,2.582 2.6738,2.582 C 2.6868,2.582 2.6937,2.5658 2.6937,2.5448 C 2.6937,2.5282 2.6882,2.5069 2.6724,2.5069 C 2.6652,2.5069 2.6604,2.5112 2.6567,2.5181 L 2.6533,2.5077 L 2.6435,2.5077 L 2.6435,2.6105 z M 2.6623,2.531 C 2.6619,2.5249 2.6648,2.5216 2.6684,2.5216 C 2.6736,2.5216 2.6743,2.5281 2.6743,2.5415 L 2.6743,2.547 C 2.6743,2.5615 2.6743,2.569 2.6685,2.569 C 2.6662,2.569 2.6645,2.5672 2.6633,2.5661 L 2.6623,2.5648"
   class="ps018"
   id="path1506"
   style="fill:#fde26c;fill-rule:nonzero;stroke:none" />

<path
   d="M 2.683,2.6105 L 2.7017,2.6105 L 2.7017,2.576 L 2.7019,2.576 C 2.7046,2.5795 2.7094,2.582 2.7133,2.582 C 2.7262,2.582 2.7331,2.5658 2.7331,2.5448 C 2.7331,2.5282 2.7276,2.5069 2.7119,2.5069 C 2.7046,2.5069 2.6998,2.5112 2.6961,2.5181 L 2.6927,2.5077 L 2.683,2.5077 L 2.683,2.6105 z M 2.7017,2.531 C 2.7013,2.5249 2.7042,2.5216 2.7078,2.5216 C 2.713,2.5216 2.7137,2.5281 2.7137,2.5415 L 2.7137,2.547 C 2.7137,2.5615 2.7137,2.569 2.7079,2.569 C 2.7056,2.569 2.7039,2.5672 2.7027,2.5661 L 2.7017,2.5648"
   class="ps019"
   id="path1508"
   style="fill:#fde783;fill-rule:nonzero;stroke:none" />

<path
   d="M 2.7229,2.5638 L 2.7153,2.5638 L 2.7153,2.5802 L 2.7229,2.5802 L 2.7229,2.5883 C 2.7229,2.6061 2.73,2.6126 2.7423,2.6126 C 2.746,2.6126 2.7488,2.6121 2.7518,2.6117 L 2.7518,2.5938 C 2.7508,2.5941 2.7494,2.5944 2.7483,2.5944 C 2.7436,2.5944 2.7416,2.5925 2.7416,2.5882 L 2.7416,2.5802 L 2.7518,2.5802 L 2.7518,2.5638 L 2.7416,2.5638 L 2.7416,2.5077 L 2.7229,2.5077"
   class="ps020"
   id="path1510"
   style="fill:#fdeb9b;fill-rule:nonzero;stroke:none" />

<path
   d="M 2.7711,2.5532 C 2.7711,2.5561 2.771,2.5596 2.7702,2.5623 C 2.7693,2.5652 2.7678,2.5672 2.7648,2.5672 C 2.7585,2.5672 2.7578,2.5577 2.7578,2.5433 C 2.7578,2.5269 2.7599,2.5216 2.7648,2.5216 C 2.7713,2.5216 2.7719,2.53 2.7719,2.5355 L 2.7865,2.5329 C 2.7851,2.5152 2.777,2.506 2.7634,2.506 C 2.7465,2.506 2.7377,2.5245 2.7377,2.5424 C 2.7377,2.5622 2.7465,2.582 2.7642,2.582 C 2.7841,2.582 2.7871,2.5604 2.7871,2.5532"
   class="ps021"
   id="path1512"
   style="fill:#fef0b3;fill-rule:nonzero;stroke:none" />

<path
   d="M 2.7791,2.5532 C 2.7832,2.5532 2.7866,2.5489 2.7866,2.5437 C 2.7866,2.5386 2.7832,2.5343 2.7791,2.5343 C 2.7749,2.5343 2.7715,2.5386 2.7715,2.5437 C 2.7715,2.5489 2.7749,2.5532 2.7791,2.5532"
   class="ps022"
   id="path1514"
   style="fill:#fef5cc;fill-rule:nonzero;stroke:none" />

<path
   d="M 3.1428,2.3735 L 3.1615,2.3735 L 3.1615,2.339 L 3.1618,2.339 C 3.1644,2.3424 3.1693,2.3449 3.1731,2.3449 C 3.186,2.3449 3.193,2.3287 3.193,2.3078 C 3.193,2.2912 3.1874,2.2698 3.1717,2.2698 C 3.1644,2.2698 3.1597,2.2741 3.156,2.2811 L 3.1525,2.2707 L 3.1428,2.2707 L 3.1428,2.3735 z M 3.1615,2.2939 C 3.1612,2.2878 3.1641,2.2845 3.1677,2.2845 C 3.1729,2.2845 3.1736,2.291 3.1736,2.3045 L 3.1736,2.31 C 3.1736,2.3244 3.1736,2.3319 3.1678,2.3319 C 3.1655,2.3319 3.1637,2.3302 3.1626,2.329 L 3.1615,2.3277"
   class="ps018"
   id="path1516"
   style="fill:#fde26c;fill-rule:nonzero;stroke:none" />

<path
   d="M 3.1822,2.3735 L 3.201,2.3735 L 3.201,2.339 L 3.2012,2.339 C 3.2038,2.3424 3.2087,2.3449 3.2125,2.3449 C 3.2255,2.3449 3.2324,2.3287 3.2324,2.3078 C 3.2324,2.2912 3.2269,2.2698 3.2111,2.2698 C 3.2038,2.2698 3.1991,2.2741 3.1954,2.2811 L 3.192,2.2707 L 3.1822,2.2707 L 3.1822,2.3735 z M 3.201,2.2939 C 3.2006,2.2878 3.2035,2.2845 3.2071,2.2845 C 3.2123,2.2845 3.213,2.291 3.213,2.3045 L 3.213,2.31 C 3.213,2.3244 3.213,2.3319 3.2072,2.3319 C 3.2049,2.3319 3.2032,2.3302 3.202,2.329 L 3.201,2.3277"
   class="ps019"
   id="path1518"
   style="fill:#fde783;fill-rule:nonzero;stroke:none" />

<path
   d="M 3.2222,2.3267 L 3.2146,2.3267 L 3.2146,2.3432 L 3.2222,2.3432 L 3.2222,2.3513 C 3.2222,2.369 3.2292,2.3755 3.2416,2.3755 C 3.2453,2.3755 3.2481,2.3751 3.2511,2.3747 L 3.2511,2.3568 C 3.25,2.357 3.2487,2.3573 3.2476,2.3573 C 3.2429,2.3573 3.2409,2.3555 3.2409,2.3511 L 3.2409,2.3432 L 3.2511,2.3432 L 3.2511,2.3267 L 3.2409,2.3267 L 3.2409,2.2707 L 3.2222,2.2707"
   class="ps020"
   id="path1520"
   style="fill:#fdeb9b;fill-rule:nonzero;stroke:none" />

<path
   d="M 3.2704,2.3162 C 3.2704,2.319 3.2703,2.3225 3.2695,2.3253 C 3.2685,2.3282 3.267,2.3302 3.264,2.3302 C 3.2578,2.3302 3.2571,2.3206 3.2571,2.3062 C 3.2571,2.2899 3.2592,2.2845 3.264,2.2845 C 3.2706,2.2845 3.2712,2.2929 3.2712,2.2984 L 3.2858,2.2958 C 3.2844,2.2782 3.2763,2.2689 3.2627,2.2689 C 3.2458,2.2689 3.237,2.2874 3.237,2.3053 C 3.237,2.3251 3.2458,2.3449 3.2635,2.3449 C 3.2833,2.3449 3.2863,2.3234 3.2863,2.3162"
   class="ps021"
   id="path1522"
   style="fill:#fef0b3;fill-rule:nonzero;stroke:none" />

<path
   d="M 3.2784,2.3161 C 3.2825,2.3161 3.2859,2.3119 3.2859,2.3067 C 3.2859,2.3015 3.2825,2.2972 3.2784,2.2972 C 3.2742,2.2972 3.2708,2.3015 3.2708,2.3067 C 3.2708,2.3119 3.2742,2.3161 3.2784,2.3161"
   class="ps022"
   id="path1524"
   style="fill:#fef5cc;fill-rule:nonzero;stroke:none" />

<path
   d="M 3.1428,2.492 L 3.1615,2.492 L 3.1615,2.4575 L 3.1618,2.4575 C 3.1644,2.461 3.1693,2.4634 3.1731,2.4634 C 3.186,2.4634 3.193,2.4473 3.193,2.4263 C 3.193,2.4097 3.1874,2.3883 3.1717,2.3883 C 3.1644,2.3883 3.1597,2.3927 3.156,2.3996 L 3.1525,2.3892 L 3.1428,2.3892 L 3.1428,2.492 z M 3.1615,2.4125 C 3.1612,2.4064 3.1641,2.403 3.1677,2.403 C 3.1729,2.403 3.1736,2.4096 3.1736,2.423 L 3.1736,2.4285 C 3.1736,2.4429 3.1736,2.4504 3.1678,2.4504 C 3.1655,2.4504 3.1637,2.4487 3.1626,2.4475 L 3.1615,2.4462"
   class="ps018"
   id="path1526"
   style="fill:#fde26c;fill-rule:nonzero;stroke:none" />

<path
   d="M 3.1822,2.492 L 3.201,2.492 L 3.201,2.4575 L 3.2012,2.4575 C 3.2038,2.461 3.2087,2.4634 3.2125,2.4634 C 3.2255,2.4634 3.2324,2.4473 3.2324,2.4263 C 3.2324,2.4097 3.2269,2.3883 3.2111,2.3883 C 3.2038,2.3883 3.1991,2.3927 3.1954,2.3996 L 3.192,2.3892 L 3.1822,2.3892 L 3.1822,2.492 z M 3.201,2.4125 C 3.2006,2.4064 3.2035,2.403 3.2071,2.403 C 3.2123,2.403 3.213,2.4096 3.213,2.423 L 3.213,2.4285 C 3.213,2.4429 3.213,2.4504 3.2072,2.4504 C 3.2049,2.4504 3.2032,2.4487 3.202,2.4475 L 3.201,2.4462"
   class="ps019"
   id="path1528"
   style="fill:#fde783;fill-rule:nonzero;stroke:none" />

<path
   d="M 3.2222,2.4452 L 3.2146,2.4452 L 3.2146,2.4617 L 3.2222,2.4617 L 3.2222,2.4698 C 3.2222,2.4876 3.2292,2.4941 3.2416,2.4941 C 3.2453,2.4941 3.2481,2.4936 3.2511,2.4932 L 3.2511,2.4753 C 3.25,2.4756 3.2487,2.4759 3.2476,2.4759 C 3.2429,2.4759 3.2409,2.474 3.2409,2.4696 L 3.2409,2.4617 L 3.2511,2.4617 L 3.2511,2.4452 L 3.2409,2.4452 L 3.2409,2.3892 L 3.2222,2.3892"
   class="ps020"
   id="path1530"
   style="fill:#fdeb9b;fill-rule:nonzero;stroke:none" />

<path
   d="M 3.2704,2.4347 C 3.2704,2.4376 3.2703,2.4411 3.2695,2.4438 C 3.2685,2.4467 3.267,2.4487 3.264,2.4487 C 3.2578,2.4487 3.2571,2.4392 3.2571,2.4247 C 3.2571,2.4084 3.2592,2.403 3.264,2.403 C 3.2706,2.403 3.2712,2.4114 3.2712,2.4169 L 3.2858,2.4143 C 3.2844,2.3967 3.2763,2.3875 3.2627,2.3875 C 3.2458,2.3875 3.237,2.4059 3.237,2.4239 C 3.237,2.4437 3.2458,2.4634 3.2635,2.4634 C 3.2833,2.4634 3.2863,2.4419 3.2863,2.4347"
   class="ps021"
   id="path1532"
   style="fill:#fef0b3;fill-rule:nonzero;stroke:none" />

<path
   d="M 3.2784,2.4347 C 3.2825,2.4347 3.2859,2.4304 3.2859,2.4252 C 3.2859,2.42 3.2825,2.4158 3.2784,2.4158 C 3.2742,2.4158 3.2708,2.42 3.2708,2.4252 C 3.2708,2.4304 3.2742,2.4347 3.2784,2.4347"
   class="ps022"
   id="path1534"
   style="fill:#fef5cc;fill-rule:nonzero;stroke:none" />

<path
   d="M 3.1428,2.6105 L 3.1615,2.6105 L 3.1615,2.576 L 3.1618,2.576 C 3.1644,2.5795 3.1693,2.582 3.1731,2.582 C 3.186,2.582 3.193,2.5658 3.193,2.5448 C 3.193,2.5282 3.1874,2.5069 3.1717,2.5069 C 3.1644,2.5069 3.1597,2.5112 3.156,2.5181 L 3.1525,2.5077 L 3.1428,2.5077 L 3.1428,2.6105 z M 3.1615,2.531 C 3.1612,2.5249 3.1641,2.5216 3.1677,2.5216 C 3.1729,2.5216 3.1736,2.5281 3.1736,2.5415 L 3.1736,2.547 C 3.1736,2.5615 3.1736,2.569 3.1678,2.569 C 3.1655,2.569 3.1637,2.5672 3.1626,2.5661 L 3.1615,2.5648"
   class="ps018"
   id="path1536"
   style="fill:#fde26c;fill-rule:nonzero;stroke:none" />

<path
   d="M 3.1822,2.6105 L 3.201,2.6105 L 3.201,2.576 L 3.2012,2.576 C 3.2038,2.5795 3.2087,2.582 3.2125,2.582 C 3.2255,2.582 3.2324,2.5658 3.2324,2.5448 C 3.2324,2.5282 3.2269,2.5069 3.2111,2.5069 C 3.2038,2.5069 3.1991,2.5112 3.1954,2.5181 L 3.192,2.5077 L 3.1822,2.5077 L 3.1822,2.6105 z M 3.201,2.531 C 3.2006,2.5249 3.2035,2.5216 3.2071,2.5216 C 3.2123,2.5216 3.213,2.5281 3.213,2.5415 L 3.213,2.547 C 3.213,2.5615 3.213,2.569 3.2072,2.569 C 3.2049,2.569 3.2032,2.5672 3.202,2.5661 L 3.201,2.5648"
   class="ps019"
   id="path1538"
   style="fill:#fde783;fill-rule:nonzero;stroke:none" />

<path
   d="M 3.2222,2.5638 L 3.2146,2.5638 L 3.2146,2.5802 L 3.2222,2.5802 L 3.2222,2.5883 C 3.2222,2.6061 3.2292,2.6126 3.2416,2.6126 C 3.2453,2.6126 3.2481,2.6121 3.2511,2.6117 L 3.2511,2.5938 C 3.25,2.5941 3.2487,2.5944 3.2476,2.5944 C 3.2429,2.5944 3.2409,2.5925 3.2409,2.5882 L 3.2409,2.5802 L 3.2511,2.5802 L 3.2511,2.5638 L 3.2409,2.5638 L 3.2409,2.5077 L 3.2222,2.5077"
   class="ps020"
   id="path1540"
   style="fill:#fdeb9b;fill-rule:nonzero;stroke:none" />

<path
   d="M 3.2704,2.5532 C 3.2704,2.5561 3.2703,2.5596 3.2695,2.5623 C 3.2685,2.5652 3.267,2.5672 3.264,2.5672 C 3.2578,2.5672 3.2571,2.5577 3.2571,2.5433 C 3.2571,2.5269 3.2592,2.5216 3.264,2.5216 C 3.2706,2.5216 3.2712,2.53 3.2712,2.5355 L 3.2858,2.5329 C 3.2844,2.5152 3.2763,2.506 3.2627,2.506 C 3.2458,2.506 3.237,2.5245 3.237,2.5424 C 3.237,2.5622 3.2458,2.582 3.2635,2.582 C 3.2833,2.582 3.2863,2.5604 3.2863,2.5532"
   class="ps021"
   id="path1542"
   style="fill:#fef0b3;fill-rule:nonzero;stroke:none" />

<path
   d="M 3.2784,2.5532 C 3.2825,2.5532 3.2859,2.5489 3.2859,2.5437 C 3.2859,2.5386 3.2825,2.5343 3.2784,2.5343 C 3.2742,2.5343 3.2708,2.5386 3.2708,2.5437 C 3.2708,2.5489 3.2742,2.5532 3.2784,2.5532"
   class="ps022"
   id="path1544"
   style="fill:#fef5cc;fill-rule:nonzero;stroke:none" />

<path
   d="M 3.3103,2.3735 L 3.329,2.3735 L 3.329,2.339 L 3.3292,2.339 C 3.3319,2.3424 3.3367,2.3449 3.3406,2.3449 C 3.3535,2.3449 3.3604,2.3287 3.3604,2.3078 C 3.3604,2.2912 3.3549,2.2698 3.3392,2.2698 C 3.3319,2.2698 3.3272,2.2741 3.3235,2.2811 L 3.32,2.2707 L 3.3103,2.2707 L 3.3103,2.3735 z M 3.329,2.2939 C 3.3287,2.2878 3.3316,2.2845 3.3351,2.2845 C 3.3403,2.2845 3.341,2.291 3.341,2.3045 L 3.341,2.31 C 3.341,2.3244 3.341,2.3319 3.3352,2.3319 C 3.3329,2.3319 3.3312,2.3302 3.3301,2.329 L 3.329,2.3277"
   class="ps018"
   id="path1546"
   style="fill:#fde26c;fill-rule:nonzero;stroke:none" />

<path
   d="M 3.3497,2.3735 L 3.3684,2.3735 L 3.3684,2.339 L 3.3687,2.339 C 3.3713,2.3424 3.3762,2.3449 3.38,2.3449 C 3.3929,2.3449 3.3999,2.3287 3.3999,2.3078 C 3.3999,2.2912 3.3943,2.2698 3.3786,2.2698 C 3.3713,2.2698 3.3666,2.2741 3.3629,2.2811 L 3.3594,2.2707 L 3.3497,2.2707 L 3.3497,2.3735 z M 3.3684,2.2939 C 3.3681,2.2878 3.371,2.2845 3.3746,2.2845 C 3.3797,2.2845 3.3805,2.291 3.3805,2.3045 L 3.3805,2.31 C 3.3805,2.3244 3.3805,2.3319 3.3747,2.3319 C 3.3724,2.3319 3.3706,2.3302 3.3695,2.329 L 3.3684,2.3277"
   class="ps019"
   id="path1548"
   style="fill:#fde783;fill-rule:nonzero;stroke:none" />

<path
   d="M 3.3897,2.3267 L 3.382,2.3267 L 3.382,2.3432 L 3.3897,2.3432 L 3.3897,2.3513 C 3.3897,2.369 3.3967,2.3755 3.4091,2.3755 C 3.4128,2.3755 3.4155,2.3751 3.4186,2.3747 L 3.4186,2.3568 C 3.4175,2.357 3.4161,2.3573 3.4151,2.3573 C 3.4103,2.3573 3.4084,2.3555 3.4084,2.3511 L 3.4084,2.3432 L 3.4186,2.3432 L 3.4186,2.3267 L 3.4084,2.3267 L 3.4084,2.2707 L 3.3897,2.2707"
   class="ps020"
   id="path1550"
   style="fill:#fdeb9b;fill-rule:nonzero;stroke:none" />

<path
   d="M 3.4379,2.3162 C 3.4379,2.319 3.4377,2.3225 3.4369,2.3253 C 3.436,2.3282 3.4345,2.3302 3.4315,2.3302 C 3.4253,2.3302 3.4246,2.3206 3.4246,2.3062 C 3.4246,2.2899 3.4266,2.2845 3.4315,2.2845 C 3.4381,2.2845 3.4387,2.2929 3.4387,2.2984 L 3.4532,2.2958 C 3.4518,2.2782 3.4437,2.2689 3.4301,2.2689 C 3.4132,2.2689 3.4045,2.2874 3.4045,2.3053 C 3.4045,2.3251 3.4132,2.3449 3.4309,2.3449 C 3.4508,2.3449 3.4538,2.3234 3.4538,2.3162"
   class="ps021"
   id="path1552"
   style="fill:#fef0b3;fill-rule:nonzero;stroke:none" />

<path
   d="M 3.4458,2.3161 C 3.45,2.3161 3.4534,2.3119 3.4534,2.3067 C 3.4534,2.3015 3.45,2.2972 3.4458,2.2972 C 3.4417,2.2972 3.4383,2.3015 3.4383,2.3067 C 3.4383,2.3119 3.4417,2.3161 3.4458,2.3161"
   class="ps022"
   id="path1554"
   style="fill:#fef5cc;fill-rule:nonzero;stroke:none" />

<path
   d="M 3.3103,2.492 L 3.329,2.492 L 3.329,2.4575 L 3.3292,2.4575 C 3.3319,2.461 3.3367,2.4634 3.3406,2.4634 C 3.3535,2.4634 3.3604,2.4473 3.3604,2.4263 C 3.3604,2.4097 3.3549,2.3883 3.3392,2.3883 C 3.3319,2.3883 3.3272,2.3927 3.3235,2.3996 L 3.32,2.3892 L 3.3103,2.3892 L 3.3103,2.492 z M 3.329,2.4125 C 3.3287,2.4064 3.3316,2.403 3.3351,2.403 C 3.3403,2.403 3.341,2.4096 3.341,2.423 L 3.341,2.4285 C 3.341,2.4429 3.341,2.4504 3.3352,2.4504 C 3.3329,2.4504 3.3312,2.4487 3.3301,2.4475 L 3.329,2.4462"
   class="ps018"
   id="path1556"
   style="fill:#fde26c;fill-rule:nonzero;stroke:none" />

<path
   d="M 3.3497,2.492 L 3.3684,2.492 L 3.3684,2.4575 L 3.3687,2.4575 C 3.3713,2.461 3.3762,2.4634 3.38,2.4634 C 3.3929,2.4634 3.3999,2.4473 3.3999,2.4263 C 3.3999,2.4097 3.3943,2.3883 3.3786,2.3883 C 3.3713,2.3883 3.3666,2.3927 3.3629,2.3996 L 3.3594,2.3892 L 3.3497,2.3892 L 3.3497,2.492 z M 3.3684,2.4125 C 3.3681,2.4064 3.371,2.403 3.3746,2.403 C 3.3797,2.403 3.3805,2.4096 3.3805,2.423 L 3.3805,2.4285 C 3.3805,2.4429 3.3805,2.4504 3.3747,2.4504 C 3.3724,2.4504 3.3706,2.4487 3.3695,2.4475 L 3.3684,2.4462"
   class="ps019"
   id="path1558"
   style="fill:#fde783;fill-rule:nonzero;stroke:none" />

<path
   d="M 3.3897,2.4452 L 3.382,2.4452 L 3.382,2.4617 L 3.3897,2.4617 L 3.3897,2.4698 C 3.3897,2.4876 3.3967,2.4941 3.4091,2.4941 C 3.4128,2.4941 3.4155,2.4936 3.4186,2.4932 L 3.4186,2.4753 C 3.4175,2.4756 3.4161,2.4759 3.4151,2.4759 C 3.4103,2.4759 3.4084,2.474 3.4084,2.4696 L 3.4084,2.4617 L 3.4186,2.4617 L 3.4186,2.4452 L 3.4084,2.4452 L 3.4084,2.3892 L 3.3897,2.3892"
   class="ps020"
   id="path1560"
   style="fill:#fdeb9b;fill-rule:nonzero;stroke:none" />

<path
   d="M 3.4379,2.4347 C 3.4379,2.4376 3.4377,2.4411 3.4369,2.4438 C 3.436,2.4467 3.4345,2.4487 3.4315,2.4487 C 3.4253,2.4487 3.4246,2.4392 3.4246,2.4247 C 3.4246,2.4084 3.4266,2.403 3.4315,2.403 C 3.4381,2.403 3.4387,2.4114 3.4387,2.4169 L 3.4532,2.4143 C 3.4518,2.3967 3.4437,2.3875 3.4301,2.3875 C 3.4132,2.3875 3.4045,2.4059 3.4045,2.4239 C 3.4045,2.4437 3.4132,2.4634 3.4309,2.4634 C 3.4508,2.4634 3.4538,2.4419 3.4538,2.4347"
   class="ps021"
   id="path1562"
   style="fill:#fef0b3;fill-rule:nonzero;stroke:none" />

<path
   d="M 3.4458,2.4347 C 3.45,2.4347 3.4534,2.4304 3.4534,2.4252 C 3.4534,2.42 3.45,2.4158 3.4458,2.4158 C 3.4417,2.4158 3.4383,2.42 3.4383,2.4252 C 3.4383,2.4304 3.4417,2.4347 3.4458,2.4347"
   class="ps022"
   id="path1564"
   style="fill:#fef5cc;fill-rule:nonzero;stroke:none" />

<path
   d="M 3.3103,2.6105 L 3.329,2.6105 L 3.329,2.576 L 3.3292,2.576 C 3.3319,2.5795 3.3367,2.582 3.3406,2.582 C 3.3535,2.582 3.3604,2.5658 3.3604,2.5448 C 3.3604,2.5282 3.3549,2.5069 3.3392,2.5069 C 3.3319,2.5069 3.3272,2.5112 3.3235,2.5181 L 3.32,2.5077 L 3.3103,2.5077 L 3.3103,2.6105 z M 3.329,2.531 C 3.3287,2.5249 3.3316,2.5216 3.3351,2.5216 C 3.3403,2.5216 3.341,2.5281 3.341,2.5415 L 3.341,2.547 C 3.341,2.5615 3.341,2.569 3.3352,2.569 C 3.3329,2.569 3.3312,2.5672 3.3301,2.5661 L 3.329,2.5648"
   class="ps018"
   id="path1566"
   style="fill:#fde26c;fill-rule:nonzero;stroke:none" />

<path
   d="M 3.3497,2.6105 L 3.3684,2.6105 L 3.3684,2.576 L 3.3687,2.576 C 3.3713,2.5795 3.3762,2.582 3.38,2.582 C 3.3929,2.582 3.3999,2.5658 3.3999,2.5448 C 3.3999,2.5282 3.3943,2.5069 3.3786,2.5069 C 3.3713,2.5069 3.3666,2.5112 3.3629,2.5181 L 3.3594,2.5077 L 3.3497,2.5077 L 3.3497,2.6105 z M 3.3684,2.531 C 3.3681,2.5249 3.371,2.5216 3.3746,2.5216 C 3.3797,2.5216 3.3805,2.5281 3.3805,2.5415 L 3.3805,2.547 C 3.3805,2.5615 3.3805,2.569 3.3747,2.569 C 3.3724,2.569 3.3706,2.5672 3.3695,2.5661 L 3.3684,2.5648"
   class="ps019"
   id="path1568"
   style="fill:#fde783;fill-rule:nonzero;stroke:none" />

<path
   d="M 3.3897,2.5638 L 3.382,2.5638 L 3.382,2.5802 L 3.3897,2.5802 L 3.3897,2.5883 C 3.3897,2.6061 3.3967,2.6126 3.4091,2.6126 C 3.4128,2.6126 3.4155,2.6121 3.4186,2.6117 L 3.4186,2.5938 C 3.4175,2.5941 3.4161,2.5944 3.4151,2.5944 C 3.4103,2.5944 3.4084,2.5925 3.4084,2.5882 L 3.4084,2.5802 L 3.4186,2.5802 L 3.4186,2.5638 L 3.4084,2.5638 L 3.4084,2.5077 L 3.3897,2.5077"
   class="ps020"
   id="path1570"
   style="fill:#fdeb9b;fill-rule:nonzero;stroke:none" />

<path
   d="M 3.4379,2.5532 C 3.4379,2.5561 3.4377,2.5596 3.4369,2.5623 C 3.436,2.5652 3.4345,2.5672 3.4315,2.5672 C 3.4253,2.5672 3.4246,2.5577 3.4246,2.5433 C 3.4246,2.5269 3.4266,2.5216 3.4315,2.5216 C 3.4381,2.5216 3.4387,2.53 3.4387,2.5355 L 3.4532,2.5329 C 3.4518,2.5152 3.4437,2.506 3.4301,2.506 C 3.4132,2.506 3.4045,2.5245 3.4045,2.5424 C 3.4045,2.5622 3.4132,2.582 3.4309,2.582 C 3.4508,2.582 3.4538,2.5604 3.4538,2.5532"
   class="ps021"
   id="path1572"
   style="fill:#fef0b3;fill-rule:nonzero;stroke:none" />

<path
   d="M 3.4458,2.5532 C 3.45,2.5532 3.4534,2.5489 3.4534,2.5437 C 3.4534,2.5386 3.45,2.5343 3.4458,2.5343 C 3.4417,2.5343 3.4383,2.5386 3.4383,2.5437 C 3.4383,2.5489 3.4417,2.5532 3.4458,2.5532"
   class="ps022"
   id="path1574"
   style="fill:#fef5cc;fill-rule:nonzero;stroke:none" />

<path
   d="M 2.9764,2.7291 L 2.9951,2.7291 L 2.9951,2.6945 L 2.9953,2.6945 C 2.998,2.698 3.0029,2.7005 3.0067,2.7005 C 3.0196,2.7005 3.0266,2.6843 3.0266,2.6633 C 3.0266,2.6467 3.021,2.6254 3.0053,2.6254 C 2.998,2.6254 2.9933,2.6297 2.9896,2.6366 L 2.9861,2.6262 L 2.9764,2.6262 L 2.9764,2.7291 z M 2.9951,2.6495 C 2.9948,2.6434 2.9977,2.6401 3.0012,2.6401 C 3.0064,2.6401 3.0071,2.6466 3.0071,2.66 L 3.0071,2.6655 C 3.0071,2.68 3.0071,2.6875 3.0014,2.6875 C 2.9991,2.6875 2.9973,2.6857 2.9962,2.6846 L 2.9951,2.6833"
   class="ps018"
   id="path1576"
   style="fill:#fde26c;fill-rule:nonzero;stroke:none" />

<path
   d="M 3.0158,2.7291 L 3.0345,2.7291 L 3.0345,2.6945 L 3.0348,2.6945 C 3.0374,2.698 3.0423,2.7005 3.0461,2.7005 C 3.059,2.7005 3.066,2.6843 3.066,2.6633 C 3.066,2.6467 3.0604,2.6254 3.0447,2.6254 C 3.0374,2.6254 3.0327,2.6297 3.029,2.6366 L 3.0255,2.6262 L 3.0158,2.6262 L 3.0158,2.7291 z M 3.0345,2.6495 C 3.0342,2.6434 3.0371,2.6401 3.0407,2.6401 C 3.0459,2.6401 3.0466,2.6466 3.0466,2.66 L 3.0466,2.6655 C 3.0466,2.68 3.0466,2.6875 3.0408,2.6875 C 3.0385,2.6875 3.0367,2.6857 3.0356,2.6846 L 3.0345,2.6833"
   class="ps019"
   id="path1578"
   style="fill:#fde783;fill-rule:nonzero;stroke:none" />

<path
   d="M 3.0558,2.6823 L 3.0481,2.6823 L 3.0481,2.6987 L 3.0558,2.6987 L 3.0558,2.7068 C 3.0558,2.7246 3.0628,2.7311 3.0752,2.7311 C 3.0789,2.7311 3.0817,2.7307 3.0847,2.7302 L 3.0847,2.7123 C 3.0836,2.7126 3.0822,2.7129 3.0812,2.7129 C 3.0764,2.7129 3.0745,2.711 3.0745,2.7067 L 3.0745,2.6987 L 3.0847,2.6987 L 3.0847,2.6823 L 3.0745,2.6823 L 3.0745,2.6262 L 3.0558,2.6262"
   class="ps020"
   id="path1580"
   style="fill:#fdeb9b;fill-rule:nonzero;stroke:none" />

<path
   d="M 3.104,2.6717 C 3.104,2.6746 3.1038,2.6781 3.103,2.6808 C 3.1021,2.6837 3.1006,2.6857 3.0976,2.6857 C 3.0914,2.6857 3.0907,2.6762 3.0907,2.6618 C 3.0907,2.6454 3.0927,2.6401 3.0976,2.6401 C 3.1042,2.6401 3.1048,2.6485 3.1048,2.654 L 3.1193,2.6514 C 3.1179,2.6337 3.1098,2.6245 3.0962,2.6245 C 3.0793,2.6245 3.0706,2.643 3.0706,2.6609 C 3.0706,2.6807 3.0793,2.7005 3.097,2.7005 C 3.1169,2.7005 3.1199,2.679 3.1199,2.6717"
   class="ps021"
   id="path1582"
   style="fill:#fef0b3;fill-rule:nonzero;stroke:none" />

<path
   d="M 3.1119,2.6717 C 3.1161,2.6717 3.1195,2.6674 3.1195,2.6622 C 3.1195,2.6571 3.1161,2.6528 3.1119,2.6528 C 3.1078,2.6528 3.1044,2.6571 3.1044,2.6622 C 3.1044,2.6674 3.1078,2.6717 3.1119,2.6717"
   class="ps022"
   id="path1584"
   style="fill:#fef5cc;fill-rule:nonzero;stroke:none" />

<path
   d="M 2.81,2.7291 L 2.8287,2.7291 L 2.8287,2.6945 L 2.8289,2.6945 C 2.8316,2.698 2.8364,2.7005 2.8403,2.7005 C 2.8532,2.7005 2.8601,2.6843 2.8601,2.6633 C 2.8601,2.6467 2.8546,2.6254 2.8389,2.6254 C 2.8316,2.6254 2.8268,2.6297 2.8232,2.6366 L 2.8197,2.6262 L 2.81,2.6262 L 2.81,2.7291 z M 2.8287,2.6495 C 2.8283,2.6434 2.8312,2.6401 2.8348,2.6401 C 2.84,2.6401 2.8407,2.6466 2.8407,2.66 L 2.8407,2.6655 C 2.8407,2.68 2.8407,2.6875 2.8349,2.6875 C 2.8326,2.6875 2.8309,2.6857 2.8297,2.6846 L 2.8287,2.6833"
   class="ps018"
   id="path1586"
   style="fill:#fde26c;fill-rule:nonzero;stroke:none" />

<path
   d="M 2.8494,2.7291 L 2.8681,2.7291 L 2.8681,2.6945 L 2.8684,2.6945 C 2.871,2.698 2.8759,2.7005 2.8797,2.7005 C 2.8926,2.7005 2.8995,2.6843 2.8995,2.6633 C 2.8995,2.6467 2.894,2.6254 2.8783,2.6254 C 2.871,2.6254 2.8663,2.6297 2.8626,2.6366 L 2.8591,2.6262 L 2.8494,2.6262 L 2.8494,2.7291 z M 2.8681,2.6495 C 2.8678,2.6434 2.8707,2.6401 2.8742,2.6401 C 2.8794,2.6401 2.8801,2.6466 2.8801,2.66 L 2.8801,2.6655 C 2.8801,2.68 2.8801,2.6875 2.8744,2.6875 C 2.872,2.6875 2.8703,2.6857 2.8692,2.6846 L 2.8681,2.6833"
   class="ps019"
   id="path1588"
   style="fill:#fde783;fill-rule:nonzero;stroke:none" />

<path
   d="M 2.8893,2.6823 L 2.8817,2.6823 L 2.8817,2.6987 L 2.8893,2.6987 L 2.8893,2.7068 C 2.8893,2.7246 2.8964,2.7311 2.9088,2.7311 C 2.9124,2.7311 2.9152,2.7307 2.9182,2.7302 L 2.9182,2.7123 C 2.9172,2.7126 2.9158,2.7129 2.9148,2.7129 C 2.91,2.7129 2.9081,2.711 2.9081,2.7067 L 2.9081,2.6987 L 2.9182,2.6987 L 2.9182,2.6823 L 2.9081,2.6823 L 2.9081,2.6262 L 2.8893,2.6262"
   class="ps020"
   id="path1590"
   style="fill:#fdeb9b;fill-rule:nonzero;stroke:none" />

<path
   d="M 2.9375,2.6717 C 2.9375,2.6746 2.9374,2.6781 2.9366,2.6808 C 2.9357,2.6837 2.9342,2.6857 2.9312,2.6857 C 2.9249,2.6857 2.9242,2.6762 2.9242,2.6618 C 2.9242,2.6454 2.9263,2.6401 2.9312,2.6401 C 2.9378,2.6401 2.9383,2.6485 2.9383,2.654 L 2.9529,2.6514 C 2.9515,2.6337 2.9434,2.6245 2.9298,2.6245 C 2.9129,2.6245 2.9041,2.643 2.9041,2.6609 C 2.9041,2.6807 2.9129,2.7005 2.9306,2.7005 C 2.9505,2.7005 2.9535,2.679 2.9535,2.6717"
   class="ps021"
   id="path1592"
   style="fill:#fef0b3;fill-rule:nonzero;stroke:none" />

<path
   d="M 2.9455,2.6717 C 2.9497,2.6717 2.953,2.6674 2.953,2.6622 C 2.953,2.6571 2.9497,2.6528 2.9455,2.6528 C 2.9413,2.6528 2.938,2.6571 2.938,2.6622 C 2.938,2.6674 2.9413,2.6717 2.9455,2.6717"
   class="ps022"
   id="path1594"
   style="fill:#fef5cc;fill-rule:nonzero;stroke:none" />

<path
   d="M 2.6435,2.7291 L 2.6623,2.7291 L 2.6623,2.6945 L 2.6625,2.6945 C 2.6652,2.698 2.67,2.7005 2.6738,2.7005 C 2.6868,2.7005 2.6937,2.6843 2.6937,2.6633 C 2.6937,2.6467 2.6882,2.6254 2.6724,2.6254 C 2.6652,2.6254 2.6604,2.6297 2.6567,2.6366 L 2.6533,2.6262 L 2.6435,2.6262 L 2.6435,2.7291 z M 2.6623,2.6495 C 2.6619,2.6434 2.6648,2.6401 2.6684,2.6401 C 2.6736,2.6401 2.6743,2.6466 2.6743,2.66 L 2.6743,2.6655 C 2.6743,2.68 2.6743,2.6875 2.6685,2.6875 C 2.6662,2.6875 2.6645,2.6857 2.6633,2.6846 L 2.6623,2.6833"
   class="ps018"
   id="path1596"
   style="fill:#fde26c;fill-rule:nonzero;stroke:none" />

<path
   d="M 2.683,2.7291 L 2.7017,2.7291 L 2.7017,2.6945 L 2.7019,2.6945 C 2.7046,2.698 2.7094,2.7005 2.7133,2.7005 C 2.7262,2.7005 2.7331,2.6843 2.7331,2.6633 C 2.7331,2.6467 2.7276,2.6254 2.7119,2.6254 C 2.7046,2.6254 2.6998,2.6297 2.6961,2.6366 L 2.6927,2.6262 L 2.683,2.6262 L 2.683,2.7291 z M 2.7017,2.6495 C 2.7013,2.6434 2.7042,2.6401 2.7078,2.6401 C 2.713,2.6401 2.7137,2.6466 2.7137,2.66 L 2.7137,2.6655 C 2.7137,2.68 2.7137,2.6875 2.7079,2.6875 C 2.7056,2.6875 2.7039,2.6857 2.7027,2.6846 L 2.7017,2.6833"
   class="ps019"
   id="path1598"
   style="fill:#fde783;fill-rule:nonzero;stroke:none" />

<path
   d="M 2.7229,2.6823 L 2.7153,2.6823 L 2.7153,2.6987 L 2.7229,2.6987 L 2.7229,2.7068 C 2.7229,2.7246 2.73,2.7311 2.7423,2.7311 C 2.746,2.7311 2.7488,2.7307 2.7518,2.7302 L 2.7518,2.7123 C 2.7508,2.7126 2.7494,2.7129 2.7483,2.7129 C 2.7436,2.7129 2.7416,2.711 2.7416,2.7067 L 2.7416,2.6987 L 2.7518,2.6987 L 2.7518,2.6823 L 2.7416,2.6823 L 2.7416,2.6262 L 2.7229,2.6262"
   class="ps020"
   id="path1600"
   style="fill:#fdeb9b;fill-rule:nonzero;stroke:none" />

<path
   d="M 2.7711,2.6717 C 2.7711,2.6746 2.771,2.6781 2.7702,2.6808 C 2.7693,2.6837 2.7678,2.6857 2.7648,2.6857 C 2.7585,2.6857 2.7578,2.6762 2.7578,2.6618 C 2.7578,2.6454 2.7599,2.6401 2.7648,2.6401 C 2.7713,2.6401 2.7719,2.6485 2.7719,2.654 L 2.7865,2.6514 C 2.7851,2.6337 2.777,2.6245 2.7634,2.6245 C 2.7465,2.6245 2.7377,2.643 2.7377,2.6609 C 2.7377,2.6807 2.7465,2.7005 2.7642,2.7005 C 2.7841,2.7005 2.7871,2.679 2.7871,2.6717"
   class="ps021"
   id="path1602"
   style="fill:#fef0b3;fill-rule:nonzero;stroke:none" />

<path
   d="M 2.7791,2.6717 C 2.7832,2.6717 2.7866,2.6674 2.7866,2.6622 C 2.7866,2.6571 2.7832,2.6528 2.7791,2.6528 C 2.7749,2.6528 2.7715,2.6571 2.7715,2.6622 C 2.7715,2.6674 2.7749,2.6717 2.7791,2.6717"
   class="ps022"
   id="path1604"
   style="fill:#fef5cc;fill-rule:nonzero;stroke:none" />

<path
   d="M 3.1428,2.7291 L 3.1615,2.7291 L 3.1615,2.6945 L 3.1618,2.6945 C 3.1644,2.698 3.1693,2.7005 3.1731,2.7005 C 3.186,2.7005 3.193,2.6843 3.193,2.6633 C 3.193,2.6467 3.1874,2.6254 3.1717,2.6254 C 3.1644,2.6254 3.1597,2.6297 3.156,2.6366 L 3.1525,2.6262 L 3.1428,2.6262 L 3.1428,2.7291 z M 3.1615,2.6495 C 3.1612,2.6434 3.1641,2.6401 3.1677,2.6401 C 3.1729,2.6401 3.1736,2.6466 3.1736,2.66 L 3.1736,2.6655 C 3.1736,2.68 3.1736,2.6875 3.1678,2.6875 C 3.1655,2.6875 3.1637,2.6857 3.1626,2.6846 L 3.1615,2.6833"
   class="ps018"
   id="path1606"
   style="fill:#fde26c;fill-rule:nonzero;stroke:none" />

<path
   d="M 3.1822,2.7291 L 3.201,2.7291 L 3.201,2.6945 L 3.2012,2.6945 C 3.2038,2.698 3.2087,2.7005 3.2125,2.7005 C 3.2255,2.7005 3.2324,2.6843 3.2324,2.6633 C 3.2324,2.6467 3.2269,2.6254 3.2111,2.6254 C 3.2038,2.6254 3.1991,2.6297 3.1954,2.6366 L 3.192,2.6262 L 3.1822,2.6262 L 3.1822,2.7291 z M 3.201,2.6495 C 3.2006,2.6434 3.2035,2.6401 3.2071,2.6401 C 3.2123,2.6401 3.213,2.6466 3.213,2.66 L 3.213,2.6655 C 3.213,2.68 3.213,2.6875 3.2072,2.6875 C 3.2049,2.6875 3.2032,2.6857 3.202,2.6846 L 3.201,2.6833"
   class="ps019"
   id="path1608"
   style="fill:#fde783;fill-rule:nonzero;stroke:none" />

<path
   d="M 3.2222,2.6823 L 3.2146,2.6823 L 3.2146,2.6987 L 3.2222,2.6987 L 3.2222,2.7068 C 3.2222,2.7246 3.2292,2.7311 3.2416,2.7311 C 3.2453,2.7311 3.2481,2.7307 3.2511,2.7302 L 3.2511,2.7123 C 3.25,2.7126 3.2487,2.7129 3.2476,2.7129 C 3.2429,2.7129 3.2409,2.711 3.2409,2.7067 L 3.2409,2.6987 L 3.2511,2.6987 L 3.2511,2.6823 L 3.2409,2.6823 L 3.2409,2.6262 L 3.2222,2.6262"
   class="ps020"
   id="path1610"
   style="fill:#fdeb9b;fill-rule:nonzero;stroke:none" />

<path
   d="M 3.2704,2.6717 C 3.2704,2.6746 3.2703,2.6781 3.2695,2.6808 C 3.2685,2.6837 3.267,2.6857 3.264,2.6857 C 3.2578,2.6857 3.2571,2.6762 3.2571,2.6618 C 3.2571,2.6454 3.2592,2.6401 3.264,2.6401 C 3.2706,2.6401 3.2712,2.6485 3.2712,2.654 L 3.2858,2.6514 C 3.2844,2.6337 3.2763,2.6245 3.2627,2.6245 C 3.2458,2.6245 3.237,2.643 3.237,2.6609 C 3.237,2.6807 3.2458,2.7005 3.2635,2.7005 C 3.2833,2.7005 3.2863,2.679 3.2863,2.6717"
   class="ps021"
   id="path1612"
   style="fill:#fef0b3;fill-rule:nonzero;stroke:none" />

<path
   d="M 3.2784,2.6717 C 3.2825,2.6717 3.2859,2.6674 3.2859,2.6622 C 3.2859,2.6571 3.2825,2.6528 3.2784,2.6528 C 3.2742,2.6528 3.2708,2.6571 3.2708,2.6622 C 3.2708,2.6674 3.2742,2.6717 3.2784,2.6717"
   class="ps022"
   id="path1614"
   style="fill:#fef5cc;fill-rule:nonzero;stroke:none" />

<path
   d="M 3.3103,2.7291 L 3.329,2.7291 L 3.329,2.6945 L 3.3292,2.6945 C 3.3319,2.698 3.3367,2.7005 3.3406,2.7005 C 3.3535,2.7005 3.3604,2.6843 3.3604,2.6633 C 3.3604,2.6467 3.3549,2.6254 3.3392,2.6254 C 3.3319,2.6254 3.3272,2.6297 3.3235,2.6366 L 3.32,2.6262 L 3.3103,2.6262 L 3.3103,2.7291 z M 3.329,2.6495 C 3.3287,2.6434 3.3316,2.6401 3.3351,2.6401 C 3.3403,2.6401 3.341,2.6466 3.341,2.66 L 3.341,2.6655 C 3.341,2.68 3.341,2.6875 3.3352,2.6875 C 3.3329,2.6875 3.3312,2.6857 3.3301,2.6846 L 3.329,2.6833"
   class="ps018"
   id="path1616"
   style="fill:#fde26c;fill-rule:nonzero;stroke:none" />

<path
   d="M 3.3497,2.7291 L 3.3684,2.7291 L 3.3684,2.6945 L 3.3687,2.6945 C 3.3713,2.698 3.3762,2.7005 3.38,2.7005 C 3.3929,2.7005 3.3999,2.6843 3.3999,2.6633 C 3.3999,2.6467 3.3943,2.6254 3.3786,2.6254 C 3.3713,2.6254 3.3666,2.6297 3.3629,2.6366 L 3.3594,2.6262 L 3.3497,2.6262 L 3.3497,2.7291 z M 3.3684,2.6495 C 3.3681,2.6434 3.371,2.6401 3.3746,2.6401 C 3.3797,2.6401 3.3805,2.6466 3.3805,2.66 L 3.3805,2.6655 C 3.3805,2.68 3.3805,2.6875 3.3747,2.6875 C 3.3724,2.6875 3.3706,2.6857 3.3695,2.6846 L 3.3684,2.6833"
   class="ps019"
   id="path1618"
   style="fill:#fde783;fill-rule:nonzero;stroke:none" />

<path
   d="M 3.3897,2.6823 L 3.382,2.6823 L 3.382,2.6987 L 3.3897,2.6987 L 3.3897,2.7068 C 3.3897,2.7246 3.3967,2.7311 3.4091,2.7311 C 3.4128,2.7311 3.4155,2.7307 3.4186,2.7302 L 3.4186,2.7123 C 3.4175,2.7126 3.4161,2.7129 3.4151,2.7129 C 3.4103,2.7129 3.4084,2.711 3.4084,2.7067 L 3.4084,2.6987 L 3.4186,2.6987 L 3.4186,2.6823 L 3.4084,2.6823 L 3.4084,2.6262 L 3.3897,2.6262"
   class="ps020"
   id="path1620"
   style="fill:#fdeb9b;fill-rule:nonzero;stroke:none" />

<path
   d="M 3.4379,2.6717 C 3.4379,2.6746 3.4377,2.6781 3.4369,2.6808 C 3.436,2.6837 3.4345,2.6857 3.4315,2.6857 C 3.4253,2.6857 3.4246,2.6762 3.4246,2.6618 C 3.4246,2.6454 3.4266,2.6401 3.4315,2.6401 C 3.4381,2.6401 3.4387,2.6485 3.4387,2.654 L 3.4532,2.6514 C 3.4518,2.6337 3.4437,2.6245 3.4301,2.6245 C 3.4132,2.6245 3.4045,2.643 3.4045,2.6609 C 3.4045,2.6807 3.4132,2.7005 3.4309,2.7005 C 3.4508,2.7005 3.4538,2.679 3.4538,2.6717"
   class="ps021"
   id="path1622"
   style="fill:#fef0b3;fill-rule:nonzero;stroke:none" />

<path
   d="M 3.4458,2.6717 C 3.45,2.6717 3.4534,2.6674 3.4534,2.6622 C 3.4534,2.6571 3.45,2.6528 3.4458,2.6528 C 3.4417,2.6528 3.4383,2.6571 3.4383,2.6622 C 3.4383,2.6674 3.4417,2.6717 3.4458,2.6717"
   class="ps022"
   id="path1624"
   style="fill:#fef5cc;fill-rule:nonzero;stroke:none" />

<path
   d="M 2.9764,2.8476 L 2.9951,2.8476 L 2.9951,2.8131 L 2.9953,2.8131 C 2.998,2.8165 3.0029,2.819 3.0067,2.819 C 3.0196,2.819 3.0266,2.8028 3.0266,2.7819 C 3.0266,2.7653 3.021,2.7439 3.0053,2.7439 C 2.998,2.7439 2.9933,2.7482 2.9896,2.7552 L 2.9861,2.7447 L 2.9764,2.7447 L 2.9764,2.8476 z M 2.9951,2.768 C 2.9948,2.7619 2.9977,2.7586 3.0012,2.7586 C 3.0064,2.7586 3.0071,2.7651 3.0071,2.7786 L 3.0071,2.7841 C 3.0071,2.7985 3.0071,2.806 3.0014,2.806 C 2.9991,2.806 2.9973,2.8043 2.9962,2.8031 L 2.9951,2.8018"
   class="ps018"
   id="path1626"
   style="fill:#fde26c;fill-rule:nonzero;stroke:none" />

<path
   d="M 3.0158,2.8476 L 3.0345,2.8476 L 3.0345,2.8131 L 3.0348,2.8131 C 3.0374,2.8165 3.0423,2.819 3.0461,2.819 C 3.059,2.819 3.066,2.8028 3.066,2.7819 C 3.066,2.7653 3.0604,2.7439 3.0447,2.7439 C 3.0374,2.7439 3.0327,2.7482 3.029,2.7552 L 3.0255,2.7447 L 3.0158,2.7447 L 3.0158,2.8476 z M 3.0345,2.768 C 3.0342,2.7619 3.0371,2.7586 3.0407,2.7586 C 3.0459,2.7586 3.0466,2.7651 3.0466,2.7786 L 3.0466,2.7841 C 3.0466,2.7985 3.0466,2.806 3.0408,2.806 C 3.0385,2.806 3.0367,2.8043 3.0356,2.8031 L 3.0345,2.8018"
   class="ps019"
   id="path1628"
   style="fill:#fde783;fill-rule:nonzero;stroke:none" />

<path
   d="M 3.0558,2.8008 L 3.0481,2.8008 L 3.0481,2.8173 L 3.0558,2.8173 L 3.0558,2.8254 C 3.0558,2.8431 3.0628,2.8496 3.0752,2.8496 C 3.0789,2.8496 3.0817,2.8492 3.0847,2.8488 L 3.0847,2.8309 C 3.0836,2.8311 3.0822,2.8314 3.0812,2.8314 C 3.0764,2.8314 3.0745,2.8295 3.0745,2.8252 L 3.0745,2.8173 L 3.0847,2.8173 L 3.0847,2.8008 L 3.0745,2.8008 L 3.0745,2.7447 L 3.0558,2.7447"
   class="ps020"
   id="path1630"
   style="fill:#fdeb9b;fill-rule:nonzero;stroke:none" />

<path
   d="M 3.104,2.7903 C 3.104,2.7931 3.1038,2.7966 3.103,2.7994 C 3.1021,2.8022 3.1006,2.8043 3.0976,2.8043 C 3.0914,2.8043 3.0907,2.7947 3.0907,2.7803 C 3.0907,2.764 3.0927,2.7586 3.0976,2.7586 C 3.1042,2.7586 3.1048,2.767 3.1048,2.7725 L 3.1193,2.7699 C 3.1179,2.7523 3.1098,2.743 3.0962,2.743 C 3.0793,2.743 3.0706,2.7615 3.0706,2.7794 C 3.0706,2.7992 3.0793,2.819 3.097,2.819 C 3.1169,2.819 3.1199,2.7975 3.1199,2.7903"
   class="ps021"
   id="path1632"
   style="fill:#fef0b3;fill-rule:nonzero;stroke:none" />

<path
   d="M 3.1119,2.7902 C 3.1161,2.7902 3.1195,2.786 3.1195,2.7808 C 3.1195,2.7756 3.1161,2.7713 3.1119,2.7713 C 3.1078,2.7713 3.1044,2.7756 3.1044,2.7808 C 3.1044,2.786 3.1078,2.7902 3.1119,2.7902"
   class="ps022"
   id="path1634"
   style="fill:#fef5cc;fill-rule:nonzero;stroke:none" />

<path
   d="M 2.81,2.8476 L 2.8287,2.8476 L 2.8287,2.8131 L 2.8289,2.8131 C 2.8316,2.8165 2.8364,2.819 2.8403,2.819 C 2.8532,2.819 2.8601,2.8028 2.8601,2.7819 C 2.8601,2.7653 2.8546,2.7439 2.8389,2.7439 C 2.8316,2.7439 2.8268,2.7482 2.8232,2.7552 L 2.8197,2.7447 L 2.81,2.7447 L 2.81,2.8476 z M 2.8287,2.768 C 2.8283,2.7619 2.8312,2.7586 2.8348,2.7586 C 2.84,2.7586 2.8407,2.7651 2.8407,2.7786 L 2.8407,2.7841 C 2.8407,2.7985 2.8407,2.806 2.8349,2.806 C 2.8326,2.806 2.8309,2.8043 2.8297,2.8031 L 2.8287,2.8018"
   class="ps018"
   id="path1636"
   style="fill:#fde26c;fill-rule:nonzero;stroke:none" />

<path
   d="M 2.8494,2.8476 L 2.8681,2.8476 L 2.8681,2.8131 L 2.8684,2.8131 C 2.871,2.8165 2.8759,2.819 2.8797,2.819 C 2.8926,2.819 2.8995,2.8028 2.8995,2.7819 C 2.8995,2.7653 2.894,2.7439 2.8783,2.7439 C 2.871,2.7439 2.8663,2.7482 2.8626,2.7552 L 2.8591,2.7447 L 2.8494,2.7447 L 2.8494,2.8476 z M 2.8681,2.768 C 2.8678,2.7619 2.8707,2.7586 2.8742,2.7586 C 2.8794,2.7586 2.8801,2.7651 2.8801,2.7786 L 2.8801,2.7841 C 2.8801,2.7985 2.8801,2.806 2.8744,2.806 C 2.872,2.806 2.8703,2.8043 2.8692,2.8031 L 2.8681,2.8018"
   class="ps019"
   id="path1638"
   style="fill:#fde783;fill-rule:nonzero;stroke:none" />

<path
   d="M 2.8893,2.8008 L 2.8817,2.8008 L 2.8817,2.8173 L 2.8893,2.8173 L 2.8893,2.8254 C 2.8893,2.8431 2.8964,2.8496 2.9088,2.8496 C 2.9124,2.8496 2.9152,2.8492 2.9182,2.8488 L 2.9182,2.8309 C 2.9172,2.8311 2.9158,2.8314 2.9148,2.8314 C 2.91,2.8314 2.9081,2.8295 2.9081,2.8252 L 2.9081,2.8173 L 2.9182,2.8173 L 2.9182,2.8008 L 2.9081,2.8008 L 2.9081,2.7447 L 2.8893,2.7447"
   class="ps020"
   id="path1640"
   style="fill:#fdeb9b;fill-rule:nonzero;stroke:none" />

<path
   d="M 2.9375,2.7903 C 2.9375,2.7931 2.9374,2.7966 2.9366,2.7994 C 2.9357,2.8022 2.9342,2.8043 2.9312,2.8043 C 2.9249,2.8043 2.9242,2.7947 2.9242,2.7803 C 2.9242,2.764 2.9263,2.7586 2.9312,2.7586 C 2.9378,2.7586 2.9383,2.767 2.9383,2.7725 L 2.9529,2.7699 C 2.9515,2.7523 2.9434,2.743 2.9298,2.743 C 2.9129,2.743 2.9041,2.7615 2.9041,2.7794 C 2.9041,2.7992 2.9129,2.819 2.9306,2.819 C 2.9505,2.819 2.9535,2.7975 2.9535,2.7903"
   class="ps021"
   id="path1642"
   style="fill:#fef0b3;fill-rule:nonzero;stroke:none" />

<path
   d="M 2.9455,2.7902 C 2.9497,2.7902 2.953,2.786 2.953,2.7808 C 2.953,2.7756 2.9497,2.7713 2.9455,2.7713 C 2.9413,2.7713 2.938,2.7756 2.938,2.7808 C 2.938,2.786 2.9413,2.7902 2.9455,2.7902"
   class="ps022"
   id="path1644"
   style="fill:#fef5cc;fill-rule:nonzero;stroke:none" />

<path
   d="M 2.6435,2.8476 L 2.6623,2.8476 L 2.6623,2.8131 L 2.6625,2.8131 C 2.6652,2.8165 2.67,2.819 2.6738,2.819 C 2.6868,2.819 2.6937,2.8028 2.6937,2.7819 C 2.6937,2.7653 2.6882,2.7439 2.6724,2.7439 C 2.6652,2.7439 2.6604,2.7482 2.6567,2.7552 L 2.6533,2.7447 L 2.6435,2.7447 L 2.6435,2.8476 z M 2.6623,2.768 C 2.6619,2.7619 2.6648,2.7586 2.6684,2.7586 C 2.6736,2.7586 2.6743,2.7651 2.6743,2.7786 L 2.6743,2.7841 C 2.6743,2.7985 2.6743,2.806 2.6685,2.806 C 2.6662,2.806 2.6645,2.8043 2.6633,2.8031 L 2.6623,2.8018"
   class="ps018"
   id="path1646"
   style="fill:#fde26c;fill-rule:nonzero;stroke:none" />

<path
   d="M 2.683,2.8476 L 2.7017,2.8476 L 2.7017,2.8131 L 2.7019,2.8131 C 2.7046,2.8165 2.7094,2.819 2.7133,2.819 C 2.7262,2.819 2.7331,2.8028 2.7331,2.7819 C 2.7331,2.7653 2.7276,2.7439 2.7119,2.7439 C 2.7046,2.7439 2.6998,2.7482 2.6961,2.7552 L 2.6927,2.7447 L 2.683,2.7447 L 2.683,2.8476 z M 2.7017,2.768 C 2.7013,2.7619 2.7042,2.7586 2.7078,2.7586 C 2.713,2.7586 2.7137,2.7651 2.7137,2.7786 L 2.7137,2.7841 C 2.7137,2.7985 2.7137,2.806 2.7079,2.806 C 2.7056,2.806 2.7039,2.8043 2.7027,2.8031 L 2.7017,2.8018"
   class="ps019"
   id="path1648"
   style="fill:#fde783;fill-rule:nonzero;stroke:none" />

<path
   d="M 2.7229,2.8008 L 2.7153,2.8008 L 2.7153,2.8173 L 2.7229,2.8173 L 2.7229,2.8254 C 2.7229,2.8431 2.73,2.8496 2.7423,2.8496 C 2.746,2.8496 2.7488,2.8492 2.7518,2.8488 L 2.7518,2.8309 C 2.7508,2.8311 2.7494,2.8314 2.7483,2.8314 C 2.7436,2.8314 2.7416,2.8295 2.7416,2.8252 L 2.7416,2.8173 L 2.7518,2.8173 L 2.7518,2.8008 L 2.7416,2.8008 L 2.7416,2.7447 L 2.7229,2.7447"
   class="ps020"
   id="path1650"
   style="fill:#fdeb9b;fill-rule:nonzero;stroke:none" />

<path
   d="M 2.7711,2.7903 C 2.7711,2.7931 2.771,2.7966 2.7702,2.7994 C 2.7693,2.8022 2.7678,2.8043 2.7648,2.8043 C 2.7585,2.8043 2.7578,2.7947 2.7578,2.7803 C 2.7578,2.764 2.7599,2.7586 2.7648,2.7586 C 2.7713,2.7586 2.7719,2.767 2.7719,2.7725 L 2.7865,2.7699 C 2.7851,2.7523 2.777,2.743 2.7634,2.743 C 2.7465,2.743 2.7377,2.7615 2.7377,2.7794 C 2.7377,2.7992 2.7465,2.819 2.7642,2.819 C 2.7841,2.819 2.7871,2.7975 2.7871,2.7903"
   class="ps021"
   id="path1652"
   style="fill:#fef0b3;fill-rule:nonzero;stroke:none" />

<path
   d="M 2.7791,2.7902 C 2.7832,2.7902 2.7866,2.786 2.7866,2.7808 C 2.7866,2.7756 2.7832,2.7713 2.7791,2.7713 C 2.7749,2.7713 2.7715,2.7756 2.7715,2.7808 C 2.7715,2.786 2.7749,2.7902 2.7791,2.7902"
   class="ps022"
   id="path1654"
   style="fill:#fef5cc;fill-rule:nonzero;stroke:none" />

<path
   d="M 3.1428,2.8476 L 3.1615,2.8476 L 3.1615,2.8131 L 3.1618,2.8131 C 3.1644,2.8165 3.1693,2.819 3.1731,2.819 C 3.186,2.819 3.193,2.8028 3.193,2.7819 C 3.193,2.7653 3.1874,2.7439 3.1717,2.7439 C 3.1644,2.7439 3.1597,2.7482 3.156,2.7552 L 3.1525,2.7447 L 3.1428,2.7447 L 3.1428,2.8476 z M 3.1615,2.768 C 3.1612,2.7619 3.1641,2.7586 3.1677,2.7586 C 3.1729,2.7586 3.1736,2.7651 3.1736,2.7786 L 3.1736,2.7841 C 3.1736,2.7985 3.1736,2.806 3.1678,2.806 C 3.1655,2.806 3.1637,2.8043 3.1626,2.8031 L 3.1615,2.8018"
   class="ps018"
   id="path1656"
   style="fill:#fde26c;fill-rule:nonzero;stroke:none" />

<path
   d="M 3.1822,2.8476 L 3.201,2.8476 L 3.201,2.8131 L 3.2012,2.8131 C 3.2038,2.8165 3.2087,2.819 3.2125,2.819 C 3.2255,2.819 3.2324,2.8028 3.2324,2.7819 C 3.2324,2.7653 3.2269,2.7439 3.2111,2.7439 C 3.2038,2.7439 3.1991,2.7482 3.1954,2.7552 L 3.192,2.7447 L 3.1822,2.7447 L 3.1822,2.8476 z M 3.201,2.768 C 3.2006,2.7619 3.2035,2.7586 3.2071,2.7586 C 3.2123,2.7586 3.213,2.7651 3.213,2.7786 L 3.213,2.7841 C 3.213,2.7985 3.213,2.806 3.2072,2.806 C 3.2049,2.806 3.2032,2.8043 3.202,2.8031 L 3.201,2.8018"
   class="ps019"
   id="path1658"
   style="fill:#fde783;fill-rule:nonzero;stroke:none" />

<path
   d="M 3.2222,2.8008 L 3.2146,2.8008 L 3.2146,2.8173 L 3.2222,2.8173 L 3.2222,2.8254 C 3.2222,2.8431 3.2292,2.8496 3.2416,2.8496 C 3.2453,2.8496 3.2481,2.8492 3.2511,2.8488 L 3.2511,2.8309 C 3.25,2.8311 3.2487,2.8314 3.2476,2.8314 C 3.2429,2.8314 3.2409,2.8295 3.2409,2.8252 L 3.2409,2.8173 L 3.2511,2.8173 L 3.2511,2.8008 L 3.2409,2.8008 L 3.2409,2.7447 L 3.2222,2.7447"
   class="ps020"
   id="path1660"
   style="fill:#fdeb9b;fill-rule:nonzero;stroke:none" />

<path
   d="M 3.2704,2.7903 C 3.2704,2.7931 3.2703,2.7966 3.2695,2.7994 C 3.2685,2.8022 3.267,2.8043 3.264,2.8043 C 3.2578,2.8043 3.2571,2.7947 3.2571,2.7803 C 3.2571,2.764 3.2592,2.7586 3.264,2.7586 C 3.2706,2.7586 3.2712,2.767 3.2712,2.7725 L 3.2858,2.7699 C 3.2844,2.7523 3.2763,2.743 3.2627,2.743 C 3.2458,2.743 3.237,2.7615 3.237,2.7794 C 3.237,2.7992 3.2458,2.819 3.2635,2.819 C 3.2833,2.819 3.2863,2.7975 3.2863,2.7903"
   class="ps021"
   id="path1662"
   style="fill:#fef0b3;fill-rule:nonzero;stroke:none" />

<path
   d="M 3.2784,2.7902 C 3.2825,2.7902 3.2859,2.786 3.2859,2.7808 C 3.2859,2.7756 3.2825,2.7713 3.2784,2.7713 C 3.2742,2.7713 3.2708,2.7756 3.2708,2.7808 C 3.2708,2.786 3.2742,2.7902 3.2784,2.7902"
   class="ps022"
   id="path1664"
   style="fill:#fef5cc;fill-rule:nonzero;stroke:none" />

<path
   d="M 3.3103,2.8476 L 3.329,2.8476 L 3.329,2.8131 L 3.3292,2.8131 C 3.3319,2.8165 3.3367,2.819 3.3406,2.819 C 3.3535,2.819 3.3604,2.8028 3.3604,2.7819 C 3.3604,2.7653 3.3549,2.7439 3.3392,2.7439 C 3.3319,2.7439 3.3272,2.7482 3.3235,2.7552 L 3.32,2.7447 L 3.3103,2.7447 L 3.3103,2.8476 z M 3.329,2.768 C 3.3287,2.7619 3.3316,2.7586 3.3351,2.7586 C 3.3403,2.7586 3.341,2.7651 3.341,2.7786 L 3.341,2.7841 C 3.341,2.7985 3.341,2.806 3.3352,2.806 C 3.3329,2.806 3.3312,2.8043 3.3301,2.8031 L 3.329,2.8018"
   class="ps018"
   id="path1666"
   style="fill:#fde26c;fill-rule:nonzero;stroke:none" />

<path
   d="M 3.3497,2.8476 L 3.3684,2.8476 L 3.3684,2.8131 L 3.3687,2.8131 C 3.3713,2.8165 3.3762,2.819 3.38,2.819 C 3.3929,2.819 3.3999,2.8028 3.3999,2.7819 C 3.3999,2.7653 3.3943,2.7439 3.3786,2.7439 C 3.3713,2.7439 3.3666,2.7482 3.3629,2.7552 L 3.3594,2.7447 L 3.3497,2.7447 L 3.3497,2.8476 z M 3.3684,2.768 C 3.3681,2.7619 3.371,2.7586 3.3746,2.7586 C 3.3797,2.7586 3.3805,2.7651 3.3805,2.7786 L 3.3805,2.7841 C 3.3805,2.7985 3.3805,2.806 3.3747,2.806 C 3.3724,2.806 3.3706,2.8043 3.3695,2.8031 L 3.3684,2.8018"
   class="ps019"
   id="path1668"
   style="fill:#fde783;fill-rule:nonzero;stroke:none" />

<path
   d="M 3.3897,2.8008 L 3.382,2.8008 L 3.382,2.8173 L 3.3897,2.8173 L 3.3897,2.8254 C 3.3897,2.8431 3.3967,2.8496 3.4091,2.8496 C 3.4128,2.8496 3.4155,2.8492 3.4186,2.8488 L 3.4186,2.8309 C 3.4175,2.8311 3.4161,2.8314 3.4151,2.8314 C 3.4103,2.8314 3.4084,2.8295 3.4084,2.8252 L 3.4084,2.8173 L 3.4186,2.8173 L 3.4186,2.8008 L 3.4084,2.8008 L 3.4084,2.7447 L 3.3897,2.7447"
   class="ps020"
   id="path1670"
   style="fill:#fdeb9b;fill-rule:nonzero;stroke:none" />

<path
   d="M 3.4379,2.7903 C 3.4379,2.7931 3.4377,2.7966 3.4369,2.7994 C 3.436,2.8022 3.4345,2.8043 3.4315,2.8043 C 3.4253,2.8043 3.4246,2.7947 3.4246,2.7803 C 3.4246,2.764 3.4266,2.7586 3.4315,2.7586 C 3.4381,2.7586 3.4387,2.767 3.4387,2.7725 L 3.4532,2.7699 C 3.4518,2.7523 3.4437,2.743 3.4301,2.743 C 3.4132,2.743 3.4045,2.7615 3.4045,2.7794 C 3.4045,2.7992 3.4132,2.819 3.4309,2.819 C 3.4508,2.819 3.4538,2.7975 3.4538,2.7903"
   class="ps021"
   id="path1672"
   style="fill:#fef0b3;fill-rule:nonzero;stroke:none" />

<path
   d="M 3.4458,2.7902 C 3.45,2.7902 3.4534,2.786 3.4534,2.7808 C 3.4534,2.7756 3.45,2.7713 3.4458,2.7713 C 3.4417,2.7713 3.4383,2.7756 3.4383,2.7808 C 3.4383,2.786 3.4417,2.7902 3.4458,2.7902"
   class="ps022"
   id="path1674"
   style="fill:#fef5cc;fill-rule:nonzero;stroke:none" />

<path
   d="M 2.9764,2.9661 L 2.9951,2.9661 L 2.9951,2.9316 L 2.9953,2.9316 C 2.998,2.9351 3.0029,2.9375 3.0067,2.9375 C 3.0196,2.9375 3.0266,2.9214 3.0266,2.9004 C 3.0266,2.8838 3.021,2.8624 3.0053,2.8624 C 2.998,2.8624 2.9933,2.8667 2.9896,2.8737 L 2.9861,2.8633 L 2.9764,2.8633 L 2.9764,2.9661 z M 2.9951,2.8865 C 2.9948,2.8805 2.9977,2.8771 3.0012,2.8771 C 3.0064,2.8771 3.0071,2.8836 3.0071,2.8971 L 3.0071,2.9026 C 3.0071,2.917 3.0071,2.9245 3.0014,2.9245 C 2.9991,2.9245 2.9973,2.9228 2.9962,2.9216 L 2.9951,2.9203"
   class="ps018"
   id="path1676"
   style="fill:#fde26c;fill-rule:nonzero;stroke:none" />

<path
   d="M 3.0158,2.9661 L 3.0345,2.9661 L 3.0345,2.9316 L 3.0348,2.9316 C 3.0374,2.9351 3.0423,2.9375 3.0461,2.9375 C 3.059,2.9375 3.066,2.9214 3.066,2.9004 C 3.066,2.8838 3.0604,2.8624 3.0447,2.8624 C 3.0374,2.8624 3.0327,2.8667 3.029,2.8737 L 3.0255,2.8633 L 3.0158,2.8633 L 3.0158,2.9661 z M 3.0345,2.8865 C 3.0342,2.8805 3.0371,2.8771 3.0407,2.8771 C 3.0459,2.8771 3.0466,2.8836 3.0466,2.8971 L 3.0466,2.9026 C 3.0466,2.917 3.0466,2.9245 3.0408,2.9245 C 3.0385,2.9245 3.0367,2.9228 3.0356,2.9216 L 3.0345,2.9203"
   class="ps019"
   id="path1678"
   style="fill:#fde783;fill-rule:nonzero;stroke:none" />

<path
   d="M 3.0558,2.9193 L 3.0481,2.9193 L 3.0481,2.9358 L 3.0558,2.9358 L 3.0558,2.9439 C 3.0558,2.9617 3.0628,2.9682 3.0752,2.9682 C 3.0789,2.9682 3.0817,2.9677 3.0847,2.9673 L 3.0847,2.9494 C 3.0836,2.9497 3.0822,2.95 3.0812,2.95 C 3.0764,2.95 3.0745,2.9481 3.0745,2.9437 L 3.0745,2.9358 L 3.0847,2.9358 L 3.0847,2.9193 L 3.0745,2.9193 L 3.0745,2.8633 L 3.0558,2.8633"
   class="ps020"
   id="path1680"
   style="fill:#fdeb9b;fill-rule:nonzero;stroke:none" />

<path
   d="M 3.104,2.9088 C 3.104,2.9117 3.1038,2.9151 3.103,2.9179 C 3.1021,2.9208 3.1006,2.9228 3.0976,2.9228 C 3.0914,2.9228 3.0907,2.9133 3.0907,2.8988 C 3.0907,2.8825 3.0927,2.8771 3.0976,2.8771 C 3.1042,2.8771 3.1048,2.8855 3.1048,2.891 L 3.1193,2.8884 C 3.1179,2.8708 3.1098,2.8615 3.0962,2.8615 C 3.0793,2.8615 3.0706,2.88 3.0706,2.898 C 3.0706,2.9177 3.0793,2.9375 3.097,2.9375 C 3.1169,2.9375 3.1199,2.916 3.1199,2.9088"
   class="ps021"
   id="path1682"
   style="fill:#fef0b3;fill-rule:nonzero;stroke:none" />

<path
   d="M 3.1119,2.9087 C 3.1161,2.9087 3.1195,2.9045 3.1195,2.8993 C 3.1195,2.8941 3.1161,2.8899 3.1119,2.8899 C 3.1078,2.8899 3.1044,2.8941 3.1044,2.8993 C 3.1044,2.9045 3.1078,2.9087 3.1119,2.9087"
   class="ps022"
   id="path1684"
   style="fill:#fef5cc;fill-rule:nonzero;stroke:none" />

<path
   d="M 2.81,2.9661 L 2.8287,2.9661 L 2.8287,2.9316 L 2.8289,2.9316 C 2.8316,2.9351 2.8364,2.9375 2.8403,2.9375 C 2.8532,2.9375 2.8601,2.9214 2.8601,2.9004 C 2.8601,2.8838 2.8546,2.8624 2.8389,2.8624 C 2.8316,2.8624 2.8268,2.8667 2.8232,2.8737 L 2.8197,2.8633 L 2.81,2.8633 L 2.81,2.9661 z M 2.8287,2.8865 C 2.8283,2.8805 2.8312,2.8771 2.8348,2.8771 C 2.84,2.8771 2.8407,2.8836 2.8407,2.8971 L 2.8407,2.9026 C 2.8407,2.917 2.8407,2.9245 2.8349,2.9245 C 2.8326,2.9245 2.8309,2.9228 2.8297,2.9216 L 2.8287,2.9203"
   class="ps018"
   id="path1686"
   style="fill:#fde26c;fill-rule:nonzero;stroke:none" />

<path
   d="M 2.8494,2.9661 L 2.8681,2.9661 L 2.8681,2.9316 L 2.8684,2.9316 C 2.871,2.9351 2.8759,2.9375 2.8797,2.9375 C 2.8926,2.9375 2.8995,2.9214 2.8995,2.9004 C 2.8995,2.8838 2.894,2.8624 2.8783,2.8624 C 2.871,2.8624 2.8663,2.8667 2.8626,2.8737 L 2.8591,2.8633 L 2.8494,2.8633 L 2.8494,2.9661 z M 2.8681,2.8865 C 2.8678,2.8805 2.8707,2.8771 2.8742,2.8771 C 2.8794,2.8771 2.8801,2.8836 2.8801,2.8971 L 2.8801,2.9026 C 2.8801,2.917 2.8801,2.9245 2.8744,2.9245 C 2.872,2.9245 2.8703,2.9228 2.8692,2.9216 L 2.8681,2.9203"
   class="ps019"
   id="path1688"
   style="fill:#fde783;fill-rule:nonzero;stroke:none" />

<path
   d="M 2.8893,2.9193 L 2.8817,2.9193 L 2.8817,2.9358 L 2.8893,2.9358 L 2.8893,2.9439 C 2.8893,2.9617 2.8964,2.9682 2.9088,2.9682 C 2.9124,2.9682 2.9152,2.9677 2.9182,2.9673 L 2.9182,2.9494 C 2.9172,2.9497 2.9158,2.95 2.9148,2.95 C 2.91,2.95 2.9081,2.9481 2.9081,2.9437 L 2.9081,2.9358 L 2.9182,2.9358 L 2.9182,2.9193 L 2.9081,2.9193 L 2.9081,2.8633 L 2.8893,2.8633"
   class="ps020"
   id="path1690"
   style="fill:#fdeb9b;fill-rule:nonzero;stroke:none" />

<path
   d="M 2.9375,2.9088 C 2.9375,2.9117 2.9374,2.9151 2.9366,2.9179 C 2.9357,2.9208 2.9342,2.9228 2.9312,2.9228 C 2.9249,2.9228 2.9242,2.9133 2.9242,2.8988 C 2.9242,2.8825 2.9263,2.8771 2.9312,2.8771 C 2.9378,2.8771 2.9383,2.8855 2.9383,2.891 L 2.9529,2.8884 C 2.9515,2.8708 2.9434,2.8615 2.9298,2.8615 C 2.9129,2.8615 2.9041,2.88 2.9041,2.898 C 2.9041,2.9177 2.9129,2.9375 2.9306,2.9375 C 2.9505,2.9375 2.9535,2.916 2.9535,2.9088"
   class="ps021"
   id="path1692"
   style="fill:#fef0b3;fill-rule:nonzero;stroke:none" />

<path
   d="M 2.9455,2.9087 C 2.9497,2.9087 2.953,2.9045 2.953,2.8993 C 2.953,2.8941 2.9497,2.8899 2.9455,2.8899 C 2.9413,2.8899 2.938,2.8941 2.938,2.8993 C 2.938,2.9045 2.9413,2.9087 2.9455,2.9087"
   class="ps022"
   id="path1694"
   style="fill:#fef5cc;fill-rule:nonzero;stroke:none" />

<path
   d="M 2.6435,2.9661 L 2.6623,2.9661 L 2.6623,2.9316 L 2.6625,2.9316 C 2.6652,2.9351 2.67,2.9375 2.6738,2.9375 C 2.6868,2.9375 2.6937,2.9214 2.6937,2.9004 C 2.6937,2.8838 2.6882,2.8624 2.6724,2.8624 C 2.6652,2.8624 2.6604,2.8667 2.6567,2.8737 L 2.6533,2.8633 L 2.6435,2.8633 L 2.6435,2.9661 z M 2.6623,2.8865 C 2.6619,2.8805 2.6648,2.8771 2.6684,2.8771 C 2.6736,2.8771 2.6743,2.8836 2.6743,2.8971 L 2.6743,2.9026 C 2.6743,2.917 2.6743,2.9245 2.6685,2.9245 C 2.6662,2.9245 2.6645,2.9228 2.6633,2.9216 L 2.6623,2.9203"
   class="ps018"
   id="path1696"
   style="fill:#fde26c;fill-rule:nonzero;stroke:none" />

<path
   d="M 2.683,2.9661 L 2.7017,2.9661 L 2.7017,2.9316 L 2.7019,2.9316 C 2.7046,2.9351 2.7094,2.9375 2.7133,2.9375 C 2.7262,2.9375 2.7331,2.9214 2.7331,2.9004 C 2.7331,2.8838 2.7276,2.8624 2.7119,2.8624 C 2.7046,2.8624 2.6998,2.8667 2.6961,2.8737 L 2.6927,2.8633 L 2.683,2.8633 L 2.683,2.9661 z M 2.7017,2.8865 C 2.7013,2.8805 2.7042,2.8771 2.7078,2.8771 C 2.713,2.8771 2.7137,2.8836 2.7137,2.8971 L 2.7137,2.9026 C 2.7137,2.917 2.7137,2.9245 2.7079,2.9245 C 2.7056,2.9245 2.7039,2.9228 2.7027,2.9216 L 2.7017,2.9203"
   class="ps019"
   id="path1698"
   style="fill:#fde783;fill-rule:nonzero;stroke:none" />

<path
   d="M 2.7229,2.9193 L 2.7153,2.9193 L 2.7153,2.9358 L 2.7229,2.9358 L 2.7229,2.9439 C 2.7229,2.9617 2.73,2.9682 2.7423,2.9682 C 2.746,2.9682 2.7488,2.9677 2.7518,2.9673 L 2.7518,2.9494 C 2.7508,2.9497 2.7494,2.95 2.7483,2.95 C 2.7436,2.95 2.7416,2.9481 2.7416,2.9437 L 2.7416,2.9358 L 2.7518,2.9358 L 2.7518,2.9193 L 2.7416,2.9193 L 2.7416,2.8633 L 2.7229,2.8633"
   class="ps020"
   id="path1700"
   style="fill:#fdeb9b;fill-rule:nonzero;stroke:none" />

<path
   d="M 2.7711,2.9088 C 2.7711,2.9117 2.771,2.9151 2.7702,2.9179 C 2.7693,2.9208 2.7678,2.9228 2.7648,2.9228 C 2.7585,2.9228 2.7578,2.9133 2.7578,2.8988 C 2.7578,2.8825 2.7599,2.8771 2.7648,2.8771 C 2.7713,2.8771 2.7719,2.8855 2.7719,2.891 L 2.7865,2.8884 C 2.7851,2.8708 2.777,2.8615 2.7634,2.8615 C 2.7465,2.8615 2.7377,2.88 2.7377,2.898 C 2.7377,2.9177 2.7465,2.9375 2.7642,2.9375 C 2.7841,2.9375 2.7871,2.916 2.7871,2.9088"
   class="ps021"
   id="path1702"
   style="fill:#fef0b3;fill-rule:nonzero;stroke:none" />

<path
   d="M 2.7791,2.9087 C 2.7832,2.9087 2.7866,2.9045 2.7866,2.8993 C 2.7866,2.8941 2.7832,2.8899 2.7791,2.8899 C 2.7749,2.8899 2.7715,2.8941 2.7715,2.8993 C 2.7715,2.9045 2.7749,2.9087 2.7791,2.9087"
   class="ps022"
   id="path1704"
   style="fill:#fef5cc;fill-rule:nonzero;stroke:none" />

<path
   d="M 3.1428,2.9661 L 3.1615,2.9661 L 3.1615,2.9316 L 3.1618,2.9316 C 3.1644,2.9351 3.1693,2.9375 3.1731,2.9375 C 3.186,2.9375 3.193,2.9214 3.193,2.9004 C 3.193,2.8838 3.1874,2.8624 3.1717,2.8624 C 3.1644,2.8624 3.1597,2.8667 3.156,2.8737 L 3.1525,2.8633 L 3.1428,2.8633 L 3.1428,2.9661 z M 3.1615,2.8865 C 3.1612,2.8805 3.1641,2.8771 3.1677,2.8771 C 3.1729,2.8771 3.1736,2.8836 3.1736,2.8971 L 3.1736,2.9026 C 3.1736,2.917 3.1736,2.9245 3.1678,2.9245 C 3.1655,2.9245 3.1637,2.9228 3.1626,2.9216 L 3.1615,2.9203"
   class="ps018"
   id="path1706"
   style="fill:#fde26c;fill-rule:nonzero;stroke:none" />

<path
   d="M 3.1822,2.9661 L 3.201,2.9661 L 3.201,2.9316 L 3.2012,2.9316 C 3.2038,2.9351 3.2087,2.9375 3.2125,2.9375 C 3.2255,2.9375 3.2324,2.9214 3.2324,2.9004 C 3.2324,2.8838 3.2269,2.8624 3.2111,2.8624 C 3.2038,2.8624 3.1991,2.8667 3.1954,2.8737 L 3.192,2.8633 L 3.1822,2.8633 L 3.1822,2.9661 z M 3.201,2.8865 C 3.2006,2.8805 3.2035,2.8771 3.2071,2.8771 C 3.2123,2.8771 3.213,2.8836 3.213,2.8971 L 3.213,2.9026 C 3.213,2.917 3.213,2.9245 3.2072,2.9245 C 3.2049,2.9245 3.2032,2.9228 3.202,2.9216 L 3.201,2.9203"
   class="ps019"
   id="path1708"
   style="fill:#fde783;fill-rule:nonzero;stroke:none" />

<path
   d="M 3.2222,2.9193 L 3.2146,2.9193 L 3.2146,2.9358 L 3.2222,2.9358 L 3.2222,2.9439 C 3.2222,2.9617 3.2292,2.9682 3.2416,2.9682 C 3.2453,2.9682 3.2481,2.9677 3.2511,2.9673 L 3.2511,2.9494 C 3.25,2.9497 3.2487,2.95 3.2476,2.95 C 3.2429,2.95 3.2409,2.9481 3.2409,2.9437 L 3.2409,2.9358 L 3.2511,2.9358 L 3.2511,2.9193 L 3.2409,2.9193 L 3.2409,2.8633 L 3.2222,2.8633"
   class="ps020"
   id="path1710"
   style="fill:#fdeb9b;fill-rule:nonzero;stroke:none" />

<path
   d="M 3.2704,2.9088 C 3.2704,2.9117 3.2703,2.9151 3.2695,2.9179 C 3.2685,2.9208 3.267,2.9228 3.264,2.9228 C 3.2578,2.9228 3.2571,2.9133 3.2571,2.8988 C 3.2571,2.8825 3.2592,2.8771 3.264,2.8771 C 3.2706,2.8771 3.2712,2.8855 3.2712,2.891 L 3.2858,2.8884 C 3.2844,2.8708 3.2763,2.8615 3.2627,2.8615 C 3.2458,2.8615 3.237,2.88 3.237,2.898 C 3.237,2.9177 3.2458,2.9375 3.2635,2.9375 C 3.2833,2.9375 3.2863,2.916 3.2863,2.9088"
   class="ps021"
   id="path1712"
   style="fill:#fef0b3;fill-rule:nonzero;stroke:none" />

<path
   d="M 3.2784,2.9087 C 3.2825,2.9087 3.2859,2.9045 3.2859,2.8993 C 3.2859,2.8941 3.2825,2.8899 3.2784,2.8899 C 3.2742,2.8899 3.2708,2.8941 3.2708,2.8993 C 3.2708,2.9045 3.2742,2.9087 3.2784,2.9087"
   class="ps022"
   id="path1714"
   style="fill:#fef5cc;fill-rule:nonzero;stroke:none" />

<path
   d="M 3.3103,2.9661 L 3.329,2.9661 L 3.329,2.9316 L 3.3292,2.9316 C 3.3319,2.9351 3.3367,2.9375 3.3406,2.9375 C 3.3535,2.9375 3.3604,2.9214 3.3604,2.9004 C 3.3604,2.8838 3.3549,2.8624 3.3392,2.8624 C 3.3319,2.8624 3.3272,2.8667 3.3235,2.8737 L 3.32,2.8633 L 3.3103,2.8633 L 3.3103,2.9661 z M 3.329,2.8865 C 3.3287,2.8805 3.3316,2.8771 3.3351,2.8771 C 3.3403,2.8771 3.341,2.8836 3.341,2.8971 L 3.341,2.9026 C 3.341,2.917 3.341,2.9245 3.3352,2.9245 C 3.3329,2.9245 3.3312,2.9228 3.3301,2.9216 L 3.329,2.9203"
   class="ps018"
   id="path1716"
   style="fill:#fde26c;fill-rule:nonzero;stroke:none" />

<path
   d="M 3.3497,2.9661 L 3.3684,2.9661 L 3.3684,2.9316 L 3.3687,2.9316 C 3.3713,2.9351 3.3762,2.9375 3.38,2.9375 C 3.3929,2.9375 3.3999,2.9214 3.3999,2.9004 C 3.3999,2.8838 3.3943,2.8624 3.3786,2.8624 C 3.3713,2.8624 3.3666,2.8667 3.3629,2.8737 L 3.3594,2.8633 L 3.3497,2.8633 L 3.3497,2.9661 z M 3.3684,2.8865 C 3.3681,2.8805 3.371,2.8771 3.3746,2.8771 C 3.3797,2.8771 3.3805,2.8836 3.3805,2.8971 L 3.3805,2.9026 C 3.3805,2.917 3.3805,2.9245 3.3747,2.9245 C 3.3724,2.9245 3.3706,2.9228 3.3695,2.9216 L 3.3684,2.9203"
   class="ps019"
   id="path1718"
   style="fill:#fde783;fill-rule:nonzero;stroke:none" />

<path
   d="M 3.3897,2.9193 L 3.382,2.9193 L 3.382,2.9358 L 3.3897,2.9358 L 3.3897,2.9439 C 3.3897,2.9617 3.3967,2.9682 3.4091,2.9682 C 3.4128,2.9682 3.4155,2.9677 3.4186,2.9673 L 3.4186,2.9494 C 3.4175,2.9497 3.4161,2.95 3.4151,2.95 C 3.4103,2.95 3.4084,2.9481 3.4084,2.9437 L 3.4084,2.9358 L 3.4186,2.9358 L 3.4186,2.9193 L 3.4084,2.9193 L 3.4084,2.8633 L 3.3897,2.8633"
   class="ps020"
   id="path1720"
   style="fill:#fdeb9b;fill-rule:nonzero;stroke:none" />

<path
   d="M 3.4379,2.9088 C 3.4379,2.9117 3.4377,2.9151 3.4369,2.9179 C 3.436,2.9208 3.4345,2.9228 3.4315,2.9228 C 3.4253,2.9228 3.4246,2.9133 3.4246,2.8988 C 3.4246,2.8825 3.4266,2.8771 3.4315,2.8771 C 3.4381,2.8771 3.4387,2.8855 3.4387,2.891 L 3.4532,2.8884 C 3.4518,2.8708 3.4437,2.8615 3.4301,2.8615 C 3.4132,2.8615 3.4045,2.88 3.4045,2.898 C 3.4045,2.9177 3.4132,2.9375 3.4309,2.9375 C 3.4508,2.9375 3.4538,2.916 3.4538,2.9088"
   class="ps021"
   id="path1722"
   style="fill:#fef0b3;fill-rule:nonzero;stroke:none" />

<path
   d="M 3.4458,2.9087 C 3.45,2.9087 3.4534,2.9045 3.4534,2.8993 C 3.4534,2.8941 3.45,2.8899 3.4458,2.8899 C 3.4417,2.8899 3.4383,2.8941 3.4383,2.8993 C 3.4383,2.9045 3.4417,2.9087 3.4458,2.9087"
   class="ps022"
   id="path1724"
   style="fill:#fef5cc;fill-rule:nonzero;stroke:none" />

<path
   d="M 2.9764,3.0847 L 2.9951,3.0847 L 2.9951,3.0501 L 2.9953,3.0501 C 2.998,3.0536 3.0029,3.0561 3.0067,3.0561 C 3.0196,3.0561 3.0266,3.0399 3.0266,3.0189 C 3.0266,3.0023 3.021,2.9809 3.0053,2.9809 C 2.998,2.9809 2.9933,2.9853 2.9896,2.9922 L 2.9861,2.9818 L 2.9764,2.9818 L 2.9764,3.0847 z M 2.9951,3.0051 C 2.9948,2.999 2.9977,2.9957 3.0012,2.9957 C 3.0064,2.9957 3.0071,3.0022 3.0071,3.0156 L 3.0071,3.0211 C 3.0071,3.0355 3.0071,3.0431 3.0014,3.0431 C 2.9991,3.0431 2.9973,3.0413 2.9962,3.0402 L 2.9951,3.0389"
   class="ps018"
   id="path1726"
   style="fill:#fde26c;fill-rule:nonzero;stroke:none" />

<path
   d="M 3.0158,3.0847 L 3.0345,3.0847 L 3.0345,3.0501 L 3.0348,3.0501 C 3.0374,3.0536 3.0423,3.0561 3.0461,3.0561 C 3.059,3.0561 3.066,3.0399 3.066,3.0189 C 3.066,3.0023 3.0604,2.9809 3.0447,2.9809 C 3.0374,2.9809 3.0327,2.9853 3.029,2.9922 L 3.0255,2.9818 L 3.0158,2.9818 L 3.0158,3.0847 z M 3.0345,3.0051 C 3.0342,2.999 3.0371,2.9957 3.0407,2.9957 C 3.0459,2.9957 3.0466,3.0022 3.0466,3.0156 L 3.0466,3.0211 C 3.0466,3.0355 3.0466,3.0431 3.0408,3.0431 C 3.0385,3.0431 3.0367,3.0413 3.0356,3.0402 L 3.0345,3.0389"
   class="ps019"
   id="path1728"
   style="fill:#fde783;fill-rule:nonzero;stroke:none" />

<path
   d="M 3.0558,3.0379 L 3.0481,3.0379 L 3.0481,3.0543 L 3.0558,3.0543 L 3.0558,3.0624 C 3.0558,3.0802 3.0628,3.0867 3.0752,3.0867 C 3.0789,3.0867 3.0817,3.0862 3.0847,3.0858 L 3.0847,3.0679 C 3.0836,3.0682 3.0822,3.0685 3.0812,3.0685 C 3.0764,3.0685 3.0745,3.0666 3.0745,3.0623 L 3.0745,3.0543 L 3.0847,3.0543 L 3.0847,3.0379 L 3.0745,3.0379 L 3.0745,2.9818 L 3.0558,2.9818"
   class="ps020"
   id="path1730"
   style="fill:#fdeb9b;fill-rule:nonzero;stroke:none" />

<path
   d="M 3.104,3.0273 C 3.104,3.0302 3.1038,3.0337 3.103,3.0364 C 3.1021,3.0393 3.1006,3.0413 3.0976,3.0413 C 3.0914,3.0413 3.0907,3.0318 3.0907,3.0174 C 3.0907,3.001 3.0927,2.9957 3.0976,2.9957 C 3.1042,2.9957 3.1048,3.0041 3.1048,3.0096 L 3.1193,3.0069 C 3.1179,2.9893 3.1098,2.9801 3.0962,2.9801 C 3.0793,2.9801 3.0706,2.9986 3.0706,3.0165 C 3.0706,3.0363 3.0793,3.0561 3.097,3.0561 C 3.1169,3.0561 3.1199,3.0345 3.1199,3.0273"
   class="ps021"
   id="path1732"
   style="fill:#fef0b3;fill-rule:nonzero;stroke:none" />

<path
   d="M 3.1119,3.0273 C 3.1161,3.0273 3.1195,3.023 3.1195,3.0178 C 3.1195,3.0127 3.1161,3.0084 3.1119,3.0084 C 3.1078,3.0084 3.1044,3.0127 3.1044,3.0178 C 3.1044,3.023 3.1078,3.0273 3.1119,3.0273"
   class="ps022"
   id="path1734"
   style="fill:#fef5cc;fill-rule:nonzero;stroke:none" />

<path
   d="M 2.81,3.0847 L 2.8287,3.0847 L 2.8287,3.0501 L 2.8289,3.0501 C 2.8316,3.0536 2.8364,3.0561 2.8403,3.0561 C 2.8532,3.0561 2.8601,3.0399 2.8601,3.0189 C 2.8601,3.0023 2.8546,2.9809 2.8389,2.9809 C 2.8316,2.9809 2.8268,2.9853 2.8232,2.9922 L 2.8197,2.9818 L 2.81,2.9818 L 2.81,3.0847 z M 2.8287,3.0051 C 2.8283,2.999 2.8312,2.9957 2.8348,2.9957 C 2.84,2.9957 2.8407,3.0022 2.8407,3.0156 L 2.8407,3.0211 C 2.8407,3.0355 2.8407,3.0431 2.8349,3.0431 C 2.8326,3.0431 2.8309,3.0413 2.8297,3.0402 L 2.8287,3.0389"
   class="ps018"
   id="path1736"
   style="fill:#fde26c;fill-rule:nonzero;stroke:none" />

<path
   d="M 2.8494,3.0847 L 2.8681,3.0847 L 2.8681,3.0501 L 2.8684,3.0501 C 2.871,3.0536 2.8759,3.0561 2.8797,3.0561 C 2.8926,3.0561 2.8995,3.0399 2.8995,3.0189 C 2.8995,3.0023 2.894,2.9809 2.8783,2.9809 C 2.871,2.9809 2.8663,2.9853 2.8626,2.9922 L 2.8591,2.9818 L 2.8494,2.9818 L 2.8494,3.0847 z M 2.8681,3.0051 C 2.8678,2.999 2.8707,2.9957 2.8742,2.9957 C 2.8794,2.9957 2.8801,3.0022 2.8801,3.0156 L 2.8801,3.0211 C 2.8801,3.0355 2.8801,3.0431 2.8744,3.0431 C 2.872,3.0431 2.8703,3.0413 2.8692,3.0402 L 2.8681,3.0389"
   class="ps019"
   id="path1738"
   style="fill:#fde783;fill-rule:nonzero;stroke:none" />

<path
   d="M 2.8893,3.0379 L 2.8817,3.0379 L 2.8817,3.0543 L 2.8893,3.0543 L 2.8893,3.0624 C 2.8893,3.0802 2.8964,3.0867 2.9088,3.0867 C 2.9124,3.0867 2.9152,3.0862 2.9182,3.0858 L 2.9182,3.0679 C 2.9172,3.0682 2.9158,3.0685 2.9148,3.0685 C 2.91,3.0685 2.9081,3.0666 2.9081,3.0623 L 2.9081,3.0543 L 2.9182,3.0543 L 2.9182,3.0379 L 2.9081,3.0379 L 2.9081,2.9818 L 2.8893,2.9818"
   class="ps020"
   id="path1740"
   style="fill:#fdeb9b;fill-rule:nonzero;stroke:none" />

<path
   d="M 2.9375,3.0273 C 2.9375,3.0302 2.9374,3.0337 2.9366,3.0364 C 2.9357,3.0393 2.9342,3.0413 2.9312,3.0413 C 2.9249,3.0413 2.9242,3.0318 2.9242,3.0174 C 2.9242,3.001 2.9263,2.9957 2.9312,2.9957 C 2.9378,2.9957 2.9383,3.0041 2.9383,3.0096 L 2.9529,3.0069 C 2.9515,2.9893 2.9434,2.9801 2.9298,2.9801 C 2.9129,2.9801 2.9041,2.9986 2.9041,3.0165 C 2.9041,3.0363 2.9129,3.0561 2.9306,3.0561 C 2.9505,3.0561 2.9535,3.0345 2.9535,3.0273"
   class="ps021"
   id="path1742"
   style="fill:#fef0b3;fill-rule:nonzero;stroke:none" />

<path
   d="M 2.9455,3.0273 C 2.9497,3.0273 2.953,3.023 2.953,3.0178 C 2.953,3.0127 2.9497,3.0084 2.9455,3.0084 C 2.9413,3.0084 2.938,3.0127 2.938,3.0178 C 2.938,3.023 2.9413,3.0273 2.9455,3.0273"
   class="ps022"
   id="path1744"
   style="fill:#fef5cc;fill-rule:nonzero;stroke:none" />

<path
   d="M 3.1428,3.0847 L 3.1615,3.0847 L 3.1615,3.0501 L 3.1618,3.0501 C 3.1644,3.0536 3.1693,3.0561 3.1731,3.0561 C 3.186,3.0561 3.193,3.0399 3.193,3.0189 C 3.193,3.0023 3.1874,2.9809 3.1717,2.9809 C 3.1644,2.9809 3.1597,2.9853 3.156,2.9922 L 3.1525,2.9818 L 3.1428,2.9818 L 3.1428,3.0847 z M 3.1615,3.0051 C 3.1612,2.999 3.1641,2.9957 3.1677,2.9957 C 3.1729,2.9957 3.1736,3.0022 3.1736,3.0156 L 3.1736,3.0211 C 3.1736,3.0355 3.1736,3.0431 3.1678,3.0431 C 3.1655,3.0431 3.1637,3.0413 3.1626,3.0402 L 3.1615,3.0389"
   class="ps018"
   id="path1746"
   style="fill:#fde26c;fill-rule:nonzero;stroke:none" />

<path
   d="M 3.1822,3.0847 L 3.201,3.0847 L 3.201,3.0501 L 3.2012,3.0501 C 3.2038,3.0536 3.2087,3.0561 3.2125,3.0561 C 3.2255,3.0561 3.2324,3.0399 3.2324,3.0189 C 3.2324,3.0023 3.2269,2.9809 3.2111,2.9809 C 3.2038,2.9809 3.1991,2.9853 3.1954,2.9922 L 3.192,2.9818 L 3.1822,2.9818 L 3.1822,3.0847 z M 3.201,3.0051 C 3.2006,2.999 3.2035,2.9957 3.2071,2.9957 C 3.2123,2.9957 3.213,3.0022 3.213,3.0156 L 3.213,3.0211 C 3.213,3.0355 3.213,3.0431 3.2072,3.0431 C 3.2049,3.0431 3.2032,3.0413 3.202,3.0402 L 3.201,3.0389"
   class="ps019"
   id="path1748"
   style="fill:#fde783;fill-rule:nonzero;stroke:none" />

<path
   d="M 3.2222,3.0379 L 3.2146,3.0379 L 3.2146,3.0543 L 3.2222,3.0543 L 3.2222,3.0624 C 3.2222,3.0802 3.2292,3.0867 3.2416,3.0867 C 3.2453,3.0867 3.2481,3.0862 3.2511,3.0858 L 3.2511,3.0679 C 3.25,3.0682 3.2487,3.0685 3.2476,3.0685 C 3.2429,3.0685 3.2409,3.0666 3.2409,3.0623 L 3.2409,3.0543 L 3.2511,3.0543 L 3.2511,3.0379 L 3.2409,3.0379 L 3.2409,2.9818 L 3.2222,2.9818"
   class="ps020"
   id="path1750"
   style="fill:#fdeb9b;fill-rule:nonzero;stroke:none" />

<path
   d="M 3.2704,3.0273 C 3.2704,3.0302 3.2703,3.0337 3.2695,3.0364 C 3.2685,3.0393 3.267,3.0413 3.264,3.0413 C 3.2578,3.0413 3.2571,3.0318 3.2571,3.0174 C 3.2571,3.001 3.2592,2.9957 3.264,2.9957 C 3.2706,2.9957 3.2712,3.0041 3.2712,3.0096 L 3.2858,3.0069 C 3.2844,2.9893 3.2763,2.9801 3.2627,2.9801 C 3.2458,2.9801 3.237,2.9986 3.237,3.0165 C 3.237,3.0363 3.2458,3.0561 3.2635,3.0561 C 3.2833,3.0561 3.2863,3.0345 3.2863,3.0273"
   class="ps021"
   id="path1752"
   style="fill:#fef0b3;fill-rule:nonzero;stroke:none" />

<path
   d="M 3.2784,3.0273 C 3.2825,3.0273 3.2859,3.023 3.2859,3.0178 C 3.2859,3.0127 3.2825,3.0084 3.2784,3.0084 C 3.2742,3.0084 3.2708,3.0127 3.2708,3.0178 C 3.2708,3.023 3.2742,3.0273 3.2784,3.0273"
   class="ps022"
   id="path1754"
   style="fill:#fef5cc;fill-rule:nonzero;stroke:none" />

</g>

</g>

<g
   id="q24"
   class="ps017 ps11"
   style="fill:#fcd213;fill-rule:nonzero;stroke:none;stroke-width:0.0138;stroke-linecap:butt;stroke-linejoin:miter;stroke-miterlimit:10;stroke-dasharray:none">
<path
   d="M 3.3926,2.2419 C 3.3925,2.2404 3.3915,2.2398 3.3903,2.2398 C 3.3888,2.2398 3.3878,2.2416 3.3878,2.2439 C 3.3878,2.2464 3.3887,2.2479 3.3903,2.2479 C 3.3914,2.2479 3.3924,2.2474 3.3926,2.2459 L 3.395,2.2459 C 3.3946,2.2492 3.3927,2.251 3.3903,2.251 C 3.3869,2.251 3.3848,2.248 3.3848,2.2438 C 3.3848,2.2398 3.387,2.2367 3.3903,2.2367 C 3.3927,2.2367 3.3947,2.2385 3.3951,2.2419 L 3.3926,2.2419 z M 3.3801,2.2438 C 3.3801,2.237 3.3846,2.2314 3.3901,2.2314 C 3.3956,2.2314 3.4,2.237 3.4,2.2438 C 3.4,2.2507 3.3956,2.2563 3.3901,2.2563 C 3.3846,2.2563 3.3801,2.2507 3.3801,2.2438 z M 3.3901,2.2346 C 3.386,2.2346 3.3832,2.2382 3.3832,2.2438 C 3.3832,2.2495 3.386,2.2531 3.3901,2.2531 C 3.3941,2.2531 3.3969,2.2495 3.3969,2.2438 C 3.3969,2.2382 3.3941,2.2346 3.3901,2.2346"
   class="ps017"
   id="path1757"
   style="fill:#fcd213;fill-rule:nonzero;stroke:none" />

<path
   d="M 3.4014,2.2362 L 3.4091,2.244 C 3.41,2.2449 3.4116,2.2469 3.4116,2.2485 C 3.4116,2.2504 3.4106,2.2515 3.4091,2.2515 C 3.4072,2.2515 3.4059,2.2495 3.4053,2.2474 L 3.4014,2.2499 C 3.4024,2.2531 3.4051,2.2561 3.4095,2.2561 C 3.4154,2.2561 3.4171,2.2518 3.4171,2.2489 C 3.4171,2.2459 3.4156,2.2437 3.4136,2.2421 L 3.4084,2.2376 L 3.4084,2.2376 L 3.4171,2.2376 L 3.4171,2.2318 L 3.4014,2.2318"
   class="ps017"
   id="path1759"
   style="fill:#fcd213;fill-rule:nonzero;stroke:none" />

<path
   d="M 3.4305,2.2437 C 3.4305,2.2373 3.4294,2.236 3.4278,2.236 C 3.4261,2.236 3.425,2.2373 3.425,2.2437 C 3.425,2.2502 3.4261,2.2515 3.4278,2.2515 C 3.4294,2.2515 3.4305,2.2502 3.4305,2.2437 z M 3.4194,2.2437 C 3.4194,2.2359 3.423,2.2314 3.4278,2.2314 C 3.4326,2.2314 3.4361,2.2359 3.4361,2.2437 C 3.4361,2.2487 3.4341,2.2561 3.4278,2.2561 C 3.4214,2.2561 3.4194,2.2487 3.4194,2.2437"
   class="ps017"
   id="path1761"
   style="fill:#fcd213;fill-rule:nonzero;stroke:none" />

<path
   d="M 3.4461,2.2561 C 3.4524,2.2561 3.4545,2.2487 3.4545,2.2437 C 3.4545,2.2359 3.4509,2.2314 3.4461,2.2314 C 3.4413,2.2314 3.4377,2.2359 3.4377,2.2437 C 3.4377,2.2487 3.4398,2.2561 3.4461,2.2561 z M 3.4461,2.2515 C 3.4445,2.2515 3.4434,2.2502 3.4434,2.2437 C 3.4434,2.2373 3.4445,2.236 3.4461,2.236 C 3.4478,2.236 3.4489,2.2373 3.4489,2.2437 C 3.4489,2.2502 3.4478,2.2515 3.4461,2.2515"
   class="ps017"
   id="path1763"
   style="fill:#fcd213;fill-rule:nonzero;stroke:none" />

<path
   d="M 3.4565,2.2362 L 3.4642,2.244 C 3.465,2.2449 3.4666,2.2469 3.4666,2.2485 C 3.4666,2.2504 3.4656,2.2515 3.4642,2.2515 C 3.4623,2.2515 3.4609,2.2495 3.4604,2.2474 L 3.4564,2.2499 C 3.4574,2.2531 3.4601,2.2561 3.4646,2.2561 C 3.4705,2.2561 3.4722,2.2518 3.4722,2.2489 C 3.4722,2.2459 3.4707,2.2437 3.4687,2.2421 L 3.4634,2.2376 L 3.4634,2.2376 L 3.4721,2.2376 L 3.4721,2.2318 L 3.4565,2.2318"
   class="ps017"
   id="path1765"
   style="fill:#fcd213;fill-rule:nonzero;stroke:none" />

<path
   d="M 2.9977,2.4606 L 2.958,2.4606 L 2.958,2.3428 L 2.893,2.3428 L 2.893,2.673 L 2.9977,2.673 C 3.0129,2.673 3.0263,2.6695 3.0378,2.6634 L 3.0592,2.6228 L 3.0751,2.6236 C 3.0835,2.6067 3.0878,2.5869 3.0878,2.5668 C 3.0878,2.5125 3.0563,2.4606 2.9977,2.4606 z M 2.9947,2.6002 L 2.958,2.6002 L 2.958,2.5334 L 2.9947,2.5334 C 3.0125,2.5334 3.0229,2.5496 3.0229,2.5668 C 3.0229,2.584 3.0125,2.6002 2.9947,2.6002"
   class="ps010"
   id="path1767"
   style="fill:#231f20;fill-rule:nonzero;stroke:none" />

<path
   d="M 3.2496,2.3771 C 3.227,2.3479 3.2018,2.34 3.1728,2.34 C 3.142,2.34 3.1186,2.353 3.0994,2.3771 C 3.0715,2.4119 3.0726,2.4583 3.0726,2.5079 C 3.0726,2.5575 3.0715,2.6039 3.0994,2.6387 C 3.1186,2.6628 3.1409,2.6758 3.1728,2.6758 C 3.2407,2.6758 3.2697,2.6206 3.276,2.5664 L 3.2107,2.5664 C 3.2055,2.5914 3.1951,2.6035 3.1728,2.6035 C 3.1609,2.6035 3.152,2.597 3.1472,2.5891 C 3.1413,2.5793 3.1376,2.5682 3.1376,2.5079 C 3.1376,2.4476 3.1413,2.436 3.1472,2.4263 C 3.152,2.4184 3.1609,2.4124 3.1728,2.4124 C 3.1865,2.4124 3.1958,2.4175 3.2018,2.4253 C 3.2092,2.4346 3.2118,2.4481 3.2118,2.4606 L 3.2118,2.4652 L 3.1728,2.4652 L 3.1728,2.533 L 3.2763,2.533 L 3.2763,2.487 C 3.2763,2.4337 3.2697,2.4026 3.2496,2.3771"
   class="ps010"
   id="path1769"
   style="fill:#231f20;fill-rule:nonzero;stroke:none" />

<path
   d="M 2.9771,2.4863 L 2.9374,2.4863 L 2.9374,2.3685 L 2.8725,2.3685 L 2.8725,2.6987 L 2.9771,2.6987 C 3.0357,2.6987 3.0673,2.6468 3.0673,2.5925 C 3.0673,2.5383 3.0357,2.4863 2.9771,2.4863 z M 2.9741,2.6259 L 2.9374,2.6259 L 2.9374,2.5591 L 2.9741,2.5591 C 2.9919,2.5591 3.0023,2.5754 3.0023,2.5925 C 3.0023,2.6097 2.9919,2.6259 2.9741,2.6259"
   class="ps01"
   id="path1771"
   style="fill:#ffffff;fill-rule:nonzero;stroke:none" />

<path
   d="M 3.229,2.4028 C 3.2064,2.3736 3.1812,2.3657 3.1522,2.3657 C 3.1214,2.3657 3.0981,2.3787 3.0788,2.4028 C 3.0509,2.4376 3.052,2.484 3.052,2.5336 C 3.052,2.5833 3.0509,2.6296 3.0788,2.6644 C 3.0981,2.6886 3.1203,2.7015 3.1522,2.7015 C 3.2201,2.7015 3.2491,2.6463 3.2554,2.5921 L 3.1901,2.5921 C 3.1849,2.6171 3.1745,2.6292 3.1522,2.6292 C 3.1404,2.6292 3.1315,2.6227 3.1266,2.6148 C 3.1207,2.6051 3.117,2.5939 3.117,2.5336 C 3.117,2.4733 3.1207,2.4617 3.1266,2.452 C 3.1315,2.4441 3.1404,2.4381 3.1522,2.4381 C 3.166,2.4381 3.1752,2.4432 3.1812,2.4511 C 3.1886,2.4603 3.1912,2.4738 3.1912,2.4863 L 3.1912,2.491 L 3.1522,2.491 L 3.1522,2.5587 L 3.2557,2.5587 L 3.2557,2.5128 C 3.2557,2.4594 3.2491,2.4283 3.229,2.4028"
   class="ps01"
   id="path1773"
   style="fill:#ffffff;fill-rule:nonzero;stroke:none" />

</g>

</g>

</g>

</g>

</g>
  </g>
</svg>
