<?xml version="1.0" encoding="UTF-8" standalone="no"?>
<!-- Created with Inkscape (http://www.inkscape.org/) -->
<svg
   xmlns:dc="http://purl.org/dc/elements/1.1/"
   xmlns:cc="http://creativecommons.org/ns#"
   xmlns:rdf="http://www.w3.org/1999/02/22-rdf-syntax-ns#"
   xmlns:svg="http://www.w3.org/2000/svg"
   xmlns="http://www.w3.org/2000/svg"
   xmlns:sodipodi="http://sodipodi.sourceforge.net/DTD/sodipodi-0.dtd"
   xmlns:inkscape="http://www.inkscape.org/namespaces/inkscape"
   width="490"
   height="490"
   id="svg8969"
   sodipodi:version="0.32"
   inkscape:version="0.46"
   version="1.0"
   sodipodi:docname="BBFC_12.svg"
   inkscape:output_extension="org.inkscape.output.svg.inkscape">
  <defs
     id="defs8971">
    <clipPath
       id="clp8"
       clip-rule="nonzero">
<path
   d="M 3.2467,2.5812 C 3.2467,2.8087 3.4318,2.9938 3.6593,2.9938 C 3.8867,2.9938 4.0718,2.8087 4.0718,2.5812 C 4.0718,2.3537 3.8867,2.1687 3.6593,2.1687 C 3.4318,2.1687 3.2467,2.3537 3.2467,2.5812"
   id="path1045" />

</clipPath>
    <clipPath
       id="clp7"
       clip-rule="nonzero">
<path
   d="M 160.66,284.06 L 204.72,284.06 L 204.72,338.97 L 160.66,338.97 L 160.66,284.06 z"
   id="path1021" />

</clipPath>
    <clipPath
       id="clp6"
       clip-rule="nonzero">
<path
   d="M 4.1026,2.5825 C 4.1026,2.3376 3.9041,2.1391 3.6593,2.1391 C 3.4144,2.1391 3.2159,2.3376 3.2159,2.5825 C 3.2159,2.8273 3.4144,3.0258 3.6593,3.0258 C 3.9041,3.0258 4.1026,2.8273 4.1026,2.5825"
   id="path658" />

</clipPath>
    <clipPath
       id="clp5"
       clip-rule="nonzero">
<path
   d="M 122.66,284.06 L 166.72,284.06 L 166.72,338.97 L 122.66,338.97 L 122.66,284.06 z"
   id="path634" />

</clipPath>
    <inkscape:perspective
       sodipodi:type="inkscape:persp3d"
       inkscape:vp_x="0 : 526.18109 : 1"
       inkscape:vp_y="0 : 1000 : 0"
       inkscape:vp_z="744.09448 : 526.18109 : 1"
       inkscape:persp3d-origin="372.04724 : 350.78739 : 1"
       id="perspective8977" />
  </defs>
  <sodipodi:namedview
     id="base"
     pagecolor="#ffffff"
     bordercolor="#666666"
     borderopacity="1.0"
     gridtolerance="10000"
     guidetolerance="10"
     objecttolerance="10"
     inkscape:pageopacity="0.0"
     inkscape:pageshadow="2"
     inkscape:zoom="1"
     inkscape:cx="375"
     inkscape:cy="280"
     inkscape:document-units="px"
     inkscape:current-layer="layer1"
     showgrid="false"
     inkscape:window-width="1680"
     inkscape:window-height="1000"
     inkscape:window-x="-8"
     inkscape:window-y="-8" />
  <metadata
     id="metadata8974">
    <rdf:RDF>
      <cc:Work
         rdf:about="">
        <dc:format>image/svg+xml</dc:format>
        <dc:type
           rdf:resource="http://purl.org/dc/dcmitype/StillImage" />
      </cc:Work>
    </rdf:RDF>
  </metadata>
  <g
     inkscape:label="Layer 1"
     inkscape:groupmode="layer"
     id="layer1"
     transform="translate(61.577748,-282.51124)">
    <g
       id="q15"
       class="ps02 ps20"
       style="font-size:9.5px;letter-spacing:0;word-spacing:0;fill:#231f20;stroke:none;font-family:fnt0"
       transform="matrix(13.901137,0,0,-13.901137,-2400.652,4891.4624)">
<clipPath
   id="clipPath9445"
   clip-rule="nonzero">
<path
   d="M 160.66,284.06 L 204.72,284.06 L 204.72,338.97 L 160.66,338.97 L 160.66,284.06 z"
   id="path9447" />

</clipPath>

<g
   clip-path="url(#clp7)"
   id="g1023">
<g
   id="q16"
   class="ps00"
   style="fill:none;stroke:none">
<g
   id="xfrm17"
   transform="matrix(34.5261,0,0,34.5258,59.58,224.838)">
<path
   d="M 4.1519,2.5812 C 4.1519,2.3092 3.9313,2.0886 3.6592,2.0886 C 3.3872,2.0886 3.1666,2.3092 3.1666,2.5812 C 3.1666,2.8533 3.3872,3.0739 3.6592,3.0739 C 3.9313,3.0739 4.1519,2.8533 4.1519,2.5812"
   class="ps01"
   id="path1027"
   style="fill:#ffffff;fill-rule:nonzero;stroke:none" />

<path
   d="M 4.1519,2.5812 C 4.1519,2.3092 3.9313,2.0886 3.6592,2.0886 C 3.3872,2.0886 3.1666,2.3092 3.1666,2.5812 C 3.1666,2.8533 3.3872,3.0739 3.6592,3.0739 C 3.9313,3.0739 4.1519,2.8533 4.1519,2.5812 z"
   class="ps03 ps10"
   id="path1029"
   style="fill:none;stroke:#231f20;stroke-width:0.0148;stroke-linecap:butt;stroke-linejoin:miter;stroke-miterlimit:10;stroke-dasharray:none" />

<path
   d="M 3.6159,2.1088 C 3.6111,2.1092 3.608,2.1129 3.6085,2.1183 C 3.609,2.1238 3.6127,2.1268 3.6175,2.1264 C 3.6223,2.1259 3.6254,2.1223 3.6249,2.1168 C 3.6244,2.1114 3.6207,2.1084 3.6159,2.1088 z M 3.6195,2.1155 C 3.6193,2.1141 3.6181,2.1136 3.6167,2.1137 C 3.6148,2.1138 3.6138,2.1157 3.614,2.1179 C 3.6142,2.1203 3.6154,2.1216 3.6173,2.1215 C 3.6186,2.1214 3.6197,2.1207 3.6199,2.1193 L 3.6228,2.119 C 3.6225,2.1223 3.6204,2.1241 3.6176,2.1244 C 3.6136,2.1247 3.6108,2.1221 3.6105,2.1182 C 3.6101,2.1143 3.6125,2.1111 3.6164,2.1108 C 3.6192,2.1105 3.6218,2.112 3.6225,2.1152 L 3.6195,2.1155 z M 3.6048,2.1187 C 3.6042,2.1121 3.6091,2.1063 3.6156,2.1057 C 3.6222,2.1051 3.628,2.11 3.6286,2.1165 C 3.6292,2.1231 3.6243,2.1289 3.6178,2.1295 C 3.6112,2.13 3.6054,2.1252 3.6048,2.1187"
   class="ps04 ps10"
   id="path1031"
   style="fill:#ec192d;fill-rule:nonzero;stroke:none;stroke-width:0.0148;stroke-linecap:butt;stroke-linejoin:miter;stroke-miterlimit:10;stroke-dasharray:none" />

<path
   d="M 3.6293,2.105 L 3.648,2.1042 L 3.6483,2.1097 L 3.6379,2.1101 L 3.6379,2.1102 L 3.6443,2.1142 C 3.6468,2.1157 3.6486,2.1177 3.6488,2.1206 C 3.6489,2.1233 3.647,2.1275 3.64,2.1278 C 3.6346,2.128 3.6313,2.1253 3.63,2.1223 L 3.6346,2.1197 C 3.6354,2.1217 3.637,2.1235 3.6393,2.1235 C 3.6411,2.1234 3.6422,2.1222 3.6421,2.1205 C 3.642,2.1189 3.6401,2.1171 3.639,2.1163 L 3.6295,2.1092"
   class="ps04 ps10"
   id="path1033"
   style="fill:#ec192d;fill-rule:nonzero;stroke:none;stroke-width:0.0148;stroke-linecap:butt;stroke-linejoin:miter;stroke-miterlimit:10;stroke-dasharray:none" />

<path
   d="M 3.6647,2.1156 C 3.6647,2.1094 3.6634,2.1081 3.6614,2.1081 C 3.6595,2.1081 3.6581,2.1094 3.6581,2.1156 C 3.6581,2.1217 3.6594,2.123 3.6614,2.123 C 3.6633,2.123 3.6647,2.1218 3.6647,2.1156 z M 3.6514,2.1155 C 3.6514,2.108 3.6557,2.1037 3.6614,2.1038 C 3.6672,2.1038 3.6715,2.1081 3.6714,2.1156 C 3.6714,2.1204 3.6689,2.1275 3.6613,2.1274 C 3.6538,2.1274 3.6513,2.1203 3.6514,2.1155"
   class="ps04 ps10"
   id="path1035"
   style="fill:#ec192d;fill-rule:nonzero;stroke:none;stroke-width:0.0148;stroke-linecap:butt;stroke-linejoin:miter;stroke-miterlimit:10;stroke-dasharray:none" />

<path
   d="M 3.686,2.1163 C 3.6863,2.1102 3.6851,2.1088 3.6831,2.1087 C 3.6811,2.1086 3.6797,2.1098 3.6794,2.116 C 3.6791,2.1222 3.6804,2.1235 3.6824,2.1236 C 3.6843,2.1237 3.6857,2.1225 3.686,2.1163 z M 3.6727,2.1157 C 3.6731,2.1082 3.6776,2.1041 3.6833,2.1044 C 3.689,2.1046 3.6931,2.1092 3.6927,2.1167 C 3.6925,2.1214 3.6897,2.1284 3.6821,2.128 C 3.6746,2.1276 3.6725,2.1204 3.6727,2.1157"
   class="ps04 ps10"
   id="path1037"
   style="fill:#ec192d;fill-rule:nonzero;stroke:none;stroke-width:0.0148;stroke-linecap:butt;stroke-linejoin:miter;stroke-miterlimit:10;stroke-dasharray:none" />

<path
   d="M 3.6956,2.1054 L 3.7142,2.1072 L 3.7137,2.1127 L 3.7033,2.1117 L 3.7033,2.1117 L 3.7092,2.1166 C 3.7114,2.1184 3.713,2.1206 3.7127,2.1235 C 3.7124,2.1263 3.7101,2.1301 3.703,2.1295 C 3.6977,2.129 3.6948,2.1258 3.6939,2.1227 L 3.6988,2.1207 C 3.6993,2.1228 3.7007,2.1249 3.703,2.1251 C 3.7047,2.1252 3.706,2.1243 3.7061,2.1225 C 3.7063,2.1209 3.7046,2.1188 3.7037,2.1179 L 3.6952,2.1096"
   class="ps04 ps10"
   id="path1039"
   style="fill:#ec192d;fill-rule:nonzero;stroke:none;stroke-width:0.0148;stroke-linecap:butt;stroke-linejoin:miter;stroke-miterlimit:10;stroke-dasharray:none" />

<path
   d="M 3.2467,2.5812 C 3.2467,2.8087 3.4318,2.9938 3.6593,2.9938 C 3.8867,2.9938 4.0718,2.8087 4.0718,2.5812 C 4.0718,2.3537 3.8867,2.1687 3.6593,2.1687 C 3.4318,2.1687 3.2467,2.3537 3.2467,2.5812 z M 3.6593,2.1379 C 3.9037,2.1379 4.1026,2.3368 4.1026,2.5812 C 4.1026,2.8257 3.9037,3.0246 3.6593,3.0246 C 3.4148,3.0246 3.2159,2.8257 3.2159,2.5812 C 3.2159,2.3368 3.4148,2.1379 3.6593,2.1379"
   class="ps04 ps10"
   id="path1041"
   style="fill:#ec192d;fill-rule:nonzero;stroke:none;stroke-width:0.0148;stroke-linecap:butt;stroke-linejoin:miter;stroke-miterlimit:10;stroke-dasharray:none" />

<g
   id="q18"
   class="ps04 ps10"
   style="fill:#ec192d;fill-rule:nonzero;stroke:none;stroke-width:0.0148;stroke-linecap:butt;stroke-linejoin:miter;stroke-miterlimit:10;stroke-dasharray:none">
<clipPath
   id="clipPath9461"
   clip-rule="nonzero">
<path
   d="M 3.2467,2.5812 C 3.2467,2.8087 3.4318,2.9938 3.6593,2.9938 C 3.8867,2.9938 4.0718,2.8087 4.0718,2.5812 C 4.0718,2.3537 3.8867,2.1687 3.6593,2.1687 C 3.4318,2.1687 3.2467,2.3537 3.2467,2.5812"
   id="path9463" />

</clipPath>

<g
   clip-path="url(#clp8)"
   id="g1047">
<path
   d="M 3.5769,2.2316 L 3.5993,2.2316 L 3.5993,2.1985 L 3.5996,2.1985 C 3.6028,2.2019 3.6086,2.2042 3.6132,2.2042 C 3.6287,2.2042 3.637,2.1887 3.637,2.1687 C 3.637,2.1528 3.6303,2.1323 3.6115,2.1323 C 3.6028,2.1323 3.5971,2.1364 3.5927,2.1431 L 3.5886,2.1331 L 3.5769,2.1331 L 3.5769,2.2316 z M 3.5993,2.1554 C 3.5989,2.1496 3.6024,2.1464 3.6067,2.1464 C 3.6129,2.1464 3.6137,2.1526 3.6137,2.1655 L 3.6137,2.1707 C 3.6137,2.1846 3.6137,2.1918 3.6068,2.1918 C 3.604,2.1918 3.602,2.1901 3.6006,2.189 L 3.5993,2.1877"
   class="ps05"
   id="path1049"
   style="fill:#f36c60;fill-rule:nonzero;stroke:none" />

<path
   d="M 3.6241,2.2316 L 3.6465,2.2316 L 3.6465,2.1985 L 3.6468,2.1985 C 3.65,2.2019 3.6558,2.2042 3.6604,2.2042 C 3.6758,2.2042 3.6841,2.1887 3.6841,2.1687 C 3.6841,2.1528 3.6775,2.1323 3.6587,2.1323 C 3.65,2.1323 3.6443,2.1364 3.6399,2.1431 L 3.6357,2.1331 L 3.6241,2.1331 L 3.6241,2.2316 z M 3.6465,2.1554 C 3.6461,2.1496 3.6496,2.1464 3.6539,2.1464 C 3.6601,2.1464 3.6609,2.1526 3.6609,2.1655 L 3.6609,2.1707 C 3.6609,2.1846 3.6609,2.1918 3.654,2.1918 C 3.6512,2.1918 3.6492,2.1901 3.6478,2.189 L 3.6465,2.1877"
   class="ps06"
   id="path1051"
   style="fill:#f58273;fill-rule:nonzero;stroke:none" />

<path
   d="M 3.6719,2.1868 L 3.6628,2.1868 L 3.6628,2.2025 L 3.6719,2.2025 L 3.6719,2.2103 C 3.6719,2.2273 3.6804,2.2335 3.6952,2.2335 C 3.6996,2.2335 3.7029,2.2331 3.7065,2.2327 L 3.7065,2.2155 C 3.7052,2.2158 3.7036,2.2161 3.7023,2.2161 C 3.6967,2.2161 3.6943,2.2143 3.6943,2.2102 L 3.6943,2.2025 L 3.7065,2.2025 L 3.7065,2.1868 L 3.6943,2.1868 L 3.6943,2.1331 L 3.6719,2.1331"
   class="ps07"
   id="path1053"
   style="fill:#f79a8a;fill-rule:nonzero;stroke:none" />

<path
   d="M 3.7296,2.1767 C 3.7296,2.1795 3.7294,2.1828 3.7285,2.1854 C 3.7274,2.1882 3.7256,2.1901 3.722,2.1901 C 3.7145,2.1901 3.7137,2.181 3.7137,2.1671 C 3.7137,2.1515 3.7162,2.1464 3.722,2.1464 C 3.7299,2.1464 3.7306,2.1544 3.7306,2.1597 L 3.748,2.1572 C 3.7463,2.1403 3.7366,2.1315 3.7203,2.1315 C 3.7001,2.1315 3.6896,2.1492 3.6896,2.1663 C 3.6896,2.1853 3.7001,2.2042 3.7213,2.2042 C 3.7451,2.2042 3.7487,2.1836 3.7487,2.1767"
   class="ps08"
   id="path1055"
   style="fill:#f9b2a3;fill-rule:nonzero;stroke:none" />

<path
   d="M 3.7391,2.1766 C 3.7441,2.1766 3.7482,2.1726 3.7482,2.1676 C 3.7482,2.1626 3.7441,2.1586 3.7391,2.1586 C 3.7341,2.1586 3.7301,2.1626 3.7301,2.1676 C 3.7301,2.1726 3.7341,2.1766 3.7391,2.1766"
   class="ps09"
   id="path1057"
   style="fill:#fbcbbf;fill-rule:nonzero;stroke:none" />

<path
   d="M 3.5769,2.3451 L 3.5993,2.3451 L 3.5993,2.312 L 3.5996,2.312 C 3.6028,2.3153 3.6086,2.3177 3.6132,2.3177 C 3.6287,2.3177 3.637,2.3022 3.637,2.2821 C 3.637,2.2662 3.6303,2.2458 3.6115,2.2458 C 3.6028,2.2458 3.5971,2.2499 3.5927,2.2565 L 3.5886,2.2466 L 3.5769,2.2466 L 3.5769,2.3451 z M 3.5993,2.2689 C 3.5989,2.263 3.6024,2.2599 3.6067,2.2599 C 3.6129,2.2599 3.6137,2.2661 3.6137,2.279 L 3.6137,2.2842 C 3.6137,2.298 3.6137,2.3052 3.6068,2.3052 C 3.604,2.3052 3.602,2.3036 3.6006,2.3025 L 3.5993,2.3012"
   class="ps05"
   id="path1059"
   style="fill:#f36c60;fill-rule:nonzero;stroke:none" />

<path
   d="M 3.6241,2.3451 L 3.6465,2.3451 L 3.6465,2.312 L 3.6468,2.312 C 3.65,2.3153 3.6558,2.3177 3.6604,2.3177 C 3.6758,2.3177 3.6841,2.3022 3.6841,2.2821 C 3.6841,2.2662 3.6775,2.2458 3.6587,2.2458 C 3.65,2.2458 3.6443,2.2499 3.6399,2.2565 L 3.6357,2.2466 L 3.6241,2.2466 L 3.6241,2.3451 z M 3.6465,2.2689 C 3.6461,2.263 3.6496,2.2599 3.6539,2.2599 C 3.6601,2.2599 3.6609,2.2661 3.6609,2.279 L 3.6609,2.2842 C 3.6609,2.298 3.6609,2.3052 3.654,2.3052 C 3.6512,2.3052 3.6492,2.3036 3.6478,2.3025 L 3.6465,2.3012"
   class="ps06"
   id="path1061"
   style="fill:#f58273;fill-rule:nonzero;stroke:none" />

<path
   d="M 3.6719,2.3002 L 3.6628,2.3002 L 3.6628,2.316 L 3.6719,2.316 L 3.6719,2.3238 C 3.6719,2.3408 3.6804,2.347 3.6952,2.347 C 3.6996,2.347 3.7029,2.3466 3.7065,2.3462 L 3.7065,2.329 C 3.7052,2.3293 3.7036,2.3296 3.7023,2.3296 C 3.6967,2.3296 3.6943,2.3278 3.6943,2.3236 L 3.6943,2.316 L 3.7065,2.316 L 3.7065,2.3002 L 3.6943,2.3002 L 3.6943,2.2466 L 3.6719,2.2466"
   class="ps07"
   id="path1063"
   style="fill:#f79a8a;fill-rule:nonzero;stroke:none" />

<path
   d="M 3.7296,2.2902 C 3.7296,2.2929 3.7294,2.2962 3.7285,2.2989 C 3.7274,2.3016 3.7256,2.3036 3.722,2.3036 C 3.7145,2.3036 3.7137,2.2944 3.7137,2.2806 C 3.7137,2.265 3.7162,2.2599 3.722,2.2599 C 3.7299,2.2599 3.7306,2.2679 3.7306,2.2731 L 3.748,2.2707 C 3.7463,2.2538 3.7366,2.2449 3.7203,2.2449 C 3.7001,2.2449 3.6896,2.2626 3.6896,2.2798 C 3.6896,2.2987 3.7001,2.3177 3.7213,2.3177 C 3.7451,2.3177 3.7487,2.2971 3.7487,2.2902"
   class="ps08"
   id="path1065"
   style="fill:#f9b2a3;fill-rule:nonzero;stroke:none" />

<path
   d="M 3.7391,2.2901 C 3.7441,2.2901 3.7482,2.286 3.7482,2.2811 C 3.7482,2.2761 3.7441,2.272 3.7391,2.272 C 3.7341,2.272 3.7301,2.2761 3.7301,2.2811 C 3.7301,2.286 3.7341,2.2901 3.7391,2.2901"
   class="ps09"
   id="path1067"
   style="fill:#fbcbbf;fill-rule:nonzero;stroke:none" />

<path
   d="M 3.5769,2.4585 L 3.5993,2.4585 L 3.5993,2.4255 L 3.5996,2.4255 C 3.6028,2.4288 3.6086,2.4311 3.6132,2.4311 C 3.6287,2.4311 3.637,2.4157 3.637,2.3956 C 3.637,2.3797 3.6303,2.3592 3.6115,2.3592 C 3.6028,2.3592 3.5971,2.3634 3.5927,2.37 L 3.5886,2.3601 L 3.5769,2.3601 L 3.5769,2.4585 z M 3.5993,2.3823 C 3.5989,2.3765 3.6024,2.3733 3.6067,2.3733 C 3.6129,2.3733 3.6137,2.3796 3.6137,2.3924 L 3.6137,2.3977 C 3.6137,2.4115 3.6137,2.4187 3.6068,2.4187 C 3.604,2.4187 3.602,2.417 3.6006,2.4159 L 3.5993,2.4147"
   class="ps05"
   id="path1069"
   style="fill:#f36c60;fill-rule:nonzero;stroke:none" />

<path
   d="M 3.6241,2.4585 L 3.6465,2.4585 L 3.6465,2.4255 L 3.6468,2.4255 C 3.65,2.4288 3.6558,2.4311 3.6604,2.4311 C 3.6758,2.4311 3.6841,2.4157 3.6841,2.3956 C 3.6841,2.3797 3.6775,2.3592 3.6587,2.3592 C 3.65,2.3592 3.6443,2.3634 3.6399,2.37 L 3.6357,2.3601 L 3.6241,2.3601 L 3.6241,2.4585 z M 3.6465,2.3823 C 3.6461,2.3765 3.6496,2.3733 3.6539,2.3733 C 3.6601,2.3733 3.6609,2.3796 3.6609,2.3924 L 3.6609,2.3977 C 3.6609,2.4115 3.6609,2.4187 3.654,2.4187 C 3.6512,2.4187 3.6492,2.417 3.6478,2.4159 L 3.6465,2.4147"
   class="ps06"
   id="path1071"
   style="fill:#f58273;fill-rule:nonzero;stroke:none" />

<path
   d="M 3.6719,2.4137 L 3.6628,2.4137 L 3.6628,2.4295 L 3.6719,2.4295 L 3.6719,2.4372 C 3.6719,2.4542 3.6804,2.4605 3.6952,2.4605 C 3.6996,2.4605 3.7029,2.46 3.7065,2.4596 L 3.7065,2.4425 C 3.7052,2.4428 3.7036,2.443 3.7023,2.443 C 3.6967,2.443 3.6943,2.4412 3.6943,2.4371 L 3.6943,2.4295 L 3.7065,2.4295 L 3.7065,2.4137 L 3.6943,2.4137 L 3.6943,2.3601 L 3.6719,2.3601"
   class="ps07"
   id="path1073"
   style="fill:#f79a8a;fill-rule:nonzero;stroke:none" />

<path
   d="M 3.7296,2.4036 C 3.7296,2.4064 3.7294,2.4097 3.7285,2.4123 C 3.7274,2.4151 3.7256,2.417 3.722,2.417 C 3.7145,2.417 3.7137,2.4079 3.7137,2.3941 C 3.7137,2.3785 3.7162,2.3733 3.722,2.3733 C 3.7299,2.3733 3.7306,2.3814 3.7306,2.3866 L 3.748,2.3841 C 3.7463,2.3673 3.7366,2.3584 3.7203,2.3584 C 3.7001,2.3584 3.6896,2.3761 3.6896,2.3933 C 3.6896,2.4122 3.7001,2.4311 3.7213,2.4311 C 3.7451,2.4311 3.7487,2.4105 3.7487,2.4036"
   class="ps08"
   id="path1075"
   style="fill:#f9b2a3;fill-rule:nonzero;stroke:none" />

<path
   d="M 3.7391,2.4036 C 3.7441,2.4036 3.7482,2.3995 3.7482,2.3945 C 3.7482,2.3896 3.7441,2.3855 3.7391,2.3855 C 3.7341,2.3855 3.7301,2.3896 3.7301,2.3945 C 3.7301,2.3995 3.7341,2.4036 3.7391,2.4036"
   class="ps09"
   id="path1077"
   style="fill:#fbcbbf;fill-rule:nonzero;stroke:none" />

<path
   d="M 3.5769,2.572 L 3.5993,2.572 L 3.5993,2.5389 L 3.5996,2.5389 C 3.6028,2.5422 3.6086,2.5446 3.6132,2.5446 C 3.6287,2.5446 3.637,2.5291 3.637,2.5091 C 3.637,2.4932 3.6303,2.4727 3.6115,2.4727 C 3.6028,2.4727 3.5971,2.4769 3.5927,2.4835 L 3.5886,2.4735 L 3.5769,2.4735 L 3.5769,2.572 z M 3.5993,2.4958 C 3.5989,2.49 3.6024,2.4868 3.6067,2.4868 C 3.6129,2.4868 3.6137,2.493 3.6137,2.5059 L 3.6137,2.5111 C 3.6137,2.525 3.6137,2.5322 3.6068,2.5322 C 3.604,2.5322 3.602,2.5305 3.6006,2.5294 L 3.5993,2.5282"
   class="ps05"
   id="path1079"
   style="fill:#f36c60;fill-rule:nonzero;stroke:none" />

<path
   d="M 3.6241,2.572 L 3.6465,2.572 L 3.6465,2.5389 L 3.6468,2.5389 C 3.65,2.5422 3.6558,2.5446 3.6604,2.5446 C 3.6758,2.5446 3.6841,2.5291 3.6841,2.5091 C 3.6841,2.4932 3.6775,2.4727 3.6587,2.4727 C 3.65,2.4727 3.6443,2.4769 3.6399,2.4835 L 3.6357,2.4735 L 3.6241,2.4735 L 3.6241,2.572 z M 3.6465,2.4958 C 3.6461,2.49 3.6496,2.4868 3.6539,2.4868 C 3.6601,2.4868 3.6609,2.493 3.6609,2.5059 L 3.6609,2.5111 C 3.6609,2.525 3.6609,2.5322 3.654,2.5322 C 3.6512,2.5322 3.6492,2.5305 3.6478,2.5294 L 3.6465,2.5282"
   class="ps06"
   id="path1081"
   style="fill:#f58273;fill-rule:nonzero;stroke:none" />

<path
   d="M 3.6719,2.5272 L 3.6628,2.5272 L 3.6628,2.5429 L 3.6719,2.5429 L 3.6719,2.5507 C 3.6719,2.5677 3.6804,2.5739 3.6952,2.5739 C 3.6996,2.5739 3.7029,2.5735 3.7065,2.5731 L 3.7065,2.5559 C 3.7052,2.5562 3.7036,2.5565 3.7023,2.5565 C 3.6967,2.5565 3.6943,2.5547 3.6943,2.5505 L 3.6943,2.5429 L 3.7065,2.5429 L 3.7065,2.5272 L 3.6943,2.5272 L 3.6943,2.4735 L 3.6719,2.4735"
   class="ps07"
   id="path1083"
   style="fill:#f79a8a;fill-rule:nonzero;stroke:none" />

<path
   d="M 3.7296,2.5171 C 3.7296,2.5199 3.7294,2.5232 3.7285,2.5258 C 3.7274,2.5286 3.7256,2.5305 3.722,2.5305 C 3.7145,2.5305 3.7137,2.5214 3.7137,2.5076 C 3.7137,2.4919 3.7162,2.4868 3.722,2.4868 C 3.7299,2.4868 3.7306,2.4948 3.7306,2.5001 L 3.748,2.4976 C 3.7463,2.4807 3.7366,2.4719 3.7203,2.4719 C 3.7001,2.4719 3.6896,2.4896 3.6896,2.5067 C 3.6896,2.5257 3.7001,2.5446 3.7213,2.5446 C 3.7451,2.5446 3.7487,2.524 3.7487,2.5171"
   class="ps08"
   id="path1085"
   style="fill:#f9b2a3;fill-rule:nonzero;stroke:none" />

<path
   d="M 3.7391,2.517 C 3.7441,2.517 3.7482,2.513 3.7482,2.508 C 3.7482,2.5031 3.7441,2.499 3.7391,2.499 C 3.7341,2.499 3.7301,2.5031 3.7301,2.508 C 3.7301,2.513 3.7341,2.517 3.7391,2.517"
   class="ps09"
   id="path1087"
   style="fill:#fbcbbf;fill-rule:nonzero;stroke:none" />

<path
   d="M 3.3778,2.2316 L 3.4002,2.2316 L 3.4002,2.1985 L 3.4005,2.1985 C 3.4037,2.2019 3.4095,2.2042 3.414,2.2042 C 3.4295,2.2042 3.4378,2.1887 3.4378,2.1687 C 3.4378,2.1528 3.4312,2.1323 3.4124,2.1323 C 3.4037,2.1323 3.398,2.1364 3.3936,2.1431 L 3.3894,2.1331 L 3.3778,2.1331 L 3.3778,2.2316 z M 3.4002,2.1554 C 3.3998,2.1496 3.4032,2.1464 3.4075,2.1464 C 3.4138,2.1464 3.4146,2.1526 3.4146,2.1655 L 3.4146,2.1707 C 3.4146,2.1846 3.4146,2.1918 3.4077,2.1918 C 3.4049,2.1918 3.4028,2.1901 3.4014,2.189 L 3.4002,2.1877"
   class="ps05"
   id="path1089"
   style="fill:#f36c60;fill-rule:nonzero;stroke:none" />

<path
   d="M 3.425,2.2316 L 3.4474,2.2316 L 3.4474,2.1985 L 3.4477,2.1985 C 3.4508,2.2019 3.4566,2.2042 3.4612,2.2042 C 3.4767,2.2042 3.485,2.1887 3.485,2.1687 C 3.485,2.1528 3.4783,2.1323 3.4595,2.1323 C 3.4508,2.1323 3.4452,2.1364 3.4407,2.1431 L 3.4366,2.1331 L 3.425,2.1331 L 3.425,2.2316 z M 3.4474,2.1554 C 3.447,2.1496 3.4504,2.1464 3.4547,2.1464 C 3.4609,2.1464 3.4617,2.1526 3.4617,2.1655 L 3.4617,2.1707 C 3.4617,2.1846 3.4617,2.1918 3.4548,2.1918 C 3.4521,2.1918 3.45,2.1901 3.4486,2.189 L 3.4474,2.1877"
   class="ps06"
   id="path1091"
   style="fill:#f58273;fill-rule:nonzero;stroke:none" />

<path
   d="M 3.4728,2.1868 L 3.4637,2.1868 L 3.4637,2.2025 L 3.4728,2.2025 L 3.4728,2.2103 C 3.4728,2.2273 3.4812,2.2335 3.496,2.2335 C 3.5004,2.2335 3.5038,2.2331 3.5074,2.2327 L 3.5074,2.2155 C 3.5061,2.2158 3.5044,2.2161 3.5032,2.2161 C 3.4975,2.2161 3.4952,2.2143 3.4952,2.2102 L 3.4952,2.2025 L 3.5074,2.2025 L 3.5074,2.1868 L 3.4952,2.1868 L 3.4952,2.1331 L 3.4728,2.1331"
   class="ps07"
   id="path1093"
   style="fill:#f79a8a;fill-rule:nonzero;stroke:none" />

<path
   d="M 3.5304,2.1767 C 3.5304,2.1795 3.5303,2.1828 3.5293,2.1854 C 3.5282,2.1882 3.5264,2.1901 3.5228,2.1901 C 3.5154,2.1901 3.5145,2.181 3.5145,2.1671 C 3.5145,2.1515 3.517,2.1464 3.5228,2.1464 C 3.5307,2.1464 3.5314,2.1544 3.5314,2.1597 L 3.5488,2.1572 C 3.5472,2.1403 3.5375,2.1315 3.5212,2.1315 C 3.501,2.1315 3.4905,2.1492 3.4905,2.1663 C 3.4905,2.1853 3.501,2.2042 3.5221,2.2042 C 3.5459,2.2042 3.5495,2.1836 3.5495,2.1767"
   class="ps08"
   id="path1095"
   style="fill:#f9b2a3;fill-rule:nonzero;stroke:none" />

<path
   d="M 3.54,2.1766 C 3.5449,2.1766 3.549,2.1726 3.549,2.1676 C 3.549,2.1626 3.5449,2.1586 3.54,2.1586 C 3.535,2.1586 3.531,2.1626 3.531,2.1676 C 3.531,2.1726 3.535,2.1766 3.54,2.1766"
   class="ps09"
   id="path1097"
   style="fill:#fbcbbf;fill-rule:nonzero;stroke:none" />

<path
   d="M 3.3778,2.3451 L 3.4002,2.3451 L 3.4002,2.312 L 3.4005,2.312 C 3.4037,2.3153 3.4095,2.3177 3.414,2.3177 C 3.4295,2.3177 3.4378,2.3022 3.4378,2.2821 C 3.4378,2.2662 3.4312,2.2458 3.4124,2.2458 C 3.4037,2.2458 3.398,2.2499 3.3936,2.2565 L 3.3894,2.2466 L 3.3778,2.2466 L 3.3778,2.3451 z M 3.4002,2.2689 C 3.3998,2.263 3.4032,2.2599 3.4075,2.2599 C 3.4138,2.2599 3.4146,2.2661 3.4146,2.279 L 3.4146,2.2842 C 3.4146,2.298 3.4146,2.3052 3.4077,2.3052 C 3.4049,2.3052 3.4028,2.3036 3.4014,2.3025 L 3.4002,2.3012"
   class="ps05"
   id="path1099"
   style="fill:#f36c60;fill-rule:nonzero;stroke:none" />

<path
   d="M 3.425,2.3451 L 3.4474,2.3451 L 3.4474,2.312 L 3.4477,2.312 C 3.4508,2.3153 3.4566,2.3177 3.4612,2.3177 C 3.4767,2.3177 3.485,2.3022 3.485,2.2821 C 3.485,2.2662 3.4783,2.2458 3.4595,2.2458 C 3.4508,2.2458 3.4452,2.2499 3.4407,2.2565 L 3.4366,2.2466 L 3.425,2.2466 L 3.425,2.3451 z M 3.4474,2.2689 C 3.447,2.263 3.4504,2.2599 3.4547,2.2599 C 3.4609,2.2599 3.4617,2.2661 3.4617,2.279 L 3.4617,2.2842 C 3.4617,2.298 3.4617,2.3052 3.4548,2.3052 C 3.4521,2.3052 3.45,2.3036 3.4486,2.3025 L 3.4474,2.3012"
   class="ps06"
   id="path1101"
   style="fill:#f58273;fill-rule:nonzero;stroke:none" />

<path
   d="M 3.4728,2.3002 L 3.4637,2.3002 L 3.4637,2.316 L 3.4728,2.316 L 3.4728,2.3238 C 3.4728,2.3408 3.4812,2.347 3.496,2.347 C 3.5004,2.347 3.5038,2.3466 3.5074,2.3462 L 3.5074,2.329 C 3.5061,2.3293 3.5044,2.3296 3.5032,2.3296 C 3.4975,2.3296 3.4952,2.3278 3.4952,2.3236 L 3.4952,2.316 L 3.5074,2.316 L 3.5074,2.3002 L 3.4952,2.3002 L 3.4952,2.2466 L 3.4728,2.2466"
   class="ps07"
   id="path1103"
   style="fill:#f79a8a;fill-rule:nonzero;stroke:none" />

<path
   d="M 3.5304,2.2902 C 3.5304,2.2929 3.5303,2.2962 3.5293,2.2989 C 3.5282,2.3016 3.5264,2.3036 3.5228,2.3036 C 3.5154,2.3036 3.5145,2.2944 3.5145,2.2806 C 3.5145,2.265 3.517,2.2599 3.5228,2.2599 C 3.5307,2.2599 3.5314,2.2679 3.5314,2.2731 L 3.5488,2.2707 C 3.5472,2.2538 3.5375,2.2449 3.5212,2.2449 C 3.501,2.2449 3.4905,2.2626 3.4905,2.2798 C 3.4905,2.2987 3.501,2.3177 3.5221,2.3177 C 3.5459,2.3177 3.5495,2.2971 3.5495,2.2902"
   class="ps08"
   id="path1105"
   style="fill:#f9b2a3;fill-rule:nonzero;stroke:none" />

<path
   d="M 3.54,2.2901 C 3.5449,2.2901 3.549,2.286 3.549,2.2811 C 3.549,2.2761 3.5449,2.272 3.54,2.272 C 3.535,2.272 3.531,2.2761 3.531,2.2811 C 3.531,2.286 3.535,2.2901 3.54,2.2901"
   class="ps09"
   id="path1107"
   style="fill:#fbcbbf;fill-rule:nonzero;stroke:none" />

<path
   d="M 3.3778,2.4585 L 3.4002,2.4585 L 3.4002,2.4255 L 3.4005,2.4255 C 3.4037,2.4288 3.4095,2.4311 3.414,2.4311 C 3.4295,2.4311 3.4378,2.4157 3.4378,2.3956 C 3.4378,2.3797 3.4312,2.3592 3.4124,2.3592 C 3.4037,2.3592 3.398,2.3634 3.3936,2.37 L 3.3894,2.3601 L 3.3778,2.3601 L 3.3778,2.4585 z M 3.4002,2.3823 C 3.3998,2.3765 3.4032,2.3733 3.4075,2.3733 C 3.4138,2.3733 3.4146,2.3796 3.4146,2.3924 L 3.4146,2.3977 C 3.4146,2.4115 3.4146,2.4187 3.4077,2.4187 C 3.4049,2.4187 3.4028,2.417 3.4014,2.4159 L 3.4002,2.4147"
   class="ps05"
   id="path1109"
   style="fill:#f36c60;fill-rule:nonzero;stroke:none" />

<path
   d="M 3.425,2.4585 L 3.4474,2.4585 L 3.4474,2.4255 L 3.4477,2.4255 C 3.4508,2.4288 3.4566,2.4311 3.4612,2.4311 C 3.4767,2.4311 3.485,2.4157 3.485,2.3956 C 3.485,2.3797 3.4783,2.3592 3.4595,2.3592 C 3.4508,2.3592 3.4452,2.3634 3.4407,2.37 L 3.4366,2.3601 L 3.425,2.3601 L 3.425,2.4585 z M 3.4474,2.3823 C 3.447,2.3765 3.4504,2.3733 3.4547,2.3733 C 3.4609,2.3733 3.4617,2.3796 3.4617,2.3924 L 3.4617,2.3977 C 3.4617,2.4115 3.4617,2.4187 3.4548,2.4187 C 3.4521,2.4187 3.45,2.417 3.4486,2.4159 L 3.4474,2.4147"
   class="ps06"
   id="path1111"
   style="fill:#f58273;fill-rule:nonzero;stroke:none" />

<path
   d="M 3.4728,2.4137 L 3.4637,2.4137 L 3.4637,2.4295 L 3.4728,2.4295 L 3.4728,2.4372 C 3.4728,2.4542 3.4812,2.4605 3.496,2.4605 C 3.5004,2.4605 3.5038,2.46 3.5074,2.4596 L 3.5074,2.4425 C 3.5061,2.4428 3.5044,2.443 3.5032,2.443 C 3.4975,2.443 3.4952,2.4412 3.4952,2.4371 L 3.4952,2.4295 L 3.5074,2.4295 L 3.5074,2.4137 L 3.4952,2.4137 L 3.4952,2.3601 L 3.4728,2.3601"
   class="ps07"
   id="path1113"
   style="fill:#f79a8a;fill-rule:nonzero;stroke:none" />

<path
   d="M 3.5304,2.4036 C 3.5304,2.4064 3.5303,2.4097 3.5293,2.4123 C 3.5282,2.4151 3.5264,2.417 3.5228,2.417 C 3.5154,2.417 3.5145,2.4079 3.5145,2.3941 C 3.5145,2.3785 3.517,2.3733 3.5228,2.3733 C 3.5307,2.3733 3.5314,2.3814 3.5314,2.3866 L 3.5488,2.3841 C 3.5472,2.3673 3.5375,2.3584 3.5212,2.3584 C 3.501,2.3584 3.4905,2.3761 3.4905,2.3933 C 3.4905,2.4122 3.501,2.4311 3.5221,2.4311 C 3.5459,2.4311 3.5495,2.4105 3.5495,2.4036"
   class="ps08"
   id="path1115"
   style="fill:#f9b2a3;fill-rule:nonzero;stroke:none" />

<path
   d="M 3.54,2.4036 C 3.5449,2.4036 3.549,2.3995 3.549,2.3945 C 3.549,2.3896 3.5449,2.3855 3.54,2.3855 C 3.535,2.3855 3.531,2.3896 3.531,2.3945 C 3.531,2.3995 3.535,2.4036 3.54,2.4036"
   class="ps09"
   id="path1117"
   style="fill:#fbcbbf;fill-rule:nonzero;stroke:none" />

<path
   d="M 3.3778,2.572 L 3.4002,2.572 L 3.4002,2.5389 L 3.4005,2.5389 C 3.4037,2.5422 3.4095,2.5446 3.414,2.5446 C 3.4295,2.5446 3.4378,2.5291 3.4378,2.5091 C 3.4378,2.4932 3.4312,2.4727 3.4124,2.4727 C 3.4037,2.4727 3.398,2.4769 3.3936,2.4835 L 3.3894,2.4735 L 3.3778,2.4735 L 3.3778,2.572 z M 3.4002,2.4958 C 3.3998,2.49 3.4032,2.4868 3.4075,2.4868 C 3.4138,2.4868 3.4146,2.493 3.4146,2.5059 L 3.4146,2.5111 C 3.4146,2.525 3.4146,2.5322 3.4077,2.5322 C 3.4049,2.5322 3.4028,2.5305 3.4014,2.5294 L 3.4002,2.5282"
   class="ps05"
   id="path1119"
   style="fill:#f36c60;fill-rule:nonzero;stroke:none" />

<path
   d="M 3.425,2.572 L 3.4474,2.572 L 3.4474,2.5389 L 3.4477,2.5389 C 3.4508,2.5422 3.4566,2.5446 3.4612,2.5446 C 3.4767,2.5446 3.485,2.5291 3.485,2.5091 C 3.485,2.4932 3.4783,2.4727 3.4595,2.4727 C 3.4508,2.4727 3.4452,2.4769 3.4407,2.4835 L 3.4366,2.4735 L 3.425,2.4735 L 3.425,2.572 z M 3.4474,2.4958 C 3.447,2.49 3.4504,2.4868 3.4547,2.4868 C 3.4609,2.4868 3.4617,2.493 3.4617,2.5059 L 3.4617,2.5111 C 3.4617,2.525 3.4617,2.5322 3.4548,2.5322 C 3.4521,2.5322 3.45,2.5305 3.4486,2.5294 L 3.4474,2.5282"
   class="ps06"
   id="path1121"
   style="fill:#f58273;fill-rule:nonzero;stroke:none" />

<path
   d="M 3.4728,2.5272 L 3.4637,2.5272 L 3.4637,2.5429 L 3.4728,2.5429 L 3.4728,2.5507 C 3.4728,2.5677 3.4812,2.5739 3.496,2.5739 C 3.5004,2.5739 3.5038,2.5735 3.5074,2.5731 L 3.5074,2.5559 C 3.5061,2.5562 3.5044,2.5565 3.5032,2.5565 C 3.4975,2.5565 3.4952,2.5547 3.4952,2.5505 L 3.4952,2.5429 L 3.5074,2.5429 L 3.5074,2.5272 L 3.4952,2.5272 L 3.4952,2.4735 L 3.4728,2.4735"
   class="ps07"
   id="path1123"
   style="fill:#f79a8a;fill-rule:nonzero;stroke:none" />

<path
   d="M 3.5304,2.5171 C 3.5304,2.5199 3.5303,2.5232 3.5293,2.5258 C 3.5282,2.5286 3.5264,2.5305 3.5228,2.5305 C 3.5154,2.5305 3.5145,2.5214 3.5145,2.5076 C 3.5145,2.4919 3.517,2.4868 3.5228,2.4868 C 3.5307,2.4868 3.5314,2.4948 3.5314,2.5001 L 3.5488,2.4976 C 3.5472,2.4807 3.5375,2.4719 3.5212,2.4719 C 3.501,2.4719 3.4905,2.4896 3.4905,2.5067 C 3.4905,2.5257 3.501,2.5446 3.5221,2.5446 C 3.5459,2.5446 3.5495,2.524 3.5495,2.5171"
   class="ps08"
   id="path1125"
   style="fill:#f9b2a3;fill-rule:nonzero;stroke:none" />

<path
   d="M 3.54,2.517 C 3.5449,2.517 3.549,2.513 3.549,2.508 C 3.549,2.5031 3.5449,2.499 3.54,2.499 C 3.535,2.499 3.531,2.5031 3.531,2.508 C 3.531,2.513 3.535,2.517 3.54,2.517"
   class="ps09"
   id="path1127"
   style="fill:#fbcbbf;fill-rule:nonzero;stroke:none" />

<path
   d="M 3.1787,2.3451 L 3.2011,2.3451 L 3.2011,2.312 L 3.2013,2.312 C 3.2045,2.3153 3.2103,2.3177 3.2149,2.3177 C 3.2304,2.3177 3.2387,2.3022 3.2387,2.2821 C 3.2387,2.2662 3.232,2.2458 3.2132,2.2458 C 3.2045,2.2458 3.1988,2.2499 3.1944,2.2565 L 3.1903,2.2466 L 3.1787,2.2466 L 3.1787,2.3451 z M 3.2011,2.2689 C 3.2006,2.263 3.2041,2.2599 3.2084,2.2599 C 3.2146,2.2599 3.2154,2.2661 3.2154,2.279 L 3.2154,2.2842 C 3.2154,2.298 3.2154,2.3052 3.2085,2.3052 C 3.2058,2.3052 3.2037,2.3036 3.2023,2.3025 L 3.2011,2.3012"
   class="ps05"
   id="path1129"
   style="fill:#f36c60;fill-rule:nonzero;stroke:none" />

<path
   d="M 3.2258,2.3451 L 3.2482,2.3451 L 3.2482,2.312 L 3.2485,2.312 C 3.2517,2.3153 3.2575,2.3177 3.2621,2.3177 C 3.2775,2.3177 3.2858,2.3022 3.2858,2.2821 C 3.2858,2.2662 3.2792,2.2458 3.2604,2.2458 C 3.2517,2.2458 3.246,2.2499 3.2416,2.2565 L 3.2374,2.2466 L 3.2258,2.2466 L 3.2258,2.3451 z M 3.2482,2.2689 C 3.2478,2.263 3.2513,2.2599 3.2556,2.2599 C 3.2618,2.2599 3.2626,2.2661 3.2626,2.279 L 3.2626,2.2842 C 3.2626,2.298 3.2626,2.3052 3.2557,2.3052 C 3.2529,2.3052 3.2508,2.3036 3.2495,2.3025 L 3.2482,2.3012"
   class="ps06"
   id="path1131"
   style="fill:#f58273;fill-rule:nonzero;stroke:none" />

<path
   d="M 3.2736,2.3002 L 3.2645,2.3002 L 3.2645,2.316 L 3.2736,2.316 L 3.2736,2.3238 C 3.2736,2.3408 3.2821,2.347 3.2969,2.347 C 3.3013,2.347 3.3046,2.3466 3.3082,2.3462 L 3.3082,2.329 C 3.307,2.3293 3.3053,2.3296 3.3041,2.3296 C 3.2984,2.3296 3.296,2.3278 3.296,2.3236 L 3.296,2.316 L 3.3082,2.316 L 3.3082,2.3002 L 3.296,2.3002 L 3.296,2.2466 L 3.2736,2.2466"
   class="ps07"
   id="path1133"
   style="fill:#f79a8a;fill-rule:nonzero;stroke:none" />

<path
   d="M 3.3313,2.2902 C 3.3313,2.2929 3.3312,2.2962 3.3302,2.2989 C 3.3291,2.3016 3.3273,2.3036 3.3237,2.3036 C 3.3162,2.3036 3.3154,2.2944 3.3154,2.2806 C 3.3154,2.265 3.3179,2.2599 3.3237,2.2599 C 3.3316,2.2599 3.3323,2.2679 3.3323,2.2731 L 3.3497,2.2707 C 3.348,2.2538 3.3384,2.2449 3.322,2.2449 C 3.3018,2.2449 3.2913,2.2626 3.2913,2.2798 C 3.2913,2.2987 3.3018,2.3177 3.323,2.3177 C 3.3468,2.3177 3.3504,2.2971 3.3504,2.2902"
   class="ps08"
   id="path1135"
   style="fill:#f9b2a3;fill-rule:nonzero;stroke:none" />

<path
   d="M 3.3408,2.2901 C 3.3458,2.2901 3.3499,2.286 3.3499,2.2811 C 3.3499,2.2761 3.3458,2.272 3.3408,2.272 C 3.3359,2.272 3.3318,2.2761 3.3318,2.2811 C 3.3318,2.286 3.3359,2.2901 3.3408,2.2901"
   class="ps09"
   id="path1137"
   style="fill:#fbcbbf;fill-rule:nonzero;stroke:none" />

<path
   d="M 3.1787,2.4585 L 3.2011,2.4585 L 3.2011,2.4255 L 3.2013,2.4255 C 3.2045,2.4288 3.2103,2.4311 3.2149,2.4311 C 3.2304,2.4311 3.2387,2.4157 3.2387,2.3956 C 3.2387,2.3797 3.232,2.3592 3.2132,2.3592 C 3.2045,2.3592 3.1988,2.3634 3.1944,2.37 L 3.1903,2.3601 L 3.1787,2.3601 L 3.1787,2.4585 z M 3.2011,2.3823 C 3.2006,2.3765 3.2041,2.3733 3.2084,2.3733 C 3.2146,2.3733 3.2154,2.3796 3.2154,2.3924 L 3.2154,2.3977 C 3.2154,2.4115 3.2154,2.4187 3.2085,2.4187 C 3.2058,2.4187 3.2037,2.417 3.2023,2.4159 L 3.2011,2.4147"
   class="ps05"
   id="path1139"
   style="fill:#f36c60;fill-rule:nonzero;stroke:none" />

<path
   d="M 3.2258,2.4585 L 3.2482,2.4585 L 3.2482,2.4255 L 3.2485,2.4255 C 3.2517,2.4288 3.2575,2.4311 3.2621,2.4311 C 3.2775,2.4311 3.2858,2.4157 3.2858,2.3956 C 3.2858,2.3797 3.2792,2.3592 3.2604,2.3592 C 3.2517,2.3592 3.246,2.3634 3.2416,2.37 L 3.2374,2.3601 L 3.2258,2.3601 L 3.2258,2.4585 z M 3.2482,2.3823 C 3.2478,2.3765 3.2513,2.3733 3.2556,2.3733 C 3.2618,2.3733 3.2626,2.3796 3.2626,2.3924 L 3.2626,2.3977 C 3.2626,2.4115 3.2626,2.4187 3.2557,2.4187 C 3.2529,2.4187 3.2508,2.417 3.2495,2.4159 L 3.2482,2.4147"
   class="ps06"
   id="path1141"
   style="fill:#f58273;fill-rule:nonzero;stroke:none" />

<path
   d="M 3.2736,2.4137 L 3.2645,2.4137 L 3.2645,2.4295 L 3.2736,2.4295 L 3.2736,2.4372 C 3.2736,2.4542 3.2821,2.4605 3.2969,2.4605 C 3.3013,2.4605 3.3046,2.46 3.3082,2.4596 L 3.3082,2.4425 C 3.307,2.4428 3.3053,2.443 3.3041,2.443 C 3.2984,2.443 3.296,2.4412 3.296,2.4371 L 3.296,2.4295 L 3.3082,2.4295 L 3.3082,2.4137 L 3.296,2.4137 L 3.296,2.3601 L 3.2736,2.3601"
   class="ps07"
   id="path1143"
   style="fill:#f79a8a;fill-rule:nonzero;stroke:none" />

<path
   d="M 3.3313,2.4036 C 3.3313,2.4064 3.3312,2.4097 3.3302,2.4123 C 3.3291,2.4151 3.3273,2.417 3.3237,2.417 C 3.3162,2.417 3.3154,2.4079 3.3154,2.3941 C 3.3154,2.3785 3.3179,2.3733 3.3237,2.3733 C 3.3316,2.3733 3.3323,2.3814 3.3323,2.3866 L 3.3497,2.3841 C 3.348,2.3673 3.3384,2.3584 3.322,2.3584 C 3.3018,2.3584 3.2913,2.3761 3.2913,2.3933 C 3.2913,2.4122 3.3018,2.4311 3.323,2.4311 C 3.3468,2.4311 3.3504,2.4105 3.3504,2.4036"
   class="ps08"
   id="path1145"
   style="fill:#f9b2a3;fill-rule:nonzero;stroke:none" />

<path
   d="M 3.3408,2.4036 C 3.3458,2.4036 3.3499,2.3995 3.3499,2.3945 C 3.3499,2.3896 3.3458,2.3855 3.3408,2.3855 C 3.3359,2.3855 3.3318,2.3896 3.3318,2.3945 C 3.3318,2.3995 3.3359,2.4036 3.3408,2.4036"
   class="ps09"
   id="path1147"
   style="fill:#fbcbbf;fill-rule:nonzero;stroke:none" />

<path
   d="M 3.1787,2.572 L 3.2011,2.572 L 3.2011,2.5389 L 3.2013,2.5389 C 3.2045,2.5422 3.2103,2.5446 3.2149,2.5446 C 3.2304,2.5446 3.2387,2.5291 3.2387,2.5091 C 3.2387,2.4932 3.232,2.4727 3.2132,2.4727 C 3.2045,2.4727 3.1988,2.4769 3.1944,2.4835 L 3.1903,2.4735 L 3.1787,2.4735 L 3.1787,2.572 z M 3.2011,2.4958 C 3.2006,2.49 3.2041,2.4868 3.2084,2.4868 C 3.2146,2.4868 3.2154,2.493 3.2154,2.5059 L 3.2154,2.5111 C 3.2154,2.525 3.2154,2.5322 3.2085,2.5322 C 3.2058,2.5322 3.2037,2.5305 3.2023,2.5294 L 3.2011,2.5282"
   class="ps05"
   id="path1149"
   style="fill:#f36c60;fill-rule:nonzero;stroke:none" />

<path
   d="M 3.2258,2.572 L 3.2482,2.572 L 3.2482,2.5389 L 3.2485,2.5389 C 3.2517,2.5422 3.2575,2.5446 3.2621,2.5446 C 3.2775,2.5446 3.2858,2.5291 3.2858,2.5091 C 3.2858,2.4932 3.2792,2.4727 3.2604,2.4727 C 3.2517,2.4727 3.246,2.4769 3.2416,2.4835 L 3.2374,2.4735 L 3.2258,2.4735 L 3.2258,2.572 z M 3.2482,2.4958 C 3.2478,2.49 3.2513,2.4868 3.2556,2.4868 C 3.2618,2.4868 3.2626,2.493 3.2626,2.5059 L 3.2626,2.5111 C 3.2626,2.525 3.2626,2.5322 3.2557,2.5322 C 3.2529,2.5322 3.2508,2.5305 3.2495,2.5294 L 3.2482,2.5282"
   class="ps06"
   id="path1151"
   style="fill:#f58273;fill-rule:nonzero;stroke:none" />

<path
   d="M 3.2736,2.5272 L 3.2645,2.5272 L 3.2645,2.5429 L 3.2736,2.5429 L 3.2736,2.5507 C 3.2736,2.5677 3.2821,2.5739 3.2969,2.5739 C 3.3013,2.5739 3.3046,2.5735 3.3082,2.5731 L 3.3082,2.5559 C 3.307,2.5562 3.3053,2.5565 3.3041,2.5565 C 3.2984,2.5565 3.296,2.5547 3.296,2.5505 L 3.296,2.5429 L 3.3082,2.5429 L 3.3082,2.5272 L 3.296,2.5272 L 3.296,2.4735 L 3.2736,2.4735"
   class="ps07"
   id="path1153"
   style="fill:#f79a8a;fill-rule:nonzero;stroke:none" />

<path
   d="M 3.3313,2.5171 C 3.3313,2.5199 3.3312,2.5232 3.3302,2.5258 C 3.3291,2.5286 3.3273,2.5305 3.3237,2.5305 C 3.3162,2.5305 3.3154,2.5214 3.3154,2.5076 C 3.3154,2.4919 3.3179,2.4868 3.3237,2.4868 C 3.3316,2.4868 3.3323,2.4948 3.3323,2.5001 L 3.3497,2.4976 C 3.348,2.4807 3.3384,2.4719 3.322,2.4719 C 3.3018,2.4719 3.2913,2.4896 3.2913,2.5067 C 3.2913,2.5257 3.3018,2.5446 3.323,2.5446 C 3.3468,2.5446 3.3504,2.524 3.3504,2.5171"
   class="ps08"
   id="path1155"
   style="fill:#f9b2a3;fill-rule:nonzero;stroke:none" />

<path
   d="M 3.3408,2.517 C 3.3458,2.517 3.3499,2.513 3.3499,2.508 C 3.3499,2.5031 3.3458,2.499 3.3408,2.499 C 3.3359,2.499 3.3318,2.5031 3.3318,2.508 C 3.3318,2.513 3.3359,2.517 3.3408,2.517"
   class="ps09"
   id="path1157"
   style="fill:#fbcbbf;fill-rule:nonzero;stroke:none" />

<path
   d="M 3.7761,2.2316 L 3.7985,2.2316 L 3.7985,2.1985 L 3.7988,2.1985 C 3.802,2.2019 3.8078,2.2042 3.8123,2.2042 C 3.8278,2.2042 3.8361,2.1887 3.8361,2.1687 C 3.8361,2.1528 3.8295,2.1323 3.8107,2.1323 C 3.802,2.1323 3.7963,2.1364 3.7919,2.1431 L 3.7877,2.1331 L 3.7761,2.1331 L 3.7761,2.2316 z M 3.7985,2.1554 C 3.7981,2.1496 3.8015,2.1464 3.8058,2.1464 C 3.812,2.1464 3.8129,2.1526 3.8129,2.1655 L 3.8129,2.1707 C 3.8129,2.1846 3.8129,2.1918 3.806,2.1918 C 3.8032,2.1918 3.8011,2.1901 3.7997,2.189 L 3.7985,2.1877"
   class="ps05"
   id="path1159"
   style="fill:#f36c60;fill-rule:nonzero;stroke:none" />

<path
   d="M 3.8233,2.2316 L 3.8457,2.2316 L 3.8457,2.1985 L 3.846,2.1985 C 3.8491,2.2019 3.8549,2.2042 3.8595,2.2042 C 3.875,2.2042 3.8833,2.1887 3.8833,2.1687 C 3.8833,2.1528 3.8767,2.1323 3.8578,2.1323 C 3.8491,2.1323 3.8435,2.1364 3.839,2.1431 L 3.8349,2.1331 L 3.8233,2.1331 L 3.8233,2.2316 z M 3.8457,2.1554 C 3.8453,2.1496 3.8487,2.1464 3.853,2.1464 C 3.8592,2.1464 3.8601,2.1526 3.8601,2.1655 L 3.8601,2.1707 C 3.8601,2.1846 3.8601,2.1918 3.8531,2.1918 C 3.8504,2.1918 3.8483,2.1901 3.8469,2.189 L 3.8457,2.1877"
   class="ps06"
   id="path1161"
   style="fill:#f58273;fill-rule:nonzero;stroke:none" />

<path
   d="M 3.8711,2.1868 L 3.862,2.1868 L 3.862,2.2025 L 3.8711,2.2025 L 3.8711,2.2103 C 3.8711,2.2273 3.8795,2.2335 3.8943,2.2335 C 3.8987,2.2335 3.902,2.2331 3.9056,2.2327 L 3.9056,2.2155 C 3.9044,2.2158 3.9027,2.2161 3.9015,2.2161 C 3.8958,2.2161 3.8935,2.2143 3.8935,2.2102 L 3.8935,2.2025 L 3.9056,2.2025 L 3.9056,2.1868 L 3.8935,2.1868 L 3.8935,2.1331 L 3.8711,2.1331"
   class="ps07"
   id="path1163"
   style="fill:#f79a8a;fill-rule:nonzero;stroke:none" />

<path
   d="M 3.9288,2.1767 C 3.9288,2.1795 3.9286,2.1828 3.9277,2.1854 C 3.9265,2.1882 3.9247,2.1901 3.9211,2.1901 C 3.9137,2.1901 3.9129,2.181 3.9129,2.1671 C 3.9129,2.1515 3.9153,2.1464 3.9211,2.1464 C 3.929,2.1464 3.9297,2.1544 3.9297,2.1597 L 3.9471,2.1572 C 3.9455,2.1403 3.9358,2.1315 3.9195,2.1315 C 3.8993,2.1315 3.8888,2.1492 3.8888,2.1663 C 3.8888,2.1853 3.8993,2.2042 3.9205,2.2042 C 3.9442,2.2042 3.9478,2.1836 3.9478,2.1767"
   class="ps08"
   id="path1165"
   style="fill:#f9b2a3;fill-rule:nonzero;stroke:none" />

<path
   d="M 3.9383,2.1766 C 3.9432,2.1766 3.9473,2.1726 3.9473,2.1676 C 3.9473,2.1626 3.9432,2.1586 3.9383,2.1586 C 3.9333,2.1586 3.9293,2.1626 3.9293,2.1676 C 3.9293,2.1726 3.9333,2.1766 3.9383,2.1766"
   class="ps09"
   id="path1167"
   style="fill:#fbcbbf;fill-rule:nonzero;stroke:none" />

<path
   d="M 3.7761,2.3451 L 3.7985,2.3451 L 3.7985,2.312 L 3.7988,2.312 C 3.802,2.3153 3.8078,2.3177 3.8123,2.3177 C 3.8278,2.3177 3.8361,2.3022 3.8361,2.2821 C 3.8361,2.2662 3.8295,2.2458 3.8107,2.2458 C 3.802,2.2458 3.7963,2.2499 3.7919,2.2565 L 3.7877,2.2466 L 3.7761,2.2466 L 3.7761,2.3451 z M 3.7985,2.2689 C 3.7981,2.263 3.8015,2.2599 3.8058,2.2599 C 3.812,2.2599 3.8129,2.2661 3.8129,2.279 L 3.8129,2.2842 C 3.8129,2.298 3.8129,2.3052 3.806,2.3052 C 3.8032,2.3052 3.8011,2.3036 3.7997,2.3025 L 3.7985,2.3012"
   class="ps05"
   id="path1169"
   style="fill:#f36c60;fill-rule:nonzero;stroke:none" />

<path
   d="M 3.8233,2.3451 L 3.8457,2.3451 L 3.8457,2.312 L 3.846,2.312 C 3.8491,2.3153 3.8549,2.3177 3.8595,2.3177 C 3.875,2.3177 3.8833,2.3022 3.8833,2.2821 C 3.8833,2.2662 3.8767,2.2458 3.8578,2.2458 C 3.8491,2.2458 3.8435,2.2499 3.839,2.2565 L 3.8349,2.2466 L 3.8233,2.2466 L 3.8233,2.3451 z M 3.8457,2.2689 C 3.8453,2.263 3.8487,2.2599 3.853,2.2599 C 3.8592,2.2599 3.8601,2.2661 3.8601,2.279 L 3.8601,2.2842 C 3.8601,2.298 3.8601,2.3052 3.8531,2.3052 C 3.8504,2.3052 3.8483,2.3036 3.8469,2.3025 L 3.8457,2.3012"
   class="ps06"
   id="path1171"
   style="fill:#f58273;fill-rule:nonzero;stroke:none" />

<path
   d="M 3.8711,2.3002 L 3.862,2.3002 L 3.862,2.316 L 3.8711,2.316 L 3.8711,2.3238 C 3.8711,2.3408 3.8795,2.347 3.8943,2.347 C 3.8987,2.347 3.902,2.3466 3.9056,2.3462 L 3.9056,2.329 C 3.9044,2.3293 3.9027,2.3296 3.9015,2.3296 C 3.8958,2.3296 3.8935,2.3278 3.8935,2.3236 L 3.8935,2.316 L 3.9056,2.316 L 3.9056,2.3002 L 3.8935,2.3002 L 3.8935,2.2466 L 3.8711,2.2466"
   class="ps07"
   id="path1173"
   style="fill:#f79a8a;fill-rule:nonzero;stroke:none" />

<path
   d="M 3.9288,2.2902 C 3.9288,2.2929 3.9286,2.2962 3.9277,2.2989 C 3.9265,2.3016 3.9247,2.3036 3.9211,2.3036 C 3.9137,2.3036 3.9129,2.2944 3.9129,2.2806 C 3.9129,2.265 3.9153,2.2599 3.9211,2.2599 C 3.929,2.2599 3.9297,2.2679 3.9297,2.2731 L 3.9471,2.2707 C 3.9455,2.2538 3.9358,2.2449 3.9195,2.2449 C 3.8993,2.2449 3.8888,2.2626 3.8888,2.2798 C 3.8888,2.2987 3.8993,2.3177 3.9205,2.3177 C 3.9442,2.3177 3.9478,2.2971 3.9478,2.2902"
   class="ps08"
   id="path1175"
   style="fill:#f9b2a3;fill-rule:nonzero;stroke:none" />

<path
   d="M 3.9383,2.2901 C 3.9432,2.2901 3.9473,2.286 3.9473,2.2811 C 3.9473,2.2761 3.9432,2.272 3.9383,2.272 C 3.9333,2.272 3.9293,2.2761 3.9293,2.2811 C 3.9293,2.286 3.9333,2.2901 3.9383,2.2901"
   class="ps09"
   id="path1177"
   style="fill:#fbcbbf;fill-rule:nonzero;stroke:none" />

<path
   d="M 3.7761,2.4585 L 3.7985,2.4585 L 3.7985,2.4255 L 3.7988,2.4255 C 3.802,2.4288 3.8078,2.4311 3.8123,2.4311 C 3.8278,2.4311 3.8361,2.4157 3.8361,2.3956 C 3.8361,2.3797 3.8295,2.3592 3.8107,2.3592 C 3.802,2.3592 3.7963,2.3634 3.7919,2.37 L 3.7877,2.3601 L 3.7761,2.3601 L 3.7761,2.4585 z M 3.7985,2.3823 C 3.7981,2.3765 3.8015,2.3733 3.8058,2.3733 C 3.812,2.3733 3.8129,2.3796 3.8129,2.3924 L 3.8129,2.3977 C 3.8129,2.4115 3.8129,2.4187 3.806,2.4187 C 3.8032,2.4187 3.8011,2.417 3.7997,2.4159 L 3.7985,2.4147"
   class="ps05"
   id="path1179"
   style="fill:#f36c60;fill-rule:nonzero;stroke:none" />

<path
   d="M 3.8233,2.4585 L 3.8457,2.4585 L 3.8457,2.4255 L 3.846,2.4255 C 3.8491,2.4288 3.8549,2.4311 3.8595,2.4311 C 3.875,2.4311 3.8833,2.4157 3.8833,2.3956 C 3.8833,2.3797 3.8767,2.3592 3.8578,2.3592 C 3.8491,2.3592 3.8435,2.3634 3.839,2.37 L 3.8349,2.3601 L 3.8233,2.3601 L 3.8233,2.4585 z M 3.8457,2.3823 C 3.8453,2.3765 3.8487,2.3733 3.853,2.3733 C 3.8592,2.3733 3.8601,2.3796 3.8601,2.3924 L 3.8601,2.3977 C 3.8601,2.4115 3.8601,2.4187 3.8531,2.4187 C 3.8504,2.4187 3.8483,2.417 3.8469,2.4159 L 3.8457,2.4147"
   class="ps06"
   id="path1181"
   style="fill:#f58273;fill-rule:nonzero;stroke:none" />

<path
   d="M 3.8711,2.4137 L 3.862,2.4137 L 3.862,2.4295 L 3.8711,2.4295 L 3.8711,2.4372 C 3.8711,2.4542 3.8795,2.4605 3.8943,2.4605 C 3.8987,2.4605 3.902,2.46 3.9056,2.4596 L 3.9056,2.4425 C 3.9044,2.4428 3.9027,2.443 3.9015,2.443 C 3.8958,2.443 3.8935,2.4412 3.8935,2.4371 L 3.8935,2.4295 L 3.9056,2.4295 L 3.9056,2.4137 L 3.8935,2.4137 L 3.8935,2.3601 L 3.8711,2.3601"
   class="ps07"
   id="path1183"
   style="fill:#f79a8a;fill-rule:nonzero;stroke:none" />

<path
   d="M 3.9288,2.4036 C 3.9288,2.4064 3.9286,2.4097 3.9277,2.4123 C 3.9265,2.4151 3.9247,2.417 3.9211,2.417 C 3.9137,2.417 3.9129,2.4079 3.9129,2.3941 C 3.9129,2.3785 3.9153,2.3733 3.9211,2.3733 C 3.929,2.3733 3.9297,2.3814 3.9297,2.3866 L 3.9471,2.3841 C 3.9455,2.3673 3.9358,2.3584 3.9195,2.3584 C 3.8993,2.3584 3.8888,2.3761 3.8888,2.3933 C 3.8888,2.4122 3.8993,2.4311 3.9205,2.4311 C 3.9442,2.4311 3.9478,2.4105 3.9478,2.4036"
   class="ps08"
   id="path1185"
   style="fill:#f9b2a3;fill-rule:nonzero;stroke:none" />

<path
   d="M 3.9383,2.4036 C 3.9432,2.4036 3.9473,2.3995 3.9473,2.3945 C 3.9473,2.3896 3.9432,2.3855 3.9383,2.3855 C 3.9333,2.3855 3.9293,2.3896 3.9293,2.3945 C 3.9293,2.3995 3.9333,2.4036 3.9383,2.4036"
   class="ps09"
   id="path1187"
   style="fill:#fbcbbf;fill-rule:nonzero;stroke:none" />

<path
   d="M 3.7761,2.572 L 3.7985,2.572 L 3.7985,2.5389 L 3.7988,2.5389 C 3.802,2.5422 3.8078,2.5446 3.8123,2.5446 C 3.8278,2.5446 3.8361,2.5291 3.8361,2.5091 C 3.8361,2.4932 3.8295,2.4727 3.8107,2.4727 C 3.802,2.4727 3.7963,2.4769 3.7919,2.4835 L 3.7877,2.4735 L 3.7761,2.4735 L 3.7761,2.572 z M 3.7985,2.4958 C 3.7981,2.49 3.8015,2.4868 3.8058,2.4868 C 3.812,2.4868 3.8129,2.493 3.8129,2.5059 L 3.8129,2.5111 C 3.8129,2.525 3.8129,2.5322 3.806,2.5322 C 3.8032,2.5322 3.8011,2.5305 3.7997,2.5294 L 3.7985,2.5282"
   class="ps05"
   id="path1189"
   style="fill:#f36c60;fill-rule:nonzero;stroke:none" />

<path
   d="M 3.8233,2.572 L 3.8457,2.572 L 3.8457,2.5389 L 3.846,2.5389 C 3.8491,2.5422 3.8549,2.5446 3.8595,2.5446 C 3.875,2.5446 3.8833,2.5291 3.8833,2.5091 C 3.8833,2.4932 3.8767,2.4727 3.8578,2.4727 C 3.8491,2.4727 3.8435,2.4769 3.839,2.4835 L 3.8349,2.4735 L 3.8233,2.4735 L 3.8233,2.572 z M 3.8457,2.4958 C 3.8453,2.49 3.8487,2.4868 3.853,2.4868 C 3.8592,2.4868 3.8601,2.493 3.8601,2.5059 L 3.8601,2.5111 C 3.8601,2.525 3.8601,2.5322 3.8531,2.5322 C 3.8504,2.5322 3.8483,2.5305 3.8469,2.5294 L 3.8457,2.5282"
   class="ps06"
   id="path1191"
   style="fill:#f58273;fill-rule:nonzero;stroke:none" />

<path
   d="M 3.8711,2.5272 L 3.862,2.5272 L 3.862,2.5429 L 3.8711,2.5429 L 3.8711,2.5507 C 3.8711,2.5677 3.8795,2.5739 3.8943,2.5739 C 3.8987,2.5739 3.902,2.5735 3.9056,2.5731 L 3.9056,2.5559 C 3.9044,2.5562 3.9027,2.5565 3.9015,2.5565 C 3.8958,2.5565 3.8935,2.5547 3.8935,2.5505 L 3.8935,2.5429 L 3.9056,2.5429 L 3.9056,2.5272 L 3.8935,2.5272 L 3.8935,2.4735 L 3.8711,2.4735"
   class="ps07"
   id="path1193"
   style="fill:#f79a8a;fill-rule:nonzero;stroke:none" />

<path
   d="M 3.9288,2.5171 C 3.9288,2.5199 3.9286,2.5232 3.9277,2.5258 C 3.9265,2.5286 3.9247,2.5305 3.9211,2.5305 C 3.9137,2.5305 3.9129,2.5214 3.9129,2.5076 C 3.9129,2.4919 3.9153,2.4868 3.9211,2.4868 C 3.929,2.4868 3.9297,2.4948 3.9297,2.5001 L 3.9471,2.4976 C 3.9455,2.4807 3.9358,2.4719 3.9195,2.4719 C 3.8993,2.4719 3.8888,2.4896 3.8888,2.5067 C 3.8888,2.5257 3.8993,2.5446 3.9205,2.5446 C 3.9442,2.5446 3.9478,2.524 3.9478,2.5171"
   class="ps08"
   id="path1195"
   style="fill:#f9b2a3;fill-rule:nonzero;stroke:none" />

<path
   d="M 3.9383,2.517 C 3.9432,2.517 3.9473,2.513 3.9473,2.508 C 3.9473,2.5031 3.9432,2.499 3.9383,2.499 C 3.9333,2.499 3.9293,2.5031 3.9293,2.508 C 3.9293,2.513 3.9333,2.517 3.9383,2.517"
   class="ps09"
   id="path1197"
   style="fill:#fbcbbf;fill-rule:nonzero;stroke:none" />

<path
   d="M 3.9765,2.3451 L 3.9989,2.3451 L 3.9989,2.312 L 3.9992,2.312 C 4.0024,2.3153 4.0081,2.3177 4.0127,2.3177 C 4.0282,2.3177 4.0365,2.3022 4.0365,2.2821 C 4.0365,2.2662 4.0299,2.2458 4.0111,2.2458 C 4.0024,2.2458 3.9967,2.2499 3.9923,2.2565 L 3.9881,2.2466 L 3.9765,2.2466 L 3.9765,2.3451 z M 3.9989,2.2689 C 3.9985,2.263 4.0019,2.2599 4.0062,2.2599 C 4.0124,2.2599 4.0133,2.2661 4.0133,2.279 L 4.0133,2.2842 C 4.0133,2.298 4.0133,2.3052 4.0063,2.3052 C 4.0036,2.3052 4.0015,2.3036 4.0001,2.3025 L 3.9989,2.3012"
   class="ps05"
   id="path1199"
   style="fill:#f36c60;fill-rule:nonzero;stroke:none" />

<path
   d="M 4.0237,2.3451 L 4.0461,2.3451 L 4.0461,2.312 L 4.0463,2.312 C 4.0495,2.3153 4.0553,2.3177 4.0599,2.3177 C 4.0754,2.3177 4.0837,2.3022 4.0837,2.2821 C 4.0837,2.2662 4.077,2.2458 4.0582,2.2458 C 4.0495,2.2458 4.0438,2.2499 4.0394,2.2565 L 4.0353,2.2466 L 4.0237,2.2466 L 4.0237,2.3451 z M 4.0461,2.2689 C 4.0456,2.263 4.0491,2.2599 4.0534,2.2599 C 4.0596,2.2599 4.0604,2.2661 4.0604,2.279 L 4.0604,2.2842 C 4.0604,2.298 4.0604,2.3052 4.0535,2.3052 C 4.0508,2.3052 4.0487,2.3036 4.0473,2.3025 L 4.0461,2.3012"
   class="ps06"
   id="path1201"
   style="fill:#f58273;fill-rule:nonzero;stroke:none" />

<path
   d="M 4.0715,2.3002 L 4.0623,2.3002 L 4.0623,2.316 L 4.0715,2.316 L 4.0715,2.3238 C 4.0715,2.3408 4.0799,2.347 4.0947,2.347 C 4.0991,2.347 4.1024,2.3466 4.106,2.3462 L 4.106,2.329 C 4.1048,2.3293 4.1031,2.3296 4.1019,2.3296 C 4.0962,2.3296 4.0939,2.3278 4.0939,2.3236 L 4.0939,2.316 L 4.106,2.316 L 4.106,2.3002 L 4.0939,2.3002 L 4.0939,2.2466 L 4.0715,2.2466"
   class="ps07"
   id="path1203"
   style="fill:#f79a8a;fill-rule:nonzero;stroke:none" />

<path
   d="M 4.1291,2.2902 C 4.1291,2.2929 4.129,2.2962 4.128,2.2989 C 4.1269,2.3016 4.1251,2.3036 4.1215,2.3036 C 4.1141,2.3036 4.1132,2.2944 4.1132,2.2806 C 4.1132,2.265 4.1157,2.2599 4.1215,2.2599 C 4.1294,2.2599 4.1301,2.2679 4.1301,2.2731 L 4.1475,2.2707 C 4.1459,2.2538 4.1362,2.2449 4.1199,2.2449 C 4.0997,2.2449 4.0892,2.2626 4.0892,2.2798 C 4.0892,2.2987 4.0997,2.3177 4.1208,2.3177 C 4.1446,2.3177 4.1482,2.2971 4.1482,2.2902"
   class="ps08"
   id="path1205"
   style="fill:#f9b2a3;fill-rule:nonzero;stroke:none" />

<path
   d="M 3.9765,2.4585 L 3.9989,2.4585 L 3.9989,2.4255 L 3.9992,2.4255 C 4.0024,2.4288 4.0081,2.4311 4.0127,2.4311 C 4.0282,2.4311 4.0365,2.4157 4.0365,2.3956 C 4.0365,2.3797 4.0299,2.3592 4.0111,2.3592 C 4.0024,2.3592 3.9967,2.3634 3.9923,2.37 L 3.9881,2.3601 L 3.9765,2.3601 L 3.9765,2.4585 z M 3.9989,2.3823 C 3.9985,2.3765 4.0019,2.3733 4.0062,2.3733 C 4.0124,2.3733 4.0133,2.3796 4.0133,2.3924 L 4.0133,2.3977 C 4.0133,2.4115 4.0133,2.4187 4.0063,2.4187 C 4.0036,2.4187 4.0015,2.417 4.0001,2.4159 L 3.9989,2.4147"
   class="ps05"
   id="path1207"
   style="fill:#f36c60;fill-rule:nonzero;stroke:none" />

<path
   d="M 4.0237,2.4585 L 4.0461,2.4585 L 4.0461,2.4255 L 4.0463,2.4255 C 4.0495,2.4288 4.0553,2.4311 4.0599,2.4311 C 4.0754,2.4311 4.0837,2.4157 4.0837,2.3956 C 4.0837,2.3797 4.077,2.3592 4.0582,2.3592 C 4.0495,2.3592 4.0438,2.3634 4.0394,2.37 L 4.0353,2.3601 L 4.0237,2.3601 L 4.0237,2.4585 z M 4.0461,2.3823 C 4.0456,2.3765 4.0491,2.3733 4.0534,2.3733 C 4.0596,2.3733 4.0604,2.3796 4.0604,2.3924 L 4.0604,2.3977 C 4.0604,2.4115 4.0604,2.4187 4.0535,2.4187 C 4.0508,2.4187 4.0487,2.417 4.0473,2.4159 L 4.0461,2.4147"
   class="ps06"
   id="path1209"
   style="fill:#f58273;fill-rule:nonzero;stroke:none" />

<path
   d="M 4.0715,2.4137 L 4.0623,2.4137 L 4.0623,2.4295 L 4.0715,2.4295 L 4.0715,2.4372 C 4.0715,2.4542 4.0799,2.4605 4.0947,2.4605 C 4.0991,2.4605 4.1024,2.46 4.106,2.4596 L 4.106,2.4425 C 4.1048,2.4428 4.1031,2.443 4.1019,2.443 C 4.0962,2.443 4.0939,2.4412 4.0939,2.4371 L 4.0939,2.4295 L 4.106,2.4295 L 4.106,2.4137 L 4.0939,2.4137 L 4.0939,2.3601 L 4.0715,2.3601"
   class="ps07"
   id="path1211"
   style="fill:#f79a8a;fill-rule:nonzero;stroke:none" />

<path
   d="M 4.1291,2.4036 C 4.1291,2.4064 4.129,2.4097 4.128,2.4123 C 4.1269,2.4151 4.1251,2.417 4.1215,2.417 C 4.1141,2.417 4.1132,2.4079 4.1132,2.3941 C 4.1132,2.3785 4.1157,2.3733 4.1215,2.3733 C 4.1294,2.3733 4.1301,2.3814 4.1301,2.3866 L 4.1475,2.3841 C 4.1459,2.3673 4.1362,2.3584 4.1199,2.3584 C 4.0997,2.3584 4.0892,2.3761 4.0892,2.3933 C 4.0892,2.4122 4.0997,2.4311 4.1208,2.4311 C 4.1446,2.4311 4.1482,2.4105 4.1482,2.4036"
   class="ps08"
   id="path1213"
   style="fill:#f9b2a3;fill-rule:nonzero;stroke:none" />

<path
   d="M 3.9765,2.572 L 3.9989,2.572 L 3.9989,2.5389 L 3.9992,2.5389 C 4.0024,2.5422 4.0081,2.5446 4.0127,2.5446 C 4.0282,2.5446 4.0365,2.5291 4.0365,2.5091 C 4.0365,2.4932 4.0299,2.4727 4.0111,2.4727 C 4.0024,2.4727 3.9967,2.4769 3.9923,2.4835 L 3.9881,2.4735 L 3.9765,2.4735 L 3.9765,2.572 z M 3.9989,2.4958 C 3.9985,2.49 4.0019,2.4868 4.0062,2.4868 C 4.0124,2.4868 4.0133,2.493 4.0133,2.5059 L 4.0133,2.5111 C 4.0133,2.525 4.0133,2.5322 4.0063,2.5322 C 4.0036,2.5322 4.0015,2.5305 4.0001,2.5294 L 3.9989,2.5282"
   class="ps05"
   id="path1215"
   style="fill:#f36c60;fill-rule:nonzero;stroke:none" />

<path
   d="M 4.0237,2.572 L 4.0461,2.572 L 4.0461,2.5389 L 4.0463,2.5389 C 4.0495,2.5422 4.0553,2.5446 4.0599,2.5446 C 4.0754,2.5446 4.0837,2.5291 4.0837,2.5091 C 4.0837,2.4932 4.077,2.4727 4.0582,2.4727 C 4.0495,2.4727 4.0438,2.4769 4.0394,2.4835 L 4.0353,2.4735 L 4.0237,2.4735 L 4.0237,2.572 z M 4.0461,2.4958 C 4.0456,2.49 4.0491,2.4868 4.0534,2.4868 C 4.0596,2.4868 4.0604,2.493 4.0604,2.5059 L 4.0604,2.5111 C 4.0604,2.525 4.0604,2.5322 4.0535,2.5322 C 4.0508,2.5322 4.0487,2.5305 4.0473,2.5294 L 4.0461,2.5282"
   class="ps06"
   id="path1217"
   style="fill:#f58273;fill-rule:nonzero;stroke:none" />

<path
   d="M 4.0715,2.5272 L 4.0623,2.5272 L 4.0623,2.5429 L 4.0715,2.5429 L 4.0715,2.5507 C 4.0715,2.5677 4.0799,2.5739 4.0947,2.5739 C 4.0991,2.5739 4.1024,2.5735 4.106,2.5731 L 4.106,2.5559 C 4.1048,2.5562 4.1031,2.5565 4.1019,2.5565 C 4.0962,2.5565 4.0939,2.5547 4.0939,2.5505 L 4.0939,2.5429 L 4.106,2.5429 L 4.106,2.5272 L 4.0939,2.5272 L 4.0939,2.4735 L 4.0715,2.4735"
   class="ps07"
   id="path1219"
   style="fill:#f79a8a;fill-rule:nonzero;stroke:none" />

<path
   d="M 4.1291,2.5171 C 4.1291,2.5199 4.129,2.5232 4.128,2.5258 C 4.1269,2.5286 4.1251,2.5305 4.1215,2.5305 C 4.1141,2.5305 4.1132,2.5214 4.1132,2.5076 C 4.1132,2.4919 4.1157,2.4868 4.1215,2.4868 C 4.1294,2.4868 4.1301,2.4948 4.1301,2.5001 L 4.1475,2.4976 C 4.1459,2.4807 4.1362,2.4719 4.1199,2.4719 C 4.0997,2.4719 4.0892,2.4896 4.0892,2.5067 C 4.0892,2.5257 4.0997,2.5446 4.1208,2.5446 C 4.1446,2.5446 4.1482,2.524 4.1482,2.5171"
   class="ps08"
   id="path1221"
   style="fill:#f9b2a3;fill-rule:nonzero;stroke:none" />

<path
   d="M 3.5769,2.6854 L 3.5993,2.6854 L 3.5993,2.6524 L 3.5996,2.6524 C 3.6028,2.6557 3.6086,2.6581 3.6132,2.6581 C 3.6287,2.6581 3.637,2.6426 3.637,2.6225 C 3.637,2.6066 3.6303,2.5862 3.6115,2.5862 C 3.6028,2.5862 3.5971,2.5903 3.5927,2.5969 L 3.5886,2.587 L 3.5769,2.587 L 3.5769,2.6854 z M 3.5993,2.6092 C 3.5989,2.6034 3.6024,2.6003 3.6067,2.6003 C 3.6129,2.6003 3.6137,2.6065 3.6137,2.6193 L 3.6137,2.6246 C 3.6137,2.6384 3.6137,2.6456 3.6068,2.6456 C 3.604,2.6456 3.602,2.644 3.6006,2.6428 L 3.5993,2.6416"
   class="ps05"
   id="path1223"
   style="fill:#f36c60;fill-rule:nonzero;stroke:none" />

<path
   d="M 3.6241,2.6854 L 3.6465,2.6854 L 3.6465,2.6524 L 3.6468,2.6524 C 3.65,2.6557 3.6558,2.6581 3.6604,2.6581 C 3.6758,2.6581 3.6841,2.6426 3.6841,2.6225 C 3.6841,2.6066 3.6775,2.5862 3.6587,2.5862 C 3.65,2.5862 3.6443,2.5903 3.6399,2.5969 L 3.6357,2.587 L 3.6241,2.587 L 3.6241,2.6854 z M 3.6465,2.6092 C 3.6461,2.6034 3.6496,2.6003 3.6539,2.6003 C 3.6601,2.6003 3.6609,2.6065 3.6609,2.6193 L 3.6609,2.6246 C 3.6609,2.6384 3.6609,2.6456 3.654,2.6456 C 3.6512,2.6456 3.6492,2.644 3.6478,2.6428 L 3.6465,2.6416"
   class="ps06"
   id="path1225"
   style="fill:#f58273;fill-rule:nonzero;stroke:none" />

<path
   d="M 3.6719,2.6406 L 3.6628,2.6406 L 3.6628,2.6564 L 3.6719,2.6564 L 3.6719,2.6641 C 3.6719,2.6812 3.6804,2.6874 3.6952,2.6874 C 3.6996,2.6874 3.7029,2.687 3.7065,2.6865 L 3.7065,2.6694 C 3.7052,2.6697 3.7036,2.67 3.7023,2.67 C 3.6967,2.67 3.6943,2.6682 3.6943,2.664 L 3.6943,2.6564 L 3.7065,2.6564 L 3.7065,2.6406 L 3.6943,2.6406 L 3.6943,2.587 L 3.6719,2.587"
   class="ps07"
   id="path1227"
   style="fill:#f79a8a;fill-rule:nonzero;stroke:none" />

<path
   d="M 3.7296,2.6305 C 3.7296,2.6333 3.7294,2.6366 3.7285,2.6393 C 3.7274,2.642 3.7256,2.644 3.722,2.644 C 3.7145,2.644 3.7137,2.6348 3.7137,2.621 C 3.7137,2.6054 3.7162,2.6003 3.722,2.6003 C 3.7299,2.6003 3.7306,2.6083 3.7306,2.6135 L 3.748,2.6111 C 3.7463,2.5942 3.7366,2.5853 3.7203,2.5853 C 3.7001,2.5853 3.6896,2.603 3.6896,2.6202 C 3.6896,2.6391 3.7001,2.6581 3.7213,2.6581 C 3.7451,2.6581 3.7487,2.6375 3.7487,2.6305"
   class="ps08"
   id="path1229"
   style="fill:#f9b2a3;fill-rule:nonzero;stroke:none" />

<path
   d="M 3.7391,2.6305 C 3.7441,2.6305 3.7482,2.6264 3.7482,2.6215 C 3.7482,2.6165 3.7441,2.6124 3.7391,2.6124 C 3.7341,2.6124 3.7301,2.6165 3.7301,2.6215 C 3.7301,2.6264 3.7341,2.6305 3.7391,2.6305"
   class="ps09"
   id="path1231"
   style="fill:#fbcbbf;fill-rule:nonzero;stroke:none" />

<path
   d="M 3.3778,2.6854 L 3.4002,2.6854 L 3.4002,2.6524 L 3.4005,2.6524 C 3.4037,2.6557 3.4095,2.6581 3.414,2.6581 C 3.4295,2.6581 3.4378,2.6426 3.4378,2.6225 C 3.4378,2.6066 3.4312,2.5862 3.4124,2.5862 C 3.4037,2.5862 3.398,2.5903 3.3936,2.5969 L 3.3894,2.587 L 3.3778,2.587 L 3.3778,2.6854 z M 3.4002,2.6092 C 3.3998,2.6034 3.4032,2.6003 3.4075,2.6003 C 3.4138,2.6003 3.4146,2.6065 3.4146,2.6193 L 3.4146,2.6246 C 3.4146,2.6384 3.4146,2.6456 3.4077,2.6456 C 3.4049,2.6456 3.4028,2.644 3.4014,2.6428 L 3.4002,2.6416"
   class="ps05"
   id="path1233"
   style="fill:#f36c60;fill-rule:nonzero;stroke:none" />

<path
   d="M 3.425,2.6854 L 3.4474,2.6854 L 3.4474,2.6524 L 3.4477,2.6524 C 3.4508,2.6557 3.4566,2.6581 3.4612,2.6581 C 3.4767,2.6581 3.485,2.6426 3.485,2.6225 C 3.485,2.6066 3.4783,2.5862 3.4595,2.5862 C 3.4508,2.5862 3.4452,2.5903 3.4407,2.5969 L 3.4366,2.587 L 3.425,2.587 L 3.425,2.6854 z M 3.4474,2.6092 C 3.447,2.6034 3.4504,2.6003 3.4547,2.6003 C 3.4609,2.6003 3.4617,2.6065 3.4617,2.6193 L 3.4617,2.6246 C 3.4617,2.6384 3.4617,2.6456 3.4548,2.6456 C 3.4521,2.6456 3.45,2.644 3.4486,2.6428 L 3.4474,2.6416"
   class="ps06"
   id="path1235"
   style="fill:#f58273;fill-rule:nonzero;stroke:none" />

<path
   d="M 3.4728,2.6406 L 3.4637,2.6406 L 3.4637,2.6564 L 3.4728,2.6564 L 3.4728,2.6641 C 3.4728,2.6812 3.4812,2.6874 3.496,2.6874 C 3.5004,2.6874 3.5038,2.687 3.5074,2.6865 L 3.5074,2.6694 C 3.5061,2.6697 3.5044,2.67 3.5032,2.67 C 3.4975,2.67 3.4952,2.6682 3.4952,2.664 L 3.4952,2.6564 L 3.5074,2.6564 L 3.5074,2.6406 L 3.4952,2.6406 L 3.4952,2.587 L 3.4728,2.587"
   class="ps07"
   id="path1237"
   style="fill:#f79a8a;fill-rule:nonzero;stroke:none" />

<path
   d="M 3.5304,2.6305 C 3.5304,2.6333 3.5303,2.6366 3.5293,2.6393 C 3.5282,2.642 3.5264,2.644 3.5228,2.644 C 3.5154,2.644 3.5145,2.6348 3.5145,2.621 C 3.5145,2.6054 3.517,2.6003 3.5228,2.6003 C 3.5307,2.6003 3.5314,2.6083 3.5314,2.6135 L 3.5488,2.6111 C 3.5472,2.5942 3.5375,2.5853 3.5212,2.5853 C 3.501,2.5853 3.4905,2.603 3.4905,2.6202 C 3.4905,2.6391 3.501,2.6581 3.5221,2.6581 C 3.5459,2.6581 3.5495,2.6375 3.5495,2.6305"
   class="ps08"
   id="path1239"
   style="fill:#f9b2a3;fill-rule:nonzero;stroke:none" />

<path
   d="M 3.54,2.6305 C 3.5449,2.6305 3.549,2.6264 3.549,2.6215 C 3.549,2.6165 3.5449,2.6124 3.54,2.6124 C 3.535,2.6124 3.531,2.6165 3.531,2.6215 C 3.531,2.6264 3.535,2.6305 3.54,2.6305"
   class="ps09"
   id="path1241"
   style="fill:#fbcbbf;fill-rule:nonzero;stroke:none" />

<path
   d="M 3.1787,2.6854 L 3.2011,2.6854 L 3.2011,2.6524 L 3.2013,2.6524 C 3.2045,2.6557 3.2103,2.6581 3.2149,2.6581 C 3.2304,2.6581 3.2387,2.6426 3.2387,2.6225 C 3.2387,2.6066 3.232,2.5862 3.2132,2.5862 C 3.2045,2.5862 3.1988,2.5903 3.1944,2.5969 L 3.1903,2.587 L 3.1787,2.587 L 3.1787,2.6854 z M 3.2011,2.6092 C 3.2006,2.6034 3.2041,2.6003 3.2084,2.6003 C 3.2146,2.6003 3.2154,2.6065 3.2154,2.6193 L 3.2154,2.6246 C 3.2154,2.6384 3.2154,2.6456 3.2085,2.6456 C 3.2058,2.6456 3.2037,2.644 3.2023,2.6428 L 3.2011,2.6416"
   class="ps05"
   id="path1243"
   style="fill:#f36c60;fill-rule:nonzero;stroke:none" />

<path
   d="M 3.2258,2.6854 L 3.2482,2.6854 L 3.2482,2.6524 L 3.2485,2.6524 C 3.2517,2.6557 3.2575,2.6581 3.2621,2.6581 C 3.2775,2.6581 3.2858,2.6426 3.2858,2.6225 C 3.2858,2.6066 3.2792,2.5862 3.2604,2.5862 C 3.2517,2.5862 3.246,2.5903 3.2416,2.5969 L 3.2374,2.587 L 3.2258,2.587 L 3.2258,2.6854 z M 3.2482,2.6092 C 3.2478,2.6034 3.2513,2.6003 3.2556,2.6003 C 3.2618,2.6003 3.2626,2.6065 3.2626,2.6193 L 3.2626,2.6246 C 3.2626,2.6384 3.2626,2.6456 3.2557,2.6456 C 3.2529,2.6456 3.2508,2.644 3.2495,2.6428 L 3.2482,2.6416"
   class="ps06"
   id="path1245"
   style="fill:#f58273;fill-rule:nonzero;stroke:none" />

<path
   d="M 3.2736,2.6406 L 3.2645,2.6406 L 3.2645,2.6564 L 3.2736,2.6564 L 3.2736,2.6641 C 3.2736,2.6812 3.2821,2.6874 3.2969,2.6874 C 3.3013,2.6874 3.3046,2.687 3.3082,2.6865 L 3.3082,2.6694 C 3.307,2.6697 3.3053,2.67 3.3041,2.67 C 3.2984,2.67 3.296,2.6682 3.296,2.664 L 3.296,2.6564 L 3.3082,2.6564 L 3.3082,2.6406 L 3.296,2.6406 L 3.296,2.587 L 3.2736,2.587"
   class="ps07"
   id="path1247"
   style="fill:#f79a8a;fill-rule:nonzero;stroke:none" />

<path
   d="M 3.3313,2.6305 C 3.3313,2.6333 3.3312,2.6366 3.3302,2.6393 C 3.3291,2.642 3.3273,2.644 3.3237,2.644 C 3.3162,2.644 3.3154,2.6348 3.3154,2.621 C 3.3154,2.6054 3.3179,2.6003 3.3237,2.6003 C 3.3316,2.6003 3.3323,2.6083 3.3323,2.6135 L 3.3497,2.6111 C 3.348,2.5942 3.3384,2.5853 3.322,2.5853 C 3.3018,2.5853 3.2913,2.603 3.2913,2.6202 C 3.2913,2.6391 3.3018,2.6581 3.323,2.6581 C 3.3468,2.6581 3.3504,2.6375 3.3504,2.6305"
   class="ps08"
   id="path1249"
   style="fill:#f9b2a3;fill-rule:nonzero;stroke:none" />

<path
   d="M 3.3408,2.6305 C 3.3458,2.6305 3.3499,2.6264 3.3499,2.6215 C 3.3499,2.6165 3.3458,2.6124 3.3408,2.6124 C 3.3359,2.6124 3.3318,2.6165 3.3318,2.6215 C 3.3318,2.6264 3.3359,2.6305 3.3408,2.6305"
   class="ps09"
   id="path1251"
   style="fill:#fbcbbf;fill-rule:nonzero;stroke:none" />

<path
   d="M 3.7761,2.6854 L 3.7985,2.6854 L 3.7985,2.6524 L 3.7988,2.6524 C 3.802,2.6557 3.8078,2.6581 3.8123,2.6581 C 3.8278,2.6581 3.8361,2.6426 3.8361,2.6225 C 3.8361,2.6066 3.8295,2.5862 3.8107,2.5862 C 3.802,2.5862 3.7963,2.5903 3.7919,2.5969 L 3.7877,2.587 L 3.7761,2.587 L 3.7761,2.6854 z M 3.7985,2.6092 C 3.7981,2.6034 3.8015,2.6003 3.8058,2.6003 C 3.812,2.6003 3.8129,2.6065 3.8129,2.6193 L 3.8129,2.6246 C 3.8129,2.6384 3.8129,2.6456 3.806,2.6456 C 3.8032,2.6456 3.8011,2.644 3.7997,2.6428 L 3.7985,2.6416"
   class="ps05"
   id="path1253"
   style="fill:#f36c60;fill-rule:nonzero;stroke:none" />

<path
   d="M 3.8233,2.6854 L 3.8457,2.6854 L 3.8457,2.6524 L 3.846,2.6524 C 3.8491,2.6557 3.8549,2.6581 3.8595,2.6581 C 3.875,2.6581 3.8833,2.6426 3.8833,2.6225 C 3.8833,2.6066 3.8767,2.5862 3.8578,2.5862 C 3.8491,2.5862 3.8435,2.5903 3.839,2.5969 L 3.8349,2.587 L 3.8233,2.587 L 3.8233,2.6854 z M 3.8457,2.6092 C 3.8453,2.6034 3.8487,2.6003 3.853,2.6003 C 3.8592,2.6003 3.8601,2.6065 3.8601,2.6193 L 3.8601,2.6246 C 3.8601,2.6384 3.8601,2.6456 3.8531,2.6456 C 3.8504,2.6456 3.8483,2.644 3.8469,2.6428 L 3.8457,2.6416"
   class="ps06"
   id="path1255"
   style="fill:#f58273;fill-rule:nonzero;stroke:none" />

<path
   d="M 3.8711,2.6406 L 3.862,2.6406 L 3.862,2.6564 L 3.8711,2.6564 L 3.8711,2.6641 C 3.8711,2.6812 3.8795,2.6874 3.8943,2.6874 C 3.8987,2.6874 3.902,2.687 3.9056,2.6865 L 3.9056,2.6694 C 3.9044,2.6697 3.9027,2.67 3.9015,2.67 C 3.8958,2.67 3.8935,2.6682 3.8935,2.664 L 3.8935,2.6564 L 3.9056,2.6564 L 3.9056,2.6406 L 3.8935,2.6406 L 3.8935,2.587 L 3.8711,2.587"
   class="ps07"
   id="path1257"
   style="fill:#f79a8a;fill-rule:nonzero;stroke:none" />

<path
   d="M 3.9288,2.6305 C 3.9288,2.6333 3.9286,2.6366 3.9277,2.6393 C 3.9265,2.642 3.9247,2.644 3.9211,2.644 C 3.9137,2.644 3.9129,2.6348 3.9129,2.621 C 3.9129,2.6054 3.9153,2.6003 3.9211,2.6003 C 3.929,2.6003 3.9297,2.6083 3.9297,2.6135 L 3.9471,2.6111 C 3.9455,2.5942 3.9358,2.5853 3.9195,2.5853 C 3.8993,2.5853 3.8888,2.603 3.8888,2.6202 C 3.8888,2.6391 3.8993,2.6581 3.9205,2.6581 C 3.9442,2.6581 3.9478,2.6375 3.9478,2.6305"
   class="ps08"
   id="path1259"
   style="fill:#f9b2a3;fill-rule:nonzero;stroke:none" />

<path
   d="M 3.9383,2.6305 C 3.9432,2.6305 3.9473,2.6264 3.9473,2.6215 C 3.9473,2.6165 3.9432,2.6124 3.9383,2.6124 C 3.9333,2.6124 3.9293,2.6165 3.9293,2.6215 C 3.9293,2.6264 3.9333,2.6305 3.9383,2.6305"
   class="ps09"
   id="path1261"
   style="fill:#fbcbbf;fill-rule:nonzero;stroke:none" />

<path
   d="M 3.9765,2.6854 L 3.9989,2.6854 L 3.9989,2.6524 L 3.9992,2.6524 C 4.0024,2.6557 4.0081,2.6581 4.0127,2.6581 C 4.0282,2.6581 4.0365,2.6426 4.0365,2.6225 C 4.0365,2.6066 4.0299,2.5862 4.0111,2.5862 C 4.0024,2.5862 3.9967,2.5903 3.9923,2.5969 L 3.9881,2.587 L 3.9765,2.587 L 3.9765,2.6854 z M 3.9989,2.6092 C 3.9985,2.6034 4.0019,2.6003 4.0062,2.6003 C 4.0124,2.6003 4.0133,2.6065 4.0133,2.6193 L 4.0133,2.6246 C 4.0133,2.6384 4.0133,2.6456 4.0063,2.6456 C 4.0036,2.6456 4.0015,2.644 4.0001,2.6428 L 3.9989,2.6416"
   class="ps05"
   id="path1263"
   style="fill:#f36c60;fill-rule:nonzero;stroke:none" />

<path
   d="M 4.0237,2.6854 L 4.0461,2.6854 L 4.0461,2.6524 L 4.0463,2.6524 C 4.0495,2.6557 4.0553,2.6581 4.0599,2.6581 C 4.0754,2.6581 4.0837,2.6426 4.0837,2.6225 C 4.0837,2.6066 4.077,2.5862 4.0582,2.5862 C 4.0495,2.5862 4.0438,2.5903 4.0394,2.5969 L 4.0353,2.587 L 4.0237,2.587 L 4.0237,2.6854 z M 4.0461,2.6092 C 4.0456,2.6034 4.0491,2.6003 4.0534,2.6003 C 4.0596,2.6003 4.0604,2.6065 4.0604,2.6193 L 4.0604,2.6246 C 4.0604,2.6384 4.0604,2.6456 4.0535,2.6456 C 4.0508,2.6456 4.0487,2.644 4.0473,2.6428 L 4.0461,2.6416"
   class="ps06"
   id="path1265"
   style="fill:#f58273;fill-rule:nonzero;stroke:none" />

<path
   d="M 4.0715,2.6406 L 4.0623,2.6406 L 4.0623,2.6564 L 4.0715,2.6564 L 4.0715,2.6641 C 4.0715,2.6812 4.0799,2.6874 4.0947,2.6874 C 4.0991,2.6874 4.1024,2.687 4.106,2.6865 L 4.106,2.6694 C 4.1048,2.6697 4.1031,2.67 4.1019,2.67 C 4.0962,2.67 4.0939,2.6682 4.0939,2.664 L 4.0939,2.6564 L 4.106,2.6564 L 4.106,2.6406 L 4.0939,2.6406 L 4.0939,2.587 L 4.0715,2.587"
   class="ps07"
   id="path1267"
   style="fill:#f79a8a;fill-rule:nonzero;stroke:none" />

<path
   d="M 4.1291,2.6305 C 4.1291,2.6333 4.129,2.6366 4.128,2.6393 C 4.1269,2.642 4.1251,2.644 4.1215,2.644 C 4.1141,2.644 4.1132,2.6348 4.1132,2.621 C 4.1132,2.6054 4.1157,2.6003 4.1215,2.6003 C 4.1294,2.6003 4.1301,2.6083 4.1301,2.6135 L 4.1475,2.6111 C 4.1459,2.5942 4.1362,2.5853 4.1199,2.5853 C 4.0997,2.5853 4.0892,2.603 4.0892,2.6202 C 4.0892,2.6391 4.0997,2.6581 4.1208,2.6581 C 4.1446,2.6581 4.1482,2.6375 4.1482,2.6305"
   class="ps08"
   id="path1269"
   style="fill:#f9b2a3;fill-rule:nonzero;stroke:none" />

<path
   d="M 3.5769,2.7989 L 3.5993,2.7989 L 3.5993,2.7659 L 3.5996,2.7659 C 3.6028,2.7692 3.6086,2.7715 3.6132,2.7715 C 3.6287,2.7715 3.637,2.756 3.637,2.736 C 3.637,2.7201 3.6303,2.6996 3.6115,2.6996 C 3.6028,2.6996 3.5971,2.7038 3.5927,2.7104 L 3.5886,2.7004 L 3.5769,2.7004 L 3.5769,2.7989 z M 3.5993,2.7227 C 3.5989,2.7169 3.6024,2.7137 3.6067,2.7137 C 3.6129,2.7137 3.6137,2.7199 3.6137,2.7328 L 3.6137,2.7381 C 3.6137,2.7519 3.6137,2.7591 3.6068,2.7591 C 3.604,2.7591 3.602,2.7574 3.6006,2.7563 L 3.5993,2.7551"
   class="ps05"
   id="path1271"
   style="fill:#f36c60;fill-rule:nonzero;stroke:none" />

<path
   d="M 3.6241,2.7989 L 3.6465,2.7989 L 3.6465,2.7659 L 3.6468,2.7659 C 3.65,2.7692 3.6558,2.7715 3.6604,2.7715 C 3.6758,2.7715 3.6841,2.756 3.6841,2.736 C 3.6841,2.7201 3.6775,2.6996 3.6587,2.6996 C 3.65,2.6996 3.6443,2.7038 3.6399,2.7104 L 3.6357,2.7004 L 3.6241,2.7004 L 3.6241,2.7989 z M 3.6465,2.7227 C 3.6461,2.7169 3.6496,2.7137 3.6539,2.7137 C 3.6601,2.7137 3.6609,2.7199 3.6609,2.7328 L 3.6609,2.7381 C 3.6609,2.7519 3.6609,2.7591 3.654,2.7591 C 3.6512,2.7591 3.6492,2.7574 3.6478,2.7563 L 3.6465,2.7551"
   class="ps06"
   id="path1273"
   style="fill:#f58273;fill-rule:nonzero;stroke:none" />

<path
   d="M 3.6719,2.7541 L 3.6628,2.7541 L 3.6628,2.7699 L 3.6719,2.7699 L 3.6719,2.7776 C 3.6719,2.7946 3.6804,2.8008 3.6952,2.8008 C 3.6996,2.8008 3.7029,2.8004 3.7065,2.8 L 3.7065,2.7829 C 3.7052,2.7831 3.7036,2.7834 3.7023,2.7834 C 3.6967,2.7834 3.6943,2.7816 3.6943,2.7775 L 3.6943,2.7699 L 3.7065,2.7699 L 3.7065,2.7541 L 3.6943,2.7541 L 3.6943,2.7004 L 3.6719,2.7004"
   class="ps07"
   id="path1275"
   style="fill:#f79a8a;fill-rule:nonzero;stroke:none" />

<path
   d="M 3.7296,2.744 C 3.7296,2.7468 3.7294,2.7501 3.7285,2.7527 C 3.7274,2.7555 3.7256,2.7574 3.722,2.7574 C 3.7145,2.7574 3.7137,2.7483 3.7137,2.7345 C 3.7137,2.7188 3.7162,2.7137 3.722,2.7137 C 3.7299,2.7137 3.7306,2.7217 3.7306,2.727 L 3.748,2.7245 C 3.7463,2.7076 3.7366,2.6988 3.7203,2.6988 C 3.7001,2.6988 3.6896,2.7165 3.6896,2.7336 C 3.6896,2.7526 3.7001,2.7715 3.7213,2.7715 C 3.7451,2.7715 3.7487,2.7509 3.7487,2.744"
   class="ps08"
   id="path1277"
   style="fill:#f9b2a3;fill-rule:nonzero;stroke:none" />

<path
   d="M 3.7391,2.744 C 3.7441,2.744 3.7482,2.7399 3.7482,2.7349 C 3.7482,2.73 3.7441,2.7259 3.7391,2.7259 C 3.7341,2.7259 3.7301,2.73 3.7301,2.7349 C 3.7301,2.7399 3.7341,2.744 3.7391,2.744"
   class="ps09"
   id="path1279"
   style="fill:#fbcbbf;fill-rule:nonzero;stroke:none" />

<path
   d="M 3.3778,2.7989 L 3.4002,2.7989 L 3.4002,2.7659 L 3.4005,2.7659 C 3.4037,2.7692 3.4095,2.7715 3.414,2.7715 C 3.4295,2.7715 3.4378,2.756 3.4378,2.736 C 3.4378,2.7201 3.4312,2.6996 3.4124,2.6996 C 3.4037,2.6996 3.398,2.7038 3.3936,2.7104 L 3.3894,2.7004 L 3.3778,2.7004 L 3.3778,2.7989 z M 3.4002,2.7227 C 3.3998,2.7169 3.4032,2.7137 3.4075,2.7137 C 3.4138,2.7137 3.4146,2.7199 3.4146,2.7328 L 3.4146,2.7381 C 3.4146,2.7519 3.4146,2.7591 3.4077,2.7591 C 3.4049,2.7591 3.4028,2.7574 3.4014,2.7563 L 3.4002,2.7551"
   class="ps05"
   id="path1281"
   style="fill:#f36c60;fill-rule:nonzero;stroke:none" />

<path
   d="M 3.425,2.7989 L 3.4474,2.7989 L 3.4474,2.7659 L 3.4477,2.7659 C 3.4508,2.7692 3.4566,2.7715 3.4612,2.7715 C 3.4767,2.7715 3.485,2.756 3.485,2.736 C 3.485,2.7201 3.4783,2.6996 3.4595,2.6996 C 3.4508,2.6996 3.4452,2.7038 3.4407,2.7104 L 3.4366,2.7004 L 3.425,2.7004 L 3.425,2.7989 z M 3.4474,2.7227 C 3.447,2.7169 3.4504,2.7137 3.4547,2.7137 C 3.4609,2.7137 3.4617,2.7199 3.4617,2.7328 L 3.4617,2.7381 C 3.4617,2.7519 3.4617,2.7591 3.4548,2.7591 C 3.4521,2.7591 3.45,2.7574 3.4486,2.7563 L 3.4474,2.7551"
   class="ps06"
   id="path1283"
   style="fill:#f58273;fill-rule:nonzero;stroke:none" />

<path
   d="M 3.4728,2.7541 L 3.4637,2.7541 L 3.4637,2.7699 L 3.4728,2.7699 L 3.4728,2.7776 C 3.4728,2.7946 3.4812,2.8008 3.496,2.8008 C 3.5004,2.8008 3.5038,2.8004 3.5074,2.8 L 3.5074,2.7829 C 3.5061,2.7831 3.5044,2.7834 3.5032,2.7834 C 3.4975,2.7834 3.4952,2.7816 3.4952,2.7775 L 3.4952,2.7699 L 3.5074,2.7699 L 3.5074,2.7541 L 3.4952,2.7541 L 3.4952,2.7004 L 3.4728,2.7004"
   class="ps07"
   id="path1285"
   style="fill:#f79a8a;fill-rule:nonzero;stroke:none" />

<path
   d="M 3.5304,2.744 C 3.5304,2.7468 3.5303,2.7501 3.5293,2.7527 C 3.5282,2.7555 3.5264,2.7574 3.5228,2.7574 C 3.5154,2.7574 3.5145,2.7483 3.5145,2.7345 C 3.5145,2.7188 3.517,2.7137 3.5228,2.7137 C 3.5307,2.7137 3.5314,2.7217 3.5314,2.727 L 3.5488,2.7245 C 3.5472,2.7076 3.5375,2.6988 3.5212,2.6988 C 3.501,2.6988 3.4905,2.7165 3.4905,2.7336 C 3.4905,2.7526 3.501,2.7715 3.5221,2.7715 C 3.5459,2.7715 3.5495,2.7509 3.5495,2.744"
   class="ps08"
   id="path1287"
   style="fill:#f9b2a3;fill-rule:nonzero;stroke:none" />

<path
   d="M 3.54,2.744 C 3.5449,2.744 3.549,2.7399 3.549,2.7349 C 3.549,2.73 3.5449,2.7259 3.54,2.7259 C 3.535,2.7259 3.531,2.73 3.531,2.7349 C 3.531,2.7399 3.535,2.744 3.54,2.744"
   class="ps09"
   id="path1289"
   style="fill:#fbcbbf;fill-rule:nonzero;stroke:none" />

<path
   d="M 3.1787,2.7989 L 3.2011,2.7989 L 3.2011,2.7659 L 3.2013,2.7659 C 3.2045,2.7692 3.2103,2.7715 3.2149,2.7715 C 3.2304,2.7715 3.2387,2.756 3.2387,2.736 C 3.2387,2.7201 3.232,2.6996 3.2132,2.6996 C 3.2045,2.6996 3.1988,2.7038 3.1944,2.7104 L 3.1903,2.7004 L 3.1787,2.7004 L 3.1787,2.7989 z M 3.2011,2.7227 C 3.2006,2.7169 3.2041,2.7137 3.2084,2.7137 C 3.2146,2.7137 3.2154,2.7199 3.2154,2.7328 L 3.2154,2.7381 C 3.2154,2.7519 3.2154,2.7591 3.2085,2.7591 C 3.2058,2.7591 3.2037,2.7574 3.2023,2.7563 L 3.2011,2.7551"
   class="ps05"
   id="path1291"
   style="fill:#f36c60;fill-rule:nonzero;stroke:none" />

<path
   d="M 3.2258,2.7989 L 3.2482,2.7989 L 3.2482,2.7659 L 3.2485,2.7659 C 3.2517,2.7692 3.2575,2.7715 3.2621,2.7715 C 3.2775,2.7715 3.2858,2.756 3.2858,2.736 C 3.2858,2.7201 3.2792,2.6996 3.2604,2.6996 C 3.2517,2.6996 3.246,2.7038 3.2416,2.7104 L 3.2374,2.7004 L 3.2258,2.7004 L 3.2258,2.7989 z M 3.2482,2.7227 C 3.2478,2.7169 3.2513,2.7137 3.2556,2.7137 C 3.2618,2.7137 3.2626,2.7199 3.2626,2.7328 L 3.2626,2.7381 C 3.2626,2.7519 3.2626,2.7591 3.2557,2.7591 C 3.2529,2.7591 3.2508,2.7574 3.2495,2.7563 L 3.2482,2.7551"
   class="ps06"
   id="path1293"
   style="fill:#f58273;fill-rule:nonzero;stroke:none" />

<path
   d="M 3.2736,2.7541 L 3.2645,2.7541 L 3.2645,2.7699 L 3.2736,2.7699 L 3.2736,2.7776 C 3.2736,2.7946 3.2821,2.8008 3.2969,2.8008 C 3.3013,2.8008 3.3046,2.8004 3.3082,2.8 L 3.3082,2.7829 C 3.307,2.7831 3.3053,2.7834 3.3041,2.7834 C 3.2984,2.7834 3.296,2.7816 3.296,2.7775 L 3.296,2.7699 L 3.3082,2.7699 L 3.3082,2.7541 L 3.296,2.7541 L 3.296,2.7004 L 3.2736,2.7004"
   class="ps07"
   id="path1295"
   style="fill:#f79a8a;fill-rule:nonzero;stroke:none" />

<path
   d="M 3.3313,2.744 C 3.3313,2.7468 3.3312,2.7501 3.3302,2.7527 C 3.3291,2.7555 3.3273,2.7574 3.3237,2.7574 C 3.3162,2.7574 3.3154,2.7483 3.3154,2.7345 C 3.3154,2.7188 3.3179,2.7137 3.3237,2.7137 C 3.3316,2.7137 3.3323,2.7217 3.3323,2.727 L 3.3497,2.7245 C 3.348,2.7076 3.3384,2.6988 3.322,2.6988 C 3.3018,2.6988 3.2913,2.7165 3.2913,2.7336 C 3.2913,2.7526 3.3018,2.7715 3.323,2.7715 C 3.3468,2.7715 3.3504,2.7509 3.3504,2.744"
   class="ps08"
   id="path1297"
   style="fill:#f9b2a3;fill-rule:nonzero;stroke:none" />

<path
   d="M 3.3408,2.744 C 3.3458,2.744 3.3499,2.7399 3.3499,2.7349 C 3.3499,2.73 3.3458,2.7259 3.3408,2.7259 C 3.3359,2.7259 3.3318,2.73 3.3318,2.7349 C 3.3318,2.7399 3.3359,2.744 3.3408,2.744"
   class="ps09"
   id="path1299"
   style="fill:#fbcbbf;fill-rule:nonzero;stroke:none" />

<path
   d="M 3.7761,2.7989 L 3.7985,2.7989 L 3.7985,2.7659 L 3.7988,2.7659 C 3.802,2.7692 3.8078,2.7715 3.8123,2.7715 C 3.8278,2.7715 3.8361,2.756 3.8361,2.736 C 3.8361,2.7201 3.8295,2.6996 3.8107,2.6996 C 3.802,2.6996 3.7963,2.7038 3.7919,2.7104 L 3.7877,2.7004 L 3.7761,2.7004 L 3.7761,2.7989 z M 3.7985,2.7227 C 3.7981,2.7169 3.8015,2.7137 3.8058,2.7137 C 3.812,2.7137 3.8129,2.7199 3.8129,2.7328 L 3.8129,2.7381 C 3.8129,2.7519 3.8129,2.7591 3.806,2.7591 C 3.8032,2.7591 3.8011,2.7574 3.7997,2.7563 L 3.7985,2.7551"
   class="ps05"
   id="path1301"
   style="fill:#f36c60;fill-rule:nonzero;stroke:none" />

<path
   d="M 3.8233,2.7989 L 3.8457,2.7989 L 3.8457,2.7659 L 3.846,2.7659 C 3.8491,2.7692 3.8549,2.7715 3.8595,2.7715 C 3.875,2.7715 3.8833,2.756 3.8833,2.736 C 3.8833,2.7201 3.8767,2.6996 3.8578,2.6996 C 3.8491,2.6996 3.8435,2.7038 3.839,2.7104 L 3.8349,2.7004 L 3.8233,2.7004 L 3.8233,2.7989 z M 3.8457,2.7227 C 3.8453,2.7169 3.8487,2.7137 3.853,2.7137 C 3.8592,2.7137 3.8601,2.7199 3.8601,2.7328 L 3.8601,2.7381 C 3.8601,2.7519 3.8601,2.7591 3.8531,2.7591 C 3.8504,2.7591 3.8483,2.7574 3.8469,2.7563 L 3.8457,2.7551"
   class="ps06"
   id="path1303"
   style="fill:#f58273;fill-rule:nonzero;stroke:none" />

<path
   d="M 3.8711,2.7541 L 3.862,2.7541 L 3.862,2.7699 L 3.8711,2.7699 L 3.8711,2.7776 C 3.8711,2.7946 3.8795,2.8008 3.8943,2.8008 C 3.8987,2.8008 3.902,2.8004 3.9056,2.8 L 3.9056,2.7829 C 3.9044,2.7831 3.9027,2.7834 3.9015,2.7834 C 3.8958,2.7834 3.8935,2.7816 3.8935,2.7775 L 3.8935,2.7699 L 3.9056,2.7699 L 3.9056,2.7541 L 3.8935,2.7541 L 3.8935,2.7004 L 3.8711,2.7004"
   class="ps07"
   id="path1305"
   style="fill:#f79a8a;fill-rule:nonzero;stroke:none" />

<path
   d="M 3.9288,2.744 C 3.9288,2.7468 3.9286,2.7501 3.9277,2.7527 C 3.9265,2.7555 3.9247,2.7574 3.9211,2.7574 C 3.9137,2.7574 3.9129,2.7483 3.9129,2.7345 C 3.9129,2.7188 3.9153,2.7137 3.9211,2.7137 C 3.929,2.7137 3.9297,2.7217 3.9297,2.727 L 3.9471,2.7245 C 3.9455,2.7076 3.9358,2.6988 3.9195,2.6988 C 3.8993,2.6988 3.8888,2.7165 3.8888,2.7336 C 3.8888,2.7526 3.8993,2.7715 3.9205,2.7715 C 3.9442,2.7715 3.9478,2.7509 3.9478,2.744"
   class="ps08"
   id="path1307"
   style="fill:#f9b2a3;fill-rule:nonzero;stroke:none" />

<path
   d="M 3.9383,2.744 C 3.9432,2.744 3.9473,2.7399 3.9473,2.7349 C 3.9473,2.73 3.9432,2.7259 3.9383,2.7259 C 3.9333,2.7259 3.9293,2.73 3.9293,2.7349 C 3.9293,2.7399 3.9333,2.744 3.9383,2.744"
   class="ps09"
   id="path1309"
   style="fill:#fbcbbf;fill-rule:nonzero;stroke:none" />

<path
   d="M 3.9765,2.7989 L 3.9989,2.7989 L 3.9989,2.7659 L 3.9992,2.7659 C 4.0024,2.7692 4.0081,2.7715 4.0127,2.7715 C 4.0282,2.7715 4.0365,2.756 4.0365,2.736 C 4.0365,2.7201 4.0299,2.6996 4.0111,2.6996 C 4.0024,2.6996 3.9967,2.7038 3.9923,2.7104 L 3.9881,2.7004 L 3.9765,2.7004 L 3.9765,2.7989 z M 3.9989,2.7227 C 3.9985,2.7169 4.0019,2.7137 4.0062,2.7137 C 4.0124,2.7137 4.0133,2.7199 4.0133,2.7328 L 4.0133,2.7381 C 4.0133,2.7519 4.0133,2.7591 4.0063,2.7591 C 4.0036,2.7591 4.0015,2.7574 4.0001,2.7563 L 3.9989,2.7551"
   class="ps05"
   id="path1311"
   style="fill:#f36c60;fill-rule:nonzero;stroke:none" />

<path
   d="M 4.0237,2.7989 L 4.0461,2.7989 L 4.0461,2.7659 L 4.0463,2.7659 C 4.0495,2.7692 4.0553,2.7715 4.0599,2.7715 C 4.0754,2.7715 4.0837,2.756 4.0837,2.736 C 4.0837,2.7201 4.077,2.6996 4.0582,2.6996 C 4.0495,2.6996 4.0438,2.7038 4.0394,2.7104 L 4.0353,2.7004 L 4.0237,2.7004 L 4.0237,2.7989 z M 4.0461,2.7227 C 4.0456,2.7169 4.0491,2.7137 4.0534,2.7137 C 4.0596,2.7137 4.0604,2.7199 4.0604,2.7328 L 4.0604,2.7381 C 4.0604,2.7519 4.0604,2.7591 4.0535,2.7591 C 4.0508,2.7591 4.0487,2.7574 4.0473,2.7563 L 4.0461,2.7551"
   class="ps06"
   id="path1313"
   style="fill:#f58273;fill-rule:nonzero;stroke:none" />

<path
   d="M 4.0715,2.7541 L 4.0623,2.7541 L 4.0623,2.7699 L 4.0715,2.7699 L 4.0715,2.7776 C 4.0715,2.7946 4.0799,2.8008 4.0947,2.8008 C 4.0991,2.8008 4.1024,2.8004 4.106,2.8 L 4.106,2.7829 C 4.1048,2.7831 4.1031,2.7834 4.1019,2.7834 C 4.0962,2.7834 4.0939,2.7816 4.0939,2.7775 L 4.0939,2.7699 L 4.106,2.7699 L 4.106,2.7541 L 4.0939,2.7541 L 4.0939,2.7004 L 4.0715,2.7004"
   class="ps07"
   id="path1315"
   style="fill:#f79a8a;fill-rule:nonzero;stroke:none" />

<path
   d="M 4.1291,2.744 C 4.1291,2.7468 4.129,2.7501 4.128,2.7527 C 4.1269,2.7555 4.1251,2.7574 4.1215,2.7574 C 4.1141,2.7574 4.1132,2.7483 4.1132,2.7345 C 4.1132,2.7188 4.1157,2.7137 4.1215,2.7137 C 4.1294,2.7137 4.1301,2.7217 4.1301,2.727 L 4.1475,2.7245 C 4.1459,2.7076 4.1362,2.6988 4.1199,2.6988 C 4.0997,2.6988 4.0892,2.7165 4.0892,2.7336 C 4.0892,2.7526 4.0997,2.7715 4.1208,2.7715 C 4.1446,2.7715 4.1482,2.7509 4.1482,2.744"
   class="ps08"
   id="path1317"
   style="fill:#f9b2a3;fill-rule:nonzero;stroke:none" />

<path
   d="M 3.5769,2.9124 L 3.5993,2.9124 L 3.5993,2.8793 L 3.5996,2.8793 C 3.6028,2.8826 3.6086,2.885 3.6132,2.885 C 3.6287,2.885 3.637,2.8695 3.637,2.8495 C 3.637,2.8336 3.6303,2.8131 3.6115,2.8131 C 3.6028,2.8131 3.5971,2.8172 3.5927,2.8239 L 3.5886,2.8139 L 3.5769,2.8139 L 3.5769,2.9124 z M 3.5993,2.8362 C 3.5989,2.8304 3.6024,2.8272 3.6067,2.8272 C 3.6129,2.8272 3.6137,2.8334 3.6137,2.8463 L 3.6137,2.8515 C 3.6137,2.8654 3.6137,2.8726 3.6068,2.8726 C 3.604,2.8726 3.602,2.8709 3.6006,2.8698 L 3.5993,2.8685"
   class="ps05"
   id="path1319"
   style="fill:#f36c60;fill-rule:nonzero;stroke:none" />

<path
   d="M 3.6241,2.9124 L 3.6465,2.9124 L 3.6465,2.8793 L 3.6468,2.8793 C 3.65,2.8826 3.6558,2.885 3.6604,2.885 C 3.6758,2.885 3.6841,2.8695 3.6841,2.8495 C 3.6841,2.8336 3.6775,2.8131 3.6587,2.8131 C 3.65,2.8131 3.6443,2.8172 3.6399,2.8239 L 3.6357,2.8139 L 3.6241,2.8139 L 3.6241,2.9124 z M 3.6465,2.8362 C 3.6461,2.8304 3.6496,2.8272 3.6539,2.8272 C 3.6601,2.8272 3.6609,2.8334 3.6609,2.8463 L 3.6609,2.8515 C 3.6609,2.8654 3.6609,2.8726 3.654,2.8726 C 3.6512,2.8726 3.6492,2.8709 3.6478,2.8698 L 3.6465,2.8685"
   class="ps06"
   id="path1321"
   style="fill:#f58273;fill-rule:nonzero;stroke:none" />

<path
   d="M 3.6719,2.8676 L 3.6628,2.8676 L 3.6628,2.8833 L 3.6719,2.8833 L 3.6719,2.8911 C 3.6719,2.9081 3.6804,2.9143 3.6952,2.9143 C 3.6996,2.9143 3.7029,2.9139 3.7065,2.9135 L 3.7065,2.8963 C 3.7052,2.8966 3.7036,2.8969 3.7023,2.8969 C 3.6967,2.8969 3.6943,2.8951 3.6943,2.8909 L 3.6943,2.8833 L 3.7065,2.8833 L 3.7065,2.8676 L 3.6943,2.8676 L 3.6943,2.8139 L 3.6719,2.8139"
   class="ps07"
   id="path1323"
   style="fill:#f79a8a;fill-rule:nonzero;stroke:none" />

<path
   d="M 3.7296,2.8575 C 3.7296,2.8602 3.7294,2.8636 3.7285,2.8662 C 3.7274,2.869 3.7256,2.8709 3.722,2.8709 C 3.7145,2.8709 3.7137,2.8618 3.7137,2.8479 C 3.7137,2.8323 3.7162,2.8272 3.722,2.8272 C 3.7299,2.8272 3.7306,2.8352 3.7306,2.8405 L 3.748,2.838 C 3.7463,2.8211 3.7366,2.8123 3.7203,2.8123 C 3.7001,2.8123 3.6896,2.83 3.6896,2.8471 C 3.6896,2.8661 3.7001,2.885 3.7213,2.885 C 3.7451,2.885 3.7487,2.8644 3.7487,2.8575"
   class="ps08"
   id="path1325"
   style="fill:#f9b2a3;fill-rule:nonzero;stroke:none" />

<path
   d="M 3.7391,2.8574 C 3.7441,2.8574 3.7482,2.8534 3.7482,2.8484 C 3.7482,2.8434 3.7441,2.8394 3.7391,2.8394 C 3.7341,2.8394 3.7301,2.8434 3.7301,2.8484 C 3.7301,2.8534 3.7341,2.8574 3.7391,2.8574"
   class="ps09"
   id="path1327"
   style="fill:#fbcbbf;fill-rule:nonzero;stroke:none" />

<path
   d="M 3.3778,2.9124 L 3.4002,2.9124 L 3.4002,2.8793 L 3.4005,2.8793 C 3.4037,2.8826 3.4095,2.885 3.414,2.885 C 3.4295,2.885 3.4378,2.8695 3.4378,2.8495 C 3.4378,2.8336 3.4312,2.8131 3.4124,2.8131 C 3.4037,2.8131 3.398,2.8172 3.3936,2.8239 L 3.3894,2.8139 L 3.3778,2.8139 L 3.3778,2.9124 z M 3.4002,2.8362 C 3.3998,2.8304 3.4032,2.8272 3.4075,2.8272 C 3.4138,2.8272 3.4146,2.8334 3.4146,2.8463 L 3.4146,2.8515 C 3.4146,2.8654 3.4146,2.8726 3.4077,2.8726 C 3.4049,2.8726 3.4028,2.8709 3.4014,2.8698 L 3.4002,2.8685"
   class="ps05"
   id="path1329"
   style="fill:#f36c60;fill-rule:nonzero;stroke:none" />

<path
   d="M 3.425,2.9124 L 3.4474,2.9124 L 3.4474,2.8793 L 3.4477,2.8793 C 3.4508,2.8826 3.4566,2.885 3.4612,2.885 C 3.4767,2.885 3.485,2.8695 3.485,2.8495 C 3.485,2.8336 3.4783,2.8131 3.4595,2.8131 C 3.4508,2.8131 3.4452,2.8172 3.4407,2.8239 L 3.4366,2.8139 L 3.425,2.8139 L 3.425,2.9124 z M 3.4474,2.8362 C 3.447,2.8304 3.4504,2.8272 3.4547,2.8272 C 3.4609,2.8272 3.4617,2.8334 3.4617,2.8463 L 3.4617,2.8515 C 3.4617,2.8654 3.4617,2.8726 3.4548,2.8726 C 3.4521,2.8726 3.45,2.8709 3.4486,2.8698 L 3.4474,2.8685"
   class="ps06"
   id="path1331"
   style="fill:#f58273;fill-rule:nonzero;stroke:none" />

<path
   d="M 3.4728,2.8676 L 3.4637,2.8676 L 3.4637,2.8833 L 3.4728,2.8833 L 3.4728,2.8911 C 3.4728,2.9081 3.4812,2.9143 3.496,2.9143 C 3.5004,2.9143 3.5038,2.9139 3.5074,2.9135 L 3.5074,2.8963 C 3.5061,2.8966 3.5044,2.8969 3.5032,2.8969 C 3.4975,2.8969 3.4952,2.8951 3.4952,2.8909 L 3.4952,2.8833 L 3.5074,2.8833 L 3.5074,2.8676 L 3.4952,2.8676 L 3.4952,2.8139 L 3.4728,2.8139"
   class="ps07"
   id="path1333"
   style="fill:#f79a8a;fill-rule:nonzero;stroke:none" />

<path
   d="M 3.5304,2.8575 C 3.5304,2.8602 3.5303,2.8636 3.5293,2.8662 C 3.5282,2.869 3.5264,2.8709 3.5228,2.8709 C 3.5154,2.8709 3.5145,2.8618 3.5145,2.8479 C 3.5145,2.8323 3.517,2.8272 3.5228,2.8272 C 3.5307,2.8272 3.5314,2.8352 3.5314,2.8405 L 3.5488,2.838 C 3.5472,2.8211 3.5375,2.8123 3.5212,2.8123 C 3.501,2.8123 3.4905,2.83 3.4905,2.8471 C 3.4905,2.8661 3.501,2.885 3.5221,2.885 C 3.5459,2.885 3.5495,2.8644 3.5495,2.8575"
   class="ps08"
   id="path1335"
   style="fill:#f9b2a3;fill-rule:nonzero;stroke:none" />

<path
   d="M 3.54,2.8574 C 3.5449,2.8574 3.549,2.8534 3.549,2.8484 C 3.549,2.8434 3.5449,2.8394 3.54,2.8394 C 3.535,2.8394 3.531,2.8434 3.531,2.8484 C 3.531,2.8534 3.535,2.8574 3.54,2.8574"
   class="ps09"
   id="path1337"
   style="fill:#fbcbbf;fill-rule:nonzero;stroke:none" />

<path
   d="M 3.1787,2.9124 L 3.2011,2.9124 L 3.2011,2.8793 L 3.2013,2.8793 C 3.2045,2.8826 3.2103,2.885 3.2149,2.885 C 3.2304,2.885 3.2387,2.8695 3.2387,2.8495 C 3.2387,2.8336 3.232,2.8131 3.2132,2.8131 C 3.2045,2.8131 3.1988,2.8172 3.1944,2.8239 L 3.1903,2.8139 L 3.1787,2.8139 L 3.1787,2.9124 z M 3.2011,2.8362 C 3.2006,2.8304 3.2041,2.8272 3.2084,2.8272 C 3.2146,2.8272 3.2154,2.8334 3.2154,2.8463 L 3.2154,2.8515 C 3.2154,2.8654 3.2154,2.8726 3.2085,2.8726 C 3.2058,2.8726 3.2037,2.8709 3.2023,2.8698 L 3.2011,2.8685"
   class="ps05"
   id="path1339"
   style="fill:#f36c60;fill-rule:nonzero;stroke:none" />

<path
   d="M 3.2258,2.9124 L 3.2482,2.9124 L 3.2482,2.8793 L 3.2485,2.8793 C 3.2517,2.8826 3.2575,2.885 3.2621,2.885 C 3.2775,2.885 3.2858,2.8695 3.2858,2.8495 C 3.2858,2.8336 3.2792,2.8131 3.2604,2.8131 C 3.2517,2.8131 3.246,2.8172 3.2416,2.8239 L 3.2374,2.8139 L 3.2258,2.8139 L 3.2258,2.9124 z M 3.2482,2.8362 C 3.2478,2.8304 3.2513,2.8272 3.2556,2.8272 C 3.2618,2.8272 3.2626,2.8334 3.2626,2.8463 L 3.2626,2.8515 C 3.2626,2.8654 3.2626,2.8726 3.2557,2.8726 C 3.2529,2.8726 3.2508,2.8709 3.2495,2.8698 L 3.2482,2.8685"
   class="ps06"
   id="path1341"
   style="fill:#f58273;fill-rule:nonzero;stroke:none" />

<path
   d="M 3.2736,2.8676 L 3.2645,2.8676 L 3.2645,2.8833 L 3.2736,2.8833 L 3.2736,2.8911 C 3.2736,2.9081 3.2821,2.9143 3.2969,2.9143 C 3.3013,2.9143 3.3046,2.9139 3.3082,2.9135 L 3.3082,2.8963 C 3.307,2.8966 3.3053,2.8969 3.3041,2.8969 C 3.2984,2.8969 3.296,2.8951 3.296,2.8909 L 3.296,2.8833 L 3.3082,2.8833 L 3.3082,2.8676 L 3.296,2.8676 L 3.296,2.8139 L 3.2736,2.8139"
   class="ps07"
   id="path1343"
   style="fill:#f79a8a;fill-rule:nonzero;stroke:none" />

<path
   d="M 3.3313,2.8575 C 3.3313,2.8602 3.3312,2.8636 3.3302,2.8662 C 3.3291,2.869 3.3273,2.8709 3.3237,2.8709 C 3.3162,2.8709 3.3154,2.8618 3.3154,2.8479 C 3.3154,2.8323 3.3179,2.8272 3.3237,2.8272 C 3.3316,2.8272 3.3323,2.8352 3.3323,2.8405 L 3.3497,2.838 C 3.348,2.8211 3.3384,2.8123 3.322,2.8123 C 3.3018,2.8123 3.2913,2.83 3.2913,2.8471 C 3.2913,2.8661 3.3018,2.885 3.323,2.885 C 3.3468,2.885 3.3504,2.8644 3.3504,2.8575"
   class="ps08"
   id="path1345"
   style="fill:#f9b2a3;fill-rule:nonzero;stroke:none" />

<path
   d="M 3.3408,2.8574 C 3.3458,2.8574 3.3499,2.8534 3.3499,2.8484 C 3.3499,2.8434 3.3458,2.8394 3.3408,2.8394 C 3.3359,2.8394 3.3318,2.8434 3.3318,2.8484 C 3.3318,2.8534 3.3359,2.8574 3.3408,2.8574"
   class="ps09"
   id="path1347"
   style="fill:#fbcbbf;fill-rule:nonzero;stroke:none" />

<path
   d="M 3.7761,2.9124 L 3.7985,2.9124 L 3.7985,2.8793 L 3.7988,2.8793 C 3.802,2.8826 3.8078,2.885 3.8123,2.885 C 3.8278,2.885 3.8361,2.8695 3.8361,2.8495 C 3.8361,2.8336 3.8295,2.8131 3.8107,2.8131 C 3.802,2.8131 3.7963,2.8172 3.7919,2.8239 L 3.7877,2.8139 L 3.7761,2.8139 L 3.7761,2.9124 z M 3.7985,2.8362 C 3.7981,2.8304 3.8015,2.8272 3.8058,2.8272 C 3.812,2.8272 3.8129,2.8334 3.8129,2.8463 L 3.8129,2.8515 C 3.8129,2.8654 3.8129,2.8726 3.806,2.8726 C 3.8032,2.8726 3.8011,2.8709 3.7997,2.8698 L 3.7985,2.8685"
   class="ps05"
   id="path1349"
   style="fill:#f36c60;fill-rule:nonzero;stroke:none" />

<path
   d="M 3.8233,2.9124 L 3.8457,2.9124 L 3.8457,2.8793 L 3.846,2.8793 C 3.8491,2.8826 3.8549,2.885 3.8595,2.885 C 3.875,2.885 3.8833,2.8695 3.8833,2.8495 C 3.8833,2.8336 3.8767,2.8131 3.8578,2.8131 C 3.8491,2.8131 3.8435,2.8172 3.839,2.8239 L 3.8349,2.8139 L 3.8233,2.8139 L 3.8233,2.9124 z M 3.8457,2.8362 C 3.8453,2.8304 3.8487,2.8272 3.853,2.8272 C 3.8592,2.8272 3.8601,2.8334 3.8601,2.8463 L 3.8601,2.8515 C 3.8601,2.8654 3.8601,2.8726 3.8531,2.8726 C 3.8504,2.8726 3.8483,2.8709 3.8469,2.8698 L 3.8457,2.8685"
   class="ps06"
   id="path1351"
   style="fill:#f58273;fill-rule:nonzero;stroke:none" />

<path
   d="M 3.8711,2.8676 L 3.862,2.8676 L 3.862,2.8833 L 3.8711,2.8833 L 3.8711,2.8911 C 3.8711,2.9081 3.8795,2.9143 3.8943,2.9143 C 3.8987,2.9143 3.902,2.9139 3.9056,2.9135 L 3.9056,2.8963 C 3.9044,2.8966 3.9027,2.8969 3.9015,2.8969 C 3.8958,2.8969 3.8935,2.8951 3.8935,2.8909 L 3.8935,2.8833 L 3.9056,2.8833 L 3.9056,2.8676 L 3.8935,2.8676 L 3.8935,2.8139 L 3.8711,2.8139"
   class="ps07"
   id="path1353"
   style="fill:#f79a8a;fill-rule:nonzero;stroke:none" />

<path
   d="M 3.9288,2.8575 C 3.9288,2.8602 3.9286,2.8636 3.9277,2.8662 C 3.9265,2.869 3.9247,2.8709 3.9211,2.8709 C 3.9137,2.8709 3.9129,2.8618 3.9129,2.8479 C 3.9129,2.8323 3.9153,2.8272 3.9211,2.8272 C 3.929,2.8272 3.9297,2.8352 3.9297,2.8405 L 3.9471,2.838 C 3.9455,2.8211 3.9358,2.8123 3.9195,2.8123 C 3.8993,2.8123 3.8888,2.83 3.8888,2.8471 C 3.8888,2.8661 3.8993,2.885 3.9205,2.885 C 3.9442,2.885 3.9478,2.8644 3.9478,2.8575"
   class="ps08"
   id="path1355"
   style="fill:#f9b2a3;fill-rule:nonzero;stroke:none" />

<path
   d="M 3.9383,2.8574 C 3.9432,2.8574 3.9473,2.8534 3.9473,2.8484 C 3.9473,2.8434 3.9432,2.8394 3.9383,2.8394 C 3.9333,2.8394 3.9293,2.8434 3.9293,2.8484 C 3.9293,2.8534 3.9333,2.8574 3.9383,2.8574"
   class="ps09"
   id="path1357"
   style="fill:#fbcbbf;fill-rule:nonzero;stroke:none" />

<path
   d="M 3.9765,2.9124 L 3.9989,2.9124 L 3.9989,2.8793 L 3.9992,2.8793 C 4.0024,2.8826 4.0081,2.885 4.0127,2.885 C 4.0282,2.885 4.0365,2.8695 4.0365,2.8495 C 4.0365,2.8336 4.0299,2.8131 4.0111,2.8131 C 4.0024,2.8131 3.9967,2.8172 3.9923,2.8239 L 3.9881,2.8139 L 3.9765,2.8139 L 3.9765,2.9124 z M 3.9989,2.8362 C 3.9985,2.8304 4.0019,2.8272 4.0062,2.8272 C 4.0124,2.8272 4.0133,2.8334 4.0133,2.8463 L 4.0133,2.8515 C 4.0133,2.8654 4.0133,2.8726 4.0063,2.8726 C 4.0036,2.8726 4.0015,2.8709 4.0001,2.8698 L 3.9989,2.8685"
   class="ps05"
   id="path1359"
   style="fill:#f36c60;fill-rule:nonzero;stroke:none" />

<path
   d="M 4.0237,2.9124 L 4.0461,2.9124 L 4.0461,2.8793 L 4.0463,2.8793 C 4.0495,2.8826 4.0553,2.885 4.0599,2.885 C 4.0754,2.885 4.0837,2.8695 4.0837,2.8495 C 4.0837,2.8336 4.077,2.8131 4.0582,2.8131 C 4.0495,2.8131 4.0438,2.8172 4.0394,2.8239 L 4.0353,2.8139 L 4.0237,2.8139 L 4.0237,2.9124 z M 4.0461,2.8362 C 4.0456,2.8304 4.0491,2.8272 4.0534,2.8272 C 4.0596,2.8272 4.0604,2.8334 4.0604,2.8463 L 4.0604,2.8515 C 4.0604,2.8654 4.0604,2.8726 4.0535,2.8726 C 4.0508,2.8726 4.0487,2.8709 4.0473,2.8698 L 4.0461,2.8685"
   class="ps06"
   id="path1361"
   style="fill:#f58273;fill-rule:nonzero;stroke:none" />

<path
   d="M 4.0715,2.8676 L 4.0623,2.8676 L 4.0623,2.8833 L 4.0715,2.8833 L 4.0715,2.8911 C 4.0715,2.9081 4.0799,2.9143 4.0947,2.9143 C 4.0991,2.9143 4.1024,2.9139 4.106,2.9135 L 4.106,2.8963 C 4.1048,2.8966 4.1031,2.8969 4.1019,2.8969 C 4.0962,2.8969 4.0939,2.8951 4.0939,2.8909 L 4.0939,2.8833 L 4.106,2.8833 L 4.106,2.8676 L 4.0939,2.8676 L 4.0939,2.8139 L 4.0715,2.8139"
   class="ps07"
   id="path1363"
   style="fill:#f79a8a;fill-rule:nonzero;stroke:none" />

<path
   d="M 4.1291,2.8575 C 4.1291,2.8602 4.129,2.8636 4.128,2.8662 C 4.1269,2.869 4.1251,2.8709 4.1215,2.8709 C 4.1141,2.8709 4.1132,2.8618 4.1132,2.8479 C 4.1132,2.8323 4.1157,2.8272 4.1215,2.8272 C 4.1294,2.8272 4.1301,2.8352 4.1301,2.8405 L 4.1475,2.838 C 4.1459,2.8211 4.1362,2.8123 4.1199,2.8123 C 4.0997,2.8123 4.0892,2.83 4.0892,2.8471 C 4.0892,2.8661 4.0997,2.885 4.1208,2.885 C 4.1446,2.885 4.1482,2.8644 4.1482,2.8575"
   class="ps08"
   id="path1365"
   style="fill:#f9b2a3;fill-rule:nonzero;stroke:none" />

<path
   d="M 3.5769,3.0258 L 3.5993,3.0258 L 3.5993,2.9928 L 3.5996,2.9928 C 3.6028,2.9961 3.6086,2.9985 3.6132,2.9985 C 3.6287,2.9985 3.637,2.983 3.637,2.9629 C 3.637,2.947 3.6303,2.9266 3.6115,2.9266 C 3.6028,2.9266 3.5971,2.9307 3.5927,2.9373 L 3.5886,2.9274 L 3.5769,2.9274 L 3.5769,3.0258 z M 3.5993,2.9496 C 3.5989,2.9438 3.6024,2.9407 3.6067,2.9407 C 3.6129,2.9407 3.6137,2.9469 3.6137,2.9597 L 3.6137,2.965 C 3.6137,2.9788 3.6137,2.986 3.6068,2.986 C 3.604,2.986 3.602,2.9844 3.6006,2.9833 L 3.5993,2.982"
   class="ps05"
   id="path1367"
   style="fill:#f36c60;fill-rule:nonzero;stroke:none" />

<path
   d="M 3.6241,3.0258 L 3.6465,3.0258 L 3.6465,2.9928 L 3.6468,2.9928 C 3.65,2.9961 3.6558,2.9985 3.6604,2.9985 C 3.6758,2.9985 3.6841,2.983 3.6841,2.9629 C 3.6841,2.947 3.6775,2.9266 3.6587,2.9266 C 3.65,2.9266 3.6443,2.9307 3.6399,2.9373 L 3.6357,2.9274 L 3.6241,2.9274 L 3.6241,3.0258 z M 3.6465,2.9496 C 3.6461,2.9438 3.6496,2.9407 3.6539,2.9407 C 3.6601,2.9407 3.6609,2.9469 3.6609,2.9597 L 3.6609,2.965 C 3.6609,2.9788 3.6609,2.986 3.654,2.986 C 3.6512,2.986 3.6492,2.9844 3.6478,2.9833 L 3.6465,2.982"
   class="ps06"
   id="path1369"
   style="fill:#f58273;fill-rule:nonzero;stroke:none" />

<path
   d="M 3.6719,2.981 L 3.6628,2.981 L 3.6628,2.9968 L 3.6719,2.9968 L 3.6719,3.0046 C 3.6719,3.0216 3.6804,3.0278 3.6952,3.0278 C 3.6996,3.0278 3.7029,3.0274 3.7065,3.027 L 3.7065,3.0098 C 3.7052,3.0101 3.7036,3.0104 3.7023,3.0104 C 3.6967,3.0104 3.6943,3.0086 3.6943,3.0044 L 3.6943,2.9968 L 3.7065,2.9968 L 3.7065,2.981 L 3.6943,2.981 L 3.6943,2.9274 L 3.6719,2.9274"
   class="ps07"
   id="path1371"
   style="fill:#f79a8a;fill-rule:nonzero;stroke:none" />

<path
   d="M 3.7296,2.9709 C 3.7296,2.9737 3.7294,2.977 3.7285,2.9797 C 3.7274,2.9824 3.7256,2.9844 3.722,2.9844 C 3.7145,2.9844 3.7137,2.9752 3.7137,2.9614 C 3.7137,2.9458 3.7162,2.9407 3.722,2.9407 C 3.7299,2.9407 3.7306,2.9487 3.7306,2.9539 L 3.748,2.9514 C 3.7463,2.9346 3.7366,2.9257 3.7203,2.9257 C 3.7001,2.9257 3.6896,2.9434 3.6896,2.9606 C 3.6896,2.9795 3.7001,2.9985 3.7213,2.9985 C 3.7451,2.9985 3.7487,2.9779 3.7487,2.9709"
   class="ps08"
   id="path1373"
   style="fill:#f9b2a3;fill-rule:nonzero;stroke:none" />

<path
   d="M 3.7391,2.9709 C 3.7441,2.9709 3.7482,2.9668 3.7482,2.9619 C 3.7482,2.9569 3.7441,2.9528 3.7391,2.9528 C 3.7341,2.9528 3.7301,2.9569 3.7301,2.9619 C 3.7301,2.9668 3.7341,2.9709 3.7391,2.9709"
   class="ps09"
   id="path1375"
   style="fill:#fbcbbf;fill-rule:nonzero;stroke:none" />

<path
   d="M 3.3778,3.0258 L 3.4002,3.0258 L 3.4002,2.9928 L 3.4005,2.9928 C 3.4037,2.9961 3.4095,2.9985 3.414,2.9985 C 3.4295,2.9985 3.4378,2.983 3.4378,2.9629 C 3.4378,2.947 3.4312,2.9266 3.4124,2.9266 C 3.4037,2.9266 3.398,2.9307 3.3936,2.9373 L 3.3894,2.9274 L 3.3778,2.9274 L 3.3778,3.0258 z M 3.4002,2.9496 C 3.3998,2.9438 3.4032,2.9407 3.4075,2.9407 C 3.4138,2.9407 3.4146,2.9469 3.4146,2.9597 L 3.4146,2.965 C 3.4146,2.9788 3.4146,2.986 3.4077,2.986 C 3.4049,2.986 3.4028,2.9844 3.4014,2.9833 L 3.4002,2.982"
   class="ps05"
   id="path1377"
   style="fill:#f36c60;fill-rule:nonzero;stroke:none" />

<path
   d="M 3.425,3.0258 L 3.4474,3.0258 L 3.4474,2.9928 L 3.4477,2.9928 C 3.4508,2.9961 3.4566,2.9985 3.4612,2.9985 C 3.4767,2.9985 3.485,2.983 3.485,2.9629 C 3.485,2.947 3.4783,2.9266 3.4595,2.9266 C 3.4508,2.9266 3.4452,2.9307 3.4407,2.9373 L 3.4366,2.9274 L 3.425,2.9274 L 3.425,3.0258 z M 3.4474,2.9496 C 3.447,2.9438 3.4504,2.9407 3.4547,2.9407 C 3.4609,2.9407 3.4617,2.9469 3.4617,2.9597 L 3.4617,2.965 C 3.4617,2.9788 3.4617,2.986 3.4548,2.986 C 3.4521,2.986 3.45,2.9844 3.4486,2.9833 L 3.4474,2.982"
   class="ps06"
   id="path1379"
   style="fill:#f58273;fill-rule:nonzero;stroke:none" />

<path
   d="M 3.4728,2.981 L 3.4637,2.981 L 3.4637,2.9968 L 3.4728,2.9968 L 3.4728,3.0046 C 3.4728,3.0216 3.4812,3.0278 3.496,3.0278 C 3.5004,3.0278 3.5038,3.0274 3.5074,3.027 L 3.5074,3.0098 C 3.5061,3.0101 3.5044,3.0104 3.5032,3.0104 C 3.4975,3.0104 3.4952,3.0086 3.4952,3.0044 L 3.4952,2.9968 L 3.5074,2.9968 L 3.5074,2.981 L 3.4952,2.981 L 3.4952,2.9274 L 3.4728,2.9274"
   class="ps07"
   id="path1381"
   style="fill:#f79a8a;fill-rule:nonzero;stroke:none" />

<path
   d="M 3.5304,2.9709 C 3.5304,2.9737 3.5303,2.977 3.5293,2.9797 C 3.5282,2.9824 3.5264,2.9844 3.5228,2.9844 C 3.5154,2.9844 3.5145,2.9752 3.5145,2.9614 C 3.5145,2.9458 3.517,2.9407 3.5228,2.9407 C 3.5307,2.9407 3.5314,2.9487 3.5314,2.9539 L 3.5488,2.9514 C 3.5472,2.9346 3.5375,2.9257 3.5212,2.9257 C 3.501,2.9257 3.4905,2.9434 3.4905,2.9606 C 3.4905,2.9795 3.501,2.9985 3.5221,2.9985 C 3.5459,2.9985 3.5495,2.9779 3.5495,2.9709"
   class="ps08"
   id="path1383"
   style="fill:#f9b2a3;fill-rule:nonzero;stroke:none" />

<path
   d="M 3.54,2.9709 C 3.5449,2.9709 3.549,2.9668 3.549,2.9619 C 3.549,2.9569 3.5449,2.9528 3.54,2.9528 C 3.535,2.9528 3.531,2.9569 3.531,2.9619 C 3.531,2.9668 3.535,2.9709 3.54,2.9709"
   class="ps09"
   id="path1385"
   style="fill:#fbcbbf;fill-rule:nonzero;stroke:none" />

<path
   d="M 3.7761,3.0258 L 3.7985,3.0258 L 3.7985,2.9928 L 3.7988,2.9928 C 3.802,2.9961 3.8078,2.9985 3.8123,2.9985 C 3.8278,2.9985 3.8361,2.983 3.8361,2.9629 C 3.8361,2.947 3.8295,2.9266 3.8107,2.9266 C 3.802,2.9266 3.7963,2.9307 3.7919,2.9373 L 3.7877,2.9274 L 3.7761,2.9274 L 3.7761,3.0258 z M 3.7985,2.9496 C 3.7981,2.9438 3.8015,2.9407 3.8058,2.9407 C 3.812,2.9407 3.8129,2.9469 3.8129,2.9597 L 3.8129,2.965 C 3.8129,2.9788 3.8129,2.986 3.806,2.986 C 3.8032,2.986 3.8011,2.9844 3.7997,2.9833 L 3.7985,2.982"
   class="ps05"
   id="path1387"
   style="fill:#f36c60;fill-rule:nonzero;stroke:none" />

<path
   d="M 3.8233,3.0258 L 3.8457,3.0258 L 3.8457,2.9928 L 3.846,2.9928 C 3.8491,2.9961 3.8549,2.9985 3.8595,2.9985 C 3.875,2.9985 3.8833,2.983 3.8833,2.9629 C 3.8833,2.947 3.8767,2.9266 3.8578,2.9266 C 3.8491,2.9266 3.8435,2.9307 3.839,2.9373 L 3.8349,2.9274 L 3.8233,2.9274 L 3.8233,3.0258 z M 3.8457,2.9496 C 3.8453,2.9438 3.8487,2.9407 3.853,2.9407 C 3.8592,2.9407 3.8601,2.9469 3.8601,2.9597 L 3.8601,2.965 C 3.8601,2.9788 3.8601,2.986 3.8531,2.986 C 3.8504,2.986 3.8483,2.9844 3.8469,2.9833 L 3.8457,2.982"
   class="ps06"
   id="path1389"
   style="fill:#f58273;fill-rule:nonzero;stroke:none" />

<path
   d="M 3.8711,2.981 L 3.862,2.981 L 3.862,2.9968 L 3.8711,2.9968 L 3.8711,3.0046 C 3.8711,3.0216 3.8795,3.0278 3.8943,3.0278 C 3.8987,3.0278 3.902,3.0274 3.9056,3.027 L 3.9056,3.0098 C 3.9044,3.0101 3.9027,3.0104 3.9015,3.0104 C 3.8958,3.0104 3.8935,3.0086 3.8935,3.0044 L 3.8935,2.9968 L 3.9056,2.9968 L 3.9056,2.981 L 3.8935,2.981 L 3.8935,2.9274 L 3.8711,2.9274"
   class="ps07"
   id="path1391"
   style="fill:#f79a8a;fill-rule:nonzero;stroke:none" />

<path
   d="M 3.9288,2.9709 C 3.9288,2.9737 3.9286,2.977 3.9277,2.9797 C 3.9265,2.9824 3.9247,2.9844 3.9211,2.9844 C 3.9137,2.9844 3.9129,2.9752 3.9129,2.9614 C 3.9129,2.9458 3.9153,2.9407 3.9211,2.9407 C 3.929,2.9407 3.9297,2.9487 3.9297,2.9539 L 3.9471,2.9514 C 3.9455,2.9346 3.9358,2.9257 3.9195,2.9257 C 3.8993,2.9257 3.8888,2.9434 3.8888,2.9606 C 3.8888,2.9795 3.8993,2.9985 3.9205,2.9985 C 3.9442,2.9985 3.9478,2.9779 3.9478,2.9709"
   class="ps08"
   id="path1393"
   style="fill:#f9b2a3;fill-rule:nonzero;stroke:none" />

<path
   d="M 3.9383,2.9709 C 3.9432,2.9709 3.9473,2.9668 3.9473,2.9619 C 3.9473,2.9569 3.9432,2.9528 3.9383,2.9528 C 3.9333,2.9528 3.9293,2.9569 3.9293,2.9619 C 3.9293,2.9668 3.9333,2.9709 3.9383,2.9709"
   class="ps09"
   id="path1395"
   style="fill:#fbcbbf;fill-rule:nonzero;stroke:none" />

</g>

</g>

<g
   id="q19"
   class="ps04 ps10"
   style="fill:#ec192d;fill-rule:nonzero;stroke:none;stroke-width:0.0148;stroke-linecap:butt;stroke-linejoin:miter;stroke-miterlimit:10;stroke-dasharray:none">
<path
   d="M 3.5368,2.414 L 3.5368,2.6532 L 3.4869,2.61 L 3.4869,2.6869 L 3.5368,2.7301 L 3.609,2.7301 L 3.609,2.414"
   class="ps010"
   id="path1398"
   style="fill:#231f20;fill-rule:nonzero;stroke:none" />

<path
   d="M 3.6426,2.414 L 3.6426,2.4798 L 3.7572,2.6041 C 3.7687,2.6165 3.7731,2.6245 3.7731,2.6378 C 3.7731,2.6551 3.7634,2.6671 3.7447,2.6671 C 3.7314,2.6671 3.7154,2.6609 3.7154,2.6365 L 3.6426,2.6365 C 3.6426,2.6986 3.6897,2.7328 3.7447,2.7328 C 3.8033,2.7328 3.8459,2.6969 3.8459,2.6374 C 3.8459,2.6041 3.8322,2.5863 3.8069,2.5597 L 3.7314,2.4798 L 3.8459,2.4798 L 3.8459,2.414"
   class="ps010"
   id="path1400"
   style="fill:#231f20;fill-rule:nonzero;stroke:none" />

<path
   d="M 3.5122,2.4386 L 3.5122,2.6778 L 3.4623,2.6346 L 3.4623,2.7116 L 3.5122,2.7548 L 3.5843,2.7548 L 3.5843,2.4386"
   class="ps04"
   id="path1402"
   style="fill:#ec192d;fill-rule:nonzero;stroke:none" />

<path
   d="M 3.618,2.4387 L 3.618,2.5044 L 3.7325,2.6287 C 3.7441,2.6411 3.7485,2.6491 3.7485,2.6624 C 3.7485,2.6798 3.7387,2.6917 3.7201,2.6917 C 3.7068,2.6917 3.6908,2.6855 3.6908,2.6611 L 3.618,2.6611 C 3.618,2.7233 3.665,2.7575 3.7201,2.7575 C 3.7787,2.7575 3.8213,2.7215 3.8213,2.662 C 3.8213,2.6287 3.8075,2.6109 3.7823,2.5843 L 3.7068,2.5044 L 3.8213,2.5044 L 3.8213,2.4387"
   class="ps04"
   id="path1404"
   style="fill:#ec192d;fill-rule:nonzero;stroke:none" />

</g>

</g>

</g>

</g>

</g>
  </g>
</svg>
