<?xml version="1.0" encoding="utf-8"?>
<svg version="1.1" xmlns="http://www.w3.org/2000/svg" xmlns:xlink="http://www.w3.org/1999/xlink" x="0px" y="0px"
	 viewBox="0 0 2551.7 2041.4" enable-background="new 0 0 2551.7 2041.4" xml:space="preserve">
<g>
	<polyline fill="#FFFFFF" points="2523.3,2025.7 28.4,2025.7 1275.9,29.7 2523.3,2025.7 	"/>
	<polygon fill="none" stroke="#000000" stroke-width="31.5085" stroke-miterlimit="10" points="2523.3,2025.7 28.4,2025.7 
		1275.9,29.7 	"/>
	<path fill="#009270" d="M2134.7,1984.3c-10.3,0-17.5-7.2-17.5-18.8c0-11.6,7.2-18.8,17.5-18.8c10.3,0,17.5,7.2,17.5,18.8
		C2152.2,1977.1,2145,1984.3,2134.7,1984.3 M2109.3,1965.5c0,14,11.4,25.4,25.4,25.4c14,0,25.4-11.4,25.4-25.4s-11.4-25.4-25.4-25.4
		C2120.7,1940.1,2109.3,1951.5,2109.3,1965.5z M2141.1,1969.4c-0.2,3-2.6,4.4-5.7,4.4c-4,0-6.6-3.6-6.6-8.4c0-5.1,2.3-8.3,6.4-8.3
		c2.7,0,5.2,1.1,5.8,4.2h6.2c-1.1-6.9-5.9-10.5-12-10.5c-8.7,0-14,6.2-14,14.6c0,8.2,5.6,14.5,14.1,14.5c5.9,0,11.2-3.7,12.1-10.6
		H2141.1z"/>
	<path fill="#009270" d="M2163.7,1981.1l19.7-16c2.1-1.8,6.2-5.8,6.2-9.2c0-3.8-2.5-6.1-6.2-6.1c-4.9,0-8.3,4.1-9.7,8.4l-10.1-5.2
		c2.5-6.4,9.4-12.6,20.8-12.6c15.1,0,19.4,8.8,19.4,14.7c0,6.2-3.8,10.6-8.9,13.9l-13.4,9.1v0.2h22.2v11.7h-39.9V1981.1"/>
	<path fill="#009270" d="M2209.5,1965.7c0,16,9.2,25.2,21.4,25.2c12.3,0,21.4-9.2,21.4-25.2c0-10.2-5.2-25.2-21.4-25.2
		C2214.8,1940.5,2209.5,1955.5,2209.5,1965.7 M2237.9,1965.7c0,13.1-2.8,15.9-7,15.9c-4.2,0-7-2.8-7-15.9c0-13.2,2.8-15.9,7-15.9
		C2235.1,1949.8,2237.9,1952.5,2237.9,1965.7z"/>
	<path fill="#009270" d="M2277.7,1949.8c-4.2,0-7,2.7-7,15.9c0,13.1,2.8,15.9,7,15.9c4.2,0,7-2.8,7-15.9
		C2284.7,1952.5,2281.9,1949.8,2277.7,1949.8 M2277.7,1940.5c16.1,0,21.4,15,21.4,25.2c0,16-9.1,25.2-21.4,25.2
		c-12.2,0-21.4-9.2-21.4-25.2C2256.3,1955.5,2261.6,1940.5,2277.7,1940.5z"/>
	<path fill="#009270" d="M2304.2,1981.1l19.7-16c2.1-1.8,6.2-5.8,6.2-9.2c0-3.8-2.5-6.1-6.2-6.1c-4.9,0-8.3,4.1-9.7,8.4l-10.1-5.2
		c2.5-6.4,9.4-12.6,20.7-12.6c15.1,0,19.4,8.8,19.4,14.7c0,6.2-3.8,10.6-8.9,13.9l-13.4,9.1v0.2h22.2v11.7h-39.9V1981.1"/>
	<polyline fill="#009270" points="208.5,1925.9 2343.3,1925.9 1275.9,218 208.5,1925.9 	"/>
	<path fill="#57B39C" d="M1126.9,1863.3c-0.9,12.4,6.5,19.1,15.6,19.1c13.2,0,15-13.2,15-40.7v-11.2c0-29.5,0-44.8-14.7-44.8
		c-5.9,0-10.3,3.6-13.3,5.9l-2.6,2.6V1863.3 M1079.2,1700.8h47.8v70.5h0.6c6.8-7.1,19.2-12.1,28.9-12.1c33,0,50.7,33,50.7,75.8
		c0,33.9-14.2,77.5-54.3,77.5c-18.6,0-30.7-8.8-40.1-23l-8.8,21.2h-24.8V1700.8z"/>
	<path fill="#74BDAA" d="M1227.5,1863.3c-0.9,12.4,6.5,19.1,15.6,19.1c13.2,0,15-13.2,15-40.7v-11.2c0-29.5,0-44.8-14.7-44.8
		c-5.9,0-10.3,3.6-13.3,5.9l-2.6,2.6V1863.3 M1179.7,1700.8h47.8v70.5h0.6c6.8-7.1,19.1-12.1,28.9-12.1c33,0,50.7,33,50.7,75.8
		c0,33.9-14.2,77.5-54.2,77.5c-18.6,0-30.7-8.8-40.1-23l-8.8,21.2h-24.8V1700.8z"/>
	<path fill="#8EC7B9" d="M1281.7,1796.4h-19.5v-33.6h19.5v-16.5c0-36.3,18-49.5,49.5-49.5c9.5,0,16.5,0.9,24.2,1.8v36.5
		c-2.7-0.6-6.2-1.1-8.8-1.1c-12.1,0-17.1,3.8-17.1,12.6v16.2h26v33.6h-26v114.4h-47.8V1796.4"/>
	<path fill="#A7D3C7" d="M1404.7,1817.9c0-5.9-0.3-13-2.4-18.6c-2.4-5.9-6.2-10-13.9-10c-16,0-17.7,19.5-17.7,48.9
		c0,33.3,5.3,44.2,17.7,44.2c16.8,0,18.3-17.1,18.3-28.3l37.1,5.3c-3.5,36-24.2,54.9-59,54.9c-43.1,0-65.5-37.8-65.5-74.3
		c0-40.4,22.4-80.8,67.5-80.8c50.7,0,58.4,43.9,58.4,58.7H1404.7"/>
	<path fill="#C2DFD6" d="M1425,1818c10.6,0,19.2,8.7,19.2,19.3c0,10.5-8.7,19.2-19.2,19.2c-10.6,0-19.3-8.7-19.3-19.2
		C1405.7,1826.6,1414.4,1818,1425,1818"/>
	<path fill="#57B39C" d="M1126.9,1621.3c-0.9,12.4,6.5,19.2,15.6,19.2c13.2,0,15-13.3,15-40.7v-11.2c0-29.5,0-44.8-14.7-44.8
		c-5.9,0-10.3,3.5-13.3,5.9l-2.6,2.6V1621.3 M1079.2,1458.8h47.8v70.5h0.6c6.8-7.1,19.2-12.1,28.9-12.1c33,0,50.7,33,50.7,75.8
		c0,33.9-14.2,77.5-54.3,77.5c-18.6,0-30.7-8.8-40.1-23l-8.8,21.3h-24.8V1458.8z"/>
	<path fill="#74BDAA" d="M1227.5,1621.3c-0.9,12.4,6.5,19.2,15.6,19.2c13.2,0,15-13.3,15-40.7v-11.2c0-29.5,0-44.8-14.7-44.8
		c-5.9,0-10.3,3.5-13.3,5.9l-2.6,2.6V1621.3 M1179.7,1458.8h47.8v70.5h0.6c6.8-7.1,19.1-12.1,28.9-12.1c33,0,50.7,33,50.7,75.8
		c0,33.9-14.2,77.5-54.2,77.5c-18.6,0-30.7-8.8-40.1-23l-8.8,21.3h-24.8V1458.8z"/>
	<path fill="#8EC7B9" d="M1281.7,1554.4h-19.5v-33.6h19.5v-16.5c0-36.3,18-49.5,49.5-49.5c9.5,0,16.5,0.9,24.2,1.7v36.6
		c-2.7-0.6-6.2-1.2-8.8-1.2c-12.1,0-17.1,3.9-17.1,12.7v16.2h26v33.6h-26v114.4h-47.8V1554.4"/>
	<path fill="#A7D3C7" d="M1404.7,1575.9c0-5.9-0.3-13-2.4-18.6c-2.4-5.9-6.2-10-13.9-10c-16,0-17.7,19.5-17.7,49
		c0,33.3,5.3,44.2,17.7,44.2c16.8,0,18.3-17.1,18.3-28.4l37.1,5.3c-3.5,36-24.2,54.9-59,54.9c-43.1,0-65.5-37.8-65.5-74.3
		c0-40.4,22.4-80.8,67.5-80.8c50.7,0,58.4,43.9,58.4,58.7H1404.7"/>
	<path fill="#C2DFD6" d="M1425,1576c10.6,0,19.2,8.7,19.2,19.3c0,10.6-8.7,19.3-19.2,19.3c-10.6,0-19.3-8.7-19.3-19.3
		C1405.7,1584.6,1414.4,1576,1425,1576"/>
	<path fill="#57B39C" d="M1126.9,1379.4c-0.9,12.4,6.5,19.1,15.6,19.1c13.2,0,15-13.3,15-40.7v-11.2c0-29.5,0-44.8-14.7-44.8
		c-5.9,0-10.3,3.5-13.3,5.9l-2.6,2.6V1379.4 M1079.2,1216.9h47.8v70.5h0.6c6.8-7.1,19.2-12.1,28.9-12.1c33,0,50.7,33,50.7,75.8
		c0,33.9-14.2,77.5-54.3,77.5c-18.6,0-30.7-8.8-40.1-23l-8.8,21.2h-24.8V1216.9z"/>
	<path fill="#74BDAA" d="M1227.5,1379.4c-0.9,12.4,6.5,19.1,15.6,19.1c13.2,0,15-13.3,15-40.7v-11.2c0-29.5,0-44.8-14.7-44.8
		c-5.9,0-10.3,3.5-13.3,5.9l-2.6,2.6V1379.4 M1179.7,1216.9h47.8v70.5h0.6c6.8-7.1,19.1-12.1,28.9-12.1c33,0,50.7,33,50.7,75.8
		c0,33.9-14.2,77.5-54.2,77.5c-18.6,0-30.7-8.8-40.1-23l-8.8,21.2h-24.8V1216.9z"/>
	<path fill="#8EC7B9" d="M1281.7,1312.4h-19.5v-33.6h19.5v-16.5c0-36.3,18-49.5,49.5-49.5c9.5,0,16.5,0.9,24.2,1.7v36.6
		c-2.7-0.6-6.2-1.2-8.8-1.2c-12.1,0-17.1,3.8-17.1,12.7v16.2h26v33.6h-26v114.4h-47.8V1312.4"/>
	<path fill="#A7D3C7" d="M1404.7,1333.9c0-5.9-0.3-13-2.4-18.6c-2.4-5.9-6.2-10-13.9-10c-16,0-17.7,19.5-17.7,48.9
		c0,33.3,5.3,44.2,17.7,44.2c16.8,0,18.3-17.1,18.3-28.3l37.1,5.3c-3.5,36-24.2,54.9-59,54.9c-43.1,0-65.5-37.8-65.5-74.3
		c0-40.4,22.4-80.8,67.5-80.8c50.7,0,58.4,43.9,58.4,58.7H1404.7"/>
	<path fill="#C2DFD6" d="M1425,1334.1c10.6,0,19.2,8.7,19.2,19.3c0,10.5-8.7,19.2-19.2,19.2c-10.6,0-19.3-8.7-19.3-19.2
		C1405.7,1342.7,1414.4,1334.1,1425,1334.1"/>
	<path fill="#57B39C" d="M702.2,1863.3c-0.9,12.4,6.5,19.1,15.6,19.1c13.3,0,15-13.2,15-40.7v-11.2c0-29.5,0-44.8-14.7-44.8
		c-5.9,0-10.3,3.6-13.2,5.9l-2.7,2.6V1863.3 M654.5,1700.8h47.8v70.5h0.6c6.8-7.1,19.2-12.1,28.9-12.1c33,0,50.7,33,50.7,75.8
		c0,33.9-14.2,77.5-54.3,77.5c-18.6,0-30.6-8.8-40.1-23l-8.8,21.2h-24.8V1700.8z"/>
	<path fill="#74BDAA" d="M802.8,1863.3c-0.9,12.4,6.5,19.1,15.6,19.1c13.2,0,15-13.2,15-40.7v-11.2c0-29.5,0-44.8-14.7-44.8
		c-5.9,0-10.3,3.6-13.3,5.9l-2.6,2.6V1863.3 M755.1,1700.8h47.8v70.5h0.6c6.8-7.1,19.2-12.1,28.9-12.1c33,0,50.7,33,50.7,75.8
		c0,33.9-14.2,77.5-54.3,77.5c-18.6,0-30.7-8.8-40.1-23l-8.8,21.2h-24.8V1700.8z"/>
	<path fill="#8EC7B9" d="M857,1796.4h-19.5v-33.6H857v-16.5c0-36.3,18-49.5,49.5-49.5c9.5,0,16.5,0.9,24.2,1.8v36.5
		c-2.7-0.6-6.2-1.1-8.8-1.1c-12.1,0-17.1,3.8-17.1,12.6v16.2h26v33.6h-26v114.4H857V1796.4"/>
	<path fill="#A7D3C7" d="M980,1817.9c0-5.9-0.3-13-2.4-18.6c-2.4-5.9-6.2-10-13.9-10c-16,0-17.7,19.5-17.7,48.9
		c0,33.3,5.3,44.2,17.7,44.2c16.8,0,18.3-17.1,18.3-28.3l37.1,5.3c-3.5,36-24.2,54.9-59,54.9c-43.1,0-65.5-37.8-65.5-74.3
		c0-40.4,22.4-80.8,67.5-80.8c50.7,0,58.4,43.9,58.4,58.7H980"/>
	<path fill="#C2DFD6" d="M1000.3,1818c10.6,0,19.2,8.7,19.2,19.3c0,10.5-8.6,19.2-19.2,19.2c-10.6,0-19.3-8.7-19.3-19.2
		C981.1,1826.6,989.7,1818,1000.3,1818"/>
	<path fill="#57B39C" d="M702.2,1621.3c-0.9,12.4,6.5,19.2,15.6,19.2c13.3,0,15-13.3,15-40.7v-11.2c0-29.5,0-44.8-14.7-44.8
		c-5.9,0-10.3,3.5-13.2,5.9l-2.7,2.6V1621.3 M654.5,1458.8h47.8v70.5h0.6c6.8-7.1,19.2-12.1,28.9-12.1c33,0,50.7,33,50.7,75.8
		c0,33.9-14.2,77.5-54.3,77.5c-18.6,0-30.6-8.8-40.1-23l-8.8,21.3h-24.8V1458.8z"/>
	<path fill="#74BDAA" d="M802.8,1621.3c-0.9,12.4,6.5,19.2,15.6,19.2c13.2,0,15-13.3,15-40.7v-11.2c0-29.5,0-44.8-14.7-44.8
		c-5.9,0-10.3,3.5-13.3,5.9l-2.6,2.6V1621.3 M755.1,1458.8h47.8v70.5h0.6c6.8-7.1,19.2-12.1,28.9-12.1c33,0,50.7,33,50.7,75.8
		c0,33.9-14.2,77.5-54.3,77.5c-18.6,0-30.7-8.8-40.1-23l-8.8,21.3h-24.8V1458.8z"/>
	<path fill="#8EC7B9" d="M857,1554.4h-19.5v-33.6H857v-16.5c0-36.3,18-49.5,49.5-49.5c9.5,0,16.5,0.9,24.2,1.7v36.6
		c-2.7-0.6-6.2-1.2-8.8-1.2c-12.1,0-17.1,3.9-17.1,12.7v16.2h26v33.6h-26v114.4H857V1554.4"/>
	<path fill="#A7D3C7" d="M980,1575.9c0-5.9-0.3-13-2.4-18.6c-2.4-5.9-6.2-10-13.9-10c-16,0-17.7,19.5-17.7,49
		c0,33.3,5.3,44.2,17.7,44.2c16.8,0,18.3-17.1,18.3-28.4l37.1,5.3c-3.5,36-24.2,54.9-59,54.9c-43.1,0-65.5-37.8-65.5-74.3
		c0-40.4,22.4-80.8,67.5-80.8c50.7,0,58.4,43.9,58.4,58.7H980"/>
	<path fill="#C2DFD6" d="M1000.3,1576c10.6,0,19.2,8.7,19.2,19.3c0,10.6-8.6,19.3-19.2,19.3c-10.6,0-19.3-8.7-19.3-19.3
		C981.1,1584.6,989.7,1576,1000.3,1576"/>
	<path fill="#57B39C" d="M702.2,1379.4c-0.9,12.4,6.5,19.1,15.6,19.1c13.3,0,15-13.3,15-40.7v-11.2c0-29.5,0-44.8-14.7-44.8
		c-5.9,0-10.3,3.5-13.2,5.9l-2.7,2.6V1379.4 M654.5,1216.9h47.8v70.5h0.6c6.8-7.1,19.2-12.1,28.9-12.1c33,0,50.7,33,50.7,75.8
		c0,33.9-14.2,77.5-54.3,77.5c-18.6,0-30.6-8.8-40.1-23l-8.8,21.2h-24.8V1216.9z"/>
	<path fill="#74BDAA" d="M802.8,1379.4c-0.9,12.4,6.5,19.1,15.6,19.1c13.2,0,15-13.3,15-40.7v-11.2c0-29.5,0-44.8-14.7-44.8
		c-5.9,0-10.3,3.5-13.3,5.9l-2.6,2.6V1379.4 M755.1,1216.9h47.8v70.5h0.6c6.8-7.1,19.2-12.1,28.9-12.1c33,0,50.7,33,50.7,75.8
		c0,33.9-14.2,77.5-54.3,77.5c-18.6,0-30.7-8.8-40.1-23l-8.8,21.2h-24.8V1216.9z"/>
	<path fill="#8EC7B9" d="M857,1312.4h-19.5v-33.6H857v-16.5c0-36.3,18-49.5,49.5-49.5c9.5,0,16.5,0.9,24.2,1.7v36.6
		c-2.7-0.6-6.2-1.2-8.8-1.2c-12.1,0-17.1,3.8-17.1,12.7v16.2h26v33.6h-26v114.4H857V1312.4"/>
	<path fill="#A7D3C7" d="M980,1333.9c0-5.9-0.3-13-2.4-18.6c-2.4-5.9-6.2-10-13.9-10c-16,0-17.7,19.5-17.7,48.9
		c0,33.3,5.3,44.2,17.7,44.2c16.8,0,18.3-17.1,18.3-28.3l37.1,5.3c-3.5,36-24.2,54.9-59,54.9c-43.1,0-65.5-37.8-65.5-74.3
		c0-40.4,22.4-80.8,67.5-80.8c50.7,0,58.4,43.9,58.4,58.7H980"/>
	<path fill="#C2DFD6" d="M1000.3,1334.1c10.6,0,19.2,8.7,19.2,19.3c0,10.5-8.6,19.2-19.2,19.2c-10.6,0-19.3-8.7-19.3-19.2
		C981.1,1342.7,989.7,1334.1,1000.3,1334.1"/>
	<g>
		<defs>
			<polyline id="SVGID_1_" points="208.5,1925.9 2343.3,1925.9 1275.9,218 208.5,1925.9 			"/>
		</defs>
		<clipPath id="SVGID_2_">
			<use xlink:href="#SVGID_1_"  overflow="visible"/>
		</clipPath>
		<path clip-path="url(#SVGID_2_)" fill="#57B39C" d="M277.6,1863.3c-0.9,12.4,6.5,19.1,15.6,19.1c13.2,0,15-13.2,15-40.7v-11.2
			c0-29.5,0-44.8-14.7-44.8c-5.9,0-10.3,3.6-13.3,5.9l-2.6,2.6V1863.3 M229.8,1700.8h47.8v70.5h0.6c6.8-7.1,19.2-12.1,28.9-12.1
			c33,0,50.7,33,50.7,75.8c0,33.9-14.2,77.5-54.3,77.5c-18.6,0-30.6-8.8-40.1-23l-8.8,21.2h-24.8V1700.8z"/>
		<path clip-path="url(#SVGID_2_)" fill="#74BDAA" d="M378.2,1863.3c-0.9,12.4,6.5,19.1,15.6,19.1c13.3,0,15-13.2,15-40.7v-11.2
			c0-29.5,0-44.8-14.7-44.8c-5.9,0-10.3,3.6-13.2,5.9l-2.7,2.6V1863.3 M330.4,1700.8h47.8v70.5h0.6c6.8-7.1,19.1-12.1,28.9-12.1
			c33,0,50.7,33,50.7,75.8c0,33.9-14.2,77.5-54.3,77.5c-18.6,0-30.6-8.8-40.1-23l-8.8,21.2h-24.8V1700.8z"/>
		<path clip-path="url(#SVGID_2_)" fill="#8EC7B9" d="M432.3,1796.4h-19.5v-33.6h19.5v-16.5c0-36.3,18-49.5,49.5-49.5
			c9.5,0,16.5,0.9,24.2,1.8v36.5c-2.6-0.6-6.2-1.1-8.8-1.1c-12.2,0-17.1,3.8-17.1,12.6v16.2H506v33.6h-25.9v114.4h-47.8V1796.4"/>
	</g>
	<path fill="#A7D3C7" d="M555.3,1817.9c0-5.9-0.3-13-2.4-18.6c-2.3-5.9-6.2-10-13.9-10c-15.9,0-17.7,19.5-17.7,48.9
		c0,33.3,5.3,44.2,17.7,44.2c16.9,0,18.3-17.1,18.3-28.3l37.2,5.3c-3.6,36-24.2,54.9-59,54.9c-43,0-65.4-37.8-65.4-74.3
		c0-40.4,22.4-80.8,67.5-80.8c50.7,0,58.4,43.9,58.4,58.7H555.3"/>
	<path fill="#C2DFD6" d="M575.6,1818c10.6,0,19.3,8.7,19.3,19.3c0,10.5-8.7,19.2-19.3,19.2c-10.6,0-19.2-8.7-19.2-19.2
		C556.4,1826.6,565,1818,575.6,1818"/>
	<g>
		<defs>
			<polyline id="SVGID_3_" points="208.5,1925.9 2343.3,1925.9 1275.9,218 208.5,1925.9 			"/>
		</defs>
		<clipPath id="SVGID_4_">
			<use xlink:href="#SVGID_3_"  overflow="visible"/>
		</clipPath>
		<path clip-path="url(#SVGID_4_)" fill="#57B39C" d="M277.6,1621.3c-0.9,12.4,6.5,19.2,15.6,19.2c13.2,0,15-13.3,15-40.7v-11.2
			c0-29.5,0-44.8-14.7-44.8c-5.9,0-10.3,3.5-13.3,5.9l-2.6,2.6V1621.3 M229.8,1458.8h47.8v70.5h0.6c6.8-7.1,19.2-12.1,28.9-12.1
			c33,0,50.7,33,50.7,75.8c0,33.9-14.2,77.5-54.3,77.5c-18.6,0-30.6-8.8-40.1-23l-8.8,21.3h-24.8V1458.8z"/>
		<path clip-path="url(#SVGID_4_)" fill="#74BDAA" d="M378.2,1621.3c-0.9,12.4,6.5,19.2,15.6,19.2c13.3,0,15-13.3,15-40.7v-11.2
			c0-29.5,0-44.8-14.7-44.8c-5.9,0-10.3,3.5-13.2,5.9l-2.7,2.6V1621.3 M330.4,1458.8h47.8v70.5h0.6c6.8-7.1,19.1-12.1,28.9-12.1
			c33,0,50.7,33,50.7,75.8c0,33.9-14.2,77.5-54.3,77.5c-18.6,0-30.6-8.8-40.1-23l-8.8,21.3h-24.8V1458.8z"/>
		<path clip-path="url(#SVGID_4_)" fill="#8EC7B9" d="M432.3,1554.4h-19.5v-33.6h19.5v-16.5c0-36.3,18-49.5,49.5-49.5
			c9.5,0,16.5,0.9,24.2,1.7v36.6c-2.6-0.6-6.2-1.2-8.8-1.2c-12.2,0-17.1,3.9-17.1,12.7v16.2H506v33.6h-25.9v114.4h-47.8V1554.4"/>
		<path clip-path="url(#SVGID_4_)" fill="#A7D3C7" d="M555.3,1575.9c0-5.9-0.3-13-2.4-18.6c-2.3-5.9-6.2-10-13.9-10
			c-15.9,0-17.7,19.5-17.7,49c0,33.3,5.3,44.2,17.7,44.2c16.9,0,18.3-17.1,18.3-28.4l37.2,5.3c-3.6,36-24.2,54.9-59,54.9
			c-43,0-65.4-37.8-65.4-74.3c0-40.4,22.4-80.8,67.5-80.8c50.7,0,58.4,43.9,58.4,58.7H555.3"/>
	</g>
	<path fill="#C2DFD6" d="M575.6,1576c10.6,0,19.3,8.7,19.3,19.3c0,10.6-8.7,19.3-19.3,19.3c-10.6,0-19.2-8.7-19.2-19.3
		C556.4,1584.6,565,1576,575.6,1576"/>
	<g>
		<defs>
			<polyline id="SVGID_5_" points="208.5,1925.9 2343.3,1925.9 1275.9,218 208.5,1925.9 			"/>
		</defs>
		<clipPath id="SVGID_6_">
			<use xlink:href="#SVGID_5_"  overflow="visible"/>
		</clipPath>
		<path clip-path="url(#SVGID_6_)" fill="#57B39C" d="M277.6,1379.4c-0.9,12.4,6.5,19.1,15.6,19.1c13.2,0,15-13.3,15-40.7v-11.2
			c0-29.5,0-44.8-14.7-44.8c-5.9,0-10.3,3.5-13.3,5.9l-2.6,2.6V1379.4 M229.8,1216.9h47.8v70.5h0.6c6.8-7.1,19.2-12.1,28.9-12.1
			c33,0,50.7,33,50.7,75.8c0,33.9-14.2,77.5-54.3,77.5c-18.6,0-30.6-8.8-40.1-23l-8.8,21.2h-24.8V1216.9z"/>
		<path clip-path="url(#SVGID_6_)" fill="#74BDAA" d="M378.2,1379.4c-0.9,12.4,6.5,19.1,15.6,19.1c13.3,0,15-13.3,15-40.7v-11.2
			c0-29.5,0-44.8-14.7-44.8c-5.9,0-10.3,3.5-13.2,5.9l-2.7,2.6V1379.4 M330.4,1216.9h47.8v70.5h0.6c6.8-7.1,19.1-12.1,28.9-12.1
			c33,0,50.7,33,50.7,75.8c0,33.9-14.2,77.5-54.3,77.5c-18.6,0-30.6-8.8-40.1-23l-8.8,21.2h-24.8V1216.9z"/>
		<path clip-path="url(#SVGID_6_)" fill="#8EC7B9" d="M432.3,1312.4h-19.5v-33.6h19.5v-16.5c0-36.3,18-49.5,49.5-49.5
			c9.5,0,16.5,0.9,24.2,1.7v36.6c-2.6-0.6-6.2-1.2-8.8-1.2c-12.2,0-17.1,3.8-17.1,12.7v16.2H506v33.6h-25.9v114.4h-47.8V1312.4"/>
		<path clip-path="url(#SVGID_6_)" fill="#A7D3C7" d="M555.3,1333.9c0-5.9-0.3-13-2.4-18.6c-2.3-5.9-6.2-10-13.9-10
			c-15.9,0-17.7,19.5-17.7,48.9c0,33.3,5.3,44.2,17.7,44.2c16.9,0,18.3-17.1,18.3-28.3l37.2,5.3c-3.6,36-24.2,54.9-59,54.9
			c-43,0-65.4-37.8-65.4-74.3c0-40.4,22.4-80.8,67.5-80.8c50.7,0,58.4,43.9,58.4,58.7H555.3"/>
		<path clip-path="url(#SVGID_6_)" fill="#C2DFD6" d="M575.6,1334.1c10.6,0,19.3,8.7,19.3,19.3c0,10.5-8.7,19.2-19.3,19.2
			c-10.6,0-19.2-8.7-19.2-19.2C556.4,1342.7,565,1334.1,575.6,1334.1"/>
	</g>
	<path fill="#57B39C" d="M1551.6,1863.3c-0.9,12.4,6.5,19.1,15.6,19.1c13.2,0,15-13.2,15-40.7v-11.2c0-29.5,0-44.8-14.7-44.8
		c-5.9,0-10.3,3.6-13.3,5.9l-2.6,2.6V1863.3 M1503.8,1700.8h47.8v70.5h0.6c6.8-7.1,19.2-12.1,28.9-12.1c33,0,50.7,33,50.7,75.8
		c0,33.9-14.2,77.5-54.3,77.5c-18.6,0-30.6-8.8-40.1-23l-8.8,21.2h-24.8V1700.8z"/>
	<path fill="#74BDAA" d="M1652.2,1863.3c-0.9,12.4,6.5,19.1,15.6,19.1c13.3,0,15.1-13.2,15.1-40.7v-11.2c0-29.5,0-44.8-14.7-44.8
		c-5.9,0-10.4,3.6-13.3,5.9l-2.6,2.6V1863.3 M1604.4,1700.8h47.8v70.5h0.6c6.8-7.1,19.1-12.1,28.9-12.1c33,0,50.7,33,50.7,75.8
		c0,33.9-14.2,77.5-54.3,77.5c-18.6,0-30.7-8.8-40.1-23l-8.8,21.2h-24.8V1700.8z"/>
	<path fill="#8EC7B9" d="M1706.3,1796.4h-19.4v-33.6h19.4v-16.5c0-36.3,18-49.5,49.5-49.5c9.5,0,16.5,0.9,24.2,1.8v36.5
		c-2.6-0.6-6.2-1.1-8.8-1.1c-12.1,0-17.1,3.8-17.1,12.6v16.2h25.9v33.6h-25.9v114.4h-47.8V1796.4"/>
	<path fill="#A7D3C7" d="M1829.4,1817.9c0-5.9-0.3-13-2.4-18.6c-2.4-5.9-6.2-10-13.9-10c-15.9,0-17.7,19.5-17.7,48.9
		c0,33.3,5.3,44.2,17.7,44.2c16.8,0,18.3-17.1,18.3-28.3l37.2,5.3c-3.5,36-24.2,54.9-59,54.9c-43.1,0-65.5-37.8-65.5-74.3
		c0-40.4,22.4-80.8,67.5-80.8c50.7,0,58.4,43.9,58.4,58.7H1829.4"/>
	<path fill="#C2DFD6" d="M1849.7,1818c10.6,0,19.2,8.7,19.2,19.3c0,10.5-8.6,19.2-19.2,19.2c-10.6,0-19.3-8.7-19.3-19.2
		C1830.4,1826.6,1839,1818,1849.7,1818"/>
	<path fill="#57B39C" d="M1551.6,1621.3c-0.9,12.4,6.5,19.2,15.6,19.2c13.2,0,15-13.3,15-40.7v-11.2c0-29.5,0-44.8-14.7-44.8
		c-5.9,0-10.3,3.5-13.3,5.9l-2.6,2.6V1621.3 M1503.8,1458.8h47.8v70.5h0.6c6.8-7.1,19.2-12.1,28.9-12.1c33,0,50.7,33,50.7,75.8
		c0,33.9-14.2,77.5-54.3,77.5c-18.6,0-30.6-8.8-40.1-23l-8.8,21.3h-24.8V1458.8z"/>
	<path fill="#74BDAA" d="M1652.2,1621.3c-0.9,12.4,6.5,19.2,15.6,19.2c13.3,0,15.1-13.3,15.1-40.7v-11.2c0-29.5,0-44.8-14.7-44.8
		c-5.9,0-10.4,3.5-13.3,5.9l-2.6,2.6V1621.3 M1604.4,1458.8h47.8v70.5h0.6c6.8-7.1,19.1-12.1,28.9-12.1c33,0,50.7,33,50.7,75.8
		c0,33.9-14.2,77.5-54.3,77.5c-18.6,0-30.7-8.8-40.1-23l-8.8,21.3h-24.8V1458.8z"/>
	<path fill="#8EC7B9" d="M1706.3,1554.4h-19.4v-33.6h19.4v-16.5c0-36.3,18-49.5,49.5-49.5c9.5,0,16.5,0.9,24.2,1.7v36.6
		c-2.6-0.6-6.2-1.2-8.8-1.2c-12.1,0-17.1,3.9-17.1,12.7v16.2h25.9v33.6h-25.9v114.4h-47.8V1554.4"/>
	<path fill="#A7D3C7" d="M1829.4,1575.9c0-5.9-0.3-13-2.4-18.6c-2.4-5.9-6.2-10-13.9-10c-15.9,0-17.7,19.5-17.7,49
		c0,33.3,5.3,44.2,17.7,44.2c16.8,0,18.3-17.1,18.3-28.4l37.2,5.3c-3.5,36-24.2,54.9-59,54.9c-43.1,0-65.5-37.8-65.5-74.3
		c0-40.4,22.4-80.8,67.5-80.8c50.7,0,58.4,43.9,58.4,58.7H1829.4"/>
	<path fill="#C2DFD6" d="M1849.7,1576c10.6,0,19.2,8.7,19.2,19.3c0,10.6-8.6,19.3-19.2,19.3c-10.6,0-19.3-8.7-19.3-19.3
		C1830.4,1584.6,1839,1576,1849.7,1576"/>
	<path fill="#57B39C" d="M1551.6,1379.4c-0.9,12.4,6.5,19.1,15.6,19.1c13.2,0,15-13.3,15-40.7v-11.2c0-29.5,0-44.8-14.7-44.8
		c-5.9,0-10.3,3.5-13.3,5.9l-2.6,2.6V1379.4 M1503.8,1216.9h47.8v70.5h0.6c6.8-7.1,19.2-12.1,28.9-12.1c33,0,50.7,33,50.7,75.8
		c0,33.9-14.2,77.5-54.3,77.5c-18.6,0-30.6-8.8-40.1-23l-8.8,21.2h-24.8V1216.9z"/>
	<path fill="#74BDAA" d="M1652.2,1379.4c-0.9,12.4,6.5,19.1,15.6,19.1c13.3,0,15.1-13.3,15.1-40.7v-11.2c0-29.5,0-44.8-14.7-44.8
		c-5.9,0-10.4,3.5-13.3,5.9l-2.6,2.6V1379.4 M1604.4,1216.9h47.8v70.5h0.6c6.8-7.1,19.1-12.1,28.9-12.1c33,0,50.7,33,50.7,75.8
		c0,33.9-14.2,77.5-54.3,77.5c-18.6,0-30.7-8.8-40.1-23l-8.8,21.2h-24.8V1216.9z"/>
	<path fill="#8EC7B9" d="M1706.3,1312.4h-19.4v-33.6h19.4v-16.5c0-36.3,18-49.5,49.5-49.5c9.5,0,16.5,0.9,24.2,1.7v36.6
		c-2.6-0.6-6.2-1.2-8.8-1.2c-12.1,0-17.1,3.8-17.1,12.7v16.2h25.9v33.6h-25.9v114.4h-47.8V1312.4"/>
	<path fill="#A7D3C7" d="M1829.4,1333.9c0-5.9-0.3-13-2.4-18.6c-2.4-5.9-6.2-10-13.9-10c-15.9,0-17.7,19.5-17.7,48.9
		c0,33.3,5.3,44.2,17.7,44.2c16.8,0,18.3-17.1,18.3-28.3l37.2,5.3c-3.5,36-24.2,54.9-59,54.9c-43.1,0-65.5-37.8-65.5-74.3
		c0-40.4,22.4-80.8,67.5-80.8c50.7,0,58.4,43.9,58.4,58.7H1829.4"/>
	<path fill="#C2DFD6" d="M1849.7,1334.1c10.6,0,19.2,8.7,19.2,19.3c0,10.5-8.6,19.2-19.2,19.2c-10.6,0-19.3-8.7-19.3-19.2
		C1830.4,1342.7,1839,1334.1,1849.7,1334.1"/>
	<path fill="#57B39C" d="M1978.9,1863.3c-0.9,12.4,6.5,19.1,15.6,19.1c13.3,0,15.1-13.2,15.1-40.7v-11.2c0-29.5,0-44.8-14.8-44.8
		c-5.9,0-10.3,3.6-13.2,5.9l-2.7,2.6V1863.3 M1931.1,1700.8h47.8v70.5h0.6c6.8-7.1,19.1-12.1,28.9-12.1c33,0,50.7,33,50.7,75.8
		c0,33.9-14.2,77.5-54.3,77.5c-18.6,0-30.7-8.8-40.1-23l-8.9,21.2h-24.8V1700.8z"/>
	<path fill="#74BDAA" d="M2079.5,1863.3c-0.9,12.4,6.5,19.1,15.6,19.1c13.2,0,15-13.2,15-40.7v-11.2c0-29.5,0-44.8-14.7-44.8
		c-5.9,0-10.3,3.6-13.2,5.9l-2.7,2.6V1863.3 M2031.7,1700.8h47.8v70.5h0.6c6.8-7.1,19.2-12.1,28.9-12.1c33,0,50.7,33,50.7,75.8
		c0,33.9-14.2,77.5-54.3,77.5c-18.6,0-30.6-8.8-40.1-23l-8.8,21.2h-24.8V1700.8z"/>
	<g>
		<defs>
			<polyline id="SVGID_7_" points="208.5,1925.9 2343.3,1925.9 1275.9,218 208.5,1925.9 			"/>
		</defs>
		<clipPath id="SVGID_8_">
			<use xlink:href="#SVGID_7_"  overflow="visible"/>
		</clipPath>
		<path clip-path="url(#SVGID_8_)" fill="#8EC7B9" d="M2133.7,1796.4h-19.5v-33.6h19.5v-16.5c0-36.3,18-49.5,49.5-49.5
			c9.4,0,16.5,0.9,24.2,1.8v36.5c-2.6-0.6-6.2-1.1-8.9-1.1c-12.1,0-17.1,3.8-17.1,12.6v16.2h25.9v33.6h-25.9v114.4h-47.8V1796.4"/>
		<path clip-path="url(#SVGID_8_)" fill="#A7D3C7" d="M2256.7,1817.9c0-5.9-0.3-13-2.4-18.6c-2.3-5.9-6.2-10-13.9-10
			c-15.9,0-17.7,19.5-17.7,48.9c0,33.3,5.3,44.2,17.7,44.2c16.8,0,18.3-17.1,18.3-28.3l37.2,5.3c-3.6,36-24.2,54.9-59,54.9
			c-43.1,0-65.5-37.8-65.5-74.3c0-40.4,22.4-80.8,67.5-80.8c50.7,0,58.4,43.9,58.4,58.7H2256.7"/>
		<path clip-path="url(#SVGID_8_)" fill="#C2DFD6" d="M2277,1818c10.6,0,19.3,8.7,19.3,19.3c0,10.5-8.7,19.2-19.3,19.2
			c-10.6,0-19.3-8.7-19.3-19.2C2257.7,1826.6,2266.3,1818,2277,1818"/>
		<path clip-path="url(#SVGID_8_)" fill="#57B39C" d="M1978.9,1621.3c-0.9,12.4,6.5,19.2,15.6,19.2c13.3,0,15.1-13.3,15.1-40.7
			v-11.2c0-29.5,0-44.8-14.8-44.8c-5.9,0-10.3,3.5-13.2,5.9l-2.7,2.6V1621.3 M1931.1,1458.8h47.8v70.5h0.6
			c6.8-7.1,19.1-12.1,28.9-12.1c33,0,50.7,33,50.7,75.8c0,33.9-14.2,77.5-54.3,77.5c-18.6,0-30.7-8.8-40.1-23l-8.9,21.3h-24.8
			V1458.8z"/>
		<path clip-path="url(#SVGID_8_)" fill="#74BDAA" d="M2079.5,1621.3c-0.9,12.4,6.5,19.2,15.6,19.2c13.2,0,15-13.3,15-40.7v-11.2
			c0-29.5,0-44.8-14.7-44.8c-5.9,0-10.3,3.5-13.2,5.9l-2.7,2.6V1621.3 M2031.7,1458.8h47.8v70.5h0.6c6.8-7.1,19.2-12.1,28.9-12.1
			c33,0,50.7,33,50.7,75.8c0,33.9-14.2,77.5-54.3,77.5c-18.6,0-30.6-8.8-40.1-23l-8.8,21.3h-24.8V1458.8z"/>
		<path clip-path="url(#SVGID_8_)" fill="#8EC7B9" d="M2133.7,1554.4h-19.5v-33.6h19.5v-16.5c0-36.3,18-49.5,49.5-49.5
			c9.4,0,16.5,0.9,24.2,1.7v36.6c-2.6-0.6-6.2-1.2-8.9-1.2c-12.1,0-17.1,3.9-17.1,12.7v16.2h25.9v33.6h-25.9v114.4h-47.8V1554.4"/>
		<path clip-path="url(#SVGID_8_)" fill="#A7D3C7" d="M2256.7,1575.9c0-5.9-0.3-13-2.4-18.6c-2.3-5.9-6.2-10-13.9-10
			c-15.9,0-17.7,19.5-17.7,49c0,33.3,5.3,44.2,17.7,44.2c16.8,0,18.3-17.1,18.3-28.4l37.2,5.3c-3.6,36-24.2,54.9-59,54.9
			c-43.1,0-65.5-37.8-65.5-74.3c0-40.4,22.4-80.8,67.5-80.8c50.7,0,58.4,43.9,58.4,58.7H2256.7"/>
		<path clip-path="url(#SVGID_8_)" fill="#C2DFD6" d="M2277,1576c10.6,0,19.3,8.7,19.3,19.3c0,10.6-8.7,19.3-19.3,19.3
			c-10.6,0-19.3-8.7-19.3-19.3C2257.7,1584.6,2266.3,1576,2277,1576"/>
		<path clip-path="url(#SVGID_8_)" fill="#57B39C" d="M1978.9,1379.4c-0.9,12.4,6.5,19.1,15.6,19.1c13.3,0,15.1-13.3,15.1-40.7
			v-11.2c0-29.5,0-44.8-14.8-44.8c-5.9,0-10.3,3.5-13.2,5.9l-2.7,2.6V1379.4 M1931.1,1216.9h47.8v70.5h0.6
			c6.8-7.1,19.1-12.1,28.9-12.1c33,0,50.7,33,50.7,75.8c0,33.9-14.2,77.5-54.3,77.5c-18.6,0-30.7-8.8-40.1-23l-8.9,21.2h-24.8
			V1216.9z"/>
		<path clip-path="url(#SVGID_8_)" fill="#74BDAA" d="M2079.5,1379.4c-0.9,12.4,6.5,19.1,15.6,19.1c13.2,0,15-13.3,15-40.7v-11.2
			c0-29.5,0-44.8-14.7-44.8c-5.9,0-10.3,3.5-13.2,5.9l-2.7,2.6V1379.4 M2031.7,1216.9h47.8v70.5h0.6c6.8-7.1,19.2-12.1,28.9-12.1
			c33,0,50.7,33,50.7,75.8c0,33.9-14.2,77.5-54.3,77.5c-18.6,0-30.6-8.8-40.1-23l-8.8,21.2h-24.8V1216.9z"/>
		<path clip-path="url(#SVGID_8_)" fill="#8EC7B9" d="M2133.7,1312.4h-19.5v-33.6h19.5v-16.5c0-36.3,18-49.5,49.5-49.5
			c9.4,0,16.5,0.9,24.2,1.7v36.6c-2.6-0.6-6.2-1.2-8.9-1.2c-12.1,0-17.1,3.8-17.1,12.7v16.2h25.9v33.6h-25.9v114.4h-47.8V1312.4"/>
		<path clip-path="url(#SVGID_8_)" fill="#A7D3C7" d="M2256.7,1333.9c0-5.9-0.3-13-2.4-18.6c-2.3-5.9-6.2-10-13.9-10
			c-15.9,0-17.7,19.5-17.7,48.9c0,33.3,5.3,44.2,17.7,44.2c16.8,0,18.3-17.1,18.3-28.3l37.2,5.3c-3.6,36-24.2,54.9-59,54.9
			c-43.1,0-65.5-37.8-65.5-74.3c0-40.4,22.4-80.8,67.5-80.8c50.7,0,58.4,43.9,58.4,58.7H2256.7"/>
		<path clip-path="url(#SVGID_8_)" fill="#C2DFD6" d="M2277,1334.1c10.6,0,19.3,8.7,19.3,19.3c0,10.5-8.7,19.2-19.3,19.2
			c-10.6,0-19.3-8.7-19.3-19.2C2257.7,1342.7,2266.3,1334.1,2277,1334.1"/>
		<path clip-path="url(#SVGID_8_)" fill="#57B39C" d="M1126.9,1137.4c-0.9,12.4,6.5,19.1,15.6,19.1c13.2,0,15-13.2,15-40.7v-11.2
			c0-29.5,0-44.8-14.7-44.8c-5.9,0-10.3,3.6-13.3,5.9l-2.6,2.6V1137.4 M1079.2,974.9h47.8v70.5h0.6c6.8-7.1,19.2-12.1,28.9-12.1
			c33,0,50.7,33,50.7,75.8c0,33.9-14.2,77.5-54.3,77.5c-18.6,0-30.7-8.8-40.1-23l-8.8,21.2h-24.8V974.9z"/>
		<path clip-path="url(#SVGID_8_)" fill="#74BDAA" d="M1227.5,1137.4c-0.9,12.4,6.5,19.1,15.6,19.1c13.2,0,15-13.2,15-40.7v-11.2
			c0-29.5,0-44.8-14.7-44.8c-5.9,0-10.3,3.6-13.3,5.9l-2.6,2.6V1137.4 M1179.7,974.9h47.8v70.5h0.6c6.8-7.1,19.1-12.1,28.9-12.1
			c33,0,50.7,33,50.7,75.8c0,33.9-14.2,77.5-54.2,77.5c-18.6,0-30.7-8.8-40.1-23l-8.8,21.2h-24.8V974.9z"/>
		<path clip-path="url(#SVGID_8_)" fill="#8EC7B9" d="M1281.7,1070.5h-19.5v-33.6h19.5v-16.5c0-36.3,18-49.5,49.5-49.5
			c9.5,0,16.5,0.9,24.2,1.8v36.5c-2.7-0.6-6.2-1.1-8.8-1.1c-12.1,0-17.1,3.8-17.1,12.6v16.2h26v33.6h-26v114.4h-47.8V1070.5"/>
		<path clip-path="url(#SVGID_8_)" fill="#A7D3C7" d="M1404.7,1092c0-5.9-0.3-13-2.4-18.6c-2.4-5.9-6.2-10-13.9-10
			c-16,0-17.7,19.5-17.7,48.9c0,33.3,5.3,44.2,17.7,44.2c16.8,0,18.3-17.1,18.3-28.3l37.1,5.3c-3.5,36-24.2,54.9-59,54.9
			c-43.1,0-65.5-37.8-65.5-74.3c0-40.4,22.4-80.8,67.5-80.8c50.7,0,58.4,43.9,58.4,58.7H1404.7"/>
	</g>
	<path fill="#C2DFD6" d="M1425,1092.1c10.6,0,19.2,8.7,19.2,19.3c0,10.5-8.7,19.2-19.2,19.2c-10.6,0-19.3-8.7-19.3-19.2
		C1405.7,1100.8,1414.4,1092.1,1425,1092.1"/>
	<g>
		<defs>
			<polyline id="SVGID_9_" points="208.5,1925.9 2343.3,1925.9 1275.9,218 208.5,1925.9 			"/>
		</defs>
		<clipPath id="SVGID_10_">
			<use xlink:href="#SVGID_9_"  overflow="visible"/>
		</clipPath>
		<path clip-path="url(#SVGID_10_)" fill="#57B39C" d="M702.2,1137.4c-0.9,12.4,6.5,19.1,15.6,19.1c13.3,0,15-13.2,15-40.7v-11.2
			c0-29.5,0-44.8-14.7-44.8c-5.9,0-10.3,3.6-13.2,5.9l-2.7,2.6V1137.4 M654.5,974.9h47.8v70.5h0.6c6.8-7.1,19.2-12.1,28.9-12.1
			c33,0,50.7,33,50.7,75.8c0,33.9-14.2,77.5-54.3,77.5c-18.6,0-30.6-8.8-40.1-23l-8.8,21.2h-24.8V974.9z"/>
		<path clip-path="url(#SVGID_10_)" fill="#74BDAA" d="M802.8,1137.4c-0.9,12.4,6.5,19.1,15.6,19.1c13.2,0,15-13.2,15-40.7v-11.2
			c0-29.5,0-44.8-14.7-44.8c-5.9,0-10.3,3.6-13.3,5.9l-2.6,2.6V1137.4 M755.1,974.9h47.8v70.5h0.6c6.8-7.1,19.2-12.1,28.9-12.1
			c33,0,50.7,33,50.7,75.8c0,33.9-14.2,77.5-54.3,77.5c-18.6,0-30.7-8.8-40.1-23l-8.8,21.2h-24.8V974.9z"/>
		<path clip-path="url(#SVGID_10_)" fill="#8EC7B9" d="M857,1070.5h-19.5v-33.6H857v-16.5c0-36.3,18-49.5,49.5-49.5
			c9.5,0,16.5,0.9,24.2,1.8v36.5c-2.7-0.6-6.2-1.1-8.8-1.1c-12.1,0-17.1,3.8-17.1,12.6v16.2h26v33.6h-26v114.4H857V1070.5"/>
		<path clip-path="url(#SVGID_10_)" fill="#A7D3C7" d="M980,1092c0-5.9-0.3-13-2.4-18.6c-2.4-5.9-6.2-10-13.9-10
			c-16,0-17.7,19.5-17.7,48.9c0,33.3,5.3,44.2,17.7,44.2c16.8,0,18.3-17.1,18.3-28.3l37.1,5.3c-3.5,36-24.2,54.9-59,54.9
			c-43.1,0-65.5-37.8-65.5-74.3c0-40.4,22.4-80.8,67.5-80.8c50.7,0,58.4,43.9,58.4,58.7H980"/>
	</g>
	<path fill="#C2DFD6" d="M1000.3,1092.1c10.6,0,19.2,8.7,19.2,19.3c0,10.5-8.6,19.2-19.2,19.2c-10.6,0-19.3-8.7-19.3-19.2
		C981.1,1100.8,989.7,1092.1,1000.3,1092.1"/>
	<g>
		<defs>
			<polyline id="SVGID_11_" points="208.5,1925.9 2343.3,1925.9 1275.9,218 208.5,1925.9 			"/>
		</defs>
		<clipPath id="SVGID_12_">
			<use xlink:href="#SVGID_11_"  overflow="visible"/>
		</clipPath>
		<path clip-path="url(#SVGID_12_)" fill="#57B39C" d="M277.6,1137.4c-0.9,12.4,6.5,19.1,15.6,19.1c13.2,0,15-13.2,15-40.7v-11.2
			c0-29.5,0-44.8-14.7-44.8c-5.9,0-10.3,3.6-13.3,5.9l-2.6,2.6V1137.4 M229.8,974.9h47.8v70.5h0.6c6.8-7.1,19.2-12.1,28.9-12.1
			c33,0,50.7,33,50.7,75.8c0,33.9-14.2,77.5-54.3,77.5c-18.6,0-30.6-8.8-40.1-23l-8.8,21.2h-24.8V974.9z"/>
		<path clip-path="url(#SVGID_12_)" fill="#74BDAA" d="M378.2,1137.4c-0.9,12.4,6.5,19.1,15.6,19.1c13.3,0,15-13.2,15-40.7v-11.2
			c0-29.5,0-44.8-14.7-44.8c-5.9,0-10.3,3.6-13.2,5.9l-2.7,2.6V1137.4 M330.4,974.9h47.8v70.5h0.6c6.8-7.1,19.1-12.1,28.9-12.1
			c33,0,50.7,33,50.7,75.8c0,33.9-14.2,77.5-54.3,77.5c-18.6,0-30.6-8.8-40.1-23l-8.8,21.2h-24.8V974.9z"/>
		<path clip-path="url(#SVGID_12_)" fill="#8EC7B9" d="M432.3,1070.5h-19.5v-33.6h19.5v-16.5c0-36.3,18-49.5,49.5-49.5
			c9.5,0,16.5,0.9,24.2,1.8v36.5c-2.6-0.6-6.2-1.1-8.8-1.1c-12.2,0-17.1,3.8-17.1,12.6v16.2H506v33.6h-25.9v114.4h-47.8V1070.5"/>
		<path clip-path="url(#SVGID_12_)" fill="#A7D3C7" d="M555.3,1092c0-5.9-0.3-13-2.4-18.6c-2.3-5.9-6.2-10-13.9-10
			c-15.9,0-17.7,19.5-17.7,48.9c0,33.3,5.3,44.2,17.7,44.2c16.9,0,18.3-17.1,18.3-28.3l37.2,5.3c-3.6,36-24.2,54.9-59,54.9
			c-43,0-65.4-37.8-65.4-74.3c0-40.4,22.4-80.8,67.5-80.8c50.7,0,58.4,43.9,58.4,58.7H555.3"/>
		<path clip-path="url(#SVGID_12_)" fill="#C2DFD6" d="M575.6,1092.1c10.6,0,19.3,8.7,19.3,19.3c0,10.5-8.7,19.2-19.3,19.2
			c-10.6,0-19.2-8.7-19.2-19.2C556.4,1100.8,565,1092.1,575.6,1092.1"/>
		<path clip-path="url(#SVGID_12_)" fill="#57B39C" d="M1551.6,1137.4c-0.9,12.4,6.5,19.1,15.6,19.1c13.2,0,15-13.2,15-40.7v-11.2
			c0-29.5,0-44.8-14.7-44.8c-5.9,0-10.3,3.6-13.3,5.9l-2.6,2.6V1137.4 M1503.8,974.9h47.8v70.5h0.6c6.8-7.1,19.2-12.1,28.9-12.1
			c33,0,50.7,33,50.7,75.8c0,33.9-14.2,77.5-54.3,77.5c-18.6,0-30.6-8.8-40.1-23l-8.8,21.2h-24.8V974.9z"/>
		<path clip-path="url(#SVGID_12_)" fill="#74BDAA" d="M1652.2,1137.4c-0.9,12.4,6.5,19.1,15.6,19.1c13.3,0,15.1-13.2,15.1-40.7
			v-11.2c0-29.5,0-44.8-14.7-44.8c-5.9,0-10.4,3.6-13.3,5.9l-2.6,2.6V1137.4 M1604.4,974.9h47.8v70.5h0.6
			c6.8-7.1,19.1-12.1,28.9-12.1c33,0,50.7,33,50.7,75.8c0,33.9-14.2,77.5-54.3,77.5c-18.6,0-30.7-8.8-40.1-23l-8.8,21.2h-24.8V974.9
			z"/>
		<path clip-path="url(#SVGID_12_)" fill="#8EC7B9" d="M1706.3,1070.5h-19.4v-33.6h19.4v-16.5c0-36.3,18-49.5,49.5-49.5
			c9.5,0,16.5,0.9,24.2,1.8v36.5c-2.6-0.6-6.2-1.1-8.8-1.1c-12.1,0-17.1,3.8-17.1,12.6v16.2h25.9v33.6h-25.9v114.4h-47.8V1070.5"/>
		<path clip-path="url(#SVGID_12_)" fill="#A7D3C7" d="M1829.4,1092c0-5.9-0.3-13-2.4-18.6c-2.4-5.9-6.2-10-13.9-10
			c-15.9,0-17.7,19.5-17.7,48.9c0,33.3,5.3,44.2,17.7,44.2c16.8,0,18.3-17.1,18.3-28.3l37.2,5.3c-3.5,36-24.2,54.9-59,54.9
			c-43.1,0-65.5-37.8-65.5-74.3c0-40.4,22.4-80.8,67.5-80.8c50.7,0,58.4,43.9,58.4,58.7H1829.4"/>
		<path clip-path="url(#SVGID_12_)" fill="#C2DFD6" d="M1849.7,1092.1c10.6,0,19.2,8.7,19.2,19.3c0,10.5-8.6,19.2-19.2,19.2
			c-10.6,0-19.3-8.7-19.3-19.2C1830.4,1100.8,1839,1092.1,1849.7,1092.1"/>
		<path clip-path="url(#SVGID_12_)" fill="#57B39C" d="M1978.9,1137.4c-0.9,12.4,6.5,19.1,15.6,19.1c13.3,0,15.1-13.2,15.1-40.7
			v-11.2c0-29.5,0-44.8-14.8-44.8c-5.9,0-10.3,3.6-13.2,5.9l-2.7,2.6V1137.4 M1931.1,974.9h47.8v70.5h0.6
			c6.8-7.1,19.1-12.1,28.9-12.1c33,0,50.7,33,50.7,75.8c0,33.9-14.2,77.5-54.3,77.5c-18.6,0-30.7-8.8-40.1-23l-8.9,21.2h-24.8V974.9
			z"/>
		<path clip-path="url(#SVGID_12_)" fill="#74BDAA" d="M2079.5,1137.4c-0.9,12.4,6.5,19.1,15.6,19.1c13.2,0,15-13.2,15-40.7v-11.2
			c0-29.5,0-44.8-14.7-44.8c-5.9,0-10.3,3.6-13.2,5.9l-2.7,2.6V1137.4 M2031.7,974.9h47.8v70.5h0.6c6.8-7.1,19.2-12.1,28.9-12.1
			c33,0,50.7,33,50.7,75.8c0,33.9-14.2,77.5-54.3,77.5c-18.6,0-30.6-8.8-40.1-23l-8.8,21.2h-24.8V974.9z"/>
		<path clip-path="url(#SVGID_12_)" fill="#8EC7B9" d="M2133.7,1070.5h-19.5v-33.6h19.5v-16.5c0-36.3,18-49.5,49.5-49.5
			c9.4,0,16.5,0.9,24.2,1.8v36.5c-2.6-0.6-6.2-1.1-8.9-1.1c-12.1,0-17.1,3.8-17.1,12.6v16.2h25.9v33.6h-25.9v114.4h-47.8V1070.5"/>
		<path clip-path="url(#SVGID_12_)" fill="#A7D3C7" d="M2256.7,1092c0-5.9-0.3-13-2.4-18.6c-2.3-5.9-6.2-10-13.9-10
			c-15.9,0-17.7,19.5-17.7,48.9c0,33.3,5.3,44.2,17.7,44.2c16.8,0,18.3-17.1,18.3-28.3l37.2,5.3c-3.6,36-24.2,54.9-59,54.9
			c-43.1,0-65.5-37.8-65.5-74.3c0-40.4,22.4-80.8,67.5-80.8c50.7,0,58.4,43.9,58.4,58.7H2256.7"/>
		<path clip-path="url(#SVGID_12_)" fill="#C2DFD6" d="M2277,1092.1c10.6,0,19.3,8.7,19.3,19.3c0,10.5-8.7,19.2-19.3,19.2
			c-10.6,0-19.3-8.7-19.3-19.2C2257.7,1100.8,2266.3,1092.1,2277,1092.1"/>
		<path clip-path="url(#SVGID_12_)" fill="#57B39C" d="M1126.9,895.5c-0.9,12.4,6.5,19.2,15.6,19.2c13.2,0,15-13.3,15-40.7v-11.2
			c0-29.5,0-44.8-14.7-44.8c-5.9,0-10.3,3.6-13.3,5.9l-2.6,2.6V895.5 M1079.2,733h47.8v70.5h0.6c6.8-7.1,19.2-12.1,28.9-12.1
			c33,0,50.7,33,50.7,75.8c0,33.9-14.2,77.5-54.3,77.5c-18.6,0-30.7-8.8-40.1-23l-8.8,21.2h-24.8V733z"/>
		<path clip-path="url(#SVGID_12_)" fill="#74BDAA" d="M1227.5,895.5c-0.9,12.4,6.5,19.2,15.6,19.2c13.2,0,15-13.3,15-40.7v-11.2
			c0-29.5,0-44.8-14.7-44.8c-5.9,0-10.3,3.6-13.3,5.9l-2.6,2.6V895.5 M1179.7,733h47.8v70.5h0.6c6.8-7.1,19.1-12.1,28.9-12.1
			c33,0,50.7,33,50.7,75.8c0,33.9-14.2,77.5-54.2,77.5c-18.6,0-30.7-8.8-40.1-23l-8.8,21.2h-24.8V733z"/>
		<path clip-path="url(#SVGID_12_)" fill="#8EC7B9" d="M1281.7,828.5h-19.5v-33.6h19.5v-16.5c0-36.3,18-49.5,49.5-49.5
			c9.5,0,16.5,0.9,24.2,1.8v36.5c-2.7-0.6-6.2-1.1-8.8-1.1c-12.1,0-17.1,3.8-17.1,12.6v16.2h26v33.6h-26v114.4h-47.8V828.5"/>
	</g>
	<path fill="#A7D3C7" d="M1404.7,850c0-5.9-0.3-13-2.4-18.6c-2.4-5.9-6.2-10-13.9-10c-16,0-17.7,19.5-17.7,48.9
		c0,33.3,5.3,44.2,17.7,44.2c16.8,0,18.3-17.1,18.3-28.3l37.1,5.3c-3.5,36-24.2,54.9-59,54.9c-43.1,0-65.5-37.8-65.5-74.3
		c0-40.4,22.4-80.8,67.5-80.8c50.7,0,58.4,43.9,58.4,58.7H1404.7"/>
	<path fill="#C2DFD6" d="M1425,850.2c10.6,0,19.2,8.7,19.2,19.3c0,10.6-8.7,19.3-19.2,19.3c-10.6,0-19.3-8.7-19.3-19.3
		C1405.7,858.8,1414.4,850.2,1425,850.2"/>
	<g>
		<defs>
			<polyline id="SVGID_13_" points="208.5,1925.9 2343.3,1925.9 1275.9,218 208.5,1925.9 			"/>
		</defs>
		<clipPath id="SVGID_14_">
			<use xlink:href="#SVGID_13_"  overflow="visible"/>
		</clipPath>
		<path clip-path="url(#SVGID_14_)" fill="#57B39C" d="M702.2,895.5c-0.9,12.4,6.5,19.2,15.6,19.2c13.3,0,15-13.3,15-40.7v-11.2
			c0-29.5,0-44.8-14.7-44.8c-5.9,0-10.3,3.6-13.2,5.9l-2.7,2.6V895.5 M654.5,733h47.8v70.5h0.6c6.8-7.1,19.2-12.1,28.9-12.1
			c33,0,50.7,33,50.7,75.8c0,33.9-14.2,77.5-54.3,77.5c-18.6,0-30.6-8.8-40.1-23l-8.8,21.2h-24.8V733z"/>
		<path clip-path="url(#SVGID_14_)" fill="#74BDAA" d="M802.8,895.5c-0.9,12.4,6.5,19.2,15.6,19.2c13.2,0,15-13.3,15-40.7v-11.2
			c0-29.5,0-44.8-14.7-44.8c-5.9,0-10.3,3.6-13.3,5.9l-2.6,2.6V895.5 M755.1,733h47.8v70.5h0.6c6.8-7.1,19.2-12.1,28.9-12.1
			c33,0,50.7,33,50.7,75.8c0,33.9-14.2,77.5-54.3,77.5c-18.6,0-30.7-8.8-40.1-23l-8.8,21.2h-24.8V733z"/>
		<path clip-path="url(#SVGID_14_)" fill="#8EC7B9" d="M857,828.5h-19.5v-33.6H857v-16.5c0-36.3,18-49.5,49.5-49.5
			c9.5,0,16.5,0.9,24.2,1.8v36.5c-2.7-0.6-6.2-1.1-8.8-1.1c-12.1,0-17.1,3.8-17.1,12.6v16.2h26v33.6h-26v114.4H857V828.5"/>
		<path clip-path="url(#SVGID_14_)" fill="#A7D3C7" d="M980,850c0-5.9-0.3-13-2.4-18.6c-2.4-5.9-6.2-10-13.9-10
			c-16,0-17.7,19.5-17.7,48.9c0,33.3,5.3,44.2,17.7,44.2c16.8,0,18.3-17.1,18.3-28.3l37.1,5.3c-3.5,36-24.2,54.9-59,54.9
			c-43.1,0-65.5-37.8-65.5-74.3c0-40.4,22.4-80.8,67.5-80.8c50.7,0,58.4,43.9,58.4,58.7H980"/>
	</g>
	<path fill="#C2DFD6" d="M1000.3,850.2c10.6,0,19.2,8.7,19.2,19.3c0,10.6-8.6,19.3-19.2,19.3c-10.6,0-19.3-8.7-19.3-19.3
		C981.1,858.8,989.7,850.2,1000.3,850.2"/>
	<g>
		<defs>
			<polyline id="SVGID_15_" points="208.5,1925.9 2343.3,1925.9 1275.9,218 208.5,1925.9 			"/>
		</defs>
		<clipPath id="SVGID_16_">
			<use xlink:href="#SVGID_15_"  overflow="visible"/>
		</clipPath>
		<path clip-path="url(#SVGID_16_)" fill="#57B39C" d="M277.6,895.5c-0.9,12.4,6.5,19.2,15.6,19.2c13.2,0,15-13.3,15-40.7v-11.2
			c0-29.5,0-44.8-14.7-44.8c-5.9,0-10.3,3.6-13.3,5.9l-2.6,2.6V895.5 M229.8,733h47.8v70.5h0.6c6.8-7.1,19.2-12.1,28.9-12.1
			c33,0,50.7,33,50.7,75.8c0,33.9-14.2,77.5-54.3,77.5c-18.6,0-30.6-8.8-40.1-23l-8.8,21.2h-24.8V733z"/>
		<path clip-path="url(#SVGID_16_)" fill="#74BDAA" d="M378.2,895.5c-0.9,12.4,6.5,19.2,15.6,19.2c13.3,0,15-13.3,15-40.7v-11.2
			c0-29.5,0-44.8-14.7-44.8c-5.9,0-10.3,3.6-13.2,5.9l-2.7,2.6V895.5 M330.4,733h47.8v70.5h0.6c6.8-7.1,19.1-12.1,28.9-12.1
			c33,0,50.7,33,50.7,75.8c0,33.9-14.2,77.5-54.3,77.5c-18.6,0-30.6-8.8-40.1-23l-8.8,21.2h-24.8V733z"/>
		<path clip-path="url(#SVGID_16_)" fill="#8EC7B9" d="M432.3,828.5h-19.5v-33.6h19.5v-16.5c0-36.3,18-49.5,49.5-49.5
			c9.5,0,16.5,0.9,24.2,1.8v36.5c-2.6-0.6-6.2-1.1-8.8-1.1c-12.2,0-17.1,3.8-17.1,12.6v16.2H506v33.6h-25.9v114.4h-47.8V828.5"/>
		<path clip-path="url(#SVGID_16_)" fill="#A7D3C7" d="M555.3,850c0-5.9-0.3-13-2.4-18.6c-2.3-5.9-6.2-10-13.9-10
			c-15.9,0-17.7,19.5-17.7,48.9c0,33.3,5.3,44.2,17.7,44.2c16.9,0,18.3-17.1,18.3-28.3l37.2,5.3c-3.6,36-24.2,54.9-59,54.9
			c-43,0-65.4-37.8-65.4-74.3c0-40.4,22.4-80.8,67.5-80.8c50.7,0,58.4,43.9,58.4,58.7H555.3"/>
		<path clip-path="url(#SVGID_16_)" fill="#C2DFD6" d="M575.6,850.2c10.6,0,19.3,8.7,19.3,19.3c0,10.6-8.7,19.3-19.3,19.3
			c-10.6,0-19.2-8.7-19.2-19.3C556.4,858.8,565,850.2,575.6,850.2"/>
		<path clip-path="url(#SVGID_16_)" fill="#57B39C" d="M1551.6,895.5c-0.9,12.4,6.5,19.2,15.6,19.2c13.2,0,15-13.3,15-40.7v-11.2
			c0-29.5,0-44.8-14.7-44.8c-5.9,0-10.3,3.6-13.3,5.9l-2.6,2.6V895.5 M1503.8,733h47.8v70.5h0.6c6.8-7.1,19.2-12.1,28.9-12.1
			c33,0,50.7,33,50.7,75.8c0,33.9-14.2,77.5-54.3,77.5c-18.6,0-30.6-8.8-40.1-23l-8.8,21.2h-24.8V733z"/>
		<path clip-path="url(#SVGID_16_)" fill="#74BDAA" d="M1652.2,895.5c-0.9,12.4,6.5,19.2,15.6,19.2c13.3,0,15.1-13.3,15.1-40.7
			v-11.2c0-29.5,0-44.8-14.7-44.8c-5.9,0-10.4,3.6-13.3,5.9l-2.6,2.6V895.5 M1604.4,733h47.8v70.5h0.6c6.8-7.1,19.1-12.1,28.9-12.1
			c33,0,50.7,33,50.7,75.8c0,33.9-14.2,77.5-54.3,77.5c-18.6,0-30.7-8.8-40.1-23l-8.8,21.2h-24.8V733z"/>
		<path clip-path="url(#SVGID_16_)" fill="#8EC7B9" d="M1706.3,828.5h-19.4v-33.6h19.4v-16.5c0-36.3,18-49.5,49.5-49.5
			c9.5,0,16.5,0.9,24.2,1.8v36.5c-2.6-0.6-6.2-1.1-8.8-1.1c-12.1,0-17.1,3.8-17.1,12.6v16.2h25.9v33.6h-25.9v114.4h-47.8V828.5"/>
		<path clip-path="url(#SVGID_16_)" fill="#A7D3C7" d="M1829.4,850c0-5.9-0.3-13-2.4-18.6c-2.4-5.9-6.2-10-13.9-10
			c-15.9,0-17.7,19.5-17.7,48.9c0,33.3,5.3,44.2,17.7,44.2c16.8,0,18.3-17.1,18.3-28.3l37.2,5.3c-3.5,36-24.2,54.9-59,54.9
			c-43.1,0-65.5-37.8-65.5-74.3c0-40.4,22.4-80.8,67.5-80.8c50.7,0,58.4,43.9,58.4,58.7H1829.4"/>
		<path clip-path="url(#SVGID_16_)" fill="#C2DFD6" d="M1849.7,850.2c10.6,0,19.2,8.7,19.2,19.3c0,10.6-8.6,19.3-19.2,19.3
			c-10.6,0-19.3-8.7-19.3-19.3C1830.4,858.8,1839,850.2,1849.7,850.2"/>
		<path clip-path="url(#SVGID_16_)" fill="#57B39C" d="M1978.9,895.5c-0.9,12.4,6.5,19.2,15.6,19.2c13.3,0,15.1-13.3,15.1-40.7
			v-11.2c0-29.5,0-44.8-14.8-44.8c-5.9,0-10.3,3.6-13.2,5.9l-2.7,2.6V895.5 M1931.1,733h47.8v70.5h0.6c6.8-7.1,19.1-12.1,28.9-12.1
			c33,0,50.7,33,50.7,75.8c0,33.9-14.2,77.5-54.3,77.5c-18.6,0-30.7-8.8-40.1-23l-8.9,21.2h-24.8V733z"/>
		<path clip-path="url(#SVGID_16_)" fill="#74BDAA" d="M2079.5,895.5c-0.9,12.4,6.5,19.2,15.6,19.2c13.2,0,15-13.3,15-40.7v-11.2
			c0-29.5,0-44.8-14.7-44.8c-5.9,0-10.3,3.6-13.2,5.9l-2.7,2.6V895.5 M2031.7,733h47.8v70.5h0.6c6.8-7.1,19.2-12.1,28.9-12.1
			c33,0,50.7,33,50.7,75.8c0,33.9-14.2,77.5-54.3,77.5c-18.6,0-30.6-8.8-40.1-23l-8.8,21.2h-24.8V733z"/>
		<path clip-path="url(#SVGID_16_)" fill="#8EC7B9" d="M2133.7,828.5h-19.5v-33.6h19.5v-16.5c0-36.3,18-49.5,49.5-49.5
			c9.4,0,16.5,0.9,24.2,1.8v36.5c-2.6-0.6-6.2-1.1-8.9-1.1c-12.1,0-17.1,3.8-17.1,12.6v16.2h25.9v33.6h-25.9v114.4h-47.8V828.5"/>
		<path clip-path="url(#SVGID_16_)" fill="#A7D3C7" d="M2256.7,850c0-5.9-0.3-13-2.4-18.6c-2.3-5.9-6.2-10-13.9-10
			c-15.9,0-17.7,19.5-17.7,48.9c0,33.3,5.3,44.2,17.7,44.2c16.8,0,18.3-17.1,18.3-28.3l37.2,5.3c-3.6,36-24.2,54.9-59,54.9
			c-43.1,0-65.5-37.8-65.5-74.3c0-40.4,22.4-80.8,67.5-80.8c50.7,0,58.4,43.9,58.4,58.7H2256.7"/>
		<path clip-path="url(#SVGID_16_)" fill="#C2DFD6" d="M2277,850.2c10.6,0,19.3,8.7,19.3,19.3c0,10.6-8.7,19.3-19.3,19.3
			c-10.6,0-19.3-8.7-19.3-19.3C2257.7,858.8,2266.3,850.2,2277,850.2"/>
		<path clip-path="url(#SVGID_16_)" fill="#57B39C" d="M1126.9,653.5c-0.9,12.4,6.5,19.2,15.6,19.2c13.2,0,15-13.3,15-40.7v-11.2
			c0-29.5,0-44.8-14.7-44.8c-5.9,0-10.3,3.6-13.3,5.9l-2.6,2.7V653.5 M1079.2,491h47.8v70.5h0.6c6.8-7.1,19.2-12.1,28.9-12.1
			c33,0,50.7,33,50.7,75.8c0,33.9-14.2,77.5-54.3,77.5c-18.6,0-30.7-8.8-40.1-23l-8.8,21.2h-24.8V491z"/>
		<path clip-path="url(#SVGID_16_)" fill="#74BDAA" d="M1227.5,653.5c-0.9,12.4,6.5,19.2,15.6,19.2c13.2,0,15-13.3,15-40.7v-11.2
			c0-29.5,0-44.8-14.7-44.8c-5.9,0-10.3,3.6-13.3,5.9l-2.6,2.7V653.5 M1179.7,491h47.8v70.5h0.6c6.8-7.1,19.1-12.1,28.9-12.1
			c33,0,50.7,33,50.7,75.8c0,33.9-14.2,77.5-54.2,77.5c-18.6,0-30.7-8.8-40.1-23l-8.8,21.2h-24.8V491z"/>
		<path clip-path="url(#SVGID_16_)" fill="#8EC7B9" d="M1281.7,586.6h-19.5v-33.6h19.5v-16.5c0-36.3,18-49.5,49.5-49.5
			c9.5,0,16.5,0.9,24.2,1.8v36.6c-2.7-0.6-6.2-1.2-8.8-1.2c-12.1,0-17.1,3.8-17.1,12.6v16.2h26v33.6h-26V701h-47.8V586.6"/>
		<path clip-path="url(#SVGID_16_)" fill="#A7D3C7" d="M1404.7,608.1c0-5.9-0.3-13-2.4-18.6c-2.4-5.9-6.2-10-13.9-10
			c-16,0-17.7,19.5-17.7,48.9c0,33.3,5.3,44.2,17.7,44.2c16.8,0,18.3-17.1,18.3-28.3l37.1,5.3c-3.5,36-24.2,54.9-59,54.9
			c-43.1,0-65.5-37.8-65.5-74.3c0-40.4,22.4-80.8,67.5-80.8c50.7,0,58.4,43.9,58.4,58.7H1404.7"/>
	</g>
	<path fill="#C2DFD6" d="M1425,608.2c10.6,0,19.2,8.7,19.2,19.3c0,10.6-8.7,19.2-19.2,19.2c-10.6,0-19.3-8.7-19.3-19.2
		C1405.7,616.8,1414.4,608.2,1425,608.2"/>
	<g>
		<defs>
			<polyline id="SVGID_17_" points="208.5,1925.9 2343.3,1925.9 1275.9,218 208.5,1925.9 			"/>
		</defs>
		<clipPath id="SVGID_18_">
			<use xlink:href="#SVGID_17_"  overflow="visible"/>
		</clipPath>
		<path clip-path="url(#SVGID_18_)" fill="#57B39C" d="M702.2,653.5c-0.9,12.4,6.5,19.2,15.6,19.2c13.3,0,15-13.3,15-40.7v-11.2
			c0-29.5,0-44.8-14.7-44.8c-5.9,0-10.3,3.6-13.2,5.9l-2.7,2.7V653.5 M654.5,491h47.8v70.5h0.6c6.8-7.1,19.2-12.1,28.9-12.1
			c33,0,50.7,33,50.7,75.8c0,33.9-14.2,77.5-54.3,77.5c-18.6,0-30.6-8.8-40.1-23l-8.8,21.2h-24.8V491z"/>
		<path clip-path="url(#SVGID_18_)" fill="#74BDAA" d="M802.8,653.5c-0.9,12.4,6.5,19.2,15.6,19.2c13.2,0,15-13.3,15-40.7v-11.2
			c0-29.5,0-44.8-14.7-44.8c-5.9,0-10.3,3.6-13.3,5.9l-2.6,2.7V653.5 M755.1,491h47.8v70.5h0.6c6.8-7.1,19.2-12.1,28.9-12.1
			c33,0,50.7,33,50.7,75.8c0,33.9-14.2,77.5-54.3,77.5c-18.6,0-30.7-8.8-40.1-23l-8.8,21.2h-24.8V491z"/>
		<path clip-path="url(#SVGID_18_)" fill="#8EC7B9" d="M857,586.6h-19.5v-33.6H857v-16.5c0-36.3,18-49.5,49.5-49.5
			c9.5,0,16.5,0.9,24.2,1.8v36.6c-2.7-0.6-6.2-1.2-8.8-1.2c-12.1,0-17.1,3.8-17.1,12.6v16.2h26v33.6h-26V701H857V586.6"/>
		<path clip-path="url(#SVGID_18_)" fill="#A7D3C7" d="M980,608.1c0-5.9-0.3-13-2.4-18.6c-2.4-5.9-6.2-10-13.9-10
			c-16,0-17.7,19.5-17.7,48.9c0,33.3,5.3,44.2,17.7,44.2c16.8,0,18.3-17.1,18.3-28.3l37.1,5.3c-3.5,36-24.2,54.9-59,54.9
			c-43.1,0-65.5-37.8-65.5-74.3c0-40.4,22.4-80.8,67.5-80.8c50.7,0,58.4,43.9,58.4,58.7H980"/>
		<path clip-path="url(#SVGID_18_)" fill="#C2DFD6" d="M1000.3,608.2c10.6,0,19.2,8.7,19.2,19.3c0,10.6-8.6,19.2-19.2,19.2
			c-10.6,0-19.3-8.7-19.3-19.2C981.1,616.8,989.7,608.2,1000.3,608.2"/>
		<path clip-path="url(#SVGID_18_)" fill="#57B39C" d="M277.6,653.5c-0.9,12.4,6.5,19.2,15.6,19.2c13.2,0,15-13.3,15-40.7v-11.2
			c0-29.5,0-44.8-14.7-44.8c-5.9,0-10.3,3.6-13.3,5.9l-2.6,2.7V653.5 M229.8,491h47.8v70.5h0.6c6.8-7.1,19.2-12.1,28.9-12.1
			c33,0,50.7,33,50.7,75.8c0,33.9-14.2,77.5-54.3,77.5c-18.6,0-30.6-8.8-40.1-23l-8.8,21.2h-24.8V491z"/>
		<path clip-path="url(#SVGID_18_)" fill="#74BDAA" d="M378.2,653.5c-0.9,12.4,6.5,19.2,15.6,19.2c13.3,0,15-13.3,15-40.7v-11.2
			c0-29.5,0-44.8-14.7-44.8c-5.9,0-10.3,3.6-13.2,5.9l-2.7,2.7V653.5 M330.4,491h47.8v70.5h0.6c6.8-7.1,19.1-12.1,28.9-12.1
			c33,0,50.7,33,50.7,75.8c0,33.9-14.2,77.5-54.3,77.5c-18.6,0-30.6-8.8-40.1-23l-8.8,21.2h-24.8V491z"/>
		<path clip-path="url(#SVGID_18_)" fill="#8EC7B9" d="M432.3,586.6h-19.5v-33.6h19.5v-16.5c0-36.3,18-49.5,49.5-49.5
			c9.5,0,16.5,0.9,24.2,1.8v36.6c-2.6-0.6-6.2-1.2-8.8-1.2c-12.2,0-17.1,3.8-17.1,12.6v16.2H506v33.6h-25.9V701h-47.8V586.6"/>
		<path clip-path="url(#SVGID_18_)" fill="#A7D3C7" d="M555.3,608.1c0-5.9-0.3-13-2.4-18.6c-2.3-5.9-6.2-10-13.9-10
			c-15.9,0-17.7,19.5-17.7,48.9c0,33.3,5.3,44.2,17.7,44.2c16.9,0,18.3-17.1,18.3-28.3l37.2,5.3c-3.6,36-24.2,54.9-59,54.9
			c-43,0-65.4-37.8-65.4-74.3c0-40.4,22.4-80.8,67.5-80.8c50.7,0,58.4,43.9,58.4,58.7H555.3"/>
		<path clip-path="url(#SVGID_18_)" fill="#C2DFD6" d="M575.6,608.2c10.6,0,19.3,8.7,19.3,19.3c0,10.6-8.7,19.2-19.3,19.2
			c-10.6,0-19.2-8.7-19.2-19.2C556.4,616.8,565,608.2,575.6,608.2"/>
		<path clip-path="url(#SVGID_18_)" fill="#57B39C" d="M1551.6,653.5c-0.9,12.4,6.5,19.2,15.6,19.2c13.2,0,15-13.3,15-40.7v-11.2
			c0-29.5,0-44.8-14.7-44.8c-5.9,0-10.3,3.6-13.3,5.9l-2.6,2.7V653.5 M1503.8,491h47.8v70.5h0.6c6.8-7.1,19.2-12.1,28.9-12.1
			c33,0,50.7,33,50.7,75.8c0,33.9-14.2,77.5-54.3,77.5c-18.6,0-30.6-8.8-40.1-23l-8.8,21.2h-24.8V491z"/>
		<path clip-path="url(#SVGID_18_)" fill="#74BDAA" d="M1652.2,653.5c-0.9,12.4,6.5,19.2,15.6,19.2c13.3,0,15.1-13.3,15.1-40.7
			v-11.2c0-29.5,0-44.8-14.7-44.8c-5.9,0-10.4,3.6-13.3,5.9l-2.6,2.7V653.5 M1604.4,491h47.8v70.5h0.6c6.8-7.1,19.1-12.1,28.9-12.1
			c33,0,50.7,33,50.7,75.8c0,33.9-14.2,77.5-54.3,77.5c-18.6,0-30.7-8.8-40.1-23l-8.8,21.2h-24.8V491z"/>
		<path clip-path="url(#SVGID_18_)" fill="#8EC7B9" d="M1706.3,586.6h-19.4v-33.6h19.4v-16.5c0-36.3,18-49.5,49.5-49.5
			c9.5,0,16.5,0.9,24.2,1.8v36.6c-2.6-0.6-6.2-1.2-8.8-1.2c-12.1,0-17.1,3.8-17.1,12.6v16.2h25.9v33.6h-25.9V701h-47.8V586.6"/>
		<path clip-path="url(#SVGID_18_)" fill="#A7D3C7" d="M1829.4,608.1c0-5.9-0.3-13-2.4-18.6c-2.4-5.9-6.2-10-13.9-10
			c-15.9,0-17.7,19.5-17.7,48.9c0,33.3,5.3,44.2,17.7,44.2c16.8,0,18.3-17.1,18.3-28.3l37.2,5.3c-3.5,36-24.2,54.9-59,54.9
			c-43.1,0-65.5-37.8-65.5-74.3c0-40.4,22.4-80.8,67.5-80.8c50.7,0,58.4,43.9,58.4,58.7H1829.4"/>
		<path clip-path="url(#SVGID_18_)" fill="#C2DFD6" d="M1849.7,608.2c10.6,0,19.2,8.7,19.2,19.3c0,10.6-8.6,19.2-19.2,19.2
			c-10.6,0-19.3-8.7-19.3-19.2C1830.4,616.8,1839,608.2,1849.7,608.2"/>
		<path clip-path="url(#SVGID_18_)" fill="#57B39C" d="M1978.9,653.5c-0.9,12.4,6.5,19.2,15.6,19.2c13.3,0,15.1-13.3,15.1-40.7
			v-11.2c0-29.5,0-44.8-14.8-44.8c-5.9,0-10.3,3.6-13.2,5.9l-2.7,2.7V653.5 M1931.1,491h47.8v70.5h0.6c6.8-7.1,19.1-12.1,28.9-12.1
			c33,0,50.7,33,50.7,75.8c0,33.9-14.2,77.5-54.3,77.5c-18.6,0-30.7-8.8-40.1-23l-8.9,21.2h-24.8V491z"/>
		<path clip-path="url(#SVGID_18_)" fill="#74BDAA" d="M2079.5,653.5c-0.9,12.4,6.5,19.2,15.6,19.2c13.2,0,15-13.3,15-40.7v-11.2
			c0-29.5,0-44.8-14.7-44.8c-5.9,0-10.3,3.6-13.2,5.9l-2.7,2.7V653.5 M2031.7,491h47.8v70.5h0.6c6.8-7.1,19.2-12.1,28.9-12.1
			c33,0,50.7,33,50.7,75.8c0,33.9-14.2,77.5-54.3,77.5c-18.6,0-30.6-8.8-40.1-23l-8.8,21.2h-24.8V491z"/>
		<path clip-path="url(#SVGID_18_)" fill="#8EC7B9" d="M2133.7,586.6h-19.5v-33.6h19.5v-16.5c0-36.3,18-49.5,49.5-49.5
			c9.4,0,16.5,0.9,24.2,1.8v36.6c-2.6-0.6-6.2-1.2-8.9-1.2c-12.1,0-17.1,3.8-17.1,12.6v16.2h25.9v33.6h-25.9V701h-47.8V586.6"/>
		<path clip-path="url(#SVGID_18_)" fill="#A7D3C7" d="M2256.7,608.1c0-5.9-0.3-13-2.4-18.6c-2.3-5.9-6.2-10-13.9-10
			c-15.9,0-17.7,19.5-17.7,48.9c0,33.3,5.3,44.2,17.7,44.2c16.8,0,18.3-17.1,18.3-28.3l37.2,5.3c-3.6,36-24.2,54.9-59,54.9
			c-43.1,0-65.5-37.8-65.5-74.3c0-40.4,22.4-80.8,67.5-80.8c50.7,0,58.4,43.9,58.4,58.7H2256.7"/>
		<path clip-path="url(#SVGID_18_)" fill="#C2DFD6" d="M2277,608.2c10.6,0,19.3,8.7,19.3,19.3c0,10.6-8.7,19.2-19.3,19.2
			c-10.6,0-19.3-8.7-19.3-19.2C2257.7,616.8,2266.3,608.2,2277,608.2"/>
		<path clip-path="url(#SVGID_18_)" fill="#57B39C" d="M1126.9,411.5c-0.9,12.4,6.5,19.2,15.6,19.2c13.2,0,15-13.3,15-40.7v-11.2
			c0-29.5,0-44.8-14.7-44.8c-5.9,0-10.3,3.6-13.3,5.9l-2.6,2.7V411.5 M1079.2,249h47.8v70.5h0.6c6.8-7.1,19.2-12.1,28.9-12.1
			c33,0,50.7,33,50.7,75.8c0,33.9-14.2,77.5-54.3,77.5c-18.6,0-30.7-8.8-40.1-23l-8.8,21.2h-24.8V249z"/>
		<path clip-path="url(#SVGID_18_)" fill="#74BDAA" d="M1227.5,411.5c-0.9,12.4,6.5,19.2,15.6,19.2c13.2,0,15-13.3,15-40.7v-11.2
			c0-29.5,0-44.8-14.7-44.8c-5.9,0-10.3,3.6-13.3,5.9l-2.6,2.7V411.5 M1179.7,249h47.8v70.5h0.6c6.8-7.1,19.1-12.1,28.9-12.1
			c33,0,50.7,33,50.7,75.8c0,33.9-14.2,77.5-54.2,77.5c-18.6,0-30.7-8.8-40.1-23l-8.8,21.2h-24.8V249z"/>
		<path clip-path="url(#SVGID_18_)" fill="#8EC7B9" d="M1281.7,344.6h-19.5V311h19.5v-16.5c0-36.3,18-49.5,49.5-49.5
			c9.5,0,16.5,0.9,24.2,1.8v36.6c-2.7-0.6-6.2-1.2-8.8-1.2c-12.1,0-17.1,3.8-17.1,12.6V311h26v33.6h-26V459h-47.8V344.6"/>
		<path clip-path="url(#SVGID_18_)" fill="#A7D3C7" d="M1404.7,366.1c0-5.9-0.3-13-2.4-18.6c-2.4-5.9-6.2-10-13.9-10
			c-16,0-17.7,19.5-17.7,48.9c0,33.3,5.3,44.2,17.7,44.2c16.8,0,18.3-17.1,18.3-28.3l37.1,5.3c-3.5,36-24.2,54.9-59,54.9
			c-43.1,0-65.5-37.8-65.5-74.3c0-40.4,22.4-80.8,67.5-80.8c50.7,0,58.4,43.9,58.4,58.7H1404.7"/>
		<path clip-path="url(#SVGID_18_)" fill="#C2DFD6" d="M1425,366.2c10.6,0,19.2,8.7,19.2,19.3c0,10.6-8.7,19.3-19.2,19.3
			c-10.6,0-19.3-8.7-19.3-19.3C1405.7,374.9,1414.4,366.2,1425,366.2"/>
		<path clip-path="url(#SVGID_18_)" fill="#57B39C" d="M702.2,411.5c-0.9,12.4,6.5,19.2,15.6,19.2c13.3,0,15-13.3,15-40.7v-11.2
			c0-29.5,0-44.8-14.7-44.8c-5.9,0-10.3,3.6-13.2,5.9l-2.7,2.7V411.5 M654.5,249h47.8v70.5h0.6c6.8-7.1,19.2-12.1,28.9-12.1
			c33,0,50.7,33,50.7,75.8c0,33.9-14.2,77.5-54.3,77.5c-18.6,0-30.6-8.8-40.1-23l-8.8,21.2h-24.8V249z"/>
		<path clip-path="url(#SVGID_18_)" fill="#74BDAA" d="M802.8,411.5c-0.9,12.4,6.5,19.2,15.6,19.2c13.2,0,15-13.3,15-40.7v-11.2
			c0-29.5,0-44.8-14.7-44.8c-5.9,0-10.3,3.6-13.3,5.9l-2.6,2.7V411.5 M755.1,249h47.8v70.5h0.6c6.8-7.1,19.2-12.1,28.9-12.1
			c33,0,50.7,33,50.7,75.8c0,33.9-14.2,77.5-54.3,77.5c-18.6,0-30.7-8.8-40.1-23l-8.8,21.2h-24.8V249z"/>
		<path clip-path="url(#SVGID_18_)" fill="#8EC7B9" d="M857,344.6h-19.5V311H857v-16.5c0-36.3,18-49.5,49.5-49.5
			c9.5,0,16.5,0.9,24.2,1.8v36.6c-2.7-0.6-6.2-1.2-8.8-1.2c-12.1,0-17.1,3.8-17.1,12.6V311h26v33.6h-26V459H857V344.6"/>
		<path clip-path="url(#SVGID_18_)" fill="#A7D3C7" d="M980,366.1c0-5.9-0.3-13-2.4-18.6c-2.4-5.9-6.2-10-13.9-10
			c-16,0-17.7,19.5-17.7,48.9c0,33.3,5.3,44.2,17.7,44.2c16.8,0,18.3-17.1,18.3-28.3l37.1,5.3c-3.5,36-24.2,54.9-59,54.9
			c-43.1,0-65.5-37.8-65.5-74.3c0-40.4,22.4-80.8,67.5-80.8c50.7,0,58.4,43.9,58.4,58.7H980"/>
		<path clip-path="url(#SVGID_18_)" fill="#C2DFD6" d="M1000.3,366.2c10.6,0,19.2,8.7,19.2,19.3c0,10.6-8.6,19.3-19.2,19.3
			c-10.6,0-19.3-8.7-19.3-19.3C981.1,374.9,989.7,366.2,1000.3,366.2"/>
		<path clip-path="url(#SVGID_18_)" fill="#57B39C" d="M1551.6,411.5c-0.9,12.4,6.5,19.2,15.6,19.2c13.2,0,15-13.3,15-40.7v-11.2
			c0-29.5,0-44.8-14.7-44.8c-5.9,0-10.3,3.6-13.3,5.9l-2.6,2.7V411.5 M1503.8,249h47.8v70.5h0.6c6.8-7.1,19.2-12.1,28.9-12.1
			c33,0,50.7,33,50.7,75.8c0,33.9-14.2,77.5-54.3,77.5c-18.6,0-30.6-8.8-40.1-23l-8.8,21.2h-24.8V249z"/>
		<path clip-path="url(#SVGID_18_)" fill="#74BDAA" d="M1652.2,411.5c-0.9,12.4,6.5,19.2,15.6,19.2c13.3,0,15.1-13.3,15.1-40.7
			v-11.2c0-29.5,0-44.8-14.7-44.8c-5.9,0-10.4,3.6-13.3,5.9l-2.6,2.7V411.5 M1604.4,249h47.8v70.5h0.6c6.8-7.1,19.1-12.1,28.9-12.1
			c33,0,50.7,33,50.7,75.8c0,33.9-14.2,77.5-54.3,77.5c-18.6,0-30.7-8.8-40.1-23l-8.8,21.2h-24.8V249z"/>
		<path clip-path="url(#SVGID_18_)" fill="#8EC7B9" d="M1706.3,344.6h-19.4V311h19.4v-16.5c0-36.3,18-49.5,49.5-49.5
			c9.5,0,16.5,0.9,24.2,1.8v36.6c-2.6-0.6-6.2-1.2-8.8-1.2c-12.1,0-17.1,3.8-17.1,12.6V311h25.9v33.6h-25.9V459h-47.8V344.6"/>
		<path clip-path="url(#SVGID_18_)" fill="#A7D3C7" d="M1829.4,366.1c0-5.9-0.3-13-2.4-18.6c-2.4-5.9-6.2-10-13.9-10
			c-15.9,0-17.7,19.5-17.7,48.9c0,33.3,5.3,44.2,17.7,44.2c16.8,0,18.3-17.1,18.3-28.3l37.2,5.3c-3.5,36-24.2,54.9-59,54.9
			c-43.1,0-65.5-37.8-65.5-74.3c0-40.4,22.4-80.8,67.5-80.8c50.7,0,58.4,43.9,58.4,58.7H1829.4"/>
		<path clip-path="url(#SVGID_18_)" fill="#C2DFD6" d="M1849.7,366.2c10.6,0,19.2,8.7,19.2,19.3c0,10.6-8.6,19.3-19.2,19.3
			c-10.6,0-19.3-8.7-19.3-19.3C1830.4,374.9,1839,366.2,1849.7,366.2"/>
	</g>
	<path fill="#000000" d="M1329,1768.4c-140.1,0-254.7-94.7-254.7-242.4v-437.4H1240v433.6c0,62.5,34.1,98.5,89,98.5
		c54.9,0,90.9-36,90.9-98.5v-433.6h165.7v437.4C1585.6,1673.8,1469.1,1768.4,1329,1768.4"/>
	<path fill="#FFFFFF" d="M1276.5,1715.9c-140.1,0-254.7-94.7-254.7-242.4v-437.5h165.7v433.7c0,62.5,34.1,98.5,89,98.5
		c54.9,0,90.9-36,90.9-98.5v-433.7H1533v437.5C1533,1621.2,1416.6,1715.9,1276.5,1715.9"/>
</g>
</svg>
