<?xml version="1.0" encoding="UTF-8"?>
<!DOCTYPE svg PUBLIC "-//W3C//DTD SVG 1.1//EN" "http://www.w3.org/Graphics/SVG/1.1/DTD/svg11.dtd">
<!-- Creator: CorelDRAW -->
<svg xmlns="http://www.w3.org/2000/svg" xml:space="preserve" width="2465px" height="1972px" shape-rendering="geometricPrecision" text-rendering="geometricPrecision" image-rendering="optimizeQuality" fill-rule="evenodd" clip-rule="evenodd"
viewBox="0 0 2253.13 1802.5"
 xmlns:xlink="http://www.w3.org/1999/xlink">
 <g id="Ebene_x0020_1">
  <metadata id="CorelCorpID_0Corel-Layer"/>
  <polygon fill="white" stroke="#1F1A17" stroke-width="6.47752" points="2228.06,1788.59 25.0745,1788.59 1126.56,26.2059 "/>
  <path fill="#009977" d="M1890.61 1738.9c-0.241828,2.68601 -2.37077,3.90055 -5.05571,3.90055 -3.48275,0 -5.78335,-3.19558 -5.78335,-7.44375 0.00431835,-4.52131 2.01235,-7.2721 5.67215,-7.2721 2.41612,0 4.63251,0.974867 5.16151,3.72458l5.4314 0c-0.969469,-6.07052 -5.20901,-9.21968 -10.5929,-9.21968 -7.61973,0 -12.3181,5.44868 -12.3181,12.8924 0,7.20732 4.92076,12.8147 12.4293,12.8147 5.21333,0 9.84152,-3.25604 10.7041,-9.39133l-5.6484 -0.00539794zm-28.1243 -3.41797c0,12.3699 10.0639,22.4338 22.4327,22.4338 12.3645,0 22.4619,-10.0639 22.4619,-22.4338 0.00431835,-12.3829 -10.0974,-22.4608 -22.4619,-22.4608 -12.3688,-0.00431835 -22.4327,10.0779 -22.4327,22.4608zm22.4327 16.5857c-9.10848,0 -15.4532,-6.34042 -15.4532,-16.5857 0,-10.2582 6.34473,-16.617 15.4532,-16.617 9.10956,0 15.4629,6.35877 15.4629,16.617 0.00431835,10.241 -6.35877,16.5857 -15.4629,16.5857z"/>
  <path fill="#009977" d="M1910.51 1749.22l17.35 -14.094c1.90115,-1.54921 5.4951,-5.15719 5.4951,-8.13037 0,-3.32513 -2.22071,-5.3839 -5.4951,-5.3839 -4.27625,0 -7.25375,3.67276 -8.53414,7.44375l-8.91415 -4.58285c2.22179,-5.67647 8.29339,-11.1079 18.3109,-11.1079 13.3567,0 17.1277,7.73632 17.1277,12.9443 0.00431835,5.4314 -3.38559,9.33195 -7.8432,12.2997l-11.8074 8.08827 0 0.111197 19.5902 0 0 10.3057 -35.2798 0 0 -7.89394z"/>
  <path fill="#009977" d="M1976.02 1735.64c0,11.6315 -2.45822,14.0292 -6.16336,14.0292 -3.73861,0 -6.20115,-2.39776 -6.20115,-14.0292 0,-11.6315 2.46254,-14.0292 6.20115,-14.0292 3.70514,0 6.16336,2.39776 6.16336,14.0292zm-25.0669 0c0,14.1545 8.06991,22.2708 18.9036,22.2708 10.8196,0 18.8852,-8.11634 18.8852,-22.2708 0,-8.98325 -4.63359,-22.2762 -18.8852,-22.2762 -14.2711,0 -18.9036,13.293 -18.9036,22.2762z"/>
  <path fill="#009977" d="M2011.19 1713.37c14.2711,0 18.8993,13.293 18.8993,22.2762 0.00431835,14.1545 -8.08395,22.2708 -18.8993,22.2708 -10.8153,0 -18.8993,-8.11634 -18.8993,-22.2708 0,-8.98325 4.63359,-22.2762 18.8993,-22.2762zm0 8.24697c-3.71918,0 -6.18172,2.39776 -6.18172,14.0292 0,11.6315 2.45822,14.0292 6.18172,14.0292 3.72458,0 6.1828,-2.39776 6.1828,-14.0292 0.00431835,-11.6315 -2.45822,-14.0292 -6.1828,-14.0292z"/>
  <path fill="#009977" d="M2034.57 1749.22l17.35 -14.094c1.8828,-1.54921 5.49618,-5.15719 5.49618,-8.13037 0,-3.32513 -2.24014,-5.3839 -5.49618,-5.3839 -4.31295,0 -7.28613,3.67276 -8.53306,7.44375l-8.94654 -4.58285c2.24014,-5.67647 8.30634,-11.1079 18.3238,-11.1079 13.348,0 17.1136,7.73632 17.1136,12.9443 0,5.4314 -3.37155,9.33195 -7.82917,12.2997l-11.7934 8.08827 0 0.111197 19.5762 0 0 10.3057 -35.2615 0 0 -7.89394z"/>
  <polygon fill="#009977" points="184.059,1700.48 2069.06,1700.48 1126.56,192.468 "/>
  <path fill="#63C1AC" d="M952.848 1501.73l42.1762 0 0 62.2533 0.514963 0c6.00574,-6.26484 16.9333,-10.676 25.5312,-10.676 29.1726,0 44.8018,29.1445 44.8018,66.915 0,29.9413 -12.4995,68.4491 -47.9369,68.4491 -16.3903,0 -27.0804,-7.7957 -35.4051,-20.2898l-7.81513 18.7222 -21.867 0 0 -185.374zm42.1762 143.48c-0.78378,10.9319 5.73693,16.9053 13.8068,16.9053 11.7157,0 13.2778,-11.6919 13.2778,-35.9157l0 -9.91061c0,-26.0418 0,-39.5561 -13.022,-39.5561 -5.19066,0 -9.10956,3.1308 -11.7114,5.20793l-2.35134 2.33299 0 60.9362z"/>
  <path fill="#7FCCBB" d="M1041.68 1501.73l42.1816 0 0 62.2533 0.509565 0c5.97875,-6.26484 16.9279,-10.676 25.5225,-10.676 29.1489,0 44.7737,29.1445 44.7737,66.915 0,29.9413 -12.4951,68.4491 -47.9045,68.4491 -16.413,0 -27.089,-7.7957 -35.4288,-20.2898l-7.7957 18.7222 -21.8584 0 0 -185.374zm42.1816 143.48c-0.797815,10.9319 5.71857,16.9053 13.7971,16.9053 11.6962,0 13.2595,-11.6919 13.2595,-35.9157l0 -9.91061c0,-26.0418 0,-39.5561 -13.0047,-39.5561 -5.19821,0 -9.09876,3.1308 -11.7189,5.20793l-2.33299 2.33299 0 60.9362z"/>
  <path fill="#99D6C9" d="M1131.66 1586.09l-17.16 0 0 -29.6822 17.16 0 0 -14.5723c0,-32.0238 15.8796,-43.7481 43.7438,-43.7481 8.34737,0 14.6047,0.797815 21.3801,1.56756l0 32.2743c-2.36538,-0.514963 -5.49618,-1.02453 -7.82917,-1.02453 -10.6717,0 -15.1142,3.35752 -15.1142,11.1867l0 14.3164 22.9434 0 0 29.6822 -22.9434 0 0 101.012 -42.1806 0 0 -101.012z"/>
  <path fill="#B0DFD5" d="M1240.28 1605.1c0,-5.20793 -0.291489,-11.4361 -2.08144,-16.3892 -2.10627,-5.2414 -5.46811,-8.8537 -12.2393,-8.8537 -14.0897,0 -15.6303,17.16 -15.6303,43.2051 0,29.4274 4.67029,39.0465 15.6303,39.0465 14.8271,0 16.1344,-15.0829 16.1344,-24.9892l32.7892 4.69836c-3.09734,31.7647 -21.3478,48.4465 -52.0545,48.4465 -38.0252,-0.00431835 -57.8108,-33.3312 -57.8108,-65.6389 0,-35.6642 19.7802,-71.3251 59.6288,-71.3251 44.8061,0 51.5449,38.7626 51.5449,51.7997l-35.9114 0z"/>
  <path fill="#CCEBE4" d="M1258.24 1605.2c9.33087,0 16.97,7.63808 16.97,17.0013 0,9.33195 -7.63916,16.9981 -16.97,16.9981 -9.39673,0 -17.0024,-7.66615 -17.0024,-16.9981 0.00431835,-9.36758 7.60569,-17.0013 17.0024,-17.0013z"/>
  <path fill="#63C1AC" d="M952.848 1288.07l42.1762 0 0 62.2166 0.514963 0c6.00574,-6.26592 16.9333,-10.6717 25.5312,-10.6717 29.1726,-0.00539794 44.8018,29.1715 44.8018,66.9139 0,29.9424 -12.4995,68.4782 -47.9369,68.4782 -16.3903,0 -27.0804,-7.79678 -35.4051,-20.3232l-7.81513 18.7881 -21.867 0 0 -185.402zm42.1762 143.448c-0.78378,10.9589 5.73693,16.9646 13.8068,16.9646 11.7157,0 13.2778,-11.7567 13.2778,-35.947l0 -9.90737c0,-26.0127 0,-39.5604 -13.022,-39.5604 -5.19066,0 -9.10956,3.09842 -11.7114,5.20901l-2.35134 2.33191 0 60.9092z"/>
  <path fill="#7FCCBB" d="M1041.68 1288.07l42.1816 0 0 62.2166 0.509565 0c5.97875,-6.26592 16.9279,-10.6717 25.5225,-10.6717 29.1489,-0.00539794 44.7737,29.1715 44.7737,66.9139 0,29.9424 -12.4951,68.4782 -47.9045,68.4782 -16.413,0 -27.089,-7.79678 -35.4288,-20.3232l-7.7957 18.7881 -21.8584 0 0 -185.402zm42.1816 143.448c-0.797815,10.9589 5.71857,16.9646 13.7971,16.9646 11.6962,0 13.2595,-11.7567 13.2595,-35.947l0 -9.90737c0,-26.0127 0,-39.5604 -13.0047,-39.5604 -5.19821,0 -9.09876,3.09842 -11.7189,5.20901l-2.33299 2.33191 0 60.9092z"/>
  <path fill="#99D6C9" d="M1131.66 1372.43l-17.16 0 0 -29.6822 17.16 0 0 -14.5712c0,-32.0195 15.8796,-43.7492 43.7438,-43.7492 8.34737,0 14.6047,0.769746 21.3801,1.53517l0 32.3077c-2.36538,-0.543032 -5.49618,-1.058 -7.82917,-1.058 -10.6717,0 -15.1142,3.42229 -15.1142,11.2191l0 14.3164 22.9434 0 0 29.6822 -22.9434 0 0 101.045 -42.1806 0 0 -101.045z"/>
  <path fill="#B0DFD5" d="M1240.28 1391.42c0,-5.17662 -0.291489,-11.4371 -2.08144,-16.3903 -2.10627,-5.18094 -5.46811,-8.8537 -12.2393,-8.8537 -14.0897,0 -15.6303,17.1924 -15.6303,43.2385 0,29.3993 4.67029,39.0778 15.6303,39.0778 14.8271,0 16.1344,-15.1099 16.1344,-25.0529l32.7892 4.69728c-3.09734,31.7971 -21.3478,48.4476 -52.0545,48.4476 -38.0252,0 -57.8108,-33.3279 -57.8108,-65.6065 0,-35.6933 19.7802,-71.3532 59.6288,-71.3532 44.8061,-0.00539794 51.5449,38.7906 51.5449,51.7997l-35.9114 -0.00431835z"/>
  <path fill="#CCEBE4" d="M1258.24 1391.51c9.33087,0 16.97,7.63808 16.97,17.0348 0,9.32655 -7.63916,16.997 -16.97,16.997 -9.39673,0 -17.0024,-7.66615 -17.0024,-16.997 0.00431835,-9.39673 7.60569,-17.0348 17.0024,-17.0348z"/>
  <path fill="#63C1AC" d="M952.848 1074.45l42.1762 0 0 62.2166 0.514963 0c6.00574,-6.23354 16.9333,-10.676 25.5312,-10.676 29.1726,0 44.8018,29.1489 44.8018,66.9193 0,29.9089 -12.4995,68.4491 -47.9369,68.4491 -16.3903,0 -27.0804,-7.80002 -35.4051,-20.2952l-7.81513 18.7276 -21.867 0 0 -185.341zm42.1762 143.444c-0.78378,10.9308 5.73693,16.9096 13.8068,16.9096 11.7157,0 13.2778,-11.7297 13.2778,-35.92l0 -9.90629c0,-26.0418 0,-39.5604 -13.022,-39.5604 -5.19066,0 -9.10956,3.12972 -11.7114,5.20793l-2.35134 2.33299 0 60.9362z"/>
  <path fill="#7FCCBB" d="M1041.68 1074.45l42.1816 0 0 62.2166 0.509565 0c5.97875,-6.23354 16.9279,-10.676 25.5225,-10.676 29.1489,0 44.7737,29.1489 44.7737,66.9193 0,29.9089 -12.4951,68.4491 -47.9045,68.4491 -16.413,0 -27.089,-7.80002 -35.4288,-20.2952l-7.7957 18.7276 -21.8584 0 0 -185.341zm42.1816 143.444c-0.797815,10.9308 5.71857,16.9096 13.7971,16.9096 11.6962,0 13.2595,-11.7297 13.2595,-35.92l0 -9.90629c0,-26.0418 0,-39.5604 -13.0047,-39.5604 -5.19821,0 -9.09876,3.12972 -11.7189,5.20793l-2.33299 2.33299 0 60.9362z"/>
  <path fill="#99D6C9" d="M1131.66 1158.78l-17.16 0 0 -29.6541 17.16 0 0 -14.5723c0,-32.0195 15.8796,-43.7481 43.7438,-43.7481 8.34737,0 14.6047,0.769746 21.3801,1.53517l0 32.3066c-2.36538,-0.543032 -5.49618,-1.0526 -7.82917,-1.0526 -10.6717,-0.00431835 -15.1142,3.38559 -15.1142,11.2137l0 14.3175 22.9434 0 0 29.6541 -22.9434 0 0 101.012 -42.1806 0 0 -101.012z"/>
  <path fill="#B0DFD5" d="M1240.28 1177.79c0,-5.20793 -0.291489,-11.4695 -2.08144,-16.3903 -2.10627,-5.20793 -5.46811,-8.8537 -12.2393,-8.8537 -14.0897,0 -15.6303,17.16 -15.6303,43.2062 0,29.4274 4.67029,39.0508 15.6303,39.0508 14.8271,0 16.1344,-15.0829 16.1344,-24.9892l32.7892 4.66598c-3.09734,31.7928 -21.3478,48.4422 -52.0545,48.4422 -38.0252,0 -57.8108,-33.3279 -57.8108,-65.6065 0,-35.6609 19.7802,-71.3251 59.6288,-71.3251 44.8061,0 51.5449,38.7669 51.5449,51.804l-35.9114 -0.00431835z"/>
  <path fill="#CCEBE4" d="M1258.24 1177.89c9.33087,0 16.97,7.63916 16.97,17.0024 0,9.33087 -7.63916,16.9981 -16.97,16.9981 -9.39673,0 -17.0024,-7.66723 -17.0024,-16.9981 0.00431835,-9.36326 7.60569,-17.0024 17.0024,-17.0024z"/>
  <path fill="#63C1AC" d="M577.861 1501.73l42.186 0 0 62.2533 0.510645 0c6.01006,-6.26484 16.9322,-10.676 25.5312,-10.676 29.1575,0 44.7824,29.1445 44.7824,66.915 0,29.9413 -12.4941,68.4491 -47.9175,68.4491 -16.386,0 -27.0804,-7.7957 -35.4051,-20.2898l-7.81081 18.7222 -21.8768 0 0 -185.374zm42.186 143.48c-0.78378,10.9319 5.73261,16.9053 13.8025,16.9053 11.7103,0 13.2778,-11.6919 13.2778,-35.9157l0 -9.91061c0,-26.0418 0,-39.5561 -13.0231,-39.5561 -5.18958,0 -9.10848,3.1308 -11.7146,5.20793l-2.3427 2.33299 0 60.9362z"/>
  <path fill="#7FCCBB" d="M666.681 1501.73l42.2043 0 0 62.2533 0.509565 0c5.97336,-6.26484 16.9139,-10.676 25.5128,-10.676 29.1586,0 44.7694,29.1445 44.7694,66.915 0.00431835,29.9413 -12.4951,68.4491 -47.9002,68.4491 -16.4086,0 -27.0847,-7.7957 -35.4234,-20.2898l-7.81513 18.7222 -21.8573 0 0 -185.374zm42.2043 143.48c-0.803213,10.9319 5.71318,16.9053 13.7831,16.9053 11.7157,0 13.2778,-11.6919 13.2778,-35.9157l0.00539794 -9.91061c0,-26.0418 -0.00539794,-39.5561 -13.0285,-39.5561 -5.20361,0 -9.10848,3.1308 -11.7103,5.20793l-2.32759 2.33299 0 60.9362z"/>
  <path fill="#99D6C9" d="M756.691 1586.09l-17.1784 0 0 -29.6822 17.1784 0 0 -14.5723c0,-32.0238 15.8753,-43.7481 43.7395,-43.7481 8.3247,0 14.5906,0.797815 21.3618,1.56756l0.00431835 32.2743c-2.35134,-0.514963 -5.48214,-1.02453 -7.81405,-1.02453 -10.6858,0 -15.1153,3.35752 -15.1153,11.1867l0 14.3164 22.9294 0 0 29.6822 -22.9294 0 0 101.012 -42.1762 0 0 -101.012z"/>
  <path fill="#B0DFD5" d="M865.3 1605.1c0,-5.20793 -0.28717,-11.4361 -2.09116,-16.3892 -2.09224,-5.2414 -5.46379,-8.8537 -12.2393,-8.8537 -14.0767,0 -15.6249,17.16 -15.6249,43.2051 0,29.4274 4.67893,39.0465 15.6249,39.0465 14.8454,0 16.1387,-15.0829 16.1387,-24.9892l32.8033 4.69836c-3.11569,31.7647 -21.3478,48.4465 -52.0728,48.4465 -38.0123,-0.00431835 -57.7925,-33.3312 -57.7925,-65.6389 0,-35.6642 19.7802,-71.3251 59.6288,-71.3251 44.7921,0 51.5449,38.7626 51.5449,51.7997l-35.92 0z"/>
  <path fill="#CCEBE4" d="M883.248 1605.2c9.34491,0 16.9797,7.63808 16.9797,17.0013 0.00431835,9.33195 -7.63484,16.9981 -16.9841,16.9981 -9.37298,0 -16.9841,-7.66615 -16.9841,-16.9981 0.00539794,-9.36758 7.60677,-17.0013 16.9884,-17.0013z"/>
  <path fill="#63C1AC" d="M577.861 1288.07l42.186 0 0 62.2166 0.510645 0c6.01006,-6.26592 16.9322,-10.6717 25.5312,-10.6717 29.1575,-0.00539794 44.7824,29.1715 44.7824,66.9139 0,29.9424 -12.4941,68.4782 -47.9175,68.4782 -16.386,0 -27.0804,-7.79678 -35.4051,-20.3232l-7.81081 18.7881 -21.8768 0 0 -185.402zm42.186 143.448c-0.78378,10.9589 5.73261,16.9646 13.8025,16.9646 11.7103,0 13.2778,-11.7567 13.2778,-35.947l0 -9.90737c0,-26.0127 0,-39.5604 -13.0231,-39.5604 -5.18958,0 -9.10848,3.09842 -11.7146,5.20901l-2.3427 2.33191 0 60.9092z"/>
  <path fill="#7FCCBB" d="M666.681 1288.07l42.2043 0 0 62.2166 0.509565 0c5.97336,-6.26592 16.9139,-10.6717 25.5128,-10.6717 29.1586,-0.00539794 44.7694,29.1715 44.7694,66.9139 0.00431835,29.9424 -12.4951,68.4782 -47.9002,68.4782 -16.4086,0 -27.0847,-7.79678 -35.4234,-20.3232l-7.81513 18.7881 -21.8573 0 0 -185.402zm42.2043 143.448c-0.803213,10.9589 5.71318,16.9646 13.7831,16.9646 11.7157,0 13.2778,-11.7567 13.2778,-35.947l0.00539794 -9.90737c0,-26.0127 -0.00539794,-39.5604 -13.0285,-39.5604 -5.20361,0 -9.10848,3.09842 -11.7103,5.20901l-2.32759 2.33191 0 60.9092z"/>
  <path fill="#99D6C9" d="M756.691 1372.43l-17.1784 0 0 -29.6822 17.1784 0 0 -14.5712c0,-32.0195 15.8753,-43.7492 43.7395,-43.7492 8.3247,0 14.5906,0.769746 21.3618,1.53517l0.00431835 32.3077c-2.35134,-0.543032 -5.48214,-1.058 -7.81405,-1.058 -10.6858,0 -15.1153,3.42229 -15.1153,11.2191l0 14.3164 22.9294 0 0 29.6822 -22.9294 0 0 101.045 -42.1762 0 0 -101.045z"/>
  <path fill="#B0DFD5" d="M865.3 1391.42c0,-5.17662 -0.28717,-11.4371 -2.09116,-16.3903 -2.09224,-5.18094 -5.46379,-8.8537 -12.2393,-8.8537 -14.0767,0 -15.6249,17.1924 -15.6249,43.2385 0,29.3993 4.67893,39.0778 15.6249,39.0778 14.8454,0 16.1387,-15.1099 16.1387,-25.0529l32.8033 4.69728c-3.11569,31.7971 -21.3478,48.4476 -52.0728,48.4476 -38.0123,0 -57.7925,-33.3279 -57.7925,-65.6065 0,-35.6933 19.7802,-71.3532 59.6288,-71.3532 44.7921,-0.00539794 51.5449,38.7906 51.5449,51.7997l-35.92 -0.00431835z"/>
  <path fill="#CCEBE4" d="M883.248 1391.51c9.34491,0 16.9797,7.63808 16.9797,17.0348 0.00431835,9.32655 -7.63484,16.997 -16.9841,16.997 -9.37298,0 -16.9841,-7.66615 -16.9841,-16.997 0.00539794,-9.39673 7.60677,-17.0348 16.9884,-17.0348z"/>
  <path fill="#63C1AC" d="M577.861 1074.45l42.186 0 0 62.2166 0.510645 0c6.01006,-6.23354 16.9322,-10.676 25.5312,-10.676 29.1575,0 44.7824,29.1489 44.7824,66.9193 0,29.9089 -12.4941,68.4491 -47.9175,68.4491 -16.386,0 -27.0804,-7.80002 -35.4051,-20.2952l-7.81081 18.7276 -21.8768 0 0 -185.341zm42.186 143.444c-0.78378,10.9308 5.73261,16.9096 13.8025,16.9096 11.7103,0 13.2778,-11.7297 13.2778,-35.92l0 -9.90629c0,-26.0418 0,-39.5604 -13.0231,-39.5604 -5.18958,0 -9.10848,3.12972 -11.7146,5.20793l-2.3427 2.33299 0 60.9362z"/>
  <path fill="#7FCCBB" d="M666.681 1074.45l42.2043 0 0 62.2166 0.509565 0c5.97336,-6.23354 16.9139,-10.676 25.5128,-10.676 29.1586,0 44.7694,29.1489 44.7694,66.9193 0.00431835,29.9089 -12.4951,68.4491 -47.9002,68.4491 -16.4086,0 -27.0847,-7.80002 -35.4234,-20.2952l-7.81513 18.7276 -21.8573 0 0 -185.341zm42.2043 143.444c-0.803213,10.9308 5.71318,16.9096 13.7831,16.9096 11.7157,0 13.2778,-11.7297 13.2778,-35.92l0.00539794 -9.90629c0,-26.0418 -0.00539794,-39.5604 -13.0285,-39.5604 -5.20361,0 -9.10848,3.12972 -11.7103,5.20793l-2.32759 2.33299 0 60.9362z"/>
  <path fill="#99D6C9" d="M756.691 1158.78l-17.1784 0 0 -29.6541 17.1784 0 0 -14.5723c0,-32.0195 15.8753,-43.7481 43.7395,-43.7481 8.3247,0 14.5906,0.769746 21.3618,1.53517l0.00431835 32.3066c-2.35134,-0.543032 -5.48214,-1.0526 -7.81405,-1.0526 -10.6858,-0.00431835 -15.1153,3.38559 -15.1153,11.2137l0 14.3175 22.9294 0 0 29.6541 -22.9294 0 0 101.012 -42.1762 0 0 -101.012z"/>
  <path fill="#B0DFD5" d="M865.3 1177.79c0,-5.20793 -0.28717,-11.4695 -2.09116,-16.3903 -2.09224,-5.20793 -5.46379,-8.8537 -12.2393,-8.8537 -14.0767,0 -15.6249,17.16 -15.6249,43.2062 0,29.4274 4.67893,39.0508 15.6249,39.0508 14.8454,0 16.1387,-15.0829 16.1387,-24.9892l32.8033 4.66598c-3.11569,31.7928 -21.3478,48.4422 -52.0728,48.4422 -38.0123,0 -57.7925,-33.3279 -57.7925,-65.6065 0,-35.6609 19.7802,-71.3251 59.6288,-71.3251 44.7921,0 51.5449,38.7669 51.5449,51.804l-35.92 -0.00431835z"/>
  <path fill="#CCEBE4" d="M883.248 1177.89c9.34491,0 16.9797,7.63916 16.9797,17.0024 0.00431835,9.33087 -7.63484,16.9981 -16.9841,16.9981 -9.37298,0 -16.9841,-7.66723 -16.9841,-16.9981 0.00539794,-9.36326 7.60677,-17.0024 16.9884,-17.0024z"/>
  <path fill="#63C1AC" d="M275.869 1553.58c26.0925,3.02392 40.0203,30.9852 40.0203,66.6408 0.00431835,29.9413 -12.4941,68.4491 -47.9186,68.4491 -16.3892,0 -27.0663,-7.7957 -35.4051,-20.2898l-7.79138 18.7222 -21.8908 0 0 -16.7422 42.1762 -67.485 0 42.3339c-0.778382,10.9319 5.73801,16.9053 13.8068,16.9053 11.6973,0 13.2789,-11.6919 13.2789,-35.9157l0 -9.91061c0,-24.4829 -0.00971629,-37.9 -10.8347,-39.4168l14.5582 -23.291z"/>
  <path fill="#7FCCBB" d="M308.278 1501.73l25.6197 0 0 62.2533 0.514963 0c5.97336,-6.26484 16.9182,-10.676 25.5128,-10.676 29.1618,0 44.7683,29.1445 44.7683,66.915 0,29.9413 -12.4941,68.4491 -47.8991,68.4491 -16.4086,0 -27.0847,-7.7957 -35.4234,-20.2898l-7.79678 18.7222 -21.8714 0 0 -158.855 16.5749 -26.519zm25.6197 143.48c-0.797815,10.9319 5.71857,16.9053 13.7885,16.9053 11.7103,0 13.2778,-11.6919 13.2778,-35.9157l0.00431835 -9.91061c0,-26.0418 -0.00431835,-39.5561 -13.0274,-39.5561 -5.22196,0 -9.12251,3.1308 -11.7103,5.20793l-2.33299 2.33299 0 60.9362z"/>
  <path fill="#99D6C9" d="M381.704 1586.09l-17.1784 0 0 -29.6822 17.1784 0 0 -14.5723c0,-32.0238 15.8807,-43.7481 43.7438,-43.7481 8.34413,0 14.5906,0.797815 21.3488,1.56756l0.00431835 32.2743c-2.33731,-0.514963 -5.46811,-1.02453 -7.8011,-1.02453 -10.6901,0 -15.1142,3.35752 -15.1142,11.1867l0 14.3164 22.9153 0 0 29.6822 -22.9153 0 0 101.012 -42.1816 0 0 -101.012z"/>
  <path fill="#B0DFD5" d="M490.323 1605.1c0,-5.20793 -0.292568,-11.4361 -2.09656,-16.3892 -2.09116,-5.2414 -5.48214,-8.8537 -12.2393,-8.8537 -14.0713,0 -15.6249,17.16 -15.6249,43.2051 0,29.4274 4.68001,39.0465 15.6249,39.0465 14.8454,0 16.1398,-15.0829 16.1398,-24.9892l32.8033 4.69836c-3.11677,31.7647 -21.3478,48.4465 -52.0739,48.4465 -38.0069,-0.00431835 -57.7914,-33.3312 -57.7914,-65.6389 0.00431835,-35.6642 19.7802,-71.3251 59.6288,-71.3251 44.7867,0 51.5449,38.7626 51.5449,51.7997l-35.9157 0z"/>
  <path fill="#CCEBE4" d="M508.262 1605.2c9.35354,0 16.983,7.63808 16.983,17.0013 0.00431835,9.33195 -7.63376,16.9981 -16.983,16.9981 -9.37837,0 -16.9841,-7.66615 -16.9841,-16.9981 0,-9.36758 7.60569,-17.0013 16.9841,-17.0013z"/>
  <path fill="#7FCCBB" d="M395.303 1362.48c6.19143,11.6595 9.39133,26.9875 9.39133,44.0493 0,29.9424 -12.4941,68.4782 -47.8991,68.4782 -10.8337,0 -19.1778,-3.41365 -25.99,-9.32655l11.395 -18.2364c1.68308,0.68122 3.54321,1.03856 5.48646,1.03856 10.8801,0 12.995,-10.1611 13.2411,-31.0036l34.3751 -54.9996z"/>
  <path fill="#99D6C9" d="M443.379 1285.56l3.41797 0.403766 0.00431835 32.3077c-2.33731,-0.543032 -5.46811,-1.058 -7.8011,-1.058 -10.6901,0 -15.1142,3.42229 -15.1142,11.2191l0 14.3164 22.9153 0 0 29.6822 -22.9153 0 0 101.045 -42.1816 0 0 -89.2365 61.6747 -98.6797z"/>
  <path fill="#B0DFD5" d="M490.323 1391.42c0,-5.17662 -0.292568,-11.4371 -2.09656,-16.3903 -2.09116,-5.18094 -5.48214,-8.8537 -12.2393,-8.8537 -14.0713,0 -15.6249,17.1924 -15.6249,43.2385 0,29.3993 4.68001,39.0778 15.6249,39.0778 14.8454,0 16.1398,-15.1099 16.1398,-25.0529l32.8033 4.69728c-3.11677,31.7971 -21.3478,48.4476 -52.0739,48.4476 -38.0069,0 -57.7914,-33.3279 -57.7914,-65.6065 0.00431835,-35.6933 19.7802,-71.3532 59.6288,-71.3532 44.7867,-0.00539794 51.5449,38.7906 51.5449,51.7997l-35.9157 -0.00431835z"/>
  <path fill="#CCEBE4" d="M508.262 1391.51c9.35354,0 16.983,7.63808 16.983,17.0348 0.00431835,9.32655 -7.63376,16.997 -16.983,16.997 -9.37837,0 -16.9841,-7.66615 -16.9841,-16.997 0,-9.39673 7.60569,-17.0348 16.9841,-17.0348z"/>
  <path fill="#B0DFD5" d="M475.12 1234.77l0.866909 0.0323876c14.8454,0 16.1398,-15.0829 16.1398,-24.9892l32.8033 4.66598c-3.11677,31.7928 -21.3478,48.4422 -52.0739,48.4422 -5.07298,0 -9.83612,-0.607808 -14.2559,-1.71546l16.5198 -26.4359zm47.6724 -76.2739c2.6709,7.69422 3.44604,14.9426 3.44604,19.2976l-15.505 0 12.059 -19.2976z"/>
  <path fill="#CCEBE4" d="M510.58 1178.04c8.2556,1.14004 14.6651,8.28259 14.6651,16.8534 0.00431835,9.33087 -7.63376,16.9981 -16.983,16.9981 -5.87619,0 -11.0615,-3.01529 -14.1134,-7.56035l16.4313 -26.2912z"/>
  <path fill="#63C1AC" d="M1327.84 1501.73l42.1806 0 0 62.2533 0.510645 0c6.01006,-6.26484 16.9376,-10.676 25.5312,-10.676 29.1812,0 44.8061,29.1445 44.8061,66.915 0,29.9413 -12.5318,68.4491 -47.9369,68.4491 -16.3903,0 -27.0663,-7.7957 -35.4051,-20.2898l-7.7957 18.7222 -21.8908 0 0 -185.374zm42.1806 143.48c-0.765427,10.9319 5.71857,16.9053 13.8025,16.9053 11.7016,0 13.2962,-11.6919 13.2962,-35.9157l0 -9.91061c0,-26.0418 0,-39.5561 -13.0414,-39.5561 -5.20793,0 -9.10416,3.1308 -11.7243,5.20793l-2.33299 2.33299 0 60.9362z"/>
  <path fill="#7FCCBB" d="M1416.67 1501.73l42.186 0 0 62.2533 0.510645 0c5.97336,-6.26484 16.8999,-10.676 25.5258,-10.676 29.1445,0 44.7694,29.1445 44.7694,66.915 0,29.9413 -12.4941,68.4491 -47.8991,68.4491 -16.4227,0 -27.0998,-7.7957 -35.4428,-20.2898l-7.79138 18.7222 -21.8584 0 0 -185.374zm42.186 143.48c-0.802133,10.9319 5.71426,16.9053 13.7647,16.9053 11.7297,0 13.2973,-11.6919 13.2973,-35.9157l0 -9.91061c0,-26.0418 0,-39.5561 -13.009,-39.5561 -5.236,0 -9.13655,3.1308 -11.7297,5.20793l-2.32327 2.33299 0 60.9362z"/>
  <path fill="#99D6C9" d="M1506.66 1586.09l-17.1557 0 0 -29.6822 17.1557 0 0 -14.5723c0,-32.0238 15.884,-43.7481 43.7481,-43.7481 8.34413,0 14.5723,0.797815 21.3478,1.56756l0 32.2743c-2.33191,-0.514963 -5.46271,-1.02453 -7.80002,-1.02453 -10.6717,0 -15.1153,3.35752 -15.1153,11.1867l0.00539794 14.3164 22.9099 0 0 29.6822 -22.9099 0 0 101.012 -42.186 0 0 -101.012z"/>
  <path fill="#B0DFD5" d="M1615.27 1605.1c0,-5.20793 -0.28717,-11.4361 -2.07713,-16.3892 -2.10627,-5.2414 -5.49618,-8.8537 -12.2674,-8.8537 -14.0616,0 -15.5968,17.16 -15.5968,43.2051 0,29.4274 4.66598,39.0465 15.5968,39.0465 14.8594,0 16.1355,-15.0829 16.1355,-24.9892l32.8173 4.69836c-3.09842,31.7647 -21.3434,48.4465 -52.0555,48.4465 -38.0252,-0.00431835 -57.8054,-33.3312 -57.8054,-65.6389 0,-35.6642 19.7802,-71.3251 59.6278,-71.3251 44.7694,0 51.5406,38.7626 51.5406,51.7997l-35.9157 0z"/>
  <path fill="#CCEBE4" d="M1633.23 1605.2c9.33627,0 16.97,7.63808 16.97,17.0013 0.00431835,9.33195 -7.63808,16.9981 -16.97,16.9981 -9.39565,0 -16.997,-7.66615 -16.997,-16.9981 0,-9.36758 7.60137,-17.0013 16.997,-17.0013z"/>
  <path fill="#63C1AC" d="M1327.84 1288.07l42.1806 0 0 62.2166 0.510645 0c6.01006,-6.26592 16.9376,-10.6717 25.5312,-10.6717 29.1812,-0.00539794 44.8061,29.1715 44.8061,66.9139 0,29.9424 -12.5318,68.4782 -47.9369,68.4782 -16.3903,0 -27.0663,-7.79678 -35.4051,-20.3232l-7.7957 18.7881 -21.8908 0 0 -185.402zm42.1806 143.448c-0.765427,10.9589 5.71857,16.9646 13.8025,16.9646 11.7016,0 13.2962,-11.7567 13.2962,-35.947l0 -9.90737c0,-26.0127 0,-39.5604 -13.0414,-39.5604 -5.20793,0 -9.10416,3.09842 -11.7243,5.20901l-2.33299 2.33191 0 60.9092z"/>
  <path fill="#7FCCBB" d="M1416.67 1288.07l42.186 0 0 62.2166 0.510645 0c5.97336,-6.26592 16.8999,-10.6717 25.5258,-10.6717 29.1445,-0.00539794 44.7694,29.1715 44.7694,66.9139 0,29.9424 -12.4941,68.4782 -47.8991,68.4782 -16.4227,0 -27.0998,-7.79678 -35.4428,-20.3232l-7.79138 18.7881 -21.8584 0 0 -185.402zm42.186 143.448c-0.802133,10.9589 5.71426,16.9646 13.7647,16.9646 11.7297,0 13.2973,-11.7567 13.2973,-35.947l0 -9.90737c0,-26.0127 0,-39.5604 -13.009,-39.5604 -5.236,0 -9.13655,3.09842 -11.7297,5.20901l-2.32327 2.33191 0 60.9092z"/>
  <path fill="#99D6C9" d="M1506.66 1372.43l-17.1557 0 0 -29.6822 17.1557 0 0 -14.5712c0,-32.0195 15.884,-43.7492 43.7481,-43.7492 8.34413,0 14.5723,0.769746 21.3478,1.53517l0 32.3077c-2.33191,-0.543032 -5.46271,-1.058 -7.80002,-1.058 -10.6717,0 -15.1153,3.42229 -15.1153,11.2191l0.00539794 14.3164 22.9099 0 0 29.6822 -22.9099 0 0 101.045 -42.186 0 0 -101.045z"/>
  <path fill="#B0DFD5" d="M1615.27 1391.42c0,-5.17662 -0.28717,-11.4371 -2.07713,-16.3903 -2.10627,-5.18094 -5.49618,-8.8537 -12.2674,-8.8537 -14.0616,0 -15.5968,17.1924 -15.5968,43.2385 0,29.3993 4.66598,39.0778 15.5968,39.0778 14.8594,0 16.1355,-15.1099 16.1355,-25.0529l32.8173 4.69728c-3.09842,31.7971 -21.3434,48.4476 -52.0555,48.4476 -38.0252,0 -57.8054,-33.3279 -57.8054,-65.6065 0,-35.6933 19.7802,-71.3532 59.6278,-71.3532 44.7694,-0.00539794 51.5406,38.7906 51.5406,51.7997l-35.9157 -0.00431835z"/>
  <path fill="#CCEBE4" d="M1633.23 1391.51c9.33627,0 16.97,7.63808 16.97,17.0348 0.00431835,9.32655 -7.63808,16.997 -16.97,16.997 -9.39565,0 -16.997,-7.66615 -16.997,-16.997 0,-9.39673 7.60137,-17.0348 16.997,-17.0348z"/>
  <path fill="#63C1AC" d="M1327.84 1074.45l42.1806 0 0 62.2166 0.510645 0c6.01006,-6.23354 16.9376,-10.676 25.5312,-10.676 29.1812,0 44.8061,29.1489 44.8061,66.9193 0,29.9089 -12.5318,68.4491 -47.9369,68.4491 -16.3903,0 -27.0663,-7.80002 -35.4051,-20.2952l-7.7957 18.7276 -21.8908 0 0 -185.341zm42.1806 143.444c-0.765427,10.9308 5.71857,16.9096 13.8025,16.9096 11.7016,0 13.2962,-11.7297 13.2962,-35.92l0 -9.90629c0,-26.0418 0,-39.5604 -13.0414,-39.5604 -5.20793,0 -9.10416,3.12972 -11.7243,5.20793l-2.33299 2.33299 0 60.9362z"/>
  <path fill="#7FCCBB" d="M1416.67 1074.45l42.186 0 0 62.2166 0.510645 0c5.97336,-6.23354 16.8999,-10.676 25.5258,-10.676 29.1445,0 44.7694,29.1489 44.7694,66.9193 0,29.9089 -12.4941,68.4491 -47.8991,68.4491 -16.4227,0 -27.0998,-7.80002 -35.4428,-20.2952l-7.79138 18.7276 -21.8584 0 0 -185.341zm42.186 143.444c-0.802133,10.9308 5.71426,16.9096 13.7647,16.9096 11.7297,0 13.2973,-11.7297 13.2973,-35.92l0 -9.90629c0,-26.0418 0,-39.5604 -13.009,-39.5604 -5.236,0 -9.13655,3.12972 -11.7297,5.20793l-2.32327 2.33299 0 60.9362z"/>
  <path fill="#99D6C9" d="M1506.66 1158.78l-17.1557 0 0 -29.6541 17.1557 0 0 -14.5723c0,-32.0195 15.884,-43.7481 43.7481,-43.7481 8.34413,0 14.5723,0.769746 21.3478,1.53517l0 32.3066c-2.33191,-0.543032 -5.46271,-1.0526 -7.80002,-1.0526 -10.6717,-0.00431835 -15.1153,3.38559 -15.1153,11.2137l0.00539794 14.3175 22.9099 0 0 29.6541 -22.9099 0 0 101.012 -42.186 0 0 -101.012z"/>
  <path fill="#B0DFD5" d="M1615.27 1177.79c0,-5.20793 -0.28717,-11.4695 -2.07713,-16.3903 -2.10627,-5.20793 -5.49618,-8.8537 -12.2674,-8.8537 -14.0616,0 -15.5968,17.16 -15.5968,43.2062 0,29.4274 4.66598,39.0508 15.5968,39.0508 14.8594,0 16.1355,-15.0829 16.1355,-24.9892l32.8173 4.66598c-3.09842,31.7928 -21.3434,48.4422 -52.0555,48.4422 -38.0252,0 -57.8054,-33.3279 -57.8054,-65.6065 0,-35.6609 19.7802,-71.3251 59.6278,-71.3251 44.7694,0 51.5406,38.7669 51.5406,51.804l-35.9157 -0.00431835z"/>
  <path fill="#CCEBE4" d="M1633.23 1177.89c9.33627,0 16.97,7.63916 16.97,17.0024 0.00431835,9.33087 -7.63808,16.9981 -16.97,16.9981 -9.39565,0 -16.997,-7.66723 -16.997,-16.9981 0,-9.36326 7.60137,-17.0024 16.997,-17.0024z"/>
  <path fill="#63C1AC" d="M1705.13 1501.73l42.2183 0 0 62.2533 0.509565 0c6.01114,-6.26484 16.9009,-10.676 25.4988,-10.676 29.1769,0 44.8018,29.1445 44.8018,66.915 0.00431835,29.9413 -12.4941,68.4491 -47.8991,68.4491 -16.3903,0 -27.0998,-7.7957 -35.4105,-20.2898l-7.82809 18.7222 -21.8908 0 0 -185.374zm42.2183 143.48c-0.802133,10.9319 5.71857,16.9053 13.7691,16.9053 11.7297,0 13.2919,-11.6919 13.2919,-35.9157l0.00539794 -9.91061c0,-26.0418 -0.00539794,-39.5561 -13.0414,-39.5561 -5.17662,0 -9.10956,3.1308 -11.6973,5.20793l-2.32759 2.33299 0 60.9362z"/>
  <path fill="#7FCCBB" d="M1793.97 1501.73l42.1762 0 0 62.2533 0.514963 0c6.00574,-6.26484 16.9322,-10.676 25.5258,-10.676 29.1769,0 44.7737,29.1445 44.7737,66.915 0,29.9413 -12.4941,68.4491 -47.9034,68.4491 -16.3903,0 -27.0663,-7.7957 -35.4051,-20.2898l-7.82917 18.7222 -21.853 0 0 -185.374zm42.1762 143.48c-0.765427,10.9319 5.75096,16.9053 13.8068,16.9053 11.6962,0 13.2919,-11.6919 13.2919,-35.9157l0 -9.91061c0,-26.0418 0,-39.5561 -13.0371,-39.5561 -5.20793,0 -9.10848,3.1308 -11.6962,5.20793l-2.36538 2.33299 0 60.9362z"/>
  <path fill="#99D6C9" d="M1883.99 1586.09l-17.1924 0 0 -29.6822 17.1924 0 0 -14.5723c0,-32.0238 15.8796,-43.7481 43.7438,-43.7481 5.85352,0 10.6717,0.380015 15.3884,0.885262l5.9604 9.53599 0 23.4206c-2.33299,-0.514963 -5.46379,-1.02453 -7.82917,-1.02453 -10.6717,0 -15.0818,3.35752 -15.0818,11.1867l0 14.3164 22.911 0 0 29.6822 -22.911 0 0 101.012 -42.1816 0 0 -101.012z"/>
  <path fill="#B0DFD5" d="M1992.57 1605.1c0,-5.20793 -0.260181,-11.4361 -2.07821,-16.3892 -2.07713,-5.2414 -5.46811,-8.8537 -12.2393,-8.8537 -14.0573,0 -15.6292,17.16 -15.6292,43.2051 0.00431835,29.4274 4.69836,39.0465 15.6292,39.0465 14.8324,0 16.1355,-15.0829 16.1355,-24.9892l32.8216 4.69836c-3.1308,31.7647 -21.3801,48.4465 -52.0922,48.4465 -38.0209,-0.00431835 -57.8054,-33.3312 -57.8054,-65.6389 0,-35.6642 19.7802,-71.3251 59.6278,-71.3251l0.134948 0 32.3768 51.7997 -16.8815 0z"/>
  <path fill="#CCEBE4" d="M2025.33 1630.5c-2.92244,5.1669 -8.45965,8.69608 -14.799,8.69608 -9.39241,0 -17.0024,-7.66615 -17.0024,-16.9981 0.00431835,-9.03399 7.06806,-16.4594 16.0006,-16.9787l15.8008 25.2807z"/>
  <path fill="#63C1AC" d="M1705.13 1288.07l42.2183 0 0 62.2166 0.509565 0c6.01114,-6.26592 16.9009,-10.6717 25.4988,-10.6717 29.1769,-0.00539794 44.8018,29.1715 44.8018,66.9139 0.00431835,29.9424 -12.4941,68.4782 -47.8991,68.4782 -16.3903,0 -27.0998,-7.79678 -35.4105,-20.3232l-7.82809 18.7881 -21.8908 0 0 -185.402zm42.2183 143.448c-0.802133,10.9589 5.71857,16.9646 13.7691,16.9646 11.7297,0 13.2919,-11.7567 13.2919,-35.947l0.00539794 -9.90737c0,-26.0127 -0.00539794,-39.5604 -13.0414,-39.5604 -5.17662,0 -9.10956,3.09842 -11.6973,5.20901l-2.32759 2.33191 0 60.9092z"/>
  <path fill="#7FCCBB" d="M1793.97 1288.07l17.336 0 24.8402 39.7418 0 22.4748 0.514963 0c2.47118,-2.57913 5.76392,-4.85167 9.39133,-6.62327l57.1004 91.3601c-5.97336,21.3855 -19.506,39.9836 -44.0957,39.9836 -16.3903,0 -27.0663,-7.79678 -35.4051,-20.3232l-7.82917 18.7881 -21.853 0 0 -185.402zm42.1762 143.448c-0.765427,10.9589 5.75096,16.9646 13.8068,16.9646 11.6962,0 13.2919,-11.7567 13.2919,-35.947l0 -9.90737c0,-26.0127 0,-39.5604 -13.0371,-39.5604 -5.20793,0 -9.10848,3.09842 -11.6962,5.20901l-2.36538 2.33191 0 60.9092z"/>
  <polygon fill="#99D6C9" points="1926.17,1471.85 1926.17,1473.48 1883.99,1473.48 1883.99,1404.36 "/>
  <path fill="#63C1AC" d="M1791.15 1255.82c-5.84273,3.49678 -12.7532,5.54152 -20.8879,5.54152 -16.3903,0 -27.0998,-7.80002 -35.4105,-20.2952l-7.82809 18.7276 -21.8908 0 0 -141.606 42.2183 67.5498 0 32.1587c-0.802133,10.9308 5.71857,16.9096 13.7691,16.9096 5.97336,0 9.29417,-3.04767 11.1316,-9.22507l18.8982 30.2392z"/>
  <path fill="#63C1AC" d="M952.848 860.806l42.1762 0 0 62.2393 0.514963 0c6.00574,-6.26484 16.9333,-10.6987 25.5312,-10.6987 29.1726,0 44.8018,29.1715 44.8018,66.942 0,29.9424 -12.4995,68.4448 -47.9369,68.4448 -16.3903,0 -27.0804,-7.79138 -35.4051,-20.2898l-7.81513 18.7276 -21.867 0 0 -185.365zm42.1762 143.472c-0.78378,10.9265 5.73693,16.9042 13.8068,16.9042 11.7157,0 13.2778,-11.6962 13.2778,-35.92l0 -9.90629c0,-26.0083 0,-39.5604 -13.022,-39.5604 -5.19066,-0.00431835 -9.10956,3.13512 -11.7114,5.20793l-2.35134 2.33299 0 60.9416z"/>
  <path fill="#7FCCBB" d="M1041.68 860.806l42.1816 0 0 62.2393 0.509565 0c5.97875,-6.26484 16.9279,-10.6987 25.5225,-10.6987 29.1489,0 44.7737,29.1715 44.7737,66.942 0,29.9424 -12.4951,68.4448 -47.9045,68.4448 -16.413,0 -27.089,-7.79138 -35.4288,-20.2898l-7.7957 18.7276 -21.8584 0 0 -185.365zm42.1816 143.472c-0.797815,10.9265 5.71857,16.9042 13.7971,16.9042 11.6962,0 13.2595,-11.6962 13.2595,-35.92l0 -9.90629c0,-26.0083 0,-39.5604 -13.0047,-39.5604 -5.19821,-0.00431835 -9.09876,3.13512 -11.7189,5.20793l-2.33299 2.33299 0 60.9416z"/>
  <path fill="#99D6C9" d="M1131.66 945.158l-17.16 0 0 -29.6865 17.16 0 0 -14.5626c0,-32.0195 15.8796,-43.7481 43.7438,-43.7481 8.34737,0 14.6047,0.796735 21.3801,1.56756l0 32.2699c-2.36538,-0.510645 -5.49618,-1.01589 -7.82917,-1.01589 -10.6717,-0.00431835 -15.1142,3.38559 -15.1142,11.1813l0 14.3078 22.9434 0 0 29.6865 -22.9434 0 0 101.013 -42.1806 0 0 -101.013z"/>
  <path fill="#B0DFD5" d="M1240.28 964.174c0,-5.21333 -0.291489,-11.4739 -2.08144,-16.3946 -2.10627,-5.20901 -5.46811,-8.84938 -12.2393,-8.84938 -14.0897,-0.00431835 -15.6303,17.16 -15.6303,43.2018 0,29.4306 4.67029,39.0498 15.6303,39.0498 14.8271,0 16.1344,-15.0818 16.1344,-24.9881l32.7892 4.66058c-3.09734,31.7971 -21.3478,48.4789 -52.0545,48.4789 -38.0252,0 -57.8108,-33.3592 -57.8108,-65.6335 0,-35.6652 19.7802,-71.3532 59.6288,-71.3532 44.8061,0 51.5449,38.7863 51.5449,51.8277l-35.9114 0z"/>
  <path fill="#CCEBE4" d="M1258.24 964.267c9.33087,0 16.97,7.63808 16.97,17.0024 0,9.33087 -7.63916,17.0013 -16.97,17.0013 -9.39673,-0.00431835 -17.0024,-7.67047 -17.0024,-17.0013 0.00431835,-9.36434 7.60569,-16.9981 17.0024,-17.0024z"/>
  <path fill="#63C1AC" d="M670.901 921.519c13.1019,11.4976 19.9702,32.7525 19.9702,57.7687 0,29.9424 -12.4941,68.4448 -47.9175,68.4448 -16.386,0 -27.0804,-7.79138 -35.4051,-20.2898l-7.81081 18.7276 -6.7431 0 27.0523 -43.2807 0 1.38727c-0.78378,10.9265 5.73261,16.9042 13.8025,16.9042 11.7103,0 13.2778,-11.6962 13.2778,-35.92l0 -9.90629c0,-5.80602 -0.00431835,-11.0053 -0.147903,-15.5547l23.9215 -38.2811z"/>
  <path fill="#7FCCBB" d="M708.847 860.806l0.0377856 0 0 62.2393 0.509565 0c5.97336,-6.26484 16.9139,-10.6987 25.5128,-10.6987 29.1586,0 44.7694,29.1715 44.7694,66.942 0.00431835,29.9424 -12.4951,68.4448 -47.9002,68.4448 -16.4086,0 -27.0847,-7.79138 -35.4234,-20.2898l-7.81513 18.7276 -21.8573 0 0 -117.894 42.1665 -67.471zm0.0377856 143.472c-0.803213,10.9265 5.71318,16.9042 13.7831,16.9042 11.7157,0 13.2778,-11.6962 13.2778,-35.92l0.00539794 -9.90629c0,-26.0083 -0.00539794,-39.5604 -13.0285,-39.5604 -5.20361,-0.00431835 -9.10848,3.13512 -11.7103,5.20793l-2.32759 2.33299 0 60.9416z"/>
  <path fill="#99D6C9" d="M756.691 945.158l-17.1784 0 0 -29.6865 17.1784 0 0 -14.5626c0,-32.0195 15.8753,-43.7481 43.7395,-43.7481 8.3247,0 14.5906,0.796735 21.3618,1.56756l0.00431835 32.2699c-2.35134,-0.510645 -5.48214,-1.01589 -7.81405,-1.01589 -10.6858,-0.00431835 -15.1153,3.38559 -15.1153,11.1813l0 14.3078 22.9294 0 0 29.6865 -22.9294 0 0 101.013 -42.1762 0 0 -101.013z"/>
  <path fill="#B0DFD5" d="M865.3 964.174c0,-5.21333 -0.28717,-11.4739 -2.09116,-16.3946 -2.09224,-5.20901 -5.46379,-8.84938 -12.2393,-8.84938 -14.0767,-0.00431835 -15.6249,17.16 -15.6249,43.2018 0,29.4306 4.67893,39.0498 15.6249,39.0498 14.8454,0 16.1387,-15.0818 16.1387,-24.9881l32.8033 4.66058c-3.11569,31.7971 -21.3478,48.4789 -52.0728,48.4789 -38.0123,0 -57.7925,-33.3592 -57.7925,-65.6335 0,-35.6652 19.7802,-71.3532 59.6288,-71.3532 44.7921,0 51.5449,38.7863 51.5449,51.8277l-35.92 0z"/>
  <path fill="#CCEBE4" d="M883.248 964.267c9.34491,0 16.9797,7.63808 16.9797,17.0024 0.00431835,9.33087 -7.63484,17.0013 -16.9841,17.0013 -9.37298,-0.00431835 -16.9841,-7.67047 -16.9841,-17.0013 0.00539794,-9.36434 7.60677,-16.9981 16.9884,-17.0024z"/>
  <path fill="#63C1AC" d="M1327.84 860.806l42.1806 0 0 62.2393 0.510645 0c6.01006,-6.26484 16.9376,-10.6987 25.5312,-10.6987 29.1812,0 44.8061,29.1715 44.8061,66.942 0,29.9424 -12.5318,68.4448 -47.9369,68.4448 -16.3903,0 -27.0663,-7.79138 -35.4051,-20.2898l-7.7957 18.7276 -21.8908 0 0 -185.365zm42.1806 143.472c-0.765427,10.9265 5.71857,16.9042 13.8025,16.9042 11.7016,0 13.2962,-11.6962 13.2962,-35.92l0 -9.90629c0,-26.0083 0,-39.5604 -13.0414,-39.5604 -5.20793,-0.00431835 -9.10416,3.13512 -11.7243,5.20793l-2.33299 2.33299 0 60.9416z"/>
  <path fill="#7FCCBB" d="M1416.67 860.806l42.186 0 0 62.2393 0.510645 0c5.97336,-6.26484 16.8999,-10.6987 25.5258,-10.6987 29.1445,0 44.7694,29.1715 44.7694,66.942 0,29.9424 -12.4941,68.4448 -47.8991,68.4448 -16.4227,0 -27.0998,-7.79138 -35.4428,-20.2898l-7.79138 18.7276 -21.8584 0 0 -185.365zm42.186 143.472c-0.802133,10.9265 5.71426,16.9042 13.7647,16.9042 11.7297,0 13.2973,-11.6962 13.2973,-35.92l0 -9.90629c0,-26.0083 0,-39.5604 -13.009,-39.5604 -5.236,-0.00431835 -9.13655,3.13512 -11.7297,5.20793l-2.32327 2.33299 0 60.9416z"/>
  <path fill="#99D6C9" d="M1506.66 945.158l-17.1557 0 0 -29.6865 17.1557 0 0 -14.5626c0,-28.7408 12.7909,-41.142 35.567,-43.3778l20.2865 32.46c-9.63316,0.292568 -13.673,3.73429 -13.673,11.1726l0.00539794 14.3078 22.9099 0 0 29.6865 -22.9099 0 0 101.013 -42.186 0 0 -101.013z"/>
  <path fill="#B0DFD5" d="M1594.21 940.706c-7.87019,5.02764 -8.87637,20.3135 -8.87637,41.4259 0,29.4306 4.66598,39.0498 15.5968,39.0498 14.8594,0 16.1355,-15.0818 16.1355,-24.9881l12.9712 1.8407 14.7806 23.6484c-7.85184,18.2083 -23.8891,27.6504 -46.9901,27.6504 -38.0252,0 -57.8054,-33.3592 -57.8054,-65.6335 0,-28.7829 12.8784,-57.5884 38.7906,-67.6297l15.3971 24.6362z"/>
  <path fill="#CCEBE4" d="M1629.98 997.947c-7.84752,-1.52654 -13.7507,-8.44561 -13.7507,-16.6775 0,-1.52222 0.184609,-3.00557 0.565704,-4.41119l13.185 21.0887z"/>
  <path fill="#63C1AC" d="M952.848 647.137l42.1762 0 0 62.2533 0.514963 0c6.00574,-6.26592 16.9333,-10.6717 25.5312,-10.6717 29.1726,0 44.8018,29.1435 44.8018,66.9236 0,29.937 -12.4995,68.4448 -47.9369,68.4448 -16.3903,0 -27.0804,-7.7957 -35.4051,-20.2898l-7.81513 18.76 -21.867 0 0 -185.42zm42.1762 143.494c-0.78378,10.9265 5.73693,16.9322 13.8068,16.9322 11.7157,0 13.2778,-11.7243 13.2778,-35.9481l0 -9.90629c0,-26.0181 0,-39.5647 -13.022,-39.5647 -5.19066,-0.00539794 -9.10956,3.12972 -11.7114,5.20361l-2.35134 2.33191 0 60.9513z"/>
  <path fill="#7FCCBB" d="M1041.68 647.137l42.1816 0 0 62.2533 0.509565 0c5.97875,-6.26592 16.9279,-10.6717 25.5225,-10.6717 29.1489,0 44.7737,29.1435 44.7737,66.9236 0,29.937 -12.4951,68.4448 -47.9045,68.4448 -16.413,0 -27.089,-7.7957 -35.4288,-20.2898l-7.7957 18.76 -21.8584 0 0 -185.42zm42.1816 143.494c-0.797815,10.9265 5.71857,16.9322 13.7971,16.9322 11.6962,0 13.2595,-11.7243 13.2595,-35.9481l0 -9.90629c0,-26.0181 0,-39.5647 -13.0047,-39.5647 -5.19821,-0.00539794 -9.09876,3.12972 -11.7189,5.20361l-2.33299 2.33191 0 60.9513z"/>
  <path fill="#99D6C9" d="M1131.66 731.503l-17.16 0 0 -29.6865 17.16 0 0 -14.5723c0,-32.0195 15.8796,-43.7438 43.7438,-43.7438 8.34737,0 14.6047,0.797815 21.3801,1.56216l0 32.2753c-2.36538,-0.510645 -5.49618,-1.02021 -7.82917,-1.02021 -10.6717,0 -15.1142,3.38559 -15.1142,11.1856l0 14.3132 22.9434 0 0 29.6865 -22.9434 0 0 101.054 -42.1806 0 0 -101.054z"/>
  <path fill="#B0DFD5" d="M1240.28 750.518c0,-5.20793 -0.291489,-11.4415 -2.08144,-16.3946 -2.10627,-5.20793 -5.46811,-8.84938 -12.2393,-8.84938 -14.0897,0 -15.6303,17.16 -15.6303,43.2105 0,29.4274 4.67029,39.0789 15.6303,39.0789 14.8271,0 16.1344,-15.1099 16.1344,-25.0162l32.7892 4.69728c-3.09734,31.7604 -21.3478,48.4422 -52.0545,48.4422 -38.0252,-0.00431835 -57.8108,-33.3592 -57.8108,-65.6335 0,-35.675 19.7802,-71.3348 59.6288,-71.3348 44.8061,0 51.5449,38.7626 51.5449,51.7997l-35.9114 0z"/>
  <path fill="#CCEBE4" d="M1258.24 750.611c9.33087,0 16.97,7.63808 16.97,17.0111 0,9.33195 -7.63916,16.9981 -16.97,16.9981 -9.39673,0 -17.0024,-7.66615 -17.0024,-16.9981 0.00431835,-9.37298 7.60569,-17.0067 17.0024,-17.0111z"/>
  <path fill="#7FCCBB" d="M778.605 749.197c0.700652,5.236 1.07203,10.7451 1.07203,16.4454 0.00431835,29.937 -12.4951,68.4448 -47.9002,68.4448 -2.08684,0 -4.08516,-0.133869 -5.99171,-0.380015l52.8199 -84.5101z"/>
  <polygon fill="#99D6C9" points="808.218,701.817 821.797,701.817 821.797,731.503 798.868,731.503 798.868,832.557 756.691,832.557 756.691,784.259 "/>
  <path fill="#B0DFD5" d="M865.3 750.518c0,-5.20793 -0.28717,-11.4415 -2.09116,-16.3946 -2.09224,-5.20793 -5.46379,-8.84938 -12.2393,-8.84938 -14.0767,0 -15.6249,17.16 -15.6249,43.2105 0,29.4274 4.67893,39.0789 15.6249,39.0789 14.8454,0 16.1387,-15.1099 16.1387,-25.0162l32.8033 4.69728c-3.11569,31.7604 -21.3478,48.4422 -52.0728,48.4422 -38.0123,-0.00431835 -57.7925,-33.3592 -57.7925,-65.6335 0,-35.675 19.7802,-71.3348 59.6288,-71.3348 44.7921,0 51.5449,38.7626 51.5449,51.7997l-35.92 0z"/>
  <path fill="#CCEBE4" d="M883.248 750.611c9.34491,0 16.9797,7.63808 16.9797,17.0111 0.00431835,9.33195 -7.63484,16.9981 -16.9841,16.9981 -9.37298,0 -16.9841,-7.66615 -16.9841,-16.9981 0.00539794,-9.37298 7.60677,-17.0067 16.9884,-17.0111z"/>
  <path fill="#63C1AC" d="M1327.84 647.137l42.1806 0 0 62.2533 0.510645 0c6.01006,-6.26592 16.9376,-10.6717 25.5312,-10.6717 29.1812,0 44.8061,29.1435 44.8061,66.9236 0,29.937 -12.5318,68.4448 -47.9369,68.4448 -16.3903,0 -27.0663,-7.7957 -35.4051,-20.2898l-7.7957 18.76 -21.8908 0 0 -185.42zm42.1806 143.494c-0.765427,10.9265 5.71857,16.9322 13.8025,16.9322 11.7016,0 13.2962,-11.7243 13.2962,-35.9481l0 -9.90629c0,-26.0181 0,-39.5647 -13.0414,-39.5647 -5.20793,-0.00539794 -9.10416,3.12972 -11.7243,5.20361l-2.33299 2.33191 0 60.9513z"/>
  <path fill="#7FCCBB" d="M1516.08 815.703c-7.59706,10.9081 -18.7276,18.3843 -34.3147,18.3843 -16.4227,0 -27.0998,-7.7957 -35.4428,-20.2898l-7.79138 18.76 -21.8584 0 0 -175.904 44.3106 70.8933 -2.12463 2.13326 0 60.9513c-0.802133,10.9265 5.71426,16.9322 13.7647,16.9322 11.7297,0 13.2973,-11.7243 13.2973,-35.9481l0 -4.16937 30.1593 48.2565z"/>
  <polygon fill="#99D6C9" points="1526.61,832.557 1506.66,832.557 1506.66,800.625 "/>
  <path fill="#63C1AC" d="M975.921 433.486l19.1033 0 0 62.249 0.514963 0c6.00574,-6.26053 16.9333,-10.6717 25.5312,-10.6717 29.1726,0 44.8018,29.1445 44.8018,66.915 0,29.9413 -12.4995,68.4815 -47.9369,68.4815 -16.3903,0 -27.0804,-7.80002 -35.4051,-20.3222l-7.81513 18.7503 -21.867 0 0 -148.484 23.0729 -36.9176zm19.1033 143.48c-0.78378,10.9459 5.73693,16.9376 13.8068,16.9376 11.7157,0 13.2778,-11.7243 13.2778,-35.9481l0 -9.89226c0,-26.0278 0,-39.5744 -13.022,-39.5744 -5.19066,0 -9.10956,3.1308 -11.7114,5.20793l-2.35134 2.34702 0 60.9222z"/>
  <path fill="#7FCCBB" d="M1041.68 433.486l42.1816 0 0 62.249 0.509565 0c5.97875,-6.26053 16.9279,-10.6717 25.5225,-10.6717 29.1489,0 44.7737,29.1445 44.7737,66.915 0,29.9413 -12.4951,68.4815 -47.9045,68.4815 -16.413,0 -27.089,-7.80002 -35.4288,-20.3222l-7.7957 18.7503 -21.8584 0 0 -185.402zm42.1816 143.48c-0.797815,10.9459 5.71857,16.9376 13.7971,16.9376 11.6962,0 13.2595,-11.7243 13.2595,-35.9481l0 -9.89226c0,-26.0278 0,-39.5744 -13.0047,-39.5744 -5.19821,0 -9.09876,3.1308 -11.7189,5.20793l-2.33299 2.34702 0 60.9222z"/>
  <path fill="#99D6C9" d="M1131.66 517.848l-17.16 0 0 -29.6725 17.16 0 0 -14.5863c0,-32.0195 15.8796,-43.7438 43.7438,-43.7438 8.34737,-0.00431835 14.6047,0.797815 21.3801,1.56324l0 32.2926c-2.36538,-0.528998 -5.49618,-1.03856 -7.82917,-1.03856 -10.6717,0 -15.1142,3.38559 -15.1142,11.1867l0 14.3261 22.9434 0 0 29.6725 -22.9434 0 0 101.04 -42.1806 0 0 -101.04z"/>
  <path fill="#B0DFD5" d="M1240.28 536.863c0,-5.19389 -0.291489,-11.4415 -2.08144,-16.3892 -2.10627,-5.21333 -5.46811,-8.8537 -12.2393,-8.8537 -14.0897,-0.00539794 -15.6303,17.1741 -15.6303,43.2008 0,29.4317 4.67029,39.0832 15.6303,39.0832 14.8271,0 16.1344,-15.1142 16.1344,-25.0216l32.7892 4.69405c-3.09734,31.7647 -21.3478,48.4465 -52.0545,48.4465 -38.0252,0 -57.8108,-33.3409 -57.8108,-65.6162 0,-35.6825 19.7802,-71.3434 59.6288,-71.3434 44.8061,0 51.5449,38.7766 51.5449,51.7997l-35.9114 0z"/>
  <path fill="#CCEBE4" d="M1258.24 536.955c9.33087,0 16.97,7.64348 16.97,17.0024 0,9.34491 -7.63916,17.0024 -16.97,17.0024 -9.39673,0 -17.0024,-7.65211 -17.0024,-17.0024 0.00431835,-9.36326 7.60569,-16.997 17.0024,-17.0024z"/>
  <path fill="#B0DFD5" d="M889.314 572.059l10.5972 1.51682c-2.73567,27.8685 -17.1125,44.1238 -41.3504,47.6908l30.7531 -49.2076z"/>
  <path fill="#CCEBE4" d="M900.208 554.63c-0.240748,6.14933 -3.80231,11.4836 -8.91847,14.2711l8.91847 -14.2711z"/>
  <path fill="#63C1AC" d="M1394.04 620.437l-1.11305 0.0226713c-16.3903,0 -27.0663,-7.80002 -35.4051,-20.3222l-7.7957 18.7503 -21.8908 0 0 -104.379 42.431 67.8931c0.775144,4.24386 2.89437,7.36926 5.8017,9.28553l17.9719 28.7494z"/>
  <path fill="#63C1AC" d="M1059.23 300.19c4.38312,10.7279 6.64162,23.8157 6.64162,38.1321 0,29.9424 -12.4995,68.4825 -47.9369,68.4825 -8.59783,-0.00431835 -15.6389,-2.16133 -21.5799,-6.01114l12.8471 -20.5543c8.45965,-0.185689 11.4739,-6.73015 12.4617,-19.9378l37.5664 -60.1114z"/>
  <path fill="#7FCCBB" d="M1083.86 260.783l0 21.2959 0.509565 0c5.97875,-6.26053 16.9279,-10.6706 25.5225,-10.6706 29.1489,-0.00539794 44.7737,29.1618 44.7737,66.9139 0,29.9424 -12.4951,68.4825 -47.9045,68.4825 -16.413,-0.00431835 -27.089,-7.79678 -35.4288,-20.3232l-7.7957 18.7557 -21.8584 0 0 -76.9649 42.1816 -67.4893zm0 102.528c-0.797815,10.9449 5.71857,16.9366 13.7971,16.9366 11.6962,0 13.2595,-11.7243 13.2595,-35.947l0 -9.89334c0,-26.0267 0,-39.5744 -13.0047,-39.5744 -5.19821,0 -9.09876,3.1308 -11.7189,5.20901l-2.33299 2.36538 0 60.9038z"/>
  <path fill="#99D6C9" d="M1131.66 304.192l-17.16 0 0 -29.6541 17.16 0 0 -14.5993c0,-18.0183 5.02224,-29.6131 14.3812,-36.3l27.7994 44.4812 0 6.41815 4.01175 0 18.5322 29.6541 -22.5439 0 0 101.045 -42.1806 0 0 -101.045z"/>
  <path fill="#B0DFD5" d="M1210.58 326.909c-0.204042,4.37341 -0.250464,9.1549 -0.250464,14.2754 0,29.4134 4.67029,39.0638 15.6303,39.0638 6.88237,0 10.8423,-3.26467 13.1202,-7.74496l16.5566 26.4909c-8.42726,6.20115 -19.4326,9.37837 -32.8076,9.37837 -38.0252,-0.00431835 -57.8108,-33.3323 -57.8108,-65.6065 0,-21.0185 6.8543,-42.038 20.6288,-55.7564l24.9331 39.8994z"/>
  <path fill="#1F1A17" d="M1063.27 1561.44c-123.733,0 -224.888,-83.5968 -224.888,-214.036l0.00431835 -386.247 146.31 0 0 382.89c0,55.1853 30.0805,86.95 78.5734,86.95 48.4929,0 80.2716,-31.7647 80.2716,-86.95l0.00431835 -382.89 146.306 0 0 386.247c0,130.439 -102.835,214.036 -226.582,214.036z"/>
  <path fill="#1F1A17" d="M1416.98 1559.47c-45.7983,0 -80.5642,-15.4489 -109.263,-44.1292 -41.3784,-41.3838 -39.718,-96.5691 -39.718,-155.608 0.00431835,-59.0394 -1.66041,-114.225 39.718,-155.608 28.6987,-28.6987 63.4646,-44.1281 109.259,-44.1281 74.4872,0 134.627,41.3644 148.975,128.013l-98.2014 0c-6.0662,-22.0808 -18.2126,-41.9452 -50.2321,-41.9452 -17.6329,0 -30.9021,7.17494 -38.0576,16.5393 -8.8537,11.5991 -14.8918,25.4059 -14.8918,97.1294 0.00431835,71.7245 6.03813,85.526 14.8918,97.1305 7.1555,9.35894 20.4204,16.5198 38.0576,16.5198 32.0195,0 44.1616,-19.845 50.2321,-41.9258l98.2057 0c-14.3488,86.6477 -74.4926,128.013 -148.975,128.013z"/>
  <path fill="white" d="M1016.89 1515.07c-123.728,0 -224.889,-83.6248 -224.889,-214.036l0.00431835 -386.248 146.306 0 0 382.89c0,55.1907 30.0849,86.9554 78.5788,86.9554 48.4929,-0.00539794 80.2706,-31.7647 80.2706,-86.9554l0.00539794 -382.89 146.319 0 0 386.248c0,130.406 -102.849,214.036 -226.595,214.036z"/>
  <path fill="white" d="M1383.58 1515.07c-45.8263,0 -80.5642,-15.4489 -109.291,-44.1432 -41.346,-41.3838 -39.6856,-96.5734 -39.6856,-155.608 0,-59.0577 -1.66472,-114.225 39.6856,-155.608 28.7321,-28.6987 63.4646,-44.1335 109.291,-44.1335 74.4883,0 134.627,41.3838 148.977,127.986l-98.1971 -0.00539794c-6.1083,-22.0484 -18.2504,-41.9215 -50.2375,-41.9215 -17.6372,-0.00431835 -30.901,7.17494 -38.0576,16.5533 -8.8537,11.5797 -14.9242,25.3735 -14.9242,97.1294 0,71.7191 6.07052,85.526 14.9242,97.0927 7.1609,9.39673 20.4204,16.5576 38.0576,16.5576 31.9871,0 44.1292,-19.8644 50.2332,-41.9258l98.2014 -0.00539794c-14.3456,86.6488 -74.4883,128.033 -148.977,128.033z"/>
 </g>
</svg>
